<?xml version="1.0" encoding="UTF-8"?>
<svg width="34px" height="46px" viewBox="0 0 34 46" version="1.1" xmlns="http://www.w3.org/2000/svg" xmlns:xlink="http://www.w3.org/1999/xlink">
    <!-- Generator: Sketch 48.1 (47250) - http://www.bohemiancoding.com/sketch -->
    <title>Group</title>
    <desc>Created with Sketch.</desc>
    <defs>
        <linearGradient x1="94.9305122%" y1="-16.5997327%" x2="4.45157258%" y2="107.650861%" id="linearGradient-1">
            <stop stop-color="#1DC6DA" offset="0%"></stop>
            <stop stop-color="#05C0F3" offset="30.6188491%"></stop>
            <stop stop-color="#05BFF3" offset="63.1949868%"></stop>
            <stop stop-color="#05DEF9" offset="100%"></stop>
        </linearGradient>
    </defs>
    <g id="Landing-MHT-Warm-Floor" stroke="none" stroke-width="1" fill="none" fill-rule="evenodd" stroke-linecap="round" stroke-linejoin="round">
        <g id="Group" transform="translate(1.000000, 1.000000)" stroke="url(#linearGradient-1)" stroke-width="2">
            <path d="M4,8 L6,0 L22,0 L24,8 M24,36 L22,44 L6,44 L4,36 M24,36 L4,36 C1.791,36 0,34.209 0,32 L0,12 C0,9.791 1.791,8 4,8 L24,8 C26.209,8 28,9.791 28,12 L28,32 C28,34.209 26.209,36 24,36 L24,36 Z M28,18 L32,18 L32,26 L28,26 M14,16 L14,22 L20,22" id="Combined-Shape"></path>
        </g>
    </g>
</svg>