<?xml version="1.0" encoding="UTF-8"?>
<svg width="43px" height="43px" viewBox="0 0 43 43" version="1.1" xmlns="http://www.w3.org/2000/svg" xmlns:xlink="http://www.w3.org/1999/xlink">
    <!-- Generator: Sketch 48.1 (47250) - http://www.bohemiancoding.com/sketch -->
    <title>Group 9</title>
    <desc>Created with Sketch.</desc>
    <defs>
        <linearGradient x1="94.9305122%" y1="-16.5997327%" x2="4.45157258%" y2="107.650861%" id="linearGradient-1">
            <stop stop-color="#1DC6DA" offset="0%"></stop>
            <stop stop-color="#05C0F3" offset="30.6188491%"></stop>
            <stop stop-color="#05BFF3" offset="63.1949868%"></stop>
            <stop stop-color="#05DEF9" offset="100%"></stop>
        </linearGradient>
    </defs>
    <g id="Landing-MHT-Warm-Floor" stroke="none" stroke-width="1" fill="none" fill-rule="evenodd" stroke-linecap="round" stroke-linejoin="round">
        <g id="Group-9" transform="translate(1.000000, 1.000000)" stroke="url(#linearGradient-1)" stroke-width="2">
            <g id="Group-5">
                <g id="Group-2">
                    <path d="M11,12 C19.485,3.515 41,0 41,0 C41,0 38.019,14.643 33.211,24.001 L27,22 L29,30 C19.125,39.875 7.686,33.314 7.686,33.314 C7.686,33.314 1.062,21.938 11,12 L11,12 Z M16.2928932,23.2928932 C16.6834175,22.9023689 17.3165825,22.9023689 17.7071068,23.2928932 C18.0976311,23.6834175 18.0976311,24.3165825 17.7071068,24.7071068 L1.70710678,40.7071068 C1.31658249,41.0976311 0.683417511,41.0976311 0.292893219,40.7071068 C-0.0976310729,40.3165825 -0.0976310729,39.6834175 0.292893219,39.2928932 L16.2928932,23.2928932 Z" id="Combined-Shape"></path>
                </g>
            </g>
        </g>
    </g>
</svg>