<?xml version="1.0" encoding="UTF-8"?>
<svg width="34px" height="34px" viewBox="0 0 34 34" version="1.1" xmlns="http://www.w3.org/2000/svg" xmlns:xlink="http://www.w3.org/1999/xlink">
    <!-- Generator: Sketch 48.1 (47250) - http://www.bohemiancoding.com/sketch -->
    <title>Group 5</title>
    <desc>Created with Sketch.</desc>
    <defs>
        <linearGradient x1="94.9305122%" y1="-16.5997327%" x2="4.45157258%" y2="107.650861%" id="linearGradient-1">
            <stop stop-color="#1DC6DA" offset="0%"></stop>
            <stop stop-color="#05C0F3" offset="30.6188491%"></stop>
            <stop stop-color="#05BFF3" offset="63.1949868%"></stop>
            <stop stop-color="#05DEF9" offset="100%"></stop>
        </linearGradient>
    </defs>
    <g id="Landing-MHT-Warm-Floor" stroke="none" stroke-width="1" fill="none" fill-rule="evenodd">
        <g id="Group-5" fill="url(#linearGradient-1)" fill-rule="nonzero">
            <path d="M33.5303301,32.4696699 C33.8232233,32.7625631 33.8232233,33.2374369 33.5303301,33.5303301 C33.2374369,33.8232233 32.7625631,33.8232233 32.4696699,33.5303301 L27.8982413,28.9589015 C27.6053481,28.6660083 27.6053481,28.1911346 27.8982413,27.8982413 C28.1911346,27.6053481 28.6660083,27.6053481 28.9589015,27.8982413 L33.5303301,32.4696699 Z M1.75,14.7142857 C1.75,21.8741674 7.55440404,27.6785714 14.7142857,27.6785714 C21.8741674,27.6785714 27.6785714,21.8741674 27.6785714,14.7142857 C27.6785714,7.55440404 21.8741674,1.75 14.7142857,1.75 C7.55440404,1.75 1.75,7.55440404 1.75,14.7142857 Z M0.25,14.7142857 C0.25,6.72597691 6.72597691,0.25 14.7142857,0.25 C22.7025945,0.25 29.1785714,6.72597691 29.1785714,14.7142857 C29.1785714,22.7025945 22.7025945,29.1785714 14.7142857,29.1785714 C6.72597691,29.1785714 0.25,22.7025945 0.25,14.7142857 Z M13.9642857,10.1428571 C13.9642857,9.72864358 14.3000722,9.39285714 14.7142857,9.39285714 C15.1284993,9.39285714 15.4642857,9.72864358 15.4642857,10.1428571 L15.4642857,19.2857143 C15.4642857,19.6999278 15.1284993,20.0357143 14.7142857,20.0357143 C14.3000722,20.0357143 13.9642857,19.6999278 13.9642857,19.2857143 L13.9642857,10.1428571 Z M19.2857143,13.9642857 C19.6999278,13.9642857 20.0357143,14.3000722 20.0357143,14.7142857 C20.0357143,15.1284993 19.6999278,15.4642857 19.2857143,15.4642857 L10.1428571,15.4642857 C9.72864358,15.4642857 9.39285714,15.1284993 9.39285714,14.7142857 C9.39285714,14.3000722 9.72864358,13.9642857 10.1428571,13.9642857 L19.2857143,13.9642857 Z" id="Combined-Shape"></path>
        </g>
    </g>
</svg>