<?xml version="1.0" encoding="UTF-8"?>
<svg width="28px" height="34px" viewBox="0 0 28 34" version="1.1" xmlns="http://www.w3.org/2000/svg" xmlns:xlink="http://www.w3.org/1999/xlink">
    <!-- Generator: Sketch 47 (45396) - http://www.bohemiancoding.com/sketch -->
    <title>Group 2</title>
    <desc>Created with Sketch.</desc>
    <defs>
        <linearGradient x1="94.9305122%" y1="-16.5997327%" x2="4.45157258%" y2="107.650861%" id="linearGradient-1">
            <stop stop-color="#1DC6DA" offset="0%"></stop>
            <stop stop-color="#05C0F3" offset="30.6188491%"></stop>
            <stop stop-color="#05BFF3" offset="63.1949868%"></stop>
            <stop stop-color="#05DEF9" offset="100%"></stop>
        </linearGradient>
    </defs>
    <g id="Landing-MHT-Warm-Floor" stroke="none" stroke-width="1" fill="none" fill-rule="evenodd">
        <g id="AHT-9" transform="translate(-206.000000, -379.000000)" fill-rule="nonzero" fill="url(#linearGradient-1)">
            <g id="Group-2" transform="translate(207.000000, 380.000000)">
                <path d="M26,24.0227273 C26.4142136,24.0227273 26.75,23.6869408 26.75,23.2727273 C26.75,22.8585137 26.4142136,22.5227273 26,22.5227273 L17.3333333,22.5227273 C16.9191198,22.5227273 16.5833333,22.8585137 16.5833333,23.2727273 L16.5833333,32 C16.5833333,32.4142136 16.9191198,32.75 17.3333333,32.75 C17.7475469,32.75 18.0833333,32.4142136 18.0833333,32 L18.0833333,24.0227273 L26,24.0227273 Z" id="Stroke-641"></path>
                <path d="M17.0211413,31.25 L25.25,22.9635968 L25.25,0.75 L0.75,0.75 L0.75,31.25 L17.0211413,31.25 Z M17.3333333,32.75 L0,32.75 C-0.414213562,32.75 -0.75,32.4142136 -0.75,32 L-0.75,0 C-0.75,-0.414213562 -0.414213562,-0.75 0,-0.75 L26,-0.75 C26.4142136,-0.75 26.75,-0.414213562 26.75,0 L26.75,23.2727273 C26.75,23.4707343 26.6716981,23.6607072 26.5321747,23.8012063 L17.865508,32.528479 C17.7247085,32.6702632 17.5331514,32.75 17.3333333,32.75 Z" id="Stroke-642"></path>
                <path d="M5.77777778,8.02272727 L20.2222222,8.02272727 C20.6364358,8.02272727 20.9722222,7.68694084 20.9722222,7.27272727 C20.9722222,6.85851371 20.6364358,6.52272727 20.2222222,6.52272727 L5.77777778,6.52272727 C5.36356422,6.52272727 5.02777778,6.85851371 5.02777778,7.27272727 C5.02777778,7.68694084 5.36356422,8.02272727 5.77777778,8.02272727 Z" id="Stroke-643"></path>
                <path d="M5.77777778,15.2954545 L20.2222222,15.2954545 C20.6364358,15.2954545 20.9722222,14.9596681 20.9722222,14.5454545 C20.9722222,14.131241 20.6364358,13.7954545 20.2222222,13.7954545 L5.77777778,13.7954545 C5.36356422,13.7954545 5.02777778,14.131241 5.02777778,14.5454545 C5.02777778,14.9596681 5.36356422,15.2954545 5.77777778,15.2954545 Z" id="Stroke-644"></path>
                <path d="M5.77777778,22.5681818 L11.5555556,22.5681818 C11.9697691,22.5681818 12.3055556,22.2323954 12.3055556,21.8181818 C12.3055556,21.4039683 11.9697691,21.0681818 11.5555556,21.0681818 L5.77777778,21.0681818 C5.36356422,21.0681818 5.02777778,21.4039683 5.02777778,21.8181818 C5.02777778,22.2323954 5.36356422,22.5681818 5.77777778,22.5681818 Z" id="Stroke-645"></path>
            </g>
        </g>
    </g>
</svg>