<?xml version="1.0" encoding="UTF-8"?>
<svg width="40px" height="31px" viewBox="0 0 40 31" version="1.1" xmlns="http://www.w3.org/2000/svg" xmlns:xlink="http://www.w3.org/1999/xlink">
    <!-- Generator: Sketch 47 (45396) - http://www.bohemiancoding.com/sketch -->
    <title>Group 10</title>
    <desc>Created with Sketch.</desc>
    <defs>
        <linearGradient x1="94.9305122%" y1="-16.5997327%" x2="4.45157258%" y2="107.650861%" id="linearGradient-1">
            <stop stop-color="#1DC6DA" offset="0%"></stop>
            <stop stop-color="#05C0F3" offset="30.6188491%"></stop>
            <stop stop-color="#05BFF3" offset="63.1949868%"></stop>
            <stop stop-color="#05DEF9" offset="100%"></stop>
        </linearGradient>
    </defs>
    <g id="Landing-MHT-Warm-Floor" stroke="none" stroke-width="1" fill="none" fill-rule="evenodd">
        <g id="AHT-9" transform="translate(-931.000000, -304.000000)" fill-rule="nonzero" fill="url(#linearGradient-1)">
            <g id="Group-10" transform="translate(931.992098, 305.502529)">
                <path d="M0,7.75 L38,7.75 C38.4142136,7.75 38.75,7.41421356 38.75,7 C38.75,6.58578644 38.4142136,6.25 38,6.25 L0,6.25 C-0.414213562,6.25 -0.75,6.58578644 -0.75,7 C-0.75,7.41421356 -0.414213562,7.75 0,7.75 Z" id="Stroke-705"></path>
                <path d="M0,14.75 L38,14.75 C38.4142136,14.75 38.75,14.4142136 38.75,14 C38.75,13.5857864 38.4142136,13.25 38,13.25 L0,13.25 C-0.414213562,13.25 -0.75,13.5857864 -0.75,14 C-0.75,14.4142136 -0.414213562,14.75 0,14.75 Z" id="Stroke-706"></path>
                <path d="M34.5456273,27.25 C36.036976,27.25 37.2501727,26.0208402 37.2501727,24.5 L37.2501727,2.625 C37.2501727,1.58715985 36.4238851,0.75 35.4092636,0.75 L2.59108182,0.75 C1.57646037,0.75 0.750172727,1.58715985 0.750172727,2.625 L0.750172727,25.375 C0.750172727,26.4128402 1.57646037,27.25 2.59108182,27.25 L34.5456273,27.25 Z M2.59108182,28.75 C0.74361236,28.75 -0.749827273,27.2369098 -0.749827273,25.375 L-0.749827273,2.625 C-0.749827273,0.763090154 0.74361236,-0.75 2.59108182,-0.75 L35.4092636,-0.75 C37.2567331,-0.75 38.7501727,0.763090154 38.7501727,2.625 L38.7501727,24.5 C38.7501727,26.8449098 36.869824,28.75 34.5456273,28.75 L2.59108182,28.75 Z" id="Stroke-707"></path>
                <path d="M6.90909091,21.75 L15.5454545,21.75 C15.9596681,21.75 16.2954545,21.4142136 16.2954545,21 C16.2954545,20.5857864 15.9596681,20.25 15.5454545,20.25 L6.90909091,20.25 C6.49487735,20.25 6.15909091,20.5857864 6.15909091,21 C6.15909091,21.4142136 6.49487735,21.75 6.90909091,21.75 Z" id="Stroke-708"></path>
            </g>
        </g>
    </g>
</svg>