<?xml version="1.0" encoding="UTF-8"?>
<svg width="26px" height="18px" viewBox="0 0 26 18" version="1.1" xmlns="http://www.w3.org/2000/svg" xmlns:xlink="http://www.w3.org/1999/xlink">
    <!-- Generator: Sketch 48.1 (47250) - http://www.bohemiancoding.com/sketch -->
    <title>BY</title>
    <desc>Created with Sketch.</desc>
    <defs>
        <rect id="path-1" x="0" y="0" width="26" height="18"></rect>
    </defs>
    <g id="Landing-MHT-Warm-Floor" stroke="none" stroke-width="1" fill="none" fill-rule="evenodd">
        <g id="BY">
            <mask id="mask-2" fill="white">
                <use xlink:href="#path-1"></use>
            </mask>
            <use id="Mask" fill="#FFFFFF" xlink:href="#path-1"></use>
            <rect id="Rectangle-2" fill="#E54252" mask="url(#mask-2)" x="0" y="0" width="26" height="12"></rect>
            <rect id="Rectangle-2" fill="#5CBE6B" mask="url(#mask-2)" x="0" y="12" width="26" height="6"></rect>
            <path d="M3.71428571,15.3 L3.71428571,18 L0,18 L0,0 L3.71428571,0 L3.71428571,2.7 L3.0952381,3.6 L3.71428571,4.5 L3.71428571,6.3 L3.0952381,7.2 L3.71428571,8.1 L3.71428571,9.9 L3.0952381,10.8 L3.71428571,11.7 L3.71428571,13.5 L3.0952381,14.4 L3.71428571,15.3 Z" id="Rectangle-1512" fill="#FFFFFF" mask="url(#mask-2)"></path>
            <path d="M-1.85714286,3.6 L-0.619047619,1.8 L0.619047619,3.6 L-0.619047619,5.4 L-1.85714286,3.6 Z M-1.85714286,7.2 L-0.619047619,5.4 L0.619047619,7.2 L-0.619047619,9 L-1.85714286,7.2 Z M-1.85714286,10.8 L-0.619047619,9 L0.619047619,10.8 L-0.619047619,12.6 L-1.85714286,10.8 Z M-1.85714286,14.4 L-0.619047619,12.6 L0.619047619,14.4 L-0.619047619,16.2 L-1.85714286,14.4 Z" id="Rectangle-1513" fill="#E54252" mask="url(#mask-2)"></path>
            <path d="M0.619047619,1.8 L1.85714286,0 L3.0952381,1.8 L1.85714286,3.6 L0.619047619,1.8 Z M0.619047619,5.4 L1.85714286,3.6 L3.0952381,5.4 L1.85714286,7.2 L0.619047619,5.4 Z M0.619047619,9 L1.85714286,7.2 L3.0952381,9 L1.85714286,10.8 L0.619047619,9 Z M0.619047619,12.6 L1.85714286,10.8 L3.0952381,12.6 L1.85714286,14.4 L0.619047619,12.6 Z M0.619047619,16.2 L1.85714286,14.4 L3.0952381,16.2 L1.85714286,18 L0.619047619,16.2 Z" id="Rectangle-1513" fill="#E54252" mask="url(#mask-2)"></path>
        </g>
    </g>
</svg>