<?xml version="1.0" encoding="UTF-8"?>
<svg width="26px" height="18px" viewBox="0 0 26 18" version="1.1" xmlns="http://www.w3.org/2000/svg" xmlns:xlink="http://www.w3.org/1999/xlink">
    <!-- Generator: Sketch 48.1 (47250) - http://www.bohemiancoding.com/sketch -->
    <title>CN</title>
    <desc>Created with Sketch.</desc>
    <defs>
        <rect id="path-1" x="0" y="0" width="26" height="18"></rect>
    </defs>
    <g id="Landing-MHT-Warm-Floor" stroke="none" stroke-width="1" fill="none" fill-rule="evenodd">
        <g id="CN">
            <mask id="mask-2" fill="white">
                <use xlink:href="#path-1"></use>
            </mask>
            <use id="Mask" fill="#FFFFFF" xlink:href="#path-1"></use>
            <rect id="Mask" fill="#F1361D" mask="url(#mask-2)" x="0" y="0" width="26" height="18"></rect>
            <path d="M12.5362438,5.3795555 L11.7549328,5.8462024 L11.7829983,4.96022131 L11.3157024,4.20697191 L12.225661,4.2204445 L13.0069719,3.7537976 L12.9789065,4.63977869 L13.4462024,5.39302809 L12.5362438,5.3795555 Z M10.2607868,2.93927643 L9.36497606,2.77887321 L9.96741321,2.12862739 L10.1089166,1.25356913 L10.7868322,1.86072357 L11.682643,2.02112679 L11.0802058,2.67137261 L10.9387025,3.54643087 L10.2607868,2.93927643 Z M10.6992325,10.7737829 L9.93468328,11.2674128 L9.93181134,10.380992 L9.43851205,9.64450986 L10.3483865,9.62621715 L11.1129358,9.13258715 L11.1158077,10.019008 L11.609107,10.7554901 L10.6992325,10.7737829 Z M12.2767635,8.39088465 L11.3714418,8.48361409 L11.7713095,7.69250351 L11.6661325,6.81233992 L12.4851413,7.20911535 L13.390463,7.11638591 L12.9905953,7.90749649 L13.0957723,8.78766008 L12.2767635,8.39088465 Z" id="Star-2" fill="#FFDC42" mask="url(#mask-2)"></path>
            <polygon id="Star-8" fill="#FFDC42" mask="url(#mask-2)" points="6.19047619 7.40400006 4.00727382 8.91246118 4.81280284 6.43385988 2.65798056 4.88753882 5.33902723 4.86414009 6.19047619 2.4 7.04192515 4.86414009 9.72297182 4.88753882 7.56814954 6.43385988 8.37367856 8.91246118"></polygon>
        </g>
    </g>
</svg>