<?xml version="1.0" encoding="UTF-8"?>
<svg width="26px" height="18px" viewBox="0 0 26 18" version="1.1" xmlns="http://www.w3.org/2000/svg" xmlns:xlink="http://www.w3.org/1999/xlink">
    <!-- Generator: Sketch 48.1 (47250) - http://www.bohemiancoding.com/sketch -->
    <title>CY</title>
    <desc>Created with Sketch.</desc>
    <defs>
        <rect id="path-1" x="0" y="0" width="26" height="18"></rect>
    </defs>
    <g id="Landing-MHT-Warm-Floor" stroke="none" stroke-width="1" fill="none" fill-rule="evenodd">
        <g id="CY">
            <mask id="mask-2" fill="white">
                <use xlink:href="#path-1"></use>
            </mask>
            <g id="Mask">
                <use fill="#FFFFFF" fill-rule="evenodd" xlink:href="#path-1"></use>
                <rect stroke="#F5F5F5" stroke-width="0.5" x="0.25" y="0.25" width="25.5" height="17.5"></rect>
            </g>
            <path d="M19.2049839,2.69296932 C19.5388621,2.53116683 19.637372,2.65028229 19.431327,2.94983997 L18.9496254,3.65016003 C18.740753,3.95382826 18.3132008,4.36685486 18.0041334,4.56655998 L17.2815809,5.03344002 C16.9682724,5.23588551 16.5047044,5.60313263 16.238816,5.86083984 L16.5707078,5.53916016 C16.3081131,5.79367497 16.3108978,6.20902405 16.5703772,6.46051941 L16.8581943,6.73948059 C17.1206063,6.99381844 17.1176736,7.40902405 16.8581943,7.66051941 L16.5703772,7.93948059 C16.3079651,8.19381844 15.8326699,8.27275543 15.4906982,8.10703068 L15.4616827,8.09296932 C15.1278046,7.93116683 14.7197561,8.06631889 14.547619,8.4 L14.547619,8.4 C14.3766738,8.73137085 13.9479167,9.09375 13.6093514,9.20313263 L13.0096962,9.39686737 C12.6624506,9.50905442 12.0812441,9.6 11.7184099,9.6 L11.8053997,9.6 C11.4394875,9.6 11.0054704,9.86631889 10.8333333,10.2 L10.8333333,10.2 C10.6623881,10.5313708 10.2588138,10.671579 9.92439288,10.5095135 L8.64703569,9.89048653 C8.31598702,9.73005525 7.83195932,9.39097595 7.57247997,9.13948059 L7.28466288,8.86051941 C7.02225082,8.60618156 6.80952381,8.09718933 6.80952381,7.72983055 L6.80952381,7.87016945 C6.80952381,7.50004508 7.10454341,7.2 7.42857143,7.2 L6.80952381,7.2 C7.15141437,7.2 7.64423116,6.99097595 7.9037105,6.73948059 L8.19152759,6.46051941 C8.45393966,6.20618156 8.96637499,6 9.32920919,6 L9.24221938,6 C9.60813151,6 10.0014881,5.71875 10.1212747,5.37044735 L10.3072967,4.82955265 C10.4268734,4.48186032 10.8094541,4.25537109 11.1802299,4.32724457 L12.9626272,4.67275543 C13.3251582,4.74303067 13.9030982,4.73117237 14.2696375,4.64235706 L15.4446482,4.35764294 C15.8039591,4.27057915 16.3578063,4.07275543 16.699778,3.90703068 L16.7287935,3.89296932 C17.0626716,3.73116683 17.5959015,3.47275543 17.9378732,3.30703068 L17.9668887,3.29296932 C18.3007669,3.13116683 18.8339967,2.87275543 19.1759684,2.70703068 L19.2049839,2.69296932 Z" id="Line" fill="#E7832C" mask="url(#mask-2)"></path>
            <ellipse id="Oval-81" fill="#445128" mask="url(#mask-2)" cx="13" cy="13.8" rx="1" ry="1"></ellipse>
            <path d="M14.8571429,13.2 C14.8571429,13.2 16.7142857,12.6 17.3333333,11.4" id="Line" stroke="#445128" stroke-width="1.33333333" opacity="0.75" stroke-linecap="round" mask="url(#mask-2)"></path>
            <path d="M8.66666667,13.2 C8.66666667,13.2 10.5238095,12.6 11.1428571,11.4" id="Line" stroke="#445128" stroke-width="1.33333333" opacity="0.75" stroke-linecap="round" mask="url(#mask-2)" transform="translate(9.904762, 12.300000) scale(-1, 1) translate(-9.904762, -12.300000) "></path>
        </g>
    </g>
</svg>