<?xml version="1.0" encoding="UTF-8"?>
<svg width="26px" height="18px" viewBox="0 0 26 18" version="1.1" xmlns="http://www.w3.org/2000/svg" xmlns:xlink="http://www.w3.org/1999/xlink">
    <!-- Generator: Sketch 48.1 (47250) - http://www.bohemiancoding.com/sketch -->
    <title>GR</title>
    <desc>Created with Sketch.</desc>
    <defs>
        <rect id="path-1" x="0" y="0" width="26" height="18"></rect>
    </defs>
    <g id="Landing-MHT-Warm-Floor" stroke="none" stroke-width="1" fill="none" fill-rule="evenodd">
        <g id="GR">
            <mask id="mask-2" fill="white">
                <use xlink:href="#path-1"></use>
            </mask>
            <g id="Mask">
                <use fill="#FFFFFF" fill-rule="evenodd" xlink:href="#path-1"></use>
                <rect stroke="#F5F5F5" stroke-width="0.5" x="0.25" y="0.25" width="25.5" height="17.5"></rect>
            </g>
            <path d="M12.3809524,12 L7.42857143,12 L7.42857143,7.2 L12.3809524,7.2 L12.3809524,9.6 L26,9.6 L26,12 L12.3809524,12 Z M12.3809524,0 L26,0 L26,2.4 L12.3809524,2.4 L12.3809524,4.8 L7.42857143,4.8 L7.42857143,0 L12.3809524,0 Z M0,0 L4.95238095,0 L4.95238095,4.8 L0,4.8 L0,0 Z M12.3809524,4.8 L26,4.8 L26,7.2 L12.3809524,7.2 L12.3809524,4.8 Z M0,14.4 L26,14.4 L26,16.8 L0,16.8 L0,14.4 Z M0,7.2 L4.95238095,7.2 L4.95238095,12 L0,12 L0,7.2 Z" id="Rectangle-537" fill="#1C6DC1" mask="url(#mask-2)"></path>
        </g>
    </g>
</svg>