<?xml version="1.0" encoding="UTF-8"?>
<svg width="26px" height="18px" viewBox="0 0 26 18" version="1.1" xmlns="http://www.w3.org/2000/svg" xmlns:xlink="http://www.w3.org/1999/xlink">
    <!-- Generator: Sketch 48.1 (47250) - http://www.bohemiancoding.com/sketch -->
    <title>IR</title>
    <desc>Created with Sketch.</desc>
    <defs>
        <rect id="path-1" x="0" y="0" width="26" height="18"></rect>
    </defs>
    <g id="Landing-MHT-Warm-Floor" stroke="none" stroke-width="1" fill="none" fill-rule="evenodd">
        <g id="IR">
            <mask id="mask-2" fill="white">
                <use xlink:href="#path-1"></use>
            </mask>
            <g id="Mask">
                <use fill="#FFFFFF" fill-rule="evenodd" xlink:href="#path-1"></use>
                <rect stroke="#F5F5F5" stroke-width="0.5" x="0.25" y="0.25" width="25.5" height="17.5"></rect>
            </g>
            <rect id="Rectangle-2" fill="#38BB56" mask="url(#mask-2)" x="0" y="0" width="26" height="6"></rect>
            <rect id="Rectangle-2" fill="#DE1B27" mask="url(#mask-2)" x="0" y="12" width="26" height="6"></rect>
            <path d="M1.23809524,5.12790527 C1.23809524,4.94680819 1.38991002,4.8 1.5764102,4.8 L2.13787551,4.8 C2.32472171,4.8 2.47619048,4.94714355 2.47619048,5.12790527 L2.47619048,5.67209473 C2.47619048,5.85319181 2.3243757,6 2.13787551,6 L1.5764102,6 C1.38956401,6 1.23809524,5.85285645 1.23809524,5.67209473 L1.23809524,5.12790527 Z M3.71428571,5.12790527 C3.71428571,4.94680819 3.86610049,4.8 4.05260068,4.8 L4.61406599,4.8 C4.80091218,4.8 4.95238095,4.94714355 4.95238095,5.12790527 L4.95238095,5.67209473 C4.95238095,5.85319181 4.80056617,6 4.61406599,6 L4.05260068,6 C3.86575448,6 3.71428571,5.85285645 3.71428571,5.67209473 L3.71428571,5.12790527 Z M6.19047619,5.12790527 C6.19047619,4.94680819 6.34229097,4.8 6.52879116,4.8 L7.09025646,4.8 C7.27710266,4.8 7.42857143,4.94714355 7.42857143,5.12790527 L7.42857143,5.67209473 C7.42857143,5.85319181 7.27675665,6 7.09025646,6 L6.52879116,6 C6.34194496,6 6.19047619,5.85285645 6.19047619,5.67209473 L6.19047619,5.12790527 Z M8.66666667,5.12790527 C8.66666667,4.94680819 8.81848145,4.8 9.00498163,4.8 L9.56644694,4.8 C9.75329314,4.8 9.9047619,4.94714355 9.9047619,5.12790527 L9.9047619,5.67209473 C9.9047619,5.85319181 9.75294713,6 9.56644694,6 L9.00498163,6 C8.81813544,6 8.66666667,5.85285645 8.66666667,5.67209473 L8.66666667,5.12790527 Z M11.1428571,5.12790527 C11.1428571,4.94680819 11.2946719,4.8 11.4811721,4.8 L12.0426374,4.8 C12.2294836,4.8 12.3809524,4.94714355 12.3809524,5.12790527 L12.3809524,5.67209473 C12.3809524,5.85319181 12.2291376,6 12.0426374,6 L11.4811721,6 C11.2943259,6 11.1428571,5.85285645 11.1428571,5.67209473 L11.1428571,5.12790527 Z M13.6190476,5.12790527 C13.6190476,4.94680819 13.7708624,4.8 13.9573626,4.8 L14.5188279,4.8 C14.7056741,4.8 14.8571429,4.94714355 14.8571429,5.12790527 L14.8571429,5.67209473 C14.8571429,5.85319181 14.7053281,6 14.5188279,6 L13.9573626,6 C13.7705164,6 13.6190476,5.85285645 13.6190476,5.67209473 L13.6190476,5.12790527 Z M16.0952381,5.12790527 C16.0952381,4.94680819 16.2470529,4.8 16.4335531,4.8 L16.9950184,4.8 C17.1818646,4.8 17.3333333,4.94714355 17.3333333,5.12790527 L17.3333333,5.67209473 C17.3333333,5.85319181 17.1815186,6 16.9950184,6 L16.4335531,6 C16.2467069,6 16.0952381,5.85285645 16.0952381,5.67209473 L16.0952381,5.12790527 Z M18.5714286,5.12790527 C18.5714286,4.94680819 18.7232434,4.8 18.9097435,4.8 L19.4712088,4.8 C19.658055,4.8 19.8095238,4.94714355 19.8095238,5.12790527 L19.8095238,5.67209473 C19.8095238,5.85319181 19.657709,6 19.4712088,6 L18.9097435,6 C18.7228973,6 18.5714286,5.85285645 18.5714286,5.67209473 L18.5714286,5.12790527 Z M21.047619,5.12790527 C21.047619,4.94680819 21.1994338,4.8 21.385934,4.8 L21.9473993,4.8 C22.1342455,4.8 22.2857143,4.94714355 22.2857143,5.12790527 L22.2857143,5.67209473 C22.2857143,5.85319181 22.1338995,6 21.9473993,6 L21.385934,6 C21.1990878,6 21.047619,5.85285645 21.047619,5.67209473 L21.047619,5.12790527 Z M23.5238095,5.12790527 C23.5238095,4.94680819 23.6756243,4.8 23.8621245,4.8 L24.4235898,4.8 C24.610436,4.8 24.7619048,4.94714355 24.7619048,5.12790527 L24.7619048,5.67209473 C24.7619048,5.85319181 24.61009,6 24.4235898,6 L23.8621245,6 C23.6752783,6 23.5238095,5.85285645 23.5238095,5.67209473 L23.5238095,5.12790527 Z M1.23809524,12.3279053 C1.23809524,12.1468082 1.38991002,12 1.5764102,12 L2.13787551,12 C2.32472171,12 2.47619048,12.1471436 2.47619048,12.3279053 L2.47619048,12.8720947 C2.47619048,13.0531918 2.3243757,13.2 2.13787551,13.2 L1.5764102,13.2 C1.38956401,13.2 1.23809524,13.0528564 1.23809524,12.8720947 L1.23809524,12.3279053 Z M3.71428571,12.3279053 C3.71428571,12.1468082 3.86610049,12 4.05260068,12 L4.61406599,12 C4.80091218,12 4.95238095,12.1471436 4.95238095,12.3279053 L4.95238095,12.8720947 C4.95238095,13.0531918 4.80056617,13.2 4.61406599,13.2 L4.05260068,13.2 C3.86575448,13.2 3.71428571,13.0528564 3.71428571,12.8720947 L3.71428571,12.3279053 Z M6.19047619,12.3279053 C6.19047619,12.1468082 6.34229097,12 6.52879116,12 L7.09025646,12 C7.27710266,12 7.42857143,12.1471436 7.42857143,12.3279053 L7.42857143,12.8720947 C7.42857143,13.0531918 7.27675665,13.2 7.09025646,13.2 L6.52879116,13.2 C6.34194496,13.2 6.19047619,13.0528564 6.19047619,12.8720947 L6.19047619,12.3279053 Z M8.66666667,12.3279053 C8.66666667,12.1468082 8.81848145,12 9.00498163,12 L9.56644694,12 C9.75329314,12 9.9047619,12.1471436 9.9047619,12.3279053 L9.9047619,12.8720947 C9.9047619,13.0531918 9.75294713,13.2 9.56644694,13.2 L9.00498163,13.2 C8.81813544,13.2 8.66666667,13.0528564 8.66666667,12.8720947 L8.66666667,12.3279053 Z M11.1428571,12.3279053 C11.1428571,12.1468082 11.2946719,12 11.4811721,12 L12.0426374,12 C12.2294836,12 12.3809524,12.1471436 12.3809524,12.3279053 L12.3809524,12.8720947 C12.3809524,13.0531918 12.2291376,13.2 12.0426374,13.2 L11.4811721,13.2 C11.2943259,13.2 11.1428571,13.0528564 11.1428571,12.8720947 L11.1428571,12.3279053 Z M13.6190476,12.3279053 C13.6190476,12.1468082 13.7708624,12 13.9573626,12 L14.5188279,12 C14.7056741,12 14.8571429,12.1471436 14.8571429,12.3279053 L14.8571429,12.8720947 C14.8571429,13.0531918 14.7053281,13.2 14.5188279,13.2 L13.9573626,13.2 C13.7705164,13.2 13.6190476,13.0528564 13.6190476,12.8720947 L13.6190476,12.3279053 Z M16.0952381,12.3279053 C16.0952381,12.1468082 16.2470529,12 16.4335531,12 L16.9950184,12 C17.1818646,12 17.3333333,12.1471436 17.3333333,12.3279053 L17.3333333,12.8720947 C17.3333333,13.0531918 17.1815186,13.2 16.9950184,13.2 L16.4335531,13.2 C16.2467069,13.2 16.0952381,13.0528564 16.0952381,12.8720947 L16.0952381,12.3279053 Z M18.5714286,12.3279053 C18.5714286,12.1468082 18.7232434,12 18.9097435,12 L19.4712088,12 C19.658055,12 19.8095238,12.1471436 19.8095238,12.3279053 L19.8095238,12.8720947 C19.8095238,13.0531918 19.657709,13.2 19.4712088,13.2 L18.9097435,13.2 C18.7228973,13.2 18.5714286,13.0528564 18.5714286,12.8720947 L18.5714286,12.3279053 Z M21.047619,12.3279053 C21.047619,12.1468082 21.1994338,12 21.385934,12 L21.9473993,12 C22.1342455,12 22.2857143,12.1471436 22.2857143,12.3279053 L22.2857143,12.8720947 C22.2857143,13.0531918 22.1338995,13.2 21.9473993,13.2 L21.385934,13.2 C21.1990878,13.2 21.047619,13.0528564 21.047619,12.8720947 L21.047619,12.3279053 Z M23.5238095,12.3279053 C23.5238095,12.1468082 23.6756243,12 23.8621245,12 L24.4235898,12 C24.610436,12 24.7619048,12.1471436 24.7619048,12.3279053 L24.7619048,12.8720947 C24.7619048,13.0531918 24.61009,13.2 24.4235898,13.2 L23.8621245,13.2 C23.6752783,13.2 23.5238095,13.0528564 23.5238095,12.8720947 L23.5238095,12.3279053 Z" id="Rectangle-223" fill-opacity="0.5" fill="#FFFFFF" mask="url(#mask-2)"></path>
            <path d="M11.8820751,8.00335714 C11.6232881,8.27190902 11.4761905,8.62453868 11.4761905,9 C11.4761905,9.80764612 12.1561323,10.4666667 13,10.4666667 C13.8438677,10.4666667 14.5238095,9.80764612 14.5238095,9 C14.5238095,8.63245281 14.3829013,8.28671865 14.1338349,8.02013961 L11.8820751,8.00335714 Z" id="Oval-1" stroke="#D80915" stroke-width="0.666666667" mask="url(#mask-2)"></path>
            <rect id="Rectangle-243" fill="#D80915" mask="url(#mask-2)" x="12.3809524" y="8.4" width="1.23809524" height="2.4" rx="0.619047619"></rect>
        </g>
    </g>
</svg>