<?xml version="1.0" encoding="UTF-8"?>
<svg width="26px" height="18px" viewBox="0 0 26 18" version="1.1" xmlns="http://www.w3.org/2000/svg" xmlns:xlink="http://www.w3.org/1999/xlink">
    <!-- Generator: Sketch 48.1 (47250) - http://www.bohemiancoding.com/sketch -->
    <title>KZ</title>
    <desc>Created with Sketch.</desc>
    <defs>
        <rect id="path-1" x="0" y="0" width="26" height="18"></rect>
    </defs>
    <g id="Landing-MHT-Warm-Floor" stroke="none" stroke-width="1" fill="none" fill-rule="evenodd">
        <g id="KZ">
            <mask id="mask-2" fill="white">
                <use xlink:href="#path-1"></use>
            </mask>
            <use id="Mask" fill="#FFFFFF" xlink:href="#path-1"></use>
            <rect id="Mask-Copy" fill="#30C6E0" mask="url(#mask-2)" x="0" y="0" width="26" height="18"></rect>
            <ellipse id="Oval-9" fill="#FFCD4B" mask="url(#mask-2)" cx="13" cy="9" rx="3.71428571" ry="3.6"></ellipse>
            <path d="M13,13.2422517 L11.4847384,15.4345242 L11.1009228,12.8221367 L8.75433135,14.1600878 L9.57798117,11.6450007 L6.86483104,11.8636327 L8.73281231,9.94398981 L6.19047619,9 L8.73281231,8.05601019 L6.86483104,6.13636732 L9.57798117,6.35499932 L8.75433135,3.83991222 L11.1009228,5.17786328 L11.4847384,2.56547578 L13,4.75774829 L14.5152616,2.56547578 L14.8990772,5.17786328 L17.2456687,3.83991222 L16.4220188,6.35499932 L19.135169,6.13636732 L17.2671877,8.05601019 L19.8095238,9 L17.2671877,9.94398981 L19.135169,11.8636327 L16.4220188,11.6450007 L17.2456687,14.1600878 L14.8990772,12.8221367 L14.5152616,15.4345242 L13,13.2422517 Z M13,13.2 C15.3932339,13.2 17.3333333,11.3195959 17.3333333,9 C17.3333333,6.68040405 15.3932339,4.8 13,4.8 C10.6067661,4.8 8.66666667,6.68040405 8.66666667,9 C8.66666667,11.3195959 10.6067661,13.2 13,13.2 Z" id="Star-28" fill="#FFCD4B" mask="url(#mask-2)"></path>
            <path d="M1.23809524,1.52790527 C1.23809524,1.34680819 1.38991002,1.2 1.5764102,1.2 L2.13787551,1.2 C2.32472171,1.2 2.47619048,1.34714355 2.47619048,1.52790527 L2.47619048,2.07209473 C2.47619048,2.25319181 2.3243757,2.4 2.13787551,2.4 L1.5764102,2.4 C1.38956401,2.4 1.23809524,2.25285645 1.23809524,2.07209473 L1.23809524,1.52790527 Z M1.23809524,3.92790527 C1.23809524,3.74680819 1.38991002,3.6 1.5764102,3.6 L2.13787551,3.6 C2.32472171,3.6 2.47619048,3.74714355 2.47619048,3.92790527 L2.47619048,4.47209473 C2.47619048,4.65319181 2.3243757,4.8 2.13787551,4.8 L1.5764102,4.8 C1.38956401,4.8 1.23809524,4.65285645 1.23809524,4.47209473 L1.23809524,3.92790527 Z M1.23809524,6.32790527 C1.23809524,6.14680819 1.38991002,6 1.5764102,6 L2.13787551,6 C2.32472171,6 2.47619048,6.14714355 2.47619048,6.32790527 L2.47619048,6.87209473 C2.47619048,7.05319181 2.3243757,7.2 2.13787551,7.2 L1.5764102,7.2 C1.38956401,7.2 1.23809524,7.05285645 1.23809524,6.87209473 L1.23809524,6.32790527 Z M1.23809524,8.72790527 C1.23809524,8.54680819 1.38991002,8.4 1.5764102,8.4 L2.13787551,8.4 C2.32472171,8.4 2.47619048,8.54714355 2.47619048,8.72790527 L2.47619048,9.27209473 C2.47619048,9.45319181 2.3243757,9.6 2.13787551,9.6 L1.5764102,9.6 C1.38956401,9.6 1.23809524,9.45285645 1.23809524,9.27209473 L1.23809524,8.72790527 Z M1.23809524,11.1279053 C1.23809524,10.9468082 1.38991002,10.8 1.5764102,10.8 L2.13787551,10.8 C2.32472171,10.8 2.47619048,10.9471436 2.47619048,11.1279053 L2.47619048,11.6720947 C2.47619048,11.8531918 2.3243757,12 2.13787551,12 L1.5764102,12 C1.38956401,12 1.23809524,11.8528564 1.23809524,11.6720947 L1.23809524,11.1279053 Z M1.23809524,13.5279053 C1.23809524,13.3468082 1.38991002,13.2 1.5764102,13.2 L2.13787551,13.2 C2.32472171,13.2 2.47619048,13.3471436 2.47619048,13.5279053 L2.47619048,14.0720947 C2.47619048,14.2531918 2.3243757,14.4 2.13787551,14.4 L1.5764102,14.4 C1.38956401,14.4 1.23809524,14.2528564 1.23809524,14.0720947 L1.23809524,13.5279053 Z M1.23809524,15.9279053 C1.23809524,15.7468082 1.38991002,15.6 1.5764102,15.6 L2.13787551,15.6 C2.32472171,15.6 2.47619048,15.7471436 2.47619048,15.9279053 L2.47619048,16.4720947 C2.47619048,16.6531918 2.3243757,16.8 2.13787551,16.8 L1.5764102,16.8 C1.38956401,16.8 1.23809524,16.6528564 1.23809524,16.4720947 L1.23809524,15.9279053 Z M2.47619048,14.7279053 C2.47619048,14.5468082 2.62800525,14.4 2.81450544,14.4 L3.37597075,14.4 C3.56281695,14.4 3.71428571,14.5471436 3.71428571,14.7279053 L3.71428571,15.2720947 C3.71428571,15.4531918 3.56247094,15.6 3.37597075,15.6 L2.81450544,15.6 C2.62765925,15.6 2.47619048,15.4528564 2.47619048,15.2720947 L2.47619048,14.7279053 Z M2.47619048,12.3279053 C2.47619048,12.1468082 2.62800525,12 2.81450544,12 L3.37597075,12 C3.56281695,12 3.71428571,12.1471436 3.71428571,12.3279053 L3.71428571,12.8720947 C3.71428571,13.0531918 3.56247094,13.2 3.37597075,13.2 L2.81450544,13.2 C2.62765925,13.2 2.47619048,13.0528564 2.47619048,12.8720947 L2.47619048,12.3279053 Z M2.47619048,9.92790527 C2.47619048,9.74680819 2.62800525,9.6 2.81450544,9.6 L3.37597075,9.6 C3.56281695,9.6 3.71428571,9.74714355 3.71428571,9.92790527 L3.71428571,10.4720947 C3.71428571,10.6531918 3.56247094,10.8 3.37597075,10.8 L2.81450544,10.8 C2.62765925,10.8 2.47619048,10.6528564 2.47619048,10.4720947 L2.47619048,9.92790527 Z M2.47619048,7.52790527 C2.47619048,7.34680819 2.62800525,7.2 2.81450544,7.2 L3.37597075,7.2 C3.56281695,7.2 3.71428571,7.34714355 3.71428571,7.52790527 L3.71428571,8.07209473 C3.71428571,8.25319181 3.56247094,8.4 3.37597075,8.4 L2.81450544,8.4 C2.62765925,8.4 2.47619048,8.25285645 2.47619048,8.07209473 L2.47619048,7.52790527 Z M2.47619048,5.12790527 C2.47619048,4.94680819 2.62800525,4.8 2.81450544,4.8 L3.37597075,4.8 C3.56281695,4.8 3.71428571,4.94714355 3.71428571,5.12790527 L3.71428571,5.67209473 C3.71428571,5.85319181 3.56247094,6 3.37597075,6 L2.81450544,6 C2.62765925,6 2.47619048,5.85285645 2.47619048,5.67209473 L2.47619048,5.12790527 Z M2.47619048,2.72790527 C2.47619048,2.54680819 2.62800525,2.4 2.81450544,2.4 L3.37597075,2.4 C3.56281695,2.4 3.71428571,2.54714355 3.71428571,2.72790527 L3.71428571,3.27209473 C3.71428571,3.45319181 3.56247094,3.6 3.37597075,3.6 L2.81450544,3.6 C2.62765925,3.6 2.47619048,3.45285645 2.47619048,3.27209473 L2.47619048,2.72790527 Z" id="Rectangle-294" fill="#FFCD4B" mask="url(#mask-2)"></path>
        </g>
    </g>
</svg>