<?xml version="1.0" encoding="UTF-8"?>
<svg width="26px" height="18px" viewBox="0 0 26 18" version="1.1" xmlns="http://www.w3.org/2000/svg" xmlns:xlink="http://www.w3.org/1999/xlink">
    <!-- Generator: Sketch 48.1 (47250) - http://www.bohemiancoding.com/sketch -->
    <title>SK</title>
    <desc>Created with Sketch.</desc>
    <defs>
        <rect id="path-1" x="0" y="0" width="26" height="18"></rect>
        <path d="M0.876064933,1.32316368 C0.90506347,0.592400556 1.53345084,0 2.25747204,0 L7.64728987,0 C8.38122141,0 8.99996434,0.599101397 9.02869697,1.32316368 L9.23320779,6.47683632 C9.26220633,7.20759944 8.82197171,8.18526306 8.25877477,8.65314975 L6.49235346,10.1206382 C5.64185013,10.8272102 4.25615598,10.8215977 3.41240845,10.1206382 L1.64598713,8.65314975 C1.0788241,8.18196815 0.642821484,7.2008986 0.671554114,6.47683632 L0.876064933,1.32316368 Z" id="path-3"></path>
    </defs>
    <g id="Landing-MHT-Warm-Floor" stroke="none" stroke-width="1" fill="none" fill-rule="evenodd">
        <g id="SK">
            <mask id="mask-2" fill="white">
                <use xlink:href="#path-1"></use>
            </mask>
            <g id="Mask">
                <use fill="#FFFFFF" fill-rule="evenodd" xlink:href="#path-1"></use>
                <rect stroke="#F5F5F5" stroke-width="0.5" x="0.25" y="0.25" width="25.5" height="17.5"></rect>
            </g>
            <rect id="Rectangle-2" fill="#0C47B7" mask="url(#mask-2)" x="0" y="6" width="26" height="6"></rect>
            <rect id="Rectangle-2" fill="#E53B35" mask="url(#mask-2)" x="0" y="12" width="26" height="6"></rect>
            <g id="Rectangle-1693" mask="url(#mask-2)">
                <g transform="translate(4.333333, 3.600000)">
                    <mask id="mask-4" fill="white">
                        <use xlink:href="#path-3"></use>
                    </mask>
                    <g id="Mask" stroke="none" fill="none">
                        <use fill="#F73744" fill-rule="evenodd" xlink:href="#path-3"></use>
                        <path stroke="#FFFFFF" stroke-width="1.33333333" d="M0.209922549,1.29672945 C0.253026872,0.210500504 1.17334356,-0.666666667 2.25747204,-0.666666667 L7.64728987,-0.666666667 C8.73680427,-0.666666667 9.65182318,0.212721803 9.69483936,1.29672945 L9.89935018,6.4504021 C9.93653202,7.3873845 9.40844078,8.56475479 8.6847879,9.16594333 L6.91836659,10.6334318 C5.82296135,11.5434608 4.07916247,11.5412691 2.98639532,10.6334318 L1.219974,9.16594333 C0.495228928,8.56384742 -0.0316509248,7.38438099 0.00541172968,6.4504021 L0.209922549,1.29672945 Z"></path>
                    </g>
                    <path d="M4.33333333,6.33370972 C4.33333333,6.14940693 4.18760645,6 4.00984374,6 L2.79968007,6 C2.6210217,6 2.47619048,5.85285645 2.47619048,5.67209473 L2.47619048,5.12790527 C2.47619048,4.94680819 2.62191736,4.8 2.79968007,4.8 L4.00984374,4.8 C4.18850211,4.8 4.33333333,4.65285645 4.33333333,4.47209473 L4.33333333,3.92790527 C4.33333333,3.74680819 4.18151855,3.6 3.99501837,3.6 L3.43355306,3.6 C3.24670686,3.6 3.0952381,3.45285645 3.0952381,3.27209473 L3.0952381,2.72790527 C3.0952381,2.54680819 3.24705287,2.4 3.43355306,2.4 L3.99501837,2.4 C4.18186456,2.4 4.33333333,2.25285645 4.33333333,2.07209473 L4.33333333,1.52790527 C4.33333333,1.34680819 4.48514811,1.2 4.6716483,1.2 L5.23311361,1.2 C5.4199598,1.2 5.57142857,1.34714355 5.57142857,1.52790527 L5.57142857,2.07209473 C5.57142857,2.25319181 5.72324335,2.4 5.90974354,2.4 L6.47120884,2.4 C6.65805504,2.4 6.80952381,2.54714355 6.80952381,2.72790527 L6.80952381,3.27209473 C6.80952381,3.45319181 6.65770903,3.6 6.47120884,3.6 L5.90974354,3.6 C5.72289734,3.6 5.57142857,3.74714355 5.57142857,3.92790527 L5.57142857,4.47209473 C5.57142857,4.65319181 5.71715546,4.8 5.89491817,4.8 L7.10508183,4.8 C7.2837402,4.8 7.42857143,4.94714355 7.42857143,5.12790527 L7.42857143,5.67209473 C7.42857143,5.85319181 7.28284454,6 7.10508183,6 L5.89491817,6 C5.7162598,6 5.57142857,6.1574707 5.57142857,6.33370972 L5.57142857,8.06629028 C5.57142857,8.25059307 5.41961379,8.4 5.23311361,8.4 L4.6716483,8.4 C4.4848021,8.4 4.33333333,8.2425293 4.33333333,8.06629028 L4.33333333,6.33370972 Z" id="Rectangle-1694" stroke="none" fill="#FFFFFF" fill-rule="evenodd" mask="url(#mask-4)"></path>
                    <path d="M3.834813,8.48290481 C4.03411071,8.07900039 4.45962946,7.8 4.95238095,7.8 C5.44513244,7.8 5.8706512,8.07900039 6.06994891,8.48290481 C7.57517907,8.71276281 8.66666667,9.39460976 8.66666667,10.2 C8.66666667,11.1941125 7.00372431,12 4.95238095,12 C2.9010376,12 1.23809524,11.1941125 1.23809524,10.2 C1.23809524,9.39460976 2.32958284,8.71276281 3.834813,8.48290481 Z" id="Oval-215" stroke="none" fill="#1251A1" fill-rule="evenodd" mask="url(#mask-4)"></path>
                </g>
            </g>
        </g>
    </g>
</svg>