<?xml version="1.0" encoding="UTF-8"?>
<svg width="26px" height="18px" viewBox="0 0 26 18" version="1.1" xmlns="http://www.w3.org/2000/svg" xmlns:xlink="http://www.w3.org/1999/xlink">
    <!-- Generator: Sketch 48.1 (47250) - http://www.bohemiancoding.com/sketch -->
    <title>TJ</title>
    <desc>Created with Sketch.</desc>
    <defs>
        <rect id="path-1" x="0" y="0" width="26" height="18"></rect>
    </defs>
    <g id="Landing-MHT-Warm-Floor" stroke="none" stroke-width="1" fill="none" fill-rule="evenodd">
        <g id="TJ">
            <mask id="mask-2" fill="white">
                <use xlink:href="#path-1"></use>
            </mask>
            <g id="Mask">
                <use fill="#FFFFFF" fill-rule="evenodd" xlink:href="#path-1"></use>
                <rect stroke="#F5F5F5" stroke-width="0.5" x="0.25" y="0.25" width="25.5" height="17.5"></rect>
            </g>
            <rect id="Rectangle-2" fill="#D9101C" mask="url(#mask-2)" x="0" y="0" width="26" height="6"></rect>
            <rect id="Rectangle-2" fill="#0F7811" mask="url(#mask-2)" x="0" y="12" width="26" height="6"></rect>
            <path d="M12.4626771,9.6 C12.4106814,9.33904332 12.3809524,9.10852804 12.3809524,9 C12.3809524,8.66862915 12.6581094,8.4 13,8.4 C13.3418906,8.4 13.6190476,8.66862915 13.6190476,9 C13.6190476,9.10852804 13.5893186,9.33904332 13.5373229,9.6 L14.2603786,9.6 C14.5899624,9.6 14.8571429,9.87832031 14.8571429,10.2 C14.8571429,10.5313708 14.5900206,10.8 14.2603786,10.8 L11.7396214,10.8 C11.4100376,10.8 11.1428571,10.5216797 11.1428571,10.2 C11.1428571,9.86862915 11.4099794,9.6 11.7396214,9.6 L12.4626771,9.6 Z M11.7619048,8.4 C11.4200142,8.4 11.1428571,8.13137085 11.1428571,7.8 C11.1428571,7.46862915 11.4200142,7.2 11.7619048,7.2 C12.1037953,7.2 12.3809524,7.46862915 12.3809524,7.8 C12.3809524,8.13137085 12.1037953,8.4 11.7619048,8.4 Z M14.2380952,8.4 C13.8962047,8.4 13.6190476,8.13137085 13.6190476,7.8 C13.6190476,7.46862915 13.8962047,7.2 14.2380952,7.2 C14.5799858,7.2 14.8571429,7.46862915 14.8571429,7.8 C14.8571429,8.13137085 14.5799858,8.4 14.2380952,8.4 Z M16.7142857,9.6 C16.3723952,9.6 16.0952381,9.33137085 16.0952381,9 C16.0952381,8.66862915 16.3723952,8.4 16.7142857,8.4 C17.0561763,8.4 17.3333333,8.66862915 17.3333333,9 C17.3333333,9.33137085 17.0561763,9.6 16.7142857,9.6 Z M9.28571429,9.6 C8.94382373,9.6 8.66666667,9.33137085 8.66666667,9 C8.66666667,8.66862915 8.94382373,8.4 9.28571429,8.4 C9.62760485,8.4 9.9047619,8.66862915 9.9047619,9 C9.9047619,9.33137085 9.62760485,9.6 9.28571429,9.6 Z" id="Oval-36" fill="#FAD14E" mask="url(#mask-2)"></path>
        </g>
    </g>
</svg>