<?xml version="1.0" encoding="UTF-8"?>
<svg width="26px" height="18px" viewBox="0 0 26 18" version="1.1" xmlns="http://www.w3.org/2000/svg" xmlns:xlink="http://www.w3.org/1999/xlink">
    <!-- Generator: Sketch 48.1 (47250) - http://www.bohemiancoding.com/sketch -->
    <title>US</title>
    <desc>Created with Sketch.</desc>
    <defs>
        <rect id="path-1" x="0" y="0" width="26" height="18"></rect>
        <linearGradient x1="50%" y1="0%" x2="50%" y2="100%" id="linearGradient-3">
            <stop stop-color="#FFFFFF" offset="0%"></stop>
            <stop stop-color="#F0F0F0" offset="100%"></stop>
        </linearGradient>
        <path d="M1.85714286,2.4 C1.5152523,2.4 1.23809524,2.13137085 1.23809524,1.8 C1.23809524,1.46862915 1.5152523,1.2 1.85714286,1.2 C2.19903342,1.2 2.47619048,1.46862915 2.47619048,1.8 C2.47619048,2.13137085 2.19903342,2.4 1.85714286,2.4 Z M4.33333333,2.4 C3.99144277,2.4 3.71428571,2.13137085 3.71428571,1.8 C3.71428571,1.46862915 3.99144277,1.2 4.33333333,1.2 C4.67522389,1.2 4.95238095,1.46862915 4.95238095,1.8 C4.95238095,2.13137085 4.67522389,2.4 4.33333333,2.4 Z M6.80952381,2.4 C6.46763325,2.4 6.19047619,2.13137085 6.19047619,1.8 C6.19047619,1.46862915 6.46763325,1.2 6.80952381,1.2 C7.15141437,1.2 7.42857143,1.46862915 7.42857143,1.8 C7.42857143,2.13137085 7.15141437,2.4 6.80952381,2.4 Z M9.28571429,2.4 C8.94382373,2.4 8.66666667,2.13137085 8.66666667,1.8 C8.66666667,1.46862915 8.94382373,1.2 9.28571429,1.2 C9.62760485,1.2 9.9047619,1.46862915 9.9047619,1.8 C9.9047619,2.13137085 9.62760485,2.4 9.28571429,2.4 Z M3.0952381,3.6 C2.75334754,3.6 2.47619048,3.33137085 2.47619048,3 C2.47619048,2.66862915 2.75334754,2.4 3.0952381,2.4 C3.43712865,2.4 3.71428571,2.66862915 3.71428571,3 C3.71428571,3.33137085 3.43712865,3.6 3.0952381,3.6 Z M5.57142857,3.6 C5.22953801,3.6 4.95238095,3.33137085 4.95238095,3 C4.95238095,2.66862915 5.22953801,2.4 5.57142857,2.4 C5.91331913,2.4 6.19047619,2.66862915 6.19047619,3 C6.19047619,3.33137085 5.91331913,3.6 5.57142857,3.6 Z M8.04761905,3.6 C7.70572849,3.6 7.42857143,3.33137085 7.42857143,3 C7.42857143,2.66862915 7.70572849,2.4 8.04761905,2.4 C8.38950961,2.4 8.66666667,2.66862915 8.66666667,3 C8.66666667,3.33137085 8.38950961,3.6 8.04761905,3.6 Z M9.28571429,4.8 C8.94382373,4.8 8.66666667,4.53137085 8.66666667,4.2 C8.66666667,3.86862915 8.94382373,3.6 9.28571429,3.6 C9.62760485,3.6 9.9047619,3.86862915 9.9047619,4.2 C9.9047619,4.53137085 9.62760485,4.8 9.28571429,4.8 Z M6.80952381,4.8 C6.46763325,4.8 6.19047619,4.53137085 6.19047619,4.2 C6.19047619,3.86862915 6.46763325,3.6 6.80952381,3.6 C7.15141437,3.6 7.42857143,3.86862915 7.42857143,4.2 C7.42857143,4.53137085 7.15141437,4.8 6.80952381,4.8 Z M4.33333333,4.8 C3.99144277,4.8 3.71428571,4.53137085 3.71428571,4.2 C3.71428571,3.86862915 3.99144277,3.6 4.33333333,3.6 C4.67522389,3.6 4.95238095,3.86862915 4.95238095,4.2 C4.95238095,4.53137085 4.67522389,4.8 4.33333333,4.8 Z M1.85714286,4.8 C1.5152523,4.8 1.23809524,4.53137085 1.23809524,4.2 C1.23809524,3.86862915 1.5152523,3.6 1.85714286,3.6 C2.19903342,3.6 2.47619048,3.86862915 2.47619048,4.2 C2.47619048,4.53137085 2.19903342,4.8 1.85714286,4.8 Z M3.0952381,6 C2.75334754,6 2.47619048,5.73137085 2.47619048,5.4 C2.47619048,5.06862915 2.75334754,4.8 3.0952381,4.8 C3.43712865,4.8 3.71428571,5.06862915 3.71428571,5.4 C3.71428571,5.73137085 3.43712865,6 3.0952381,6 Z M5.57142857,6 C5.22953801,6 4.95238095,5.73137085 4.95238095,5.4 C4.95238095,5.06862915 5.22953801,4.8 5.57142857,4.8 C5.91331913,4.8 6.19047619,5.06862915 6.19047619,5.4 C6.19047619,5.73137085 5.91331913,6 5.57142857,6 Z M8.04761905,6 C7.70572849,6 7.42857143,5.73137085 7.42857143,5.4 C7.42857143,5.06862915 7.70572849,4.8 8.04761905,4.8 C8.38950961,4.8 8.66666667,5.06862915 8.66666667,5.4 C8.66666667,5.73137085 8.38950961,6 8.04761905,6 Z M9.28571429,7.2 C8.94382373,7.2 8.66666667,6.93137085 8.66666667,6.6 C8.66666667,6.26862915 8.94382373,6 9.28571429,6 C9.62760485,6 9.9047619,6.26862915 9.9047619,6.6 C9.9047619,6.93137085 9.62760485,7.2 9.28571429,7.2 Z M6.80952381,7.2 C6.46763325,7.2 6.19047619,6.93137085 6.19047619,6.6 C6.19047619,6.26862915 6.46763325,6 6.80952381,6 C7.15141437,6 7.42857143,6.26862915 7.42857143,6.6 C7.42857143,6.93137085 7.15141437,7.2 6.80952381,7.2 Z M4.33333333,7.2 C3.99144277,7.2 3.71428571,6.93137085 3.71428571,6.6 C3.71428571,6.26862915 3.99144277,6 4.33333333,6 C4.67522389,6 4.95238095,6.26862915 4.95238095,6.6 C4.95238095,6.93137085 4.67522389,7.2 4.33333333,7.2 Z M1.85714286,7.2 C1.5152523,7.2 1.23809524,6.93137085 1.23809524,6.6 C1.23809524,6.26862915 1.5152523,6 1.85714286,6 C2.19903342,6 2.47619048,6.26862915 2.47619048,6.6 C2.47619048,6.93137085 2.19903342,7.2 1.85714286,7.2 Z" id="path-4"></path>
        <filter x="-5.8%" y="-8.3%" width="111.5%" height="133.3%" filterUnits="objectBoundingBox" id="filter-5">
            <feOffset dx="0" dy="1" in="SourceAlpha" result="shadowOffsetOuter1"></feOffset>
            <feColorMatrix values="0 0 0 0 0   0 0 0 0 0   0 0 0 0 0  0 0 0 0.06 0" type="matrix" in="shadowOffsetOuter1"></feColorMatrix>
        </filter>
    </defs>
    <g id="Landing-MHT-Warm-Floor" stroke="none" stroke-width="1" fill="none" fill-rule="evenodd">
        <g id="US">
            <mask id="mask-2" fill="white">
                <use xlink:href="#path-1"></use>
            </mask>
            <use id="Mask" fill="#FFFFFF" xlink:href="#path-1"></use>
            <path d="M0,0 L26,0 L26,1.2 L0,1.2 L0,0 Z M0,2.4 L26,2.4 L26,3.6 L0,3.6 L0,2.4 Z M0,4.8 L26,4.8 L26,6 L0,6 L0,4.8 Z M0,7.2 L26,7.2 L26,8.4 L0,8.4 L0,7.2 Z M0,9.6 L26,9.6 L26,10.8 L0,10.8 L0,9.6 Z M0,12 L26,12 L26,13.2 L0,13.2 L0,12 Z M0,14.4 L26,14.4 L26,15.6 L0,15.6 L0,14.4 Z M0,16.8 L26,16.8 L26,18 L0,18 L0,16.8 Z" id="Rectangle-511" fill="#D02F44" mask="url(#mask-2)"></path>
            <rect id="Rectangle-511" fill="#46467F" mask="url(#mask-2)" x="0" y="0" width="11.1428571" height="8.4"></rect>
            <g id="Oval-43" mask="url(#mask-2)">
                <use fill="black" fill-opacity="1" filter="url(#filter-5)" xlink:href="#path-4"></use>
                <use fill="url(#linearGradient-3)" fill-rule="evenodd" xlink:href="#path-4"></use>
            </g>
        </g>
    </g>
</svg>