<?xml version="1.0" encoding="UTF-8"?>
<svg width="26px" height="18px" viewBox="0 0 26 18" version="1.1" xmlns="http://www.w3.org/2000/svg" xmlns:xlink="http://www.w3.org/1999/xlink">
    <!-- Generator: Sketch 48.1 (47250) - http://www.bohemiancoding.com/sketch -->
    <title>UZ</title>
    <desc>Created with Sketch.</desc>
    <defs>
        <rect id="path-1" x="0" y="0" width="26" height="18"></rect>
    </defs>
    <g id="Landing-MHT-Warm-Floor" stroke="none" stroke-width="1" fill="none" fill-rule="evenodd">
        <g id="UZ">
            <mask id="mask-2" fill="white">
                <use xlink:href="#path-1"></use>
            </mask>
            <g id="Mask">
                <use fill="#FFFFFF" fill-rule="evenodd" xlink:href="#path-1"></use>
                <rect stroke="#F5F5F5" stroke-width="0.5" x="0.25" y="0.25" width="25.5" height="17.5"></rect>
            </g>
            <rect id="Rectangle-2" fill="#04AAC8" mask="url(#mask-2)" x="0" y="0" width="26" height="6"></rect>
            <rect id="Rectangle-2" fill="#23C840" mask="url(#mask-2)" x="0" y="12" width="26" height="6"></rect>
            <path d="M5.36537106,1.50329909 C5.33117391,1.50111125 5.29667323,1.5 5.26190476,1.5 C4.40717836,1.5 3.71428571,2.17157288 3.71428571,3 C3.71428571,3.82842712 4.40717836,4.5 5.26190476,4.5 C5.29667323,4.5 5.33117391,4.49888875 5.36537106,4.49670091 C5.07021363,4.68827207 4.71523542,4.8 4.33333333,4.8 C3.30766166,4.8 2.47619048,3.99411255 2.47619048,3 C2.47619048,2.00588745 3.30766166,1.2 4.33333333,1.2 C4.71523542,1.2 5.07021363,1.31172793 5.36537106,1.50329909 Z M6.80952381,4.8 C6.46763325,4.8 6.19047619,4.53137085 6.19047619,4.2 C6.19047619,3.86862915 6.46763325,3.6 6.80952381,3.6 C7.15141437,3.6 7.42857143,3.86862915 7.42857143,4.2 C7.42857143,4.53137085 7.15141437,4.8 6.80952381,4.8 Z M9.28571429,2.4 C8.94382373,2.4 8.66666667,2.13137085 8.66666667,1.8 C8.66666667,1.46862915 8.94382373,1.2 9.28571429,1.2 C9.62760485,1.2 9.9047619,1.46862915 9.9047619,1.8 C9.9047619,2.13137085 9.62760485,2.4 9.28571429,2.4 Z M11.7619048,2.4 C11.4200142,2.4 11.1428571,2.13137085 11.1428571,1.8 C11.1428571,1.46862915 11.4200142,1.2 11.7619048,1.2 C12.1037953,1.2 12.3809524,1.46862915 12.3809524,1.8 C12.3809524,2.13137085 12.1037953,2.4 11.7619048,2.4 Z M11.7619048,4.8 C11.4200142,4.8 11.1428571,4.53137085 11.1428571,4.2 C11.1428571,3.86862915 11.4200142,3.6 11.7619048,3.6 C12.1037953,3.6 12.3809524,3.86862915 12.3809524,4.2 C12.3809524,4.53137085 12.1037953,4.8 11.7619048,4.8 Z M9.28571429,4.8 C8.94382373,4.8 8.66666667,4.53137085 8.66666667,4.2 C8.66666667,3.86862915 8.94382373,3.6 9.28571429,3.6 C9.62760485,3.6 9.9047619,3.86862915 9.9047619,4.2 C9.9047619,4.53137085 9.62760485,4.8 9.28571429,4.8 Z" id="Oval-68" fill="#FFFFFF" mask="url(#mask-2)"></path>
        </g>
    </g>
</svg>