<?xml version="1.0" encoding="UTF-8"?>
<svg width="236px" height="269px" viewBox="0 0 236 269" version="1.1" xmlns="http://www.w3.org/2000/svg" xmlns:xlink="http://www.w3.org/1999/xlink">
    <!-- Generator: Sketch 48.1 (47250) - http://www.bohemiancoding.com/sketch -->
    <title>Group 5</title>
    <desc>Created with Sketch.</desc>
    <defs>
        <linearGradient x1="50%" y1="0%" x2="0%" y2="71.8963854%" id="linearGradient-1">
            <stop stop-color="#1DC6DA" offset="0%"></stop>
            <stop stop-color="#05BFF3" offset="0%"></stop>
            <stop stop-color="#05C0F3" offset="0%"></stop>
            <stop stop-color="#05DEF9" offset="100%"></stop>
        </linearGradient>
        <linearGradient x1="94.9305122%" y1="-16.5997327%" x2="4.45157258%" y2="107.650861%" id="linearGradient-2">
            <stop stop-color="#1DC6DA" offset="0%"></stop>
            <stop stop-color="#05C0F3" offset="30.6188491%"></stop>
            <stop stop-color="#05BFF3" offset="63.1949868%"></stop>
            <stop stop-color="#05DEF9" offset="100%"></stop>
        </linearGradient>
    </defs>
    <g id="Landing-MHT-Warm-Floor" stroke="none" stroke-width="1" fill="none" fill-rule="evenodd">
        <g id="Group-5" transform="translate(0.000000, -1.000000)">
            <g id="Pie-Chart-binary-outcomes" transform="translate(0.000000, 257.000000)">
                <g id="Group-17">
                    <g id="Group-4">
                        <g id="Group-16">
                            <g id="Group" transform="translate(0.403722, 0.000000)">
                                <g id="Group-3" transform="translate(132.000000, 0.000000)">
                                    <circle id="Oval" fill-opacity="0.15" fill="#ABDAFA" cx="4.5" cy="6.5" r="4.5"></circle>
                                    <path d="M24.128,10 L22.49,10 L22.49,2.104 L17.632,2.104 L17.632,10 L15.994,10 L15.994,0.662 L24.128,0.662 L24.128,10 Z M29.126,10.168 C26.984,10.168 25.654,8.558 25.654,6.612 C25.654,4.68 26.984,3.07 29.126,3.07 C31.296,3.07 32.612,4.68 32.612,6.612 C32.612,8.558 31.296,10.168 29.126,10.168 Z M29.126,8.866 C30.386,8.866 31.086,7.816 31.086,6.612 C31.086,5.422 30.386,4.372 29.126,4.372 C27.88,4.372 27.18,5.422 27.18,6.612 C27.18,7.816 27.88,8.866 29.126,8.866 Z M33.396,10.168 L33.396,8.964 C33.97,8.964 34.292,8.306 34.516,6.528 L34.922,3.238 L40.144,3.238 L40.144,10 L38.674,10 L38.674,4.526 L36.224,4.526 L35.986,6.696 C35.72,9.146 34.88,10.168 33.396,10.168 Z M41.754,12.646 L41.978,11.33 C42.132,11.4 42.37,11.442 42.538,11.442 C43,11.442 43.308,11.302 43.504,10.854 L43.84,10.084 L41.068,3.238 L42.636,3.238 L44.61,8.306 L46.584,3.238 L48.166,3.238 L44.904,11.218 C44.442,12.366 43.63,12.73 42.58,12.744 C42.37,12.744 41.964,12.702 41.754,12.646 Z M48.852,3.238 L50.322,3.238 L50.322,5.058 C50.322,6.108 50.854,6.43 51.932,6.43 C52.576,6.43 53.066,6.332 53.416,6.178 L53.416,3.238 L54.886,3.238 L54.886,10 L53.416,10 L53.416,7.368 C52.968,7.592 52.282,7.732 51.47,7.732 C49.566,7.732 48.852,6.976 48.852,5.59 L48.852,3.238 Z M62.39,10 L60.92,10 L60.92,9.272 C60.416,9.846 59.632,10.168 58.736,10.168 C57.63,10.168 56.384,9.426 56.384,7.928 C56.384,6.374 57.63,5.73 58.736,5.73 C59.646,5.73 60.43,6.024 60.92,6.598 L60.92,5.59 C60.92,4.806 60.276,4.33 59.338,4.33 C58.582,4.33 57.924,4.61 57.336,5.184 L56.734,4.162 C57.518,3.42 58.498,3.07 59.576,3.07 C61.074,3.07 62.39,3.7 62.39,5.52 L62.39,10 Z M59.31,9.16 C59.954,9.16 60.584,8.922 60.92,8.46 L60.92,7.438 C60.584,6.976 59.954,6.738 59.31,6.738 C58.484,6.738 57.868,7.214 57.868,7.956 C57.868,8.684 58.484,9.16 59.31,9.16 Z M67.416,10.168 C65.386,10.168 63.874,8.754 63.874,6.612 C63.874,4.652 65.302,3.07 67.304,3.07 C69.334,3.07 70.636,4.624 70.636,6.752 L70.636,7.102 L65.414,7.102 C65.526,8.124 66.296,8.964 67.57,8.964 C68.228,8.964 69.012,8.698 69.488,8.222 L70.16,9.188 C69.488,9.832 68.494,10.168 67.416,10.168 Z M69.208,6.066 C69.18,5.268 68.634,4.274 67.304,4.274 C66.044,4.274 65.47,5.24 65.4,6.066 L69.208,6.066 Z M79.666,10 L78.196,10 L78.196,5.296 L76.18,10 L75.592,10 L73.562,5.296 L73.562,10 L72.092,10 L72.092,3.238 L74.01,3.238 L75.886,7.606 L77.734,3.238 L79.666,3.238 L79.666,10 Z M92.742,10 L91.272,10 L91.272,5.296 L89.256,10 L88.668,10 L86.638,5.296 L86.638,10 L85.168,10 L85.168,3.238 L87.086,3.238 L88.962,7.606 L90.81,3.238 L92.742,3.238 L92.742,10 Z M94.646,3.238 L96.116,3.238 L96.116,5.688 L98.51,5.688 C100.008,5.688 100.75,6.682 100.75,7.844 C100.75,9.006 99.966,10 98.51,10 L94.646,10 L94.646,3.238 Z M98.328,6.976 L96.116,6.976 L96.116,8.712 L98.328,8.712 C98.916,8.712 99.252,8.348 99.252,7.844 C99.252,7.34 98.916,6.976 98.328,6.976 Z M103.242,10 L101.772,10 L101.772,3.238 L103.242,3.238 L103.242,10 Z" id="Получаем-мы" fill="#FFFFFF"></path>
                                </g>
                                <g id="Group-2">
                                    <path d="M24.128,10 L22.49,10 L22.49,2.104 L17.632,2.104 L17.632,10 L15.994,10 L15.994,0.662 L24.128,0.662 L24.128,10 Z M29.126,10.168 C26.984,10.168 25.654,8.558 25.654,6.612 C25.654,4.68 26.984,3.07 29.126,3.07 C31.296,3.07 32.612,4.68 32.612,6.612 C32.612,8.558 31.296,10.168 29.126,10.168 Z M29.126,8.866 C30.386,8.866 31.086,7.816 31.086,6.612 C31.086,5.422 30.386,4.372 29.126,4.372 C27.88,4.372 27.18,5.422 27.18,6.612 C27.18,7.816 27.88,8.866 29.126,8.866 Z M33.396,10.168 L33.396,8.964 C33.97,8.964 34.292,8.306 34.516,6.528 L34.922,3.238 L40.144,3.238 L40.144,10 L38.674,10 L38.674,4.526 L36.224,4.526 L35.986,6.696 C35.72,9.146 34.88,10.168 33.396,10.168 Z M41.754,12.646 L41.978,11.33 C42.132,11.4 42.37,11.442 42.538,11.442 C43,11.442 43.308,11.302 43.504,10.854 L43.84,10.084 L41.068,3.238 L42.636,3.238 L44.61,8.306 L46.584,3.238 L48.166,3.238 L44.904,11.218 C44.442,12.366 43.63,12.73 42.58,12.744 C42.37,12.744 41.964,12.702 41.754,12.646 Z M48.852,3.238 L50.322,3.238 L50.322,5.058 C50.322,6.108 50.854,6.43 51.932,6.43 C52.576,6.43 53.066,6.332 53.416,6.178 L53.416,3.238 L54.886,3.238 L54.886,10 L53.416,10 L53.416,7.368 C52.968,7.592 52.282,7.732 51.47,7.732 C49.566,7.732 48.852,6.976 48.852,5.59 L48.852,3.238 Z M62.39,10 L60.92,10 L60.92,9.272 C60.416,9.846 59.632,10.168 58.736,10.168 C57.63,10.168 56.384,9.426 56.384,7.928 C56.384,6.374 57.63,5.73 58.736,5.73 C59.646,5.73 60.43,6.024 60.92,6.598 L60.92,5.59 C60.92,4.806 60.276,4.33 59.338,4.33 C58.582,4.33 57.924,4.61 57.336,5.184 L56.734,4.162 C57.518,3.42 58.498,3.07 59.576,3.07 C61.074,3.07 62.39,3.7 62.39,5.52 L62.39,10 Z M59.31,9.16 C59.954,9.16 60.584,8.922 60.92,8.46 L60.92,7.438 C60.584,6.976 59.954,6.738 59.31,6.738 C58.484,6.738 57.868,7.214 57.868,7.956 C57.868,8.684 58.484,9.16 59.31,9.16 Z M67.416,10.168 C65.386,10.168 63.874,8.754 63.874,6.612 C63.874,4.652 65.302,3.07 67.304,3.07 C69.334,3.07 70.636,4.624 70.636,6.752 L70.636,7.102 L65.414,7.102 C65.526,8.124 66.296,8.964 67.57,8.964 C68.228,8.964 69.012,8.698 69.488,8.222 L70.16,9.188 C69.488,9.832 68.494,10.168 67.416,10.168 Z M69.208,6.066 C69.18,5.268 68.634,4.274 67.304,4.274 C66.044,4.274 65.47,5.24 65.4,6.066 L69.208,6.066 Z M74.794,10 L73.324,10 L73.324,4.526 L71.392,4.526 L71.392,3.238 L76.74,3.238 L76.74,4.526 L74.794,4.526 L74.794,10 Z M81.066,10.168 C79.036,10.168 77.524,8.754 77.524,6.612 C77.524,4.652 78.952,3.07 80.954,3.07 C82.984,3.07 84.286,4.624 84.286,6.752 L84.286,7.102 L79.064,7.102 C79.176,8.124 79.946,8.964 81.22,8.964 C81.878,8.964 82.662,8.698 83.138,8.222 L83.81,9.188 C83.138,9.832 82.144,10.168 81.066,10.168 Z M82.858,6.066 C82.83,5.268 82.284,4.274 80.954,4.274 C79.694,4.274 79.12,5.24 79.05,6.066 L82.858,6.066 Z M93.484,10 L89.34,10 L89.34,3.238 L93.386,3.238 C94.674,3.238 95.388,4.008 95.388,4.974 C95.388,5.786 94.87,6.332 94.254,6.514 C94.982,6.682 95.528,7.368 95.528,8.166 C95.528,9.216 94.8,10 93.484,10 Z M93.176,8.712 C93.694,8.712 94.016,8.432 94.016,7.956 C94.016,7.55 93.722,7.186 93.176,7.186 L90.81,7.186 L90.81,8.712 L93.176,8.712 Z M93.134,5.898 C93.61,5.898 93.89,5.604 93.89,5.226 C93.89,4.806 93.61,4.526 93.134,4.526 L90.81,4.526 L90.81,5.898 L93.134,5.898 Z M97.348,3.238 L98.818,3.238 L98.818,5.688 L101.212,5.688 C102.71,5.688 103.452,6.682 103.452,7.844 C103.452,9.006 102.668,10 101.212,10 L97.348,10 L97.348,3.238 Z M101.03,6.976 L98.818,6.976 L98.818,8.712 L101.03,8.712 C101.618,8.712 101.954,8.348 101.954,7.844 C101.954,7.34 101.618,6.976 101.03,6.976 Z M105.944,10 L104.474,10 L104.474,3.238 L105.944,3.238 L105.944,10 Z" id="Получаете-вы" fill="#FFFFFF"></path>
                                    <circle id="Oval" fill="url(#linearGradient-1)" cx="4.5" cy="6.5" r="4.5"></circle>
                                </g>
                            </g>
                        </g>
                    </g>
                </g>
            </g>
            <g id="Group-25" transform="translate(5.000000, 0.000000)">
                <g id="Group">
                    <path d="M114.277565,1.40434783 C143.225304,1.40765217 172.179652,12.4524348 194.265913,34.5403478 C207.202435,47.4752174 216.350522,62.766087 221.710174,79.0333913 L114.277565,114.527043 L114.277565,1.40434783 Z" id="Shape" fill-opacity="0.15" fill="#ABDAFA"></path>
                    <path d="M114.277565,1.40434783 C85.3298261,1.40765217 56.3771304,12.4524348 34.2908696,34.5403478 C-1.25895652,70.0885217 -8.20304348,123.40913 13.461913,165.899739 C18.7207826,176.212609 25.6632174,185.891043 34.2908696,194.517043 L114.277565,114.528696 L114.277565,1.40434783 Z" id="Shape" fill="url(#linearGradient-2)"></path>
                    <path d="M34.2908696,194.513739 C78.4666957,238.686261 150.090087,238.686261 194.265913,194.513739 L114.277565,114.525391 L34.2908696,194.513739 Z" id="Shape" fill-opacity="0.3" fill="#ABDAFA"></path>
                    <path d="M221.710174,79.030087 C234.656609,118.307217 225.505217,163.272783 194.265913,194.513739 L114.277565,114.525391 L221.710174,79.030087 Z" id="Shape" fill-opacity="0.15" fill="#ABDAFA"></path>
                </g>
                <path d="M51.056,99.192 C47.92,99.192 46.656,96.648 46.656,93.688 C46.656,90.6 48.272,88.168 51.36,88.168 C52.688,88.168 53.712,88.648 54.432,89.352 L53.552,90.776 C52.992,90.184 52.384,89.832 51.36,89.832 C49.584,89.832 48.544,91.48 48.544,93.352 C48.544,93.464 48.544,93.56 48.56,93.656 C49.04,92.936 50.16,92.168 51.424,92.168 C53.344,92.168 54.992,93.336 54.992,95.608 C54.992,97.592 53.44,99.192 51.056,99.192 Z M50.96,97.528 C52.368,97.528 53.104,96.536 53.104,95.672 C53.104,94.36 52.08,93.768 50.912,93.768 C50,93.768 49.12,94.264 48.576,95.032 C48.688,96.184 49.312,97.528 50.96,97.528 Z M60.48,99.192 C58.64,99.192 57.376,98.568 56.512,97.544 L57.584,96.264 C58.304,97.08 59.264,97.528 60.464,97.528 C61.808,97.528 62.656,96.696 62.656,95.656 C62.656,94.504 61.824,93.752 60.512,93.752 C59.6,93.752 58.848,94.04 58.176,94.68 L56.848,94.296 L56.848,88.328 L63.84,88.328 L63.84,89.976 L58.72,89.976 L58.72,93.064 C59.232,92.552 60.112,92.136 61.136,92.136 C62.928,92.136 64.544,93.4 64.544,95.576 C64.544,97.8 62.864,99.192 60.48,99.192 Z M68.304,93.464 C66.72,93.464 65.664,92.328 65.664,90.84 C65.664,89.336 66.72,88.168 68.304,88.168 C69.904,88.168 70.976,89.336 70.976,90.84 C70.976,92.328 69.904,93.464 68.304,93.464 Z M68.336,99 L67.28,99 L74.096,88.328 L75.168,88.328 L68.336,99 Z M74.048,99.192 C72.464,99.192 71.408,98.056 71.408,96.568 C71.408,95.064 72.464,93.896 74.048,93.896 C75.632,93.896 76.704,95.064 76.704,96.568 C76.704,98.056 75.632,99.192 74.048,99.192 Z M68.304,92.408 C69.136,92.408 69.728,91.752 69.728,90.84 C69.728,89.88 69.136,89.24 68.304,89.24 C67.488,89.24 66.896,89.88 66.896,90.84 C66.896,91.752 67.488,92.408 68.304,92.408 Z M74.048,98.136 C74.88,98.136 75.472,97.496 75.472,96.568 C75.472,95.608 74.88,94.968 74.048,94.968 C73.216,94.968 72.64,95.608 72.64,96.568 C72.64,97.496 73.216,98.136 74.048,98.136 Z" id="65%" fill="#FFFFFF"></path>
                <path d="M166.528,92 L158.8,92 L158.8,90.528 C162.944,87.392 164.56,86 164.56,84.464 C164.56,83.344 163.6,82.832 162.624,82.832 C161.376,82.832 160.416,83.344 159.744,84.112 L158.656,82.88 C159.6,81.744 161.104,81.168 162.592,81.168 C164.656,81.168 166.464,82.336 166.464,84.464 C166.464,86.432 164.656,88.192 161.792,90.352 L166.528,90.352 L166.528,92 Z M172.384,92.192 C170.544,92.192 169.28,91.568 168.416,90.544 L169.488,89.264 C170.208,90.08 171.168,90.528 172.368,90.528 C173.712,90.528 174.56,89.696 174.56,88.656 C174.56,87.504 173.728,86.752 172.416,86.752 C171.504,86.752 170.752,87.04 170.08,87.68 L168.752,87.296 L168.752,81.328 L175.744,81.328 L175.744,82.976 L170.624,82.976 L170.624,86.064 C171.136,85.552 172.016,85.136 173.04,85.136 C174.832,85.136 176.448,86.4 176.448,88.576 C176.448,90.8 174.768,92.192 172.384,92.192 Z M180.208,86.464 C178.624,86.464 177.568,85.328 177.568,83.84 C177.568,82.336 178.624,81.168 180.208,81.168 C181.808,81.168 182.88,82.336 182.88,83.84 C182.88,85.328 181.808,86.464 180.208,86.464 Z M180.24,92 L179.184,92 L186,81.328 L187.072,81.328 L180.24,92 Z M185.952,92.192 C184.368,92.192 183.312,91.056 183.312,89.568 C183.312,88.064 184.368,86.896 185.952,86.896 C187.536,86.896 188.608,88.064 188.608,89.568 C188.608,91.056 187.536,92.192 185.952,92.192 Z M180.208,85.408 C181.04,85.408 181.632,84.752 181.632,83.84 C181.632,82.88 181.04,82.24 180.208,82.24 C179.392,82.24 178.8,82.88 178.8,83.84 C178.8,84.752 179.392,85.408 180.208,85.408 Z M185.952,91.136 C186.784,91.136 187.376,90.496 187.376,89.568 C187.376,88.608 186.784,87.968 185.952,87.968 C185.12,87.968 184.544,88.608 184.544,89.568 C184.544,90.496 185.12,91.136 185.952,91.136 Z" id="25%" fill="#FFFFFF"></path>
                <path d="M102.416,182.192 C100.512,182.192 99.104,181.424 98.384,180.464 L99.392,179.232 C100.08,180.032 101.216,180.528 102.352,180.528 C103.76,180.528 104.576,179.888 104.576,178.896 C104.576,177.84 103.728,177.392 102.208,177.392 C101.76,177.392 101.136,177.392 100.976,177.408 L100.976,175.728 C101.168,175.744 101.792,175.744 102.208,175.744 C103.456,175.744 104.4,175.312 104.4,174.336 C104.4,173.344 103.44,172.832 102.24,172.832 C101.152,172.832 100.256,173.248 99.488,174.016 L98.528,172.848 C99.344,171.888 100.64,171.168 102.416,171.168 C104.72,171.168 106.272,172.256 106.272,174.048 C106.272,175.472 105.056,176.304 103.952,176.496 C104.992,176.592 106.432,177.44 106.432,179.088 C106.432,180.896 104.88,182.192 102.416,182.192 Z M112.112,182.192 C109.12,182.192 107.84,179.36 107.84,176.672 C107.84,173.984 109.12,171.168 112.112,171.168 C115.104,171.168 116.384,173.984 116.384,176.672 C116.384,179.36 115.104,182.192 112.112,182.192 Z M112.112,180.528 C113.856,180.528 114.48,178.704 114.48,176.672 C114.48,174.64 113.856,172.832 112.112,172.832 C110.368,172.832 109.744,174.64 109.744,176.672 C109.744,178.704 110.368,180.528 112.112,180.528 Z M120.128,176.464 C118.544,176.464 117.488,175.328 117.488,173.84 C117.488,172.336 118.544,171.168 120.128,171.168 C121.728,171.168 122.8,172.336 122.8,173.84 C122.8,175.328 121.728,176.464 120.128,176.464 Z M120.16,182 L119.104,182 L125.92,171.328 L126.992,171.328 L120.16,182 Z M125.872,182.192 C124.288,182.192 123.232,181.056 123.232,179.568 C123.232,178.064 124.288,176.896 125.872,176.896 C127.456,176.896 128.528,178.064 128.528,179.568 C128.528,181.056 127.456,182.192 125.872,182.192 Z M120.128,175.408 C120.96,175.408 121.552,174.752 121.552,173.84 C121.552,172.88 120.96,172.24 120.128,172.24 C119.312,172.24 118.72,172.88 118.72,173.84 C118.72,174.752 119.312,175.408 120.128,175.408 Z M125.872,181.136 C126.704,181.136 127.296,180.496 127.296,179.568 C127.296,178.608 126.704,177.968 125.872,177.968 C125.04,177.968 124.464,178.608 124.464,179.568 C124.464,180.496 125.04,181.136 125.872,181.136 Z" id="30%" fill="#FFFFFF"></path>
            </g>
        </g>
    </g>
</svg>