<?xml version="1.0" encoding="UTF-8"?>
<svg width="1277px" height="383px" viewBox="0 0 1277 383" version="1.1" xmlns="http://www.w3.org/2000/svg" xmlns:xlink="http://www.w3.org/1999/xlink">
    <!-- Generator: Sketch 48.1 (47250) - http://www.bohemiancoding.com/sketch -->
    <title>Group 41</title>
    <desc>Created with Sketch.</desc>
    <defs>
        <linearGradient x1="94.9305122%" y1="-16.5997327%" x2="4.45157258%" y2="107.650861%" id="linearGradient-1">
            <stop stop-color="#1DC6DA" offset="0%"></stop>
            <stop stop-color="#05C0F3" offset="30.6188491%"></stop>
            <stop stop-color="#05BFF3" offset="63.1949868%"></stop>
            <stop stop-color="#05DEF9" offset="100%"></stop>
        </linearGradient>
    </defs>
    <g id="Landing-MHT-Warm-Floor" stroke="none" stroke-width="1" fill="none" fill-rule="evenodd">
        <g id="Group-41" transform="translate(0.000000, -11.000000)">
            <g id="STATS" transform="translate(0.000000, 124.000000)">
                <g id="91k" transform="translate(1024.000000, 0.000000)" fill="#ABDAFA" fill-opacity="0.15">
                    <rect id="BG_STRIPE-Copy-3" x="0" y="0" width="253" height="270"></rect>
                </g>
                <g id="95k" transform="translate(512.000000, 120.000000)" fill="#ABDAFA" fill-opacity="0.15">
                    <rect id="BG_STRIPE-Copy" x="0" y="0" width="253" height="150"></rect>
                </g>
                <g id="80k" transform="translate(0.000000, 240.000000)" fill="#ABDAFA" fill-opacity="0.15">
                    <rect id="BG_STRIPE" x="0" y="0" width="253" height="30"></rect>
                </g>
                <g id="71k" transform="translate(256.000000, 180.000000)" fill="#ABDAFA" fill-opacity="0.15">
                    <rect id="BG_STRIPE" x="0" y="0" width="253" height="90"></rect>
                </g>
                <g id="100k" transform="translate(768.000000, 60.000000)" fill="url(#linearGradient-1)">
                    <rect id="BG_STRIPE-Copy-2" x="0" y="0" width="253" height="210"></rect>
                </g>
            </g>
            <g id="Group-5" transform="translate(1024.000000, 0.000000)">
                <g id="Group-2" transform="translate(30.000000, 0.000000)" fill="#FFFFFF">
                    <path d="M5.824,66 L1.088,66 L1.088,58.272 L5.712,58.272 C7.184,58.272 8,59.152 8,60.256 C8,61.184 7.408,61.808 6.704,62.016 C7.536,62.208 8.16,62.992 8.16,63.904 C8.16,65.104 7.328,66 5.824,66 Z M5.472,64.528 C6.064,64.528 6.432,64.208 6.432,63.664 C6.432,63.2 6.096,62.784 5.472,62.784 L2.768,62.784 L2.768,64.528 L5.472,64.528 Z M5.424,61.312 C5.968,61.312 6.288,60.976 6.288,60.544 C6.288,60.064 5.968,59.744 5.424,59.744 L2.768,59.744 L2.768,61.312 L5.424,61.312 Z M16.64,66 L14.96,66 L14.96,65.168 C14.384,65.824 13.488,66.192 12.464,66.192 C11.2,66.192 9.776,65.344 9.776,63.632 C9.776,61.856 11.2,61.12 12.464,61.12 C13.504,61.12 14.4,61.456 14.96,62.112 L14.96,60.96 C14.96,60.064 14.224,59.52 13.152,59.52 C12.288,59.52 11.536,59.84 10.864,60.496 L10.176,59.328 C11.072,58.48 12.192,58.08 13.424,58.08 C15.136,58.08 16.64,58.8 16.64,60.88 L16.64,66 Z M13.12,65.04 C13.856,65.04 14.576,64.768 14.96,64.24 L14.96,63.072 C14.576,62.544 13.856,62.272 13.12,62.272 C12.176,62.272 11.472,62.816 11.472,63.664 C11.472,64.496 12.176,65.04 13.12,65.04 Z M27.616,58.272 L29.296,58.272 L29.296,66 L18.816,66 L18.816,58.272 L20.496,58.272 L20.496,64.528 L23.216,64.528 L23.216,58.272 L24.896,58.272 L24.896,64.528 L27.616,64.528 L27.616,58.272 Z M38.368,66.192 C36.784,66.192 35.584,65.696 34.816,64.944 L35.6,63.872 C36.32,64.512 37.344,64.816 38.368,64.816 C39.552,64.816 40.256,64.4 40.256,63.776 C40.256,63.04 39.408,62.768 38.224,62.768 L36.576,62.768 L36.576,61.424 L38.224,61.424 C39.376,61.424 40.112,61.088 40.112,60.416 C40.112,59.856 39.328,59.456 38.256,59.456 C37.216,59.456 36.4,59.76 35.776,60.384 L34.944,59.36 C35.68,58.608 36.768,58.096 38.176,58.096 C40.448,58.08 41.856,58.88 41.856,60.192 C41.856,61.248 40.784,61.904 39.808,62.048 C40.736,62.112 42.016,62.688 42.016,63.904 C42.016,65.232 40.64,66.192 38.368,66.192 Z M50.112,66 L48.432,66 L48.432,65.168 C47.856,65.824 46.96,66.192 45.936,66.192 C44.672,66.192 43.248,65.344 43.248,63.632 C43.248,61.856 44.672,61.12 45.936,61.12 C46.976,61.12 47.872,61.456 48.432,62.112 L48.432,60.96 C48.432,60.064 47.696,59.52 46.624,59.52 C45.76,59.52 45.008,59.84 44.336,60.496 L43.648,59.328 C44.544,58.48 45.664,58.08 46.896,58.08 C48.608,58.08 50.112,58.8 50.112,60.88 L50.112,66 Z M46.592,65.04 C47.328,65.04 48.048,64.768 48.432,64.24 L48.432,63.072 C48.048,62.544 47.328,62.272 46.592,62.272 C45.648,62.272 44.944,62.816 44.944,63.664 C44.944,64.496 45.648,65.04 46.592,65.04 Z M56.448,66.192 C55.472,66.192 54.592,65.76 53.968,64.928 L53.968,68.944 L52.288,68.944 L52.288,58.272 L53.968,58.272 L53.968,59.328 C54.544,58.56 55.44,58.08 56.448,58.08 C58.448,58.08 59.872,59.584 59.872,62.128 C59.872,64.672 58.448,66.192 56.448,66.192 Z M55.952,64.704 C57.28,64.704 58.128,63.632 58.128,62.128 C58.128,60.64 57.28,59.568 55.952,59.568 C55.168,59.568 54.336,60.032 53.968,60.608 L53.968,63.664 C54.336,64.224 55.168,64.704 55.952,64.704 Z M67.936,66 L66.256,66 L66.256,65.168 C65.68,65.824 64.784,66.192 63.76,66.192 C62.496,66.192 61.072,65.344 61.072,63.632 C61.072,61.856 62.496,61.12 63.76,61.12 C64.8,61.12 65.696,61.456 66.256,62.112 L66.256,60.96 C66.256,60.064 65.52,59.52 64.448,59.52 C63.584,59.52 62.832,59.84 62.16,60.496 L61.472,59.328 C62.368,58.48 63.488,58.08 64.72,58.08 C66.432,58.08 67.936,58.8 67.936,60.88 L67.936,66 Z M64.416,65.04 C65.152,65.04 65.872,64.768 66.256,64.24 L66.256,63.072 C65.872,62.544 65.152,62.272 64.416,62.272 C63.472,62.272 62.768,62.816 62.768,63.664 C62.768,64.496 63.472,65.04 64.416,65.04 Z M73.6,64.704 C75.04,64.704 75.84,63.504 75.84,62.096 C75.84,60.768 75.04,59.568 73.6,59.568 C72.176,59.568 71.376,60.768 71.376,62.096 C71.376,63.504 72.176,64.704 73.6,64.704 Z M73.6,66.192 C71.104,66.192 69.648,64.288 69.648,61.776 C69.648,58.016 70.944,56.368 73.536,56.048 C75.184,55.808 75.648,55.616 75.648,55.328 L77.296,55.328 C77.296,56.832 75.28,57.232 74,57.376 C72.144,57.584 71.344,58.496 71.136,59.44 C71.76,58.592 72.8,58.08 73.92,58.08 C76.112,58.08 77.568,59.968 77.568,62.112 C77.568,64.288 76.112,66.192 73.6,66.192 Z M82.832,66.192 C80.384,66.192 78.864,64.352 78.864,62.128 C78.864,59.92 80.384,58.08 82.832,58.08 C85.312,58.08 86.816,59.92 86.816,62.128 C86.816,64.352 85.312,66.192 82.832,66.192 Z M82.832,64.704 C84.272,64.704 85.072,63.504 85.072,62.128 C85.072,60.768 84.272,59.568 82.832,59.568 C81.408,59.568 80.608,60.768 80.608,62.128 C80.608,63.504 81.408,64.704 82.832,64.704 Z M91.6,66 L89.92,66 L89.92,59.744 L87.712,59.744 L87.712,58.272 L93.824,58.272 L93.824,59.744 L91.6,59.744 L91.6,66 Z M98.688,66.192 C96.24,66.192 94.72,64.352 94.72,62.128 C94.72,59.92 96.24,58.08 98.688,58.08 C101.168,58.08 102.672,59.92 102.672,62.128 C102.672,64.352 101.168,66.192 98.688,66.192 Z M98.688,64.704 C100.128,64.704 100.928,63.504 100.928,62.128 C100.928,60.768 100.128,59.568 98.688,59.568 C97.264,59.568 96.464,60.768 96.464,62.128 C96.464,63.504 97.264,64.704 98.688,64.704 Z M111.6,66 L109.488,66 L107.12,62.816 L106.048,63.92 L106.048,66 L104.368,66 L104.368,58.272 L106.048,58.272 L106.048,62 L109.456,58.272 L111.536,58.272 L108.32,61.776 L111.6,66 Z M5.824,88 L1.088,88 L1.088,80.272 L5.712,80.272 C7.184,80.272 8,81.152 8,82.256 C8,83.184 7.408,83.808 6.704,84.016 C7.536,84.208 8.16,84.992 8.16,85.904 C8.16,87.104 7.328,88 5.824,88 Z M5.472,86.528 C6.064,86.528 6.432,86.208 6.432,85.664 C6.432,85.2 6.096,84.784 5.472,84.784 L2.768,84.784 L2.768,86.528 L5.472,86.528 Z M5.424,83.312 C5.968,83.312 6.288,82.976 6.288,82.544 C6.288,82.064 5.968,81.744 5.424,81.744 L2.768,81.744 L2.768,83.312 L5.424,83.312 Z M23.008,88 L21.328,88 L21.328,82.624 L19.024,88 L18.352,88 L16.032,82.624 L16.032,88 L14.352,88 L14.352,80.272 L16.544,80.272 L18.688,85.264 L20.8,80.272 L23.008,80.272 L23.008,88 Z M28.752,88.192 C26.432,88.192 24.704,86.576 24.704,84.128 C24.704,81.888 26.336,80.08 28.624,80.08 C30.944,80.08 32.432,81.856 32.432,84.288 L32.432,84.688 L26.464,84.688 C26.592,85.856 27.472,86.816 28.928,86.816 C29.68,86.816 30.576,86.512 31.12,85.968 L31.888,87.072 C31.12,87.808 29.984,88.192 28.752,88.192 Z M30.8,83.504 C30.768,82.592 30.144,81.456 28.624,81.456 C27.184,81.456 26.528,82.56 26.448,83.504 L30.8,83.504 Z M37.616,88.192 C35.264,88.192 33.616,86.48 33.616,84.128 C33.616,81.792 35.264,80.08 37.616,80.08 C39.12,80.08 40.032,80.72 40.576,81.456 L39.472,82.48 C39.04,81.872 38.448,81.568 37.696,81.568 C36.288,81.568 35.36,82.624 35.36,84.128 C35.36,85.632 36.288,86.704 37.696,86.704 C38.448,86.704 39.04,86.384 39.472,85.792 L40.576,86.816 C40.032,87.552 39.12,88.192 37.616,88.192 Z M43.696,88 L41.776,88 L43.68,85.12 C42.672,84.896 41.872,84.064 41.872,82.736 C41.872,81.408 42.768,80.272 44.432,80.272 L48.848,80.272 L48.848,88 L47.168,88 L47.168,85.2 L45.392,85.2 L43.696,88 Z M44.64,83.728 L47.168,83.728 L47.168,81.744 L44.64,81.744 C44,81.744 43.584,82.16 43.584,82.736 C43.584,83.312 43.968,83.728 44.64,83.728 Z M57.104,89.968 L57.104,88 L51.024,88 L51.024,80.272 L52.704,80.272 L52.704,86.528 L56.256,86.528 L56.256,80.272 L57.936,80.272 L57.936,86.528 L58.784,86.528 L58.784,89.968 L57.104,89.968 Z" id="ваш-заработок-в-меся"></path>
                    <path d="M11.73,36 L6.902,36 L6.902,19.544 L3.128,23.386 L0.374,20.496 L7.514,13.322 L11.73,13.322 L11.73,36 Z M20.326,36.374 C18.83,36.374 17.572,35.116 17.572,33.62 C17.572,32.124 18.83,30.866 20.326,30.866 C21.822,30.866 23.08,32.124 23.08,33.62 C23.08,35.116 21.822,36.374 20.326,36.374 Z M38.408,36 L33.58,36 L33.58,19.544 L29.806,23.386 L27.052,20.496 L34.192,13.322 L38.408,13.322 L38.408,36 Z M74.912,36 L70.594,36 L70.594,25.324 L66.208,36 L64.236,36 L59.816,25.324 L59.816,36 L55.498,36 L55.498,19.578 L61.176,19.578 L65.222,29.37 L69.2,19.578 L74.912,19.578 L74.912,36 Z M79.666,36.408 L79.666,32.872 C80.992,32.872 81.774,31.512 82.284,27.534 L83.338,19.578 L96.632,19.578 L96.632,36 L92.314,36 L92.314,23.352 L87.112,23.352 L86.568,28.044 C85.888,33.722 83.848,36.408 79.666,36.408 Z M107.234,36 L102.916,36 L102.916,19.578 L107.234,19.578 L107.234,25.664 L114.034,25.664 L114.034,19.578 L118.352,19.578 L118.352,36 L114.034,36 L114.034,29.438 L107.234,29.438 L107.234,36 Z M134.476455,22.9390244 L136.929707,22.9390244 L136.929707,11.9166667 L143.252878,11.9166667 C144.427681,11.9166667 145.498808,12.0491179 146.466293,12.3140244 C147.433777,12.5789309 148.263037,12.9820434 148.954098,13.523374 C149.645158,14.0647046 150.18648,14.7499959 150.578081,15.5792683 C150.969682,16.4085407 151.16548,17.3990457 151.16548,18.550813 C151.16548,19.7025803 150.958165,20.7046028 150.543528,21.5569106 C150.128892,22.4092184 149.564535,23.1175446 148.850439,23.6819106 C148.136343,24.2462765 147.295566,24.6666653 146.328081,24.9430894 C145.360597,25.2195136 144.312504,25.3577236 143.183772,25.3577236 L139.693935,25.3577236 L139.693935,28.847561 L145.256943,28.847561 L145.256943,31.1280488 L139.693935,31.1280488 L139.693935,36 L136.929707,36 L136.929707,31.1280488 L134.476455,31.1280488 L134.476455,28.847561 L136.929707,28.847561 L136.929707,25.3577236 L134.476455,25.3577236 L134.476455,22.9390244 Z M143.252878,22.9390244 C144.842317,22.9390244 146.091966,22.5762231 147.001862,21.8506098 C147.911758,21.1249964 148.366699,20.0250751 148.366699,18.550813 C148.366699,17.0765509 147.911758,16.0054234 147.001862,15.3373984 C146.091966,14.6693734 144.842317,14.3353659 143.252878,14.3353659 L139.693935,14.3353659 L139.693935,22.9390244 L143.252878,22.9390244 Z" id="1.1-млн-₽"></path>
                </g>
                <g id="Group-4" transform="translate(0.000000, 15.000000)">
                    <g id="Group-9" transform="translate(7.500000, 32.500000) rotate(-90.000000) translate(-7.500000, -32.500000) translate(-25.000000, 25.000000)">
                        <polygon id="Triangle" stroke="#00D9B1" stroke-width="2" points="65 7.5 56 15 56 0"></polygon>
                        <rect id="Rectangle-2" fill="#00D9B1" x="0" y="6.5" width="50" height="2"></rect>
                    </g>
                </g>
            </g>
            <g id="Group-3" transform="translate(256.000000, 184.000000)" fill="#FFFFFF">
                <path d="M2.422,64 L0.952,64 L0.952,57.238 L2.422,57.238 L2.422,59.898 L5.53,59.898 L5.53,57.238 L7,57.238 L7,64 L5.53,64 L5.53,61.186 L2.422,61.186 L2.422,64 Z M14.504,64 L13.034,64 L13.034,63.272 C12.53,63.846 11.746,64.168 10.85,64.168 C9.744,64.168 8.498,63.426 8.498,61.928 C8.498,60.374 9.744,59.73 10.85,59.73 C11.76,59.73 12.544,60.024 13.034,60.598 L13.034,59.59 C13.034,58.806 12.39,58.33 11.452,58.33 C10.696,58.33 10.038,58.61 9.45,59.184 L8.848,58.162 C9.632,57.42 10.612,57.07 11.69,57.07 C13.188,57.07 14.504,57.7 14.504,59.52 L14.504,64 Z M11.424,63.16 C12.068,63.16 12.698,62.922 13.034,62.46 L13.034,61.438 C12.698,60.976 12.068,60.738 11.424,60.738 C10.598,60.738 9.982,61.214 9.982,61.956 C9.982,62.684 10.598,63.16 11.424,63.16 Z M21.728,65.722 L21.728,64 L16.408,64 L16.408,57.238 L17.878,57.238 L17.878,62.712 L20.986,62.712 L20.986,57.238 L22.456,57.238 L22.456,62.712 L23.198,62.712 L23.198,65.722 L21.728,65.722 Z M27.524,64.168 C25.494,64.168 23.982,62.754 23.982,60.612 C23.982,58.652 25.41,57.07 27.412,57.07 C29.442,57.07 30.744,58.624 30.744,60.752 L30.744,61.102 L25.522,61.102 C25.634,62.124 26.404,62.964 27.678,62.964 C28.336,62.964 29.12,62.698 29.596,62.222 L30.268,63.188 C29.596,63.832 28.602,64.168 27.524,64.168 Z M29.316,60.066 C29.288,59.268 28.742,58.274 27.412,58.274 C26.152,58.274 25.578,59.24 25.508,60.066 L29.316,60.066 Z M33.67,64 L32.2,64 L32.2,57.238 L33.67,57.238 L33.67,59.898 L36.778,59.898 L36.778,57.238 L38.248,57.238 L38.248,64 L36.778,64 L36.778,61.186 L33.67,61.186 L33.67,64 Z M46.48,64 L44.632,64 L42.56,61.214 L41.622,62.18 L41.622,64 L40.152,64 L40.152,57.238 L41.622,57.238 L41.622,60.5 L44.604,57.238 L46.424,57.238 L43.61,60.304 L46.48,64 Z M53.116,64 L51.646,64 L51.646,63.272 C51.142,63.846 50.358,64.168 49.462,64.168 C48.356,64.168 47.11,63.426 47.11,61.928 C47.11,60.374 48.356,59.73 49.462,59.73 C50.372,59.73 51.156,60.024 51.646,60.598 L51.646,59.59 C51.646,58.806 51.002,58.33 50.064,58.33 C49.308,58.33 48.65,58.61 48.062,59.184 L47.46,58.162 C48.244,57.42 49.224,57.07 50.302,57.07 C51.8,57.07 53.116,57.7 53.116,59.52 L53.116,64 Z M50.036,63.16 C50.68,63.16 51.31,62.922 51.646,62.46 L51.646,61.438 C51.31,60.976 50.68,60.738 50.036,60.738 C49.21,60.738 48.594,61.214 48.594,61.956 C48.594,62.684 49.21,63.16 50.036,63.16 Z M64.666,64 L63.196,64 L63.196,58.526 L60.088,58.526 L60.088,64 L58.618,64 L58.618,57.238 L64.666,57.238 L64.666,64 Z M70.21,64.168 C69.356,64.168 68.586,63.79 68.04,63.062 L68.04,66.576 L66.57,66.576 L66.57,57.238 L68.04,57.238 L68.04,58.162 C68.544,57.49 69.328,57.07 70.21,57.07 C71.96,57.07 73.206,58.386 73.206,60.612 C73.206,62.838 71.96,64.168 70.21,64.168 Z M69.776,62.866 C70.938,62.866 71.68,61.928 71.68,60.612 C71.68,59.31 70.938,58.372 69.776,58.372 C69.09,58.372 68.362,58.778 68.04,59.282 L68.04,61.956 C68.362,62.446 69.09,62.866 69.776,62.866 Z M76.076,64 L74.662,64 L74.662,57.238 L76.132,57.238 L76.132,61.788 L79.24,57.238 L80.71,57.238 L80.71,64 L79.24,64 L79.24,59.324 L76.076,64 Z M89.264,64.168 C87.122,64.168 85.792,62.558 85.792,60.612 C85.792,58.68 87.122,57.07 89.264,57.07 C91.434,57.07 92.75,58.68 92.75,60.612 C92.75,62.558 91.434,64.168 89.264,64.168 Z M89.264,62.866 C90.524,62.866 91.224,61.816 91.224,60.612 C91.224,59.422 90.524,58.372 89.264,58.372 C88.018,58.372 87.318,59.422 87.318,60.612 C87.318,61.816 88.018,62.866 89.264,62.866 Z M97.286,62.866 C98.546,62.866 99.246,61.816 99.246,60.584 C99.246,59.422 98.546,58.372 97.286,58.372 C96.04,58.372 95.34,59.422 95.34,60.584 C95.34,61.816 96.04,62.866 97.286,62.866 Z M97.286,64.168 C95.102,64.168 93.828,62.502 93.828,60.304 C93.828,57.014 94.962,55.572 97.23,55.292 C98.672,55.082 99.078,54.914 99.078,54.662 L100.52,54.662 C100.52,55.978 98.756,56.328 97.636,56.454 C96.012,56.636 95.312,57.434 95.13,58.26 C95.676,57.518 96.586,57.07 97.566,57.07 C99.484,57.07 100.758,58.722 100.758,60.598 C100.758,62.502 99.484,64.168 97.286,64.168 Z M107.408,64 L103.544,64 L103.544,58.526 L101.612,58.526 L101.612,57.238 L105.014,57.238 L105.014,59.688 L107.408,59.688 C108.906,59.688 109.648,60.682 109.648,61.844 C109.648,63.006 108.864,64 107.408,64 Z M107.226,60.976 L105.014,60.976 L105.014,62.712 L107.226,62.712 C107.814,62.712 108.15,62.348 108.15,61.844 C108.15,61.34 107.814,60.976 107.226,60.976 Z M114.226,64.168 C112.196,64.168 110.684,62.754 110.684,60.612 C110.684,58.652 112.112,57.07 114.114,57.07 C116.144,57.07 117.446,58.624 117.446,60.752 L117.446,61.102 L112.224,61.102 C112.336,62.124 113.106,62.964 114.38,62.964 C115.038,62.964 115.822,62.698 116.298,62.222 L116.97,63.188 C116.298,63.832 115.304,64.168 114.226,64.168 Z M116.018,60.066 C115.99,59.268 115.444,58.274 114.114,58.274 C112.854,58.274 112.28,59.24 112.21,60.066 L116.018,60.066 Z M126.476,64 L125.006,64 L125.006,59.296 L122.99,64 L122.402,64 L120.372,59.296 L120.372,64 L118.902,64 L118.902,57.238 L120.82,57.238 L122.696,61.606 L124.544,57.238 L126.476,57.238 L126.476,64 Z M131.502,64.168 C129.472,64.168 127.96,62.754 127.96,60.612 C127.96,58.652 129.388,57.07 131.39,57.07 C133.42,57.07 134.722,58.624 134.722,60.752 L134.722,61.102 L129.5,61.102 C129.612,62.124 130.382,62.964 131.656,62.964 C132.314,62.964 133.098,62.698 133.574,62.222 L134.246,63.188 C133.574,63.832 132.58,64.168 131.502,64.168 Z M133.294,60.066 C133.266,59.268 132.72,58.274 131.39,58.274 C130.13,58.274 129.556,59.24 129.486,60.066 L133.294,60.066 Z M7,84 L5.53,84 L5.53,78.526 L2.422,78.526 L2.422,84 L0.952,84 L0.952,77.238 L7,77.238 L7,84 Z M12.544,84.168 C11.69,84.168 10.92,83.79 10.374,83.062 L10.374,86.576 L8.904,86.576 L8.904,77.238 L10.374,77.238 L10.374,78.162 C10.878,77.49 11.662,77.07 12.544,77.07 C14.294,77.07 15.54,78.386 15.54,80.612 C15.54,82.838 14.294,84.168 12.544,84.168 Z M12.11,82.866 C13.272,82.866 14.014,81.928 14.014,80.612 C14.014,79.31 13.272,78.372 12.11,78.372 C11.424,78.372 10.696,78.778 10.374,79.282 L10.374,81.956 C10.696,82.446 11.424,82.866 12.11,82.866 Z M20.048,84.168 C17.906,84.168 16.576,82.558 16.576,80.612 C16.576,78.68 17.906,77.07 20.048,77.07 C22.218,77.07 23.534,78.68 23.534,80.612 C23.534,82.558 22.218,84.168 20.048,84.168 Z M20.048,82.866 C21.308,82.866 22.008,81.816 22.008,80.612 C22.008,79.422 21.308,78.372 20.048,78.372 C18.802,78.372 18.102,79.422 18.102,80.612 C18.102,81.816 18.802,82.866 20.048,82.866 Z M24.318,85.722 L24.318,82.782 C24.892,82.642 25.214,82.306 25.438,80.528 L25.844,77.238 L31.066,77.238 L31.066,82.712 L31.808,82.712 L31.808,85.722 L30.338,85.722 L30.338,84 L25.788,84 L25.788,85.722 L24.318,85.722 Z M27.146,78.526 L26.908,80.696 C26.81,81.634 26.488,82.292 26.012,82.712 L29.596,82.712 L29.596,78.526 L27.146,78.526 Z M38.612,84 L37.142,84 L37.142,83.272 C36.638,83.846 35.854,84.168 34.958,84.168 C33.852,84.168 32.606,83.426 32.606,81.928 C32.606,80.374 33.852,79.73 34.958,79.73 C35.868,79.73 36.652,80.024 37.142,80.598 L37.142,79.59 C37.142,78.806 36.498,78.33 35.56,78.33 C34.804,78.33 34.146,78.61 33.558,79.184 L32.956,78.162 C33.74,77.42 34.72,77.07 35.798,77.07 C37.296,77.07 38.612,77.7 38.612,79.52 L38.612,84 Z M35.532,83.16 C36.176,83.16 36.806,82.922 37.142,82.46 L37.142,81.438 C36.806,80.976 36.176,80.738 35.532,80.738 C34.706,80.738 34.09,81.214 34.09,81.956 C34.09,82.684 34.706,83.16 35.532,83.16 Z M41.496,84 L39.648,84 L42.518,80.304 L39.704,77.238 L41.524,77.238 L43.946,79.884 L43.946,77.238 L45.416,77.238 L45.416,79.884 L47.838,77.238 L49.658,77.238 L46.844,80.304 L49.714,84 L47.866,84 L45.794,81.214 L45.416,81.606 L45.416,84 L43.946,84 L43.946,81.606 L43.568,81.214 L41.496,84 Z M57.4,84.168 C55.258,84.168 53.928,82.558 53.928,80.612 C53.928,78.68 55.258,77.07 57.4,77.07 C59.57,77.07 60.886,78.68 60.886,80.612 C60.886,82.558 59.57,84.168 57.4,84.168 Z M57.4,82.866 C58.66,82.866 59.36,81.816 59.36,80.612 C59.36,79.422 58.66,78.372 57.4,78.372 C56.154,78.372 55.454,79.422 55.454,80.612 C55.454,81.816 56.154,82.866 57.4,82.866 Z M65.072,84 L63.602,84 L63.602,78.526 L61.67,78.526 L61.67,77.238 L67.018,77.238 L67.018,78.526 L65.072,78.526 L65.072,84 Z M75.194,84 L73.556,84 L73.556,76.79 L72.03,78.372 L71.078,77.378 L73.766,74.662 L75.194,74.662 L75.194,84 Z M84.098,84.168 C81.48,84.168 80.36,81.69 80.36,79.338 C80.36,76.986 81.48,74.522 84.098,74.522 C86.716,74.522 87.836,76.986 87.836,79.338 C87.836,81.69 86.716,84.168 84.098,84.168 Z M84.098,82.712 C85.624,82.712 86.17,81.116 86.17,79.338 C86.17,77.56 85.624,75.978 84.098,75.978 C82.572,75.978 82.026,77.56 82.026,79.338 C82.026,81.116 82.572,82.712 84.098,82.712 Z M92.722,84.168 C90.104,84.168 88.984,81.69 88.984,79.338 C88.984,76.986 90.104,74.522 92.722,74.522 C95.34,74.522 96.46,76.986 96.46,79.338 C96.46,81.69 95.34,84.168 92.722,84.168 Z M92.722,82.712 C94.248,82.712 94.794,81.116 94.794,79.338 C94.794,77.56 94.248,75.978 92.722,75.978 C91.196,75.978 90.65,77.56 90.65,79.338 C90.65,81.116 91.196,82.712 92.722,82.712 Z M101.346,84.168 C98.728,84.168 97.608,81.69 97.608,79.338 C97.608,76.986 98.728,74.522 101.346,74.522 C103.964,74.522 105.084,76.986 105.084,79.338 C105.084,81.69 103.964,84.168 101.346,84.168 Z M101.346,82.712 C102.872,82.712 103.418,81.116 103.418,79.338 C103.418,77.56 102.872,75.978 101.346,75.978 C99.82,75.978 99.274,77.56 99.274,79.338 C99.274,81.116 99.82,82.712 101.346,82.712 Z M113.568,84.168 C110.95,84.168 109.83,81.69 109.83,79.338 C109.83,76.986 110.95,74.522 113.568,74.522 C116.186,74.522 117.306,76.986 117.306,79.338 C117.306,81.69 116.186,84.168 113.568,84.168 Z M113.568,82.712 C115.094,82.712 115.64,81.116 115.64,79.338 C115.64,77.56 115.094,75.978 113.568,75.978 C112.042,75.978 111.496,77.56 111.496,79.338 C111.496,81.116 112.042,82.712 113.568,82.712 Z M122.192,84.168 C119.574,84.168 118.454,81.69 118.454,79.338 C118.454,76.986 119.574,74.522 122.192,74.522 C124.81,74.522 125.93,76.986 125.93,79.338 C125.93,81.69 124.81,84.168 122.192,84.168 Z M122.192,82.712 C123.718,82.712 124.264,81.116 124.264,79.338 C124.264,77.56 123.718,75.978 122.192,75.978 C120.666,75.978 120.12,77.56 120.12,79.338 C120.12,81.116 120.666,82.712 122.192,82.712 Z M130.816,84.168 C128.198,84.168 127.078,81.69 127.078,79.338 C127.078,76.986 128.198,74.522 130.816,74.522 C133.434,74.522 134.554,76.986 134.554,79.338 C134.554,81.69 133.434,84.168 130.816,84.168 Z M130.816,82.712 C132.342,82.712 132.888,81.116 132.888,79.338 C132.888,77.56 132.342,75.978 130.816,75.978 C129.29,75.978 128.744,77.56 128.744,79.338 C128.744,81.116 129.29,82.712 130.816,82.712 Z" id="наценка-при-объеме-п"></path>
                <path d="M16.15,25.868 L10.064,25.868 L10.064,32.77 L7.106,32.77 L7.106,25.868 L0.986,25.868 L0.986,23.182 L7.106,23.182 L7.106,16.552 L10.064,16.552 L10.064,23.182 L16.15,23.182 L16.15,25.868 Z M35.66,36 L30.832,36 L30.832,31.308 L19.986,31.308 L19.986,27.5 L28.996,13.322 L35.66,13.322 L35.66,27.058 L38.584,27.058 L38.584,31.308 L35.66,31.308 L35.66,36 Z M30.832,27.058 L30.832,17.606 L24.712,27.058 L30.832,27.058 Z M51.974,36.408 C45.48,36.408 42.59,30.526 42.59,24.678 C42.59,18.83 45.48,12.982 51.974,12.982 C58.434,12.982 61.358,18.83 61.358,24.678 C61.358,30.526 58.434,36.408 51.974,36.408 Z M51.974,32.124 C55.204,32.124 56.428,28.86 56.428,24.678 C56.428,20.496 55.204,17.266 51.974,17.266 C48.71,17.266 47.486,20.496 47.486,24.678 C47.486,28.86 48.71,32.124 51.974,32.124 Z M71.144,24.27 C67.676,24.27 65.398,21.856 65.398,18.694 C65.398,15.498 67.676,12.982 71.144,12.982 C74.646,12.982 76.924,15.498 76.924,18.694 C76.924,21.856 74.646,24.27 71.144,24.27 Z M71.484,36 L68.934,36 L83.418,13.322 L86.002,13.322 L71.484,36 Z M83.622,36.408 C80.154,36.408 77.876,33.96 77.876,30.798 C77.876,27.602 80.154,25.086 83.622,25.086 C87.09,25.086 89.402,27.602 89.402,30.798 C89.402,33.96 87.09,36.408 83.622,36.408 Z M71.144,21.618 C72.708,21.618 73.83,20.462 73.83,18.694 C73.83,16.79 72.708,15.668 71.144,15.668 C69.614,15.668 68.458,16.79 68.458,18.694 C68.458,20.462 69.614,21.618 71.144,21.618 Z M83.622,33.756 C85.186,33.756 86.342,32.634 86.342,30.798 C86.342,28.928 85.186,27.772 83.622,27.772 C82.058,27.772 80.936,28.928 80.936,30.798 C80.936,32.634 82.058,33.756 83.622,33.756 Z" id="+40%"></path>
            </g>
            <g id="Group-3-Copy-3" transform="translate(30.000000, 247.000000)" fill="#FFFFFF">
                <path d="M2.422,64 L0.952,64 L0.952,57.238 L2.422,57.238 L2.422,59.898 L5.53,59.898 L5.53,57.238 L7,57.238 L7,64 L5.53,64 L5.53,61.186 L2.422,61.186 L2.422,64 Z M14.504,64 L13.034,64 L13.034,63.272 C12.53,63.846 11.746,64.168 10.85,64.168 C9.744,64.168 8.498,63.426 8.498,61.928 C8.498,60.374 9.744,59.73 10.85,59.73 C11.76,59.73 12.544,60.024 13.034,60.598 L13.034,59.59 C13.034,58.806 12.39,58.33 11.452,58.33 C10.696,58.33 10.038,58.61 9.45,59.184 L8.848,58.162 C9.632,57.42 10.612,57.07 11.69,57.07 C13.188,57.07 14.504,57.7 14.504,59.52 L14.504,64 Z M11.424,63.16 C12.068,63.16 12.698,62.922 13.034,62.46 L13.034,61.438 C12.698,60.976 12.068,60.738 11.424,60.738 C10.598,60.738 9.982,61.214 9.982,61.956 C9.982,62.684 10.598,63.16 11.424,63.16 Z M21.728,65.722 L21.728,64 L16.408,64 L16.408,57.238 L17.878,57.238 L17.878,62.712 L20.986,62.712 L20.986,57.238 L22.456,57.238 L22.456,62.712 L23.198,62.712 L23.198,65.722 L21.728,65.722 Z M27.524,64.168 C25.494,64.168 23.982,62.754 23.982,60.612 C23.982,58.652 25.41,57.07 27.412,57.07 C29.442,57.07 30.744,58.624 30.744,60.752 L30.744,61.102 L25.522,61.102 C25.634,62.124 26.404,62.964 27.678,62.964 C28.336,62.964 29.12,62.698 29.596,62.222 L30.268,63.188 C29.596,63.832 28.602,64.168 27.524,64.168 Z M29.316,60.066 C29.288,59.268 28.742,58.274 27.412,58.274 C26.152,58.274 25.578,59.24 25.508,60.066 L29.316,60.066 Z M33.67,64 L32.2,64 L32.2,57.238 L33.67,57.238 L33.67,59.898 L36.778,59.898 L36.778,57.238 L38.248,57.238 L38.248,64 L36.778,64 L36.778,61.186 L33.67,61.186 L33.67,64 Z M46.48,64 L44.632,64 L42.56,61.214 L41.622,62.18 L41.622,64 L40.152,64 L40.152,57.238 L41.622,57.238 L41.622,60.5 L44.604,57.238 L46.424,57.238 L43.61,60.304 L46.48,64 Z M53.116,64 L51.646,64 L51.646,63.272 C51.142,63.846 50.358,64.168 49.462,64.168 C48.356,64.168 47.11,63.426 47.11,61.928 C47.11,60.374 48.356,59.73 49.462,59.73 C50.372,59.73 51.156,60.024 51.646,60.598 L51.646,59.59 C51.646,58.806 51.002,58.33 50.064,58.33 C49.308,58.33 48.65,58.61 48.062,59.184 L47.46,58.162 C48.244,57.42 49.224,57.07 50.302,57.07 C51.8,57.07 53.116,57.7 53.116,59.52 L53.116,64 Z M50.036,63.16 C50.68,63.16 51.31,62.922 51.646,62.46 L51.646,61.438 C51.31,60.976 50.68,60.738 50.036,60.738 C49.21,60.738 48.594,61.214 48.594,61.956 C48.594,62.684 49.21,63.16 50.036,63.16 Z M64.666,64 L63.196,64 L63.196,58.526 L60.088,58.526 L60.088,64 L58.618,64 L58.618,57.238 L64.666,57.238 L64.666,64 Z M70.21,64.168 C69.356,64.168 68.586,63.79 68.04,63.062 L68.04,66.576 L66.57,66.576 L66.57,57.238 L68.04,57.238 L68.04,58.162 C68.544,57.49 69.328,57.07 70.21,57.07 C71.96,57.07 73.206,58.386 73.206,60.612 C73.206,62.838 71.96,64.168 70.21,64.168 Z M69.776,62.866 C70.938,62.866 71.68,61.928 71.68,60.612 C71.68,59.31 70.938,58.372 69.776,58.372 C69.09,58.372 68.362,58.778 68.04,59.282 L68.04,61.956 C68.362,62.446 69.09,62.866 69.776,62.866 Z M76.076,64 L74.662,64 L74.662,57.238 L76.132,57.238 L76.132,61.788 L79.24,57.238 L80.71,57.238 L80.71,64 L79.24,64 L79.24,59.324 L76.076,64 Z M89.264,64.168 C87.122,64.168 85.792,62.558 85.792,60.612 C85.792,58.68 87.122,57.07 89.264,57.07 C91.434,57.07 92.75,58.68 92.75,60.612 C92.75,62.558 91.434,64.168 89.264,64.168 Z M89.264,62.866 C90.524,62.866 91.224,61.816 91.224,60.612 C91.224,59.422 90.524,58.372 89.264,58.372 C88.018,58.372 87.318,59.422 87.318,60.612 C87.318,61.816 88.018,62.866 89.264,62.866 Z M97.286,62.866 C98.546,62.866 99.246,61.816 99.246,60.584 C99.246,59.422 98.546,58.372 97.286,58.372 C96.04,58.372 95.34,59.422 95.34,60.584 C95.34,61.816 96.04,62.866 97.286,62.866 Z M97.286,64.168 C95.102,64.168 93.828,62.502 93.828,60.304 C93.828,57.014 94.962,55.572 97.23,55.292 C98.672,55.082 99.078,54.914 99.078,54.662 L100.52,54.662 C100.52,55.978 98.756,56.328 97.636,56.454 C96.012,56.636 95.312,57.434 95.13,58.26 C95.676,57.518 96.586,57.07 97.566,57.07 C99.484,57.07 100.758,58.722 100.758,60.598 C100.758,62.502 99.484,64.168 97.286,64.168 Z M107.408,64 L103.544,64 L103.544,58.526 L101.612,58.526 L101.612,57.238 L105.014,57.238 L105.014,59.688 L107.408,59.688 C108.906,59.688 109.648,60.682 109.648,61.844 C109.648,63.006 108.864,64 107.408,64 Z M107.226,60.976 L105.014,60.976 L105.014,62.712 L107.226,62.712 C107.814,62.712 108.15,62.348 108.15,61.844 C108.15,61.34 107.814,60.976 107.226,60.976 Z M114.226,64.168 C112.196,64.168 110.684,62.754 110.684,60.612 C110.684,58.652 112.112,57.07 114.114,57.07 C116.144,57.07 117.446,58.624 117.446,60.752 L117.446,61.102 L112.224,61.102 C112.336,62.124 113.106,62.964 114.38,62.964 C115.038,62.964 115.822,62.698 116.298,62.222 L116.97,63.188 C116.298,63.832 115.304,64.168 114.226,64.168 Z M116.018,60.066 C115.99,59.268 115.444,58.274 114.114,58.274 C112.854,58.274 112.28,59.24 112.21,60.066 L116.018,60.066 Z M126.476,64 L125.006,64 L125.006,59.296 L122.99,64 L122.402,64 L120.372,59.296 L120.372,64 L118.902,64 L118.902,57.238 L120.82,57.238 L122.696,61.606 L124.544,57.238 L126.476,57.238 L126.476,64 Z M131.502,64.168 C129.472,64.168 127.96,62.754 127.96,60.612 C127.96,58.652 129.388,57.07 131.39,57.07 C133.42,57.07 134.722,58.624 134.722,60.752 L134.722,61.102 L129.5,61.102 C129.612,62.124 130.382,62.964 131.656,62.964 C132.314,62.964 133.098,62.698 133.574,62.222 L134.246,63.188 C133.574,63.832 132.58,64.168 131.502,64.168 Z M133.294,60.066 C133.266,59.268 132.72,58.274 131.39,58.274 C130.13,58.274 129.556,59.24 129.486,60.066 L133.294,60.066 Z M7,84 L5.53,84 L5.53,78.526 L2.422,78.526 L2.422,84 L0.952,84 L0.952,77.238 L7,77.238 L7,84 Z M12.544,84.168 C11.69,84.168 10.92,83.79 10.374,83.062 L10.374,86.576 L8.904,86.576 L8.904,77.238 L10.374,77.238 L10.374,78.162 C10.878,77.49 11.662,77.07 12.544,77.07 C14.294,77.07 15.54,78.386 15.54,80.612 C15.54,82.838 14.294,84.168 12.544,84.168 Z M12.11,82.866 C13.272,82.866 14.014,81.928 14.014,80.612 C14.014,79.31 13.272,78.372 12.11,78.372 C11.424,78.372 10.696,78.778 10.374,79.282 L10.374,81.956 C10.696,82.446 11.424,82.866 12.11,82.866 Z M20.048,84.168 C17.906,84.168 16.576,82.558 16.576,80.612 C16.576,78.68 17.906,77.07 20.048,77.07 C22.218,77.07 23.534,78.68 23.534,80.612 C23.534,82.558 22.218,84.168 20.048,84.168 Z M20.048,82.866 C21.308,82.866 22.008,81.816 22.008,80.612 C22.008,79.422 21.308,78.372 20.048,78.372 C18.802,78.372 18.102,79.422 18.102,80.612 C18.102,81.816 18.802,82.866 20.048,82.866 Z M24.318,85.722 L24.318,82.782 C24.892,82.642 25.214,82.306 25.438,80.528 L25.844,77.238 L31.066,77.238 L31.066,82.712 L31.808,82.712 L31.808,85.722 L30.338,85.722 L30.338,84 L25.788,84 L25.788,85.722 L24.318,85.722 Z M27.146,78.526 L26.908,80.696 C26.81,81.634 26.488,82.292 26.012,82.712 L29.596,82.712 L29.596,78.526 L27.146,78.526 Z M38.612,84 L37.142,84 L37.142,83.272 C36.638,83.846 35.854,84.168 34.958,84.168 C33.852,84.168 32.606,83.426 32.606,81.928 C32.606,80.374 33.852,79.73 34.958,79.73 C35.868,79.73 36.652,80.024 37.142,80.598 L37.142,79.59 C37.142,78.806 36.498,78.33 35.56,78.33 C34.804,78.33 34.146,78.61 33.558,79.184 L32.956,78.162 C33.74,77.42 34.72,77.07 35.798,77.07 C37.296,77.07 38.612,77.7 38.612,79.52 L38.612,84 Z M35.532,83.16 C36.176,83.16 36.806,82.922 37.142,82.46 L37.142,81.438 C36.806,80.976 36.176,80.738 35.532,80.738 C34.706,80.738 34.09,81.214 34.09,81.956 C34.09,82.684 34.706,83.16 35.532,83.16 Z M41.496,84 L39.648,84 L42.518,80.304 L39.704,77.238 L41.524,77.238 L43.946,79.884 L43.946,77.238 L45.416,77.238 L45.416,79.884 L47.838,77.238 L49.658,77.238 L46.844,80.304 L49.714,84 L47.866,84 L45.794,81.214 L45.416,81.606 L45.416,84 L43.946,84 L43.946,81.606 L43.568,81.214 L41.496,84 Z M57.4,84.168 C55.258,84.168 53.928,82.558 53.928,80.612 C53.928,78.68 55.258,77.07 57.4,77.07 C59.57,77.07 60.886,78.68 60.886,80.612 C60.886,82.558 59.57,84.168 57.4,84.168 Z M57.4,82.866 C58.66,82.866 59.36,81.816 59.36,80.612 C59.36,79.422 58.66,78.372 57.4,78.372 C56.154,78.372 55.454,79.422 55.454,80.612 C55.454,81.816 56.154,82.866 57.4,82.866 Z M65.072,84 L63.602,84 L63.602,78.526 L61.67,78.526 L61.67,77.238 L67.018,77.238 L67.018,78.526 L65.072,78.526 L65.072,84 Z M75.124,84.168 C73.514,84.168 72.408,83.622 71.652,82.726 L72.59,81.606 C73.22,82.32 74.06,82.712 75.11,82.712 C76.286,82.712 77.028,81.984 77.028,81.074 C77.028,80.066 76.3,79.408 75.152,79.408 C74.354,79.408 73.696,79.66 73.108,80.22 L71.946,79.884 L71.946,74.662 L78.064,74.662 L78.064,76.104 L73.584,76.104 L73.584,78.806 C74.032,78.358 74.802,77.994 75.698,77.994 C77.266,77.994 78.68,79.1 78.68,81.004 C78.68,82.95 77.21,84.168 75.124,84.168 Z M83.58,84.168 C80.962,84.168 79.842,81.69 79.842,79.338 C79.842,76.986 80.962,74.522 83.58,74.522 C86.198,74.522 87.318,76.986 87.318,79.338 C87.318,81.69 86.198,84.168 83.58,84.168 Z M83.58,82.712 C85.106,82.712 85.652,81.116 85.652,79.338 C85.652,77.56 85.106,75.978 83.58,75.978 C82.054,75.978 81.508,77.56 81.508,79.338 C81.508,81.116 82.054,82.712 83.58,82.712 Z M92.204,84.168 C89.586,84.168 88.466,81.69 88.466,79.338 C88.466,76.986 89.586,74.522 92.204,74.522 C94.822,74.522 95.942,76.986 95.942,79.338 C95.942,81.69 94.822,84.168 92.204,84.168 Z M92.204,82.712 C93.73,82.712 94.276,81.116 94.276,79.338 C94.276,77.56 93.73,75.978 92.204,75.978 C90.678,75.978 90.132,77.56 90.132,79.338 C90.132,81.116 90.678,82.712 92.204,82.712 Z M104.426,84.168 C101.808,84.168 100.688,81.69 100.688,79.338 C100.688,76.986 101.808,74.522 104.426,74.522 C107.044,74.522 108.164,76.986 108.164,79.338 C108.164,81.69 107.044,84.168 104.426,84.168 Z M104.426,82.712 C105.952,82.712 106.498,81.116 106.498,79.338 C106.498,77.56 105.952,75.978 104.426,75.978 C102.9,75.978 102.354,77.56 102.354,79.338 C102.354,81.116 102.9,82.712 104.426,82.712 Z M113.05,84.168 C110.432,84.168 109.312,81.69 109.312,79.338 C109.312,76.986 110.432,74.522 113.05,74.522 C115.668,74.522 116.788,76.986 116.788,79.338 C116.788,81.69 115.668,84.168 113.05,84.168 Z M113.05,82.712 C114.576,82.712 115.122,81.116 115.122,79.338 C115.122,77.56 114.576,75.978 113.05,75.978 C111.524,75.978 110.978,77.56 110.978,79.338 C110.978,81.116 111.524,82.712 113.05,82.712 Z M121.674,84.168 C119.056,84.168 117.936,81.69 117.936,79.338 C117.936,76.986 119.056,74.522 121.674,74.522 C124.292,74.522 125.412,76.986 125.412,79.338 C125.412,81.69 124.292,84.168 121.674,84.168 Z M121.674,82.712 C123.2,82.712 123.746,81.116 123.746,79.338 C123.746,77.56 123.2,75.978 121.674,75.978 C120.148,75.978 119.602,77.56 119.602,79.338 C119.602,81.116 120.148,82.712 121.674,82.712 Z" id="наценка-при-объеме-п"></path>
                <path d="M16.15,25.868 L10.064,25.868 L10.064,32.77 L7.106,32.77 L7.106,25.868 L0.986,25.868 L0.986,23.182 L7.106,23.182 L7.106,16.552 L10.064,16.552 L10.064,23.182 L16.15,23.182 L16.15,25.868 Z M28.758,36.408 C24.576,36.408 21.482,34.81 19.816,32.77 L22.332,29.54 C23.896,31.172 26.378,32.124 28.588,32.124 C31.342,32.124 32.872,30.934 32.872,29.234 C32.872,27.432 31.478,26.616 28.316,26.616 C27.364,26.616 25.834,26.65 25.494,26.684 L25.494,22.332 C25.902,22.366 27.466,22.366 28.316,22.366 C30.832,22.366 32.498,21.618 32.498,19.952 C32.498,18.15 30.662,17.266 28.282,17.266 C26.106,17.266 24.134,18.082 22.536,19.612 L20.122,16.586 C21.958,14.512 24.814,12.982 28.792,12.982 C34.096,12.982 37.36,15.362 37.36,19.136 C37.36,21.992 34.912,23.862 32.396,24.304 C34.708,24.542 37.7,26.344 37.7,29.744 C37.7,33.654 34.198,36.408 28.758,36.408 Z M51.498,36.408 C47.554,36.408 44.698,35.116 42.76,33.008 L45.446,29.642 C46.976,31.24 49.084,32.124 51.464,32.124 C54.15,32.124 55.68,30.594 55.68,28.758 C55.68,26.752 54.184,25.392 51.6,25.392 C49.73,25.392 48.2,25.936 46.84,27.228 L43.474,26.344 L43.474,13.322 L59.046,13.322 L59.046,17.572 L48.302,17.572 L48.302,23.114 C49.39,22.026 51.226,21.21 53.3,21.21 C57.142,21.21 60.576,23.964 60.576,28.554 C60.576,33.382 56.972,36.408 51.498,36.408 Z M70.396,24.27 C66.928,24.27 64.65,21.856 64.65,18.694 C64.65,15.498 66.928,12.982 70.396,12.982 C73.898,12.982 76.176,15.498 76.176,18.694 C76.176,21.856 73.898,24.27 70.396,24.27 Z M70.736,36 L68.186,36 L82.67,13.322 L85.254,13.322 L70.736,36 Z M82.874,36.408 C79.406,36.408 77.128,33.96 77.128,30.798 C77.128,27.602 79.406,25.086 82.874,25.086 C86.342,25.086 88.654,27.602 88.654,30.798 C88.654,33.96 86.342,36.408 82.874,36.408 Z M70.396,21.618 C71.96,21.618 73.082,20.462 73.082,18.694 C73.082,16.79 71.96,15.668 70.396,15.668 C68.866,15.668 67.71,16.79 67.71,18.694 C67.71,20.462 68.866,21.618 70.396,21.618 Z M82.874,33.756 C84.438,33.756 85.594,32.634 85.594,30.798 C85.594,28.928 84.438,27.772 82.874,27.772 C81.31,27.772 80.188,28.928 80.188,30.798 C80.188,32.634 81.31,33.756 82.874,33.756 Z" id="+35%"></path>
            </g>
            <g id="Group-3-Copy" transform="translate(512.000000, 124.000000)" fill="#FFFFFF">
                <path d="M2.422,64 L0.952,64 L0.952,57.238 L2.422,57.238 L2.422,59.898 L5.53,59.898 L5.53,57.238 L7,57.238 L7,64 L5.53,64 L5.53,61.186 L2.422,61.186 L2.422,64 Z M14.504,64 L13.034,64 L13.034,63.272 C12.53,63.846 11.746,64.168 10.85,64.168 C9.744,64.168 8.498,63.426 8.498,61.928 C8.498,60.374 9.744,59.73 10.85,59.73 C11.76,59.73 12.544,60.024 13.034,60.598 L13.034,59.59 C13.034,58.806 12.39,58.33 11.452,58.33 C10.696,58.33 10.038,58.61 9.45,59.184 L8.848,58.162 C9.632,57.42 10.612,57.07 11.69,57.07 C13.188,57.07 14.504,57.7 14.504,59.52 L14.504,64 Z M11.424,63.16 C12.068,63.16 12.698,62.922 13.034,62.46 L13.034,61.438 C12.698,60.976 12.068,60.738 11.424,60.738 C10.598,60.738 9.982,61.214 9.982,61.956 C9.982,62.684 10.598,63.16 11.424,63.16 Z M21.728,65.722 L21.728,64 L16.408,64 L16.408,57.238 L17.878,57.238 L17.878,62.712 L20.986,62.712 L20.986,57.238 L22.456,57.238 L22.456,62.712 L23.198,62.712 L23.198,65.722 L21.728,65.722 Z M27.524,64.168 C25.494,64.168 23.982,62.754 23.982,60.612 C23.982,58.652 25.41,57.07 27.412,57.07 C29.442,57.07 30.744,58.624 30.744,60.752 L30.744,61.102 L25.522,61.102 C25.634,62.124 26.404,62.964 27.678,62.964 C28.336,62.964 29.12,62.698 29.596,62.222 L30.268,63.188 C29.596,63.832 28.602,64.168 27.524,64.168 Z M29.316,60.066 C29.288,59.268 28.742,58.274 27.412,58.274 C26.152,58.274 25.578,59.24 25.508,60.066 L29.316,60.066 Z M33.67,64 L32.2,64 L32.2,57.238 L33.67,57.238 L33.67,59.898 L36.778,59.898 L36.778,57.238 L38.248,57.238 L38.248,64 L36.778,64 L36.778,61.186 L33.67,61.186 L33.67,64 Z M46.48,64 L44.632,64 L42.56,61.214 L41.622,62.18 L41.622,64 L40.152,64 L40.152,57.238 L41.622,57.238 L41.622,60.5 L44.604,57.238 L46.424,57.238 L43.61,60.304 L46.48,64 Z M53.116,64 L51.646,64 L51.646,63.272 C51.142,63.846 50.358,64.168 49.462,64.168 C48.356,64.168 47.11,63.426 47.11,61.928 C47.11,60.374 48.356,59.73 49.462,59.73 C50.372,59.73 51.156,60.024 51.646,60.598 L51.646,59.59 C51.646,58.806 51.002,58.33 50.064,58.33 C49.308,58.33 48.65,58.61 48.062,59.184 L47.46,58.162 C48.244,57.42 49.224,57.07 50.302,57.07 C51.8,57.07 53.116,57.7 53.116,59.52 L53.116,64 Z M50.036,63.16 C50.68,63.16 51.31,62.922 51.646,62.46 L51.646,61.438 C51.31,60.976 50.68,60.738 50.036,60.738 C49.21,60.738 48.594,61.214 48.594,61.956 C48.594,62.684 49.21,63.16 50.036,63.16 Z M64.666,64 L63.196,64 L63.196,58.526 L60.088,58.526 L60.088,64 L58.618,64 L58.618,57.238 L64.666,57.238 L64.666,64 Z M70.21,64.168 C69.356,64.168 68.586,63.79 68.04,63.062 L68.04,66.576 L66.57,66.576 L66.57,57.238 L68.04,57.238 L68.04,58.162 C68.544,57.49 69.328,57.07 70.21,57.07 C71.96,57.07 73.206,58.386 73.206,60.612 C73.206,62.838 71.96,64.168 70.21,64.168 Z M69.776,62.866 C70.938,62.866 71.68,61.928 71.68,60.612 C71.68,59.31 70.938,58.372 69.776,58.372 C69.09,58.372 68.362,58.778 68.04,59.282 L68.04,61.956 C68.362,62.446 69.09,62.866 69.776,62.866 Z M76.076,64 L74.662,64 L74.662,57.238 L76.132,57.238 L76.132,61.788 L79.24,57.238 L80.71,57.238 L80.71,64 L79.24,64 L79.24,59.324 L76.076,64 Z M89.264,64.168 C87.122,64.168 85.792,62.558 85.792,60.612 C85.792,58.68 87.122,57.07 89.264,57.07 C91.434,57.07 92.75,58.68 92.75,60.612 C92.75,62.558 91.434,64.168 89.264,64.168 Z M89.264,62.866 C90.524,62.866 91.224,61.816 91.224,60.612 C91.224,59.422 90.524,58.372 89.264,58.372 C88.018,58.372 87.318,59.422 87.318,60.612 C87.318,61.816 88.018,62.866 89.264,62.866 Z M97.286,62.866 C98.546,62.866 99.246,61.816 99.246,60.584 C99.246,59.422 98.546,58.372 97.286,58.372 C96.04,58.372 95.34,59.422 95.34,60.584 C95.34,61.816 96.04,62.866 97.286,62.866 Z M97.286,64.168 C95.102,64.168 93.828,62.502 93.828,60.304 C93.828,57.014 94.962,55.572 97.23,55.292 C98.672,55.082 99.078,54.914 99.078,54.662 L100.52,54.662 C100.52,55.978 98.756,56.328 97.636,56.454 C96.012,56.636 95.312,57.434 95.13,58.26 C95.676,57.518 96.586,57.07 97.566,57.07 C99.484,57.07 100.758,58.722 100.758,60.598 C100.758,62.502 99.484,64.168 97.286,64.168 Z M107.408,64 L103.544,64 L103.544,58.526 L101.612,58.526 L101.612,57.238 L105.014,57.238 L105.014,59.688 L107.408,59.688 C108.906,59.688 109.648,60.682 109.648,61.844 C109.648,63.006 108.864,64 107.408,64 Z M107.226,60.976 L105.014,60.976 L105.014,62.712 L107.226,62.712 C107.814,62.712 108.15,62.348 108.15,61.844 C108.15,61.34 107.814,60.976 107.226,60.976 Z M114.226,64.168 C112.196,64.168 110.684,62.754 110.684,60.612 C110.684,58.652 112.112,57.07 114.114,57.07 C116.144,57.07 117.446,58.624 117.446,60.752 L117.446,61.102 L112.224,61.102 C112.336,62.124 113.106,62.964 114.38,62.964 C115.038,62.964 115.822,62.698 116.298,62.222 L116.97,63.188 C116.298,63.832 115.304,64.168 114.226,64.168 Z M116.018,60.066 C115.99,59.268 115.444,58.274 114.114,58.274 C112.854,58.274 112.28,59.24 112.21,60.066 L116.018,60.066 Z M126.476,64 L125.006,64 L125.006,59.296 L122.99,64 L122.402,64 L120.372,59.296 L120.372,64 L118.902,64 L118.902,57.238 L120.82,57.238 L122.696,61.606 L124.544,57.238 L126.476,57.238 L126.476,64 Z M131.502,64.168 C129.472,64.168 127.96,62.754 127.96,60.612 C127.96,58.652 129.388,57.07 131.39,57.07 C133.42,57.07 134.722,58.624 134.722,60.752 L134.722,61.102 L129.5,61.102 C129.612,62.124 130.382,62.964 131.656,62.964 C132.314,62.964 133.098,62.698 133.574,62.222 L134.246,63.188 C133.574,63.832 132.58,64.168 131.502,64.168 Z M133.294,60.066 C133.266,59.268 132.72,58.274 131.39,58.274 C130.13,58.274 129.556,59.24 129.486,60.066 L133.294,60.066 Z M7,84 L5.53,84 L5.53,78.526 L2.422,78.526 L2.422,84 L0.952,84 L0.952,77.238 L7,77.238 L7,84 Z M12.544,84.168 C11.69,84.168 10.92,83.79 10.374,83.062 L10.374,86.576 L8.904,86.576 L8.904,77.238 L10.374,77.238 L10.374,78.162 C10.878,77.49 11.662,77.07 12.544,77.07 C14.294,77.07 15.54,78.386 15.54,80.612 C15.54,82.838 14.294,84.168 12.544,84.168 Z M12.11,82.866 C13.272,82.866 14.014,81.928 14.014,80.612 C14.014,79.31 13.272,78.372 12.11,78.372 C11.424,78.372 10.696,78.778 10.374,79.282 L10.374,81.956 C10.696,82.446 11.424,82.866 12.11,82.866 Z M20.048,84.168 C17.906,84.168 16.576,82.558 16.576,80.612 C16.576,78.68 17.906,77.07 20.048,77.07 C22.218,77.07 23.534,78.68 23.534,80.612 C23.534,82.558 22.218,84.168 20.048,84.168 Z M20.048,82.866 C21.308,82.866 22.008,81.816 22.008,80.612 C22.008,79.422 21.308,78.372 20.048,78.372 C18.802,78.372 18.102,79.422 18.102,80.612 C18.102,81.816 18.802,82.866 20.048,82.866 Z M24.318,85.722 L24.318,82.782 C24.892,82.642 25.214,82.306 25.438,80.528 L25.844,77.238 L31.066,77.238 L31.066,82.712 L31.808,82.712 L31.808,85.722 L30.338,85.722 L30.338,84 L25.788,84 L25.788,85.722 L24.318,85.722 Z M27.146,78.526 L26.908,80.696 C26.81,81.634 26.488,82.292 26.012,82.712 L29.596,82.712 L29.596,78.526 L27.146,78.526 Z M38.612,84 L37.142,84 L37.142,83.272 C36.638,83.846 35.854,84.168 34.958,84.168 C33.852,84.168 32.606,83.426 32.606,81.928 C32.606,80.374 33.852,79.73 34.958,79.73 C35.868,79.73 36.652,80.024 37.142,80.598 L37.142,79.59 C37.142,78.806 36.498,78.33 35.56,78.33 C34.804,78.33 34.146,78.61 33.558,79.184 L32.956,78.162 C33.74,77.42 34.72,77.07 35.798,77.07 C37.296,77.07 38.612,77.7 38.612,79.52 L38.612,84 Z M35.532,83.16 C36.176,83.16 36.806,82.922 37.142,82.46 L37.142,81.438 C36.806,80.976 36.176,80.738 35.532,80.738 C34.706,80.738 34.09,81.214 34.09,81.956 C34.09,82.684 34.706,83.16 35.532,83.16 Z M41.496,84 L39.648,84 L42.518,80.304 L39.704,77.238 L41.524,77.238 L43.946,79.884 L43.946,77.238 L45.416,77.238 L45.416,79.884 L47.838,77.238 L49.658,77.238 L46.844,80.304 L49.714,84 L47.866,84 L45.794,81.214 L45.416,81.606 L45.416,84 L43.946,84 L43.946,81.606 L43.568,81.214 L41.496,84 Z M57.4,84.168 C55.258,84.168 53.928,82.558 53.928,80.612 C53.928,78.68 55.258,77.07 57.4,77.07 C59.57,77.07 60.886,78.68 60.886,80.612 C60.886,82.558 59.57,84.168 57.4,84.168 Z M57.4,82.866 C58.66,82.866 59.36,81.816 59.36,80.612 C59.36,79.422 58.66,78.372 57.4,78.372 C56.154,78.372 55.454,79.422 55.454,80.612 C55.454,81.816 56.154,82.866 57.4,82.866 Z M65.072,84 L63.602,84 L63.602,78.526 L61.67,78.526 L61.67,77.238 L67.018,77.238 L67.018,78.526 L65.072,78.526 L65.072,84 Z M78.33,84 L71.568,84 L71.568,82.712 C75.194,79.968 76.608,78.75 76.608,77.406 C76.608,76.426 75.768,75.978 74.914,75.978 C73.822,75.978 72.982,76.426 72.394,77.098 L71.442,76.02 C72.268,75.026 73.584,74.522 74.886,74.522 C76.692,74.522 78.274,75.544 78.274,77.406 C78.274,79.128 76.692,80.668 74.186,82.558 L78.33,82.558 L78.33,84 Z M87.052,84.168 C85.442,84.168 84.336,83.622 83.58,82.726 L84.518,81.606 C85.148,82.32 85.988,82.712 87.038,82.712 C88.214,82.712 88.956,81.984 88.956,81.074 C88.956,80.066 88.228,79.408 87.08,79.408 C86.282,79.408 85.624,79.66 85.036,80.22 L83.874,79.884 L83.874,74.662 L89.992,74.662 L89.992,76.104 L85.512,76.104 L85.512,78.806 C85.96,78.358 86.73,77.994 87.626,77.994 C89.194,77.994 90.608,79.1 90.608,81.004 C90.608,82.95 89.138,84.168 87.052,84.168 Z M95.508,84.168 C92.89,84.168 91.77,81.69 91.77,79.338 C91.77,76.986 92.89,74.522 95.508,74.522 C98.126,74.522 99.246,76.986 99.246,79.338 C99.246,81.69 98.126,84.168 95.508,84.168 Z M95.508,82.712 C97.034,82.712 97.58,81.116 97.58,79.338 C97.58,77.56 97.034,75.978 95.508,75.978 C93.982,75.978 93.436,77.56 93.436,79.338 C93.436,81.116 93.982,82.712 95.508,82.712 Z M104.132,84.168 C101.514,84.168 100.394,81.69 100.394,79.338 C100.394,76.986 101.514,74.522 104.132,74.522 C106.75,74.522 107.87,76.986 107.87,79.338 C107.87,81.69 106.75,84.168 104.132,84.168 Z M104.132,82.712 C105.658,82.712 106.204,81.116 106.204,79.338 C106.204,77.56 105.658,75.978 104.132,75.978 C102.606,75.978 102.06,77.56 102.06,79.338 C102.06,81.116 102.606,82.712 104.132,82.712 Z M116.354,84.168 C113.736,84.168 112.616,81.69 112.616,79.338 C112.616,76.986 113.736,74.522 116.354,74.522 C118.972,74.522 120.092,76.986 120.092,79.338 C120.092,81.69 118.972,84.168 116.354,84.168 Z M116.354,82.712 C117.88,82.712 118.426,81.116 118.426,79.338 C118.426,77.56 117.88,75.978 116.354,75.978 C114.828,75.978 114.282,77.56 114.282,79.338 C114.282,81.116 114.828,82.712 116.354,82.712 Z M124.978,84.168 C122.36,84.168 121.24,81.69 121.24,79.338 C121.24,76.986 122.36,74.522 124.978,74.522 C127.596,74.522 128.716,76.986 128.716,79.338 C128.716,81.69 127.596,84.168 124.978,84.168 Z M124.978,82.712 C126.504,82.712 127.05,81.116 127.05,79.338 C127.05,77.56 126.504,75.978 124.978,75.978 C123.452,75.978 122.906,77.56 122.906,79.338 C122.906,81.116 123.452,82.712 124.978,82.712 Z M133.602,84.168 C130.984,84.168 129.864,81.69 129.864,79.338 C129.864,76.986 130.984,74.522 133.602,74.522 C136.22,74.522 137.34,76.986 137.34,79.338 C137.34,81.69 136.22,84.168 133.602,84.168 Z M133.602,82.712 C135.128,82.712 135.674,81.116 135.674,79.338 C135.674,77.56 135.128,75.978 133.602,75.978 C132.076,75.978 131.53,77.56 131.53,79.338 C131.53,81.116 132.076,82.712 133.602,82.712 Z" id="наценка-при-объеме-п"></path>
                <path d="M16.15,25.868 L10.064,25.868 L10.064,32.77 L7.106,32.77 L7.106,25.868 L0.986,25.868 L0.986,23.182 L7.106,23.182 L7.106,16.552 L10.064,16.552 L10.064,23.182 L16.15,23.182 L16.15,25.868 Z M29.54,36.408 C25.596,36.408 22.74,35.116 20.802,33.008 L23.488,29.642 C25.018,31.24 27.126,32.124 29.506,32.124 C32.192,32.124 33.722,30.594 33.722,28.758 C33.722,26.752 32.226,25.392 29.642,25.392 C27.772,25.392 26.242,25.936 24.882,27.228 L21.516,26.344 L21.516,13.322 L37.088,13.322 L37.088,17.572 L26.344,17.572 L26.344,23.114 C27.432,22.026 29.268,21.21 31.342,21.21 C35.184,21.21 38.618,23.964 38.618,28.554 C38.618,33.382 35.014,36.408 29.54,36.408 Z M52.348,36.408 C45.854,36.408 42.964,30.526 42.964,24.678 C42.964,18.83 45.854,12.982 52.348,12.982 C58.808,12.982 61.732,18.83 61.732,24.678 C61.732,30.526 58.808,36.408 52.348,36.408 Z M52.348,32.124 C55.578,32.124 56.802,28.86 56.802,24.678 C56.802,20.496 55.578,17.266 52.348,17.266 C49.084,17.266 47.86,20.496 47.86,24.678 C47.86,28.86 49.084,32.124 52.348,32.124 Z M71.518,24.27 C68.05,24.27 65.772,21.856 65.772,18.694 C65.772,15.498 68.05,12.982 71.518,12.982 C75.02,12.982 77.298,15.498 77.298,18.694 C77.298,21.856 75.02,24.27 71.518,24.27 Z M71.858,36 L69.308,36 L83.792,13.322 L86.376,13.322 L71.858,36 Z M83.996,36.408 C80.528,36.408 78.25,33.96 78.25,30.798 C78.25,27.602 80.528,25.086 83.996,25.086 C87.464,25.086 89.776,27.602 89.776,30.798 C89.776,33.96 87.464,36.408 83.996,36.408 Z M71.518,21.618 C73.082,21.618 74.204,20.462 74.204,18.694 C74.204,16.79 73.082,15.668 71.518,15.668 C69.988,15.668 68.832,16.79 68.832,18.694 C68.832,20.462 69.988,21.618 71.518,21.618 Z M83.996,33.756 C85.56,33.756 86.716,32.634 86.716,30.798 C86.716,28.928 85.56,27.772 83.996,27.772 C82.432,27.772 81.31,28.928 81.31,30.798 C81.31,32.634 82.432,33.756 83.996,33.756 Z" id="+50%"></path>
            </g>
            <g id="Group-3-Copy-2" transform="translate(768.000000, 64.000000)" fill="#FFFFFF">
                <path d="M2.422,64 L0.952,64 L0.952,57.238 L2.422,57.238 L2.422,59.898 L5.53,59.898 L5.53,57.238 L7,57.238 L7,64 L5.53,64 L5.53,61.186 L2.422,61.186 L2.422,64 Z M14.504,64 L13.034,64 L13.034,63.272 C12.53,63.846 11.746,64.168 10.85,64.168 C9.744,64.168 8.498,63.426 8.498,61.928 C8.498,60.374 9.744,59.73 10.85,59.73 C11.76,59.73 12.544,60.024 13.034,60.598 L13.034,59.59 C13.034,58.806 12.39,58.33 11.452,58.33 C10.696,58.33 10.038,58.61 9.45,59.184 L8.848,58.162 C9.632,57.42 10.612,57.07 11.69,57.07 C13.188,57.07 14.504,57.7 14.504,59.52 L14.504,64 Z M11.424,63.16 C12.068,63.16 12.698,62.922 13.034,62.46 L13.034,61.438 C12.698,60.976 12.068,60.738 11.424,60.738 C10.598,60.738 9.982,61.214 9.982,61.956 C9.982,62.684 10.598,63.16 11.424,63.16 Z M21.728,65.722 L21.728,64 L16.408,64 L16.408,57.238 L17.878,57.238 L17.878,62.712 L20.986,62.712 L20.986,57.238 L22.456,57.238 L22.456,62.712 L23.198,62.712 L23.198,65.722 L21.728,65.722 Z M27.524,64.168 C25.494,64.168 23.982,62.754 23.982,60.612 C23.982,58.652 25.41,57.07 27.412,57.07 C29.442,57.07 30.744,58.624 30.744,60.752 L30.744,61.102 L25.522,61.102 C25.634,62.124 26.404,62.964 27.678,62.964 C28.336,62.964 29.12,62.698 29.596,62.222 L30.268,63.188 C29.596,63.832 28.602,64.168 27.524,64.168 Z M29.316,60.066 C29.288,59.268 28.742,58.274 27.412,58.274 C26.152,58.274 25.578,59.24 25.508,60.066 L29.316,60.066 Z M33.67,64 L32.2,64 L32.2,57.238 L33.67,57.238 L33.67,59.898 L36.778,59.898 L36.778,57.238 L38.248,57.238 L38.248,64 L36.778,64 L36.778,61.186 L33.67,61.186 L33.67,64 Z M46.48,64 L44.632,64 L42.56,61.214 L41.622,62.18 L41.622,64 L40.152,64 L40.152,57.238 L41.622,57.238 L41.622,60.5 L44.604,57.238 L46.424,57.238 L43.61,60.304 L46.48,64 Z M53.116,64 L51.646,64 L51.646,63.272 C51.142,63.846 50.358,64.168 49.462,64.168 C48.356,64.168 47.11,63.426 47.11,61.928 C47.11,60.374 48.356,59.73 49.462,59.73 C50.372,59.73 51.156,60.024 51.646,60.598 L51.646,59.59 C51.646,58.806 51.002,58.33 50.064,58.33 C49.308,58.33 48.65,58.61 48.062,59.184 L47.46,58.162 C48.244,57.42 49.224,57.07 50.302,57.07 C51.8,57.07 53.116,57.7 53.116,59.52 L53.116,64 Z M50.036,63.16 C50.68,63.16 51.31,62.922 51.646,62.46 L51.646,61.438 C51.31,60.976 50.68,60.738 50.036,60.738 C49.21,60.738 48.594,61.214 48.594,61.956 C48.594,62.684 49.21,63.16 50.036,63.16 Z M64.666,64 L63.196,64 L63.196,58.526 L60.088,58.526 L60.088,64 L58.618,64 L58.618,57.238 L64.666,57.238 L64.666,64 Z M70.21,64.168 C69.356,64.168 68.586,63.79 68.04,63.062 L68.04,66.576 L66.57,66.576 L66.57,57.238 L68.04,57.238 L68.04,58.162 C68.544,57.49 69.328,57.07 70.21,57.07 C71.96,57.07 73.206,58.386 73.206,60.612 C73.206,62.838 71.96,64.168 70.21,64.168 Z M69.776,62.866 C70.938,62.866 71.68,61.928 71.68,60.612 C71.68,59.31 70.938,58.372 69.776,58.372 C69.09,58.372 68.362,58.778 68.04,59.282 L68.04,61.956 C68.362,62.446 69.09,62.866 69.776,62.866 Z M76.076,64 L74.662,64 L74.662,57.238 L76.132,57.238 L76.132,61.788 L79.24,57.238 L80.71,57.238 L80.71,64 L79.24,64 L79.24,59.324 L76.076,64 Z M89.264,64.168 C87.122,64.168 85.792,62.558 85.792,60.612 C85.792,58.68 87.122,57.07 89.264,57.07 C91.434,57.07 92.75,58.68 92.75,60.612 C92.75,62.558 91.434,64.168 89.264,64.168 Z M89.264,62.866 C90.524,62.866 91.224,61.816 91.224,60.612 C91.224,59.422 90.524,58.372 89.264,58.372 C88.018,58.372 87.318,59.422 87.318,60.612 C87.318,61.816 88.018,62.866 89.264,62.866 Z M97.286,62.866 C98.546,62.866 99.246,61.816 99.246,60.584 C99.246,59.422 98.546,58.372 97.286,58.372 C96.04,58.372 95.34,59.422 95.34,60.584 C95.34,61.816 96.04,62.866 97.286,62.866 Z M97.286,64.168 C95.102,64.168 93.828,62.502 93.828,60.304 C93.828,57.014 94.962,55.572 97.23,55.292 C98.672,55.082 99.078,54.914 99.078,54.662 L100.52,54.662 C100.52,55.978 98.756,56.328 97.636,56.454 C96.012,56.636 95.312,57.434 95.13,58.26 C95.676,57.518 96.586,57.07 97.566,57.07 C99.484,57.07 100.758,58.722 100.758,60.598 C100.758,62.502 99.484,64.168 97.286,64.168 Z M107.408,64 L103.544,64 L103.544,58.526 L101.612,58.526 L101.612,57.238 L105.014,57.238 L105.014,59.688 L107.408,59.688 C108.906,59.688 109.648,60.682 109.648,61.844 C109.648,63.006 108.864,64 107.408,64 Z M107.226,60.976 L105.014,60.976 L105.014,62.712 L107.226,62.712 C107.814,62.712 108.15,62.348 108.15,61.844 C108.15,61.34 107.814,60.976 107.226,60.976 Z M114.226,64.168 C112.196,64.168 110.684,62.754 110.684,60.612 C110.684,58.652 112.112,57.07 114.114,57.07 C116.144,57.07 117.446,58.624 117.446,60.752 L117.446,61.102 L112.224,61.102 C112.336,62.124 113.106,62.964 114.38,62.964 C115.038,62.964 115.822,62.698 116.298,62.222 L116.97,63.188 C116.298,63.832 115.304,64.168 114.226,64.168 Z M116.018,60.066 C115.99,59.268 115.444,58.274 114.114,58.274 C112.854,58.274 112.28,59.24 112.21,60.066 L116.018,60.066 Z M126.476,64 L125.006,64 L125.006,59.296 L122.99,64 L122.402,64 L120.372,59.296 L120.372,64 L118.902,64 L118.902,57.238 L120.82,57.238 L122.696,61.606 L124.544,57.238 L126.476,57.238 L126.476,64 Z M131.502,64.168 C129.472,64.168 127.96,62.754 127.96,60.612 C127.96,58.652 129.388,57.07 131.39,57.07 C133.42,57.07 134.722,58.624 134.722,60.752 L134.722,61.102 L129.5,61.102 C129.612,62.124 130.382,62.964 131.656,62.964 C132.314,62.964 133.098,62.698 133.574,62.222 L134.246,63.188 C133.574,63.832 132.58,64.168 131.502,64.168 Z M133.294,60.066 C133.266,59.268 132.72,58.274 131.39,58.274 C130.13,58.274 129.556,59.24 129.486,60.066 L133.294,60.066 Z M7,84 L5.53,84 L5.53,78.526 L2.422,78.526 L2.422,84 L0.952,84 L0.952,77.238 L7,77.238 L7,84 Z M12.544,84.168 C11.69,84.168 10.92,83.79 10.374,83.062 L10.374,86.576 L8.904,86.576 L8.904,77.238 L10.374,77.238 L10.374,78.162 C10.878,77.49 11.662,77.07 12.544,77.07 C14.294,77.07 15.54,78.386 15.54,80.612 C15.54,82.838 14.294,84.168 12.544,84.168 Z M12.11,82.866 C13.272,82.866 14.014,81.928 14.014,80.612 C14.014,79.31 13.272,78.372 12.11,78.372 C11.424,78.372 10.696,78.778 10.374,79.282 L10.374,81.956 C10.696,82.446 11.424,82.866 12.11,82.866 Z M20.048,84.168 C17.906,84.168 16.576,82.558 16.576,80.612 C16.576,78.68 17.906,77.07 20.048,77.07 C22.218,77.07 23.534,78.68 23.534,80.612 C23.534,82.558 22.218,84.168 20.048,84.168 Z M20.048,82.866 C21.308,82.866 22.008,81.816 22.008,80.612 C22.008,79.422 21.308,78.372 20.048,78.372 C18.802,78.372 18.102,79.422 18.102,80.612 C18.102,81.816 18.802,82.866 20.048,82.866 Z M24.318,85.722 L24.318,82.782 C24.892,82.642 25.214,82.306 25.438,80.528 L25.844,77.238 L31.066,77.238 L31.066,82.712 L31.808,82.712 L31.808,85.722 L30.338,85.722 L30.338,84 L25.788,84 L25.788,85.722 L24.318,85.722 Z M27.146,78.526 L26.908,80.696 C26.81,81.634 26.488,82.292 26.012,82.712 L29.596,82.712 L29.596,78.526 L27.146,78.526 Z M38.612,84 L37.142,84 L37.142,83.272 C36.638,83.846 35.854,84.168 34.958,84.168 C33.852,84.168 32.606,83.426 32.606,81.928 C32.606,80.374 33.852,79.73 34.958,79.73 C35.868,79.73 36.652,80.024 37.142,80.598 L37.142,79.59 C37.142,78.806 36.498,78.33 35.56,78.33 C34.804,78.33 34.146,78.61 33.558,79.184 L32.956,78.162 C33.74,77.42 34.72,77.07 35.798,77.07 C37.296,77.07 38.612,77.7 38.612,79.52 L38.612,84 Z M35.532,83.16 C36.176,83.16 36.806,82.922 37.142,82.46 L37.142,81.438 C36.806,80.976 36.176,80.738 35.532,80.738 C34.706,80.738 34.09,81.214 34.09,81.956 C34.09,82.684 34.706,83.16 35.532,83.16 Z M41.496,84 L39.648,84 L42.518,80.304 L39.704,77.238 L41.524,77.238 L43.946,79.884 L43.946,77.238 L45.416,77.238 L45.416,79.884 L47.838,77.238 L49.658,77.238 L46.844,80.304 L49.714,84 L47.866,84 L45.794,81.214 L45.416,81.606 L45.416,84 L43.946,84 L43.946,81.606 L43.568,81.214 L41.496,84 Z M57.4,84.168 C55.258,84.168 53.928,82.558 53.928,80.612 C53.928,78.68 55.258,77.07 57.4,77.07 C59.57,77.07 60.886,78.68 60.886,80.612 C60.886,82.558 59.57,84.168 57.4,84.168 Z M57.4,82.866 C58.66,82.866 59.36,81.816 59.36,80.612 C59.36,79.422 58.66,78.372 57.4,78.372 C56.154,78.372 55.454,79.422 55.454,80.612 C55.454,81.816 56.154,82.866 57.4,82.866 Z M65.072,84 L63.602,84 L63.602,78.526 L61.67,78.526 L61.67,77.238 L67.018,77.238 L67.018,78.526 L65.072,78.526 L65.072,84 Z M75.124,84.168 C73.514,84.168 72.408,83.622 71.652,82.726 L72.59,81.606 C73.22,82.32 74.06,82.712 75.11,82.712 C76.286,82.712 77.028,81.984 77.028,81.074 C77.028,80.066 76.3,79.408 75.152,79.408 C74.354,79.408 73.696,79.66 73.108,80.22 L71.946,79.884 L71.946,74.662 L78.064,74.662 L78.064,76.104 L73.584,76.104 L73.584,78.806 C74.032,78.358 74.802,77.994 75.698,77.994 C77.266,77.994 78.68,79.1 78.68,81.004 C78.68,82.95 77.21,84.168 75.124,84.168 Z M87.178,84.168 C84.56,84.168 83.44,81.69 83.44,79.338 C83.44,76.986 84.56,74.522 87.178,74.522 C89.796,74.522 90.916,76.986 90.916,79.338 C90.916,81.69 89.796,84.168 87.178,84.168 Z M87.178,82.712 C88.704,82.712 89.25,81.116 89.25,79.338 C89.25,77.56 88.704,75.978 87.178,75.978 C85.652,75.978 85.106,77.56 85.106,79.338 C85.106,81.116 85.652,82.712 87.178,82.712 Z M95.802,84.168 C93.184,84.168 92.064,81.69 92.064,79.338 C92.064,76.986 93.184,74.522 95.802,74.522 C98.42,74.522 99.54,76.986 99.54,79.338 C99.54,81.69 98.42,84.168 95.802,84.168 Z M95.802,82.712 C97.328,82.712 97.874,81.116 97.874,79.338 C97.874,77.56 97.328,75.978 95.802,75.978 C94.276,75.978 93.73,77.56 93.73,79.338 C93.73,81.116 94.276,82.712 95.802,82.712 Z M104.426,84.168 C101.808,84.168 100.688,81.69 100.688,79.338 C100.688,76.986 101.808,74.522 104.426,74.522 C107.044,74.522 108.164,76.986 108.164,79.338 C108.164,81.69 107.044,84.168 104.426,84.168 Z M104.426,82.712 C105.952,82.712 106.498,81.116 106.498,79.338 C106.498,77.56 105.952,75.978 104.426,75.978 C102.9,75.978 102.354,77.56 102.354,79.338 C102.354,81.116 102.9,82.712 104.426,82.712 Z M116.648,84.168 C114.03,84.168 112.91,81.69 112.91,79.338 C112.91,76.986 114.03,74.522 116.648,74.522 C119.266,74.522 120.386,76.986 120.386,79.338 C120.386,81.69 119.266,84.168 116.648,84.168 Z M116.648,82.712 C118.174,82.712 118.72,81.116 118.72,79.338 C118.72,77.56 118.174,75.978 116.648,75.978 C115.122,75.978 114.576,77.56 114.576,79.338 C114.576,81.116 115.122,82.712 116.648,82.712 Z M125.272,84.168 C122.654,84.168 121.534,81.69 121.534,79.338 C121.534,76.986 122.654,74.522 125.272,74.522 C127.89,74.522 129.01,76.986 129.01,79.338 C129.01,81.69 127.89,84.168 125.272,84.168 Z M125.272,82.712 C126.798,82.712 127.344,81.116 127.344,79.338 C127.344,77.56 126.798,75.978 125.272,75.978 C123.746,75.978 123.2,77.56 123.2,79.338 C123.2,81.116 123.746,82.712 125.272,82.712 Z M133.896,84.168 C131.278,84.168 130.158,81.69 130.158,79.338 C130.158,76.986 131.278,74.522 133.896,74.522 C136.514,74.522 137.634,76.986 137.634,79.338 C137.634,81.69 136.514,84.168 133.896,84.168 Z M133.896,82.712 C135.422,82.712 135.968,81.116 135.968,79.338 C135.968,77.56 135.422,75.978 133.896,75.978 C132.37,75.978 131.824,77.56 131.824,79.338 C131.824,81.116 132.37,82.712 133.896,82.712 Z" id="наценка-при-объеме-п"></path>
                <path d="M16.15,25.868 L10.064,25.868 L10.064,32.77 L7.106,32.77 L7.106,25.868 L0.986,25.868 L0.986,23.182 L7.106,23.182 L7.106,16.552 L10.064,16.552 L10.064,23.182 L16.15,23.182 L16.15,25.868 Z M30.084,36.408 C23.182,36.408 20.292,31.104 20.292,24.712 C20.292,17.844 24.168,12.982 30.866,12.982 C33.62,12.982 35.932,13.934 37.564,15.328 L35.388,19.034 C34.164,17.878 32.872,17.266 30.866,17.266 C27.534,17.266 25.188,20.088 25.188,23.692 C25.188,23.862 25.188,23.998 25.222,24.168 C26.276,22.638 28.554,21.244 31.036,21.244 C35.116,21.244 38.754,23.794 38.754,28.622 C38.754,33.042 35.252,36.408 30.084,36.408 Z M29.812,32.124 C32.43,32.124 33.858,30.39 33.858,28.792 C33.858,26.412 31.818,25.392 29.642,25.392 C27.942,25.392 26.31,26.174 25.222,27.534 C25.426,29.71 26.65,32.124 29.812,32.124 Z M52.212,36.408 C48.268,36.408 45.412,35.116 43.474,33.008 L46.16,29.642 C47.69,31.24 49.798,32.124 52.178,32.124 C54.864,32.124 56.394,30.594 56.394,28.758 C56.394,26.752 54.898,25.392 52.314,25.392 C50.444,25.392 48.914,25.936 47.554,27.228 L44.188,26.344 L44.188,13.322 L59.76,13.322 L59.76,17.572 L49.016,17.572 L49.016,23.114 C50.104,22.026 51.94,21.21 54.014,21.21 C57.856,21.21 61.29,23.964 61.29,28.554 C61.29,33.382 57.686,36.408 52.212,36.408 Z M71.11,24.27 C67.642,24.27 65.364,21.856 65.364,18.694 C65.364,15.498 67.642,12.982 71.11,12.982 C74.612,12.982 76.89,15.498 76.89,18.694 C76.89,21.856 74.612,24.27 71.11,24.27 Z M71.45,36 L68.9,36 L83.384,13.322 L85.968,13.322 L71.45,36 Z M83.588,36.408 C80.12,36.408 77.842,33.96 77.842,30.798 C77.842,27.602 80.12,25.086 83.588,25.086 C87.056,25.086 89.368,27.602 89.368,30.798 C89.368,33.96 87.056,36.408 83.588,36.408 Z M71.11,21.618 C72.674,21.618 73.796,20.462 73.796,18.694 C73.796,16.79 72.674,15.668 71.11,15.668 C69.58,15.668 68.424,16.79 68.424,18.694 C68.424,20.462 69.58,21.618 71.11,21.618 Z M83.588,33.756 C85.152,33.756 86.308,32.634 86.308,30.798 C86.308,28.928 85.152,27.772 83.588,27.772 C82.024,27.772 80.902,28.928 80.902,30.798 C80.902,32.634 82.024,33.756 83.588,33.756 Z" id="+65%"></path>
            </g>
        </g>
    </g>
</svg>