<?xml version="1.0" encoding="UTF-8"?>
<svg width="192px" height="557px" viewBox="0 0 192 557" version="1.1" xmlns="http://www.w3.org/2000/svg" xmlns:xlink="http://www.w3.org/1999/xlink">
    <!-- Generator: Sketch 48.1 (47250) - http://www.bohemiancoding.com/sketch -->
    <title>Group 70</title>
    <desc>Created with Sketch.</desc>
    <defs></defs>
    <g id="Landing-MHT-Warm-Floor" stroke="none" stroke-width="1" fill="none" fill-rule="evenodd">
        <g id="Group-70" transform="translate(3.000000, -13.000000)">
            <g id="Group-3-Copy" transform="translate(0.000000, 240.000000)" fill="#FFFFFF">
                <path d="M2.422,64 L0.952,64 L0.952,57.238 L2.422,57.238 L2.422,59.898 L5.53,59.898 L5.53,57.238 L7,57.238 L7,64 L5.53,64 L5.53,61.186 L2.422,61.186 L2.422,64 Z M14.504,64 L13.034,64 L13.034,63.272 C12.53,63.846 11.746,64.168 10.85,64.168 C9.744,64.168 8.498,63.426 8.498,61.928 C8.498,60.374 9.744,59.73 10.85,59.73 C11.76,59.73 12.544,60.024 13.034,60.598 L13.034,59.59 C13.034,58.806 12.39,58.33 11.452,58.33 C10.696,58.33 10.038,58.61 9.45,59.184 L8.848,58.162 C9.632,57.42 10.612,57.07 11.69,57.07 C13.188,57.07 14.504,57.7 14.504,59.52 L14.504,64 Z M11.424,63.16 C12.068,63.16 12.698,62.922 13.034,62.46 L13.034,61.438 C12.698,60.976 12.068,60.738 11.424,60.738 C10.598,60.738 9.982,61.214 9.982,61.956 C9.982,62.684 10.598,63.16 11.424,63.16 Z M21.728,65.722 L21.728,64 L16.408,64 L16.408,57.238 L17.878,57.238 L17.878,62.712 L20.986,62.712 L20.986,57.238 L22.456,57.238 L22.456,62.712 L23.198,62.712 L23.198,65.722 L21.728,65.722 Z M27.524,64.168 C25.494,64.168 23.982,62.754 23.982,60.612 C23.982,58.652 25.41,57.07 27.412,57.07 C29.442,57.07 30.744,58.624 30.744,60.752 L30.744,61.102 L25.522,61.102 C25.634,62.124 26.404,62.964 27.678,62.964 C28.336,62.964 29.12,62.698 29.596,62.222 L30.268,63.188 C29.596,63.832 28.602,64.168 27.524,64.168 Z M29.316,60.066 C29.288,59.268 28.742,58.274 27.412,58.274 C26.152,58.274 25.578,59.24 25.508,60.066 L29.316,60.066 Z M33.67,64 L32.2,64 L32.2,57.238 L33.67,57.238 L33.67,59.898 L36.778,59.898 L36.778,57.238 L38.248,57.238 L38.248,64 L36.778,64 L36.778,61.186 L33.67,61.186 L33.67,64 Z M46.48,64 L44.632,64 L42.56,61.214 L41.622,62.18 L41.622,64 L40.152,64 L40.152,57.238 L41.622,57.238 L41.622,60.5 L44.604,57.238 L46.424,57.238 L43.61,60.304 L46.48,64 Z M53.116,64 L51.646,64 L51.646,63.272 C51.142,63.846 50.358,64.168 49.462,64.168 C48.356,64.168 47.11,63.426 47.11,61.928 C47.11,60.374 48.356,59.73 49.462,59.73 C50.372,59.73 51.156,60.024 51.646,60.598 L51.646,59.59 C51.646,58.806 51.002,58.33 50.064,58.33 C49.308,58.33 48.65,58.61 48.062,59.184 L47.46,58.162 C48.244,57.42 49.224,57.07 50.302,57.07 C51.8,57.07 53.116,57.7 53.116,59.52 L53.116,64 Z M50.036,63.16 C50.68,63.16 51.31,62.922 51.646,62.46 L51.646,61.438 C51.31,60.976 50.68,60.738 50.036,60.738 C49.21,60.738 48.594,61.214 48.594,61.956 C48.594,62.684 49.21,63.16 50.036,63.16 Z M64.666,64 L63.196,64 L63.196,58.526 L60.088,58.526 L60.088,64 L58.618,64 L58.618,57.238 L64.666,57.238 L64.666,64 Z M70.21,64.168 C69.356,64.168 68.586,63.79 68.04,63.062 L68.04,66.576 L66.57,66.576 L66.57,57.238 L68.04,57.238 L68.04,58.162 C68.544,57.49 69.328,57.07 70.21,57.07 C71.96,57.07 73.206,58.386 73.206,60.612 C73.206,62.838 71.96,64.168 70.21,64.168 Z M69.776,62.866 C70.938,62.866 71.68,61.928 71.68,60.612 C71.68,59.31 70.938,58.372 69.776,58.372 C69.09,58.372 68.362,58.778 68.04,59.282 L68.04,61.956 C68.362,62.446 69.09,62.866 69.776,62.866 Z M76.076,64 L74.662,64 L74.662,57.238 L76.132,57.238 L76.132,61.788 L79.24,57.238 L80.71,57.238 L80.71,64 L79.24,64 L79.24,59.324 L76.076,64 Z M89.264,64.168 C87.122,64.168 85.792,62.558 85.792,60.612 C85.792,58.68 87.122,57.07 89.264,57.07 C91.434,57.07 92.75,58.68 92.75,60.612 C92.75,62.558 91.434,64.168 89.264,64.168 Z M89.264,62.866 C90.524,62.866 91.224,61.816 91.224,60.612 C91.224,59.422 90.524,58.372 89.264,58.372 C88.018,58.372 87.318,59.422 87.318,60.612 C87.318,61.816 88.018,62.866 89.264,62.866 Z M97.286,62.866 C98.546,62.866 99.246,61.816 99.246,60.584 C99.246,59.422 98.546,58.372 97.286,58.372 C96.04,58.372 95.34,59.422 95.34,60.584 C95.34,61.816 96.04,62.866 97.286,62.866 Z M97.286,64.168 C95.102,64.168 93.828,62.502 93.828,60.304 C93.828,57.014 94.962,55.572 97.23,55.292 C98.672,55.082 99.078,54.914 99.078,54.662 L100.52,54.662 C100.52,55.978 98.756,56.328 97.636,56.454 C96.012,56.636 95.312,57.434 95.13,58.26 C95.676,57.518 96.586,57.07 97.566,57.07 C99.484,57.07 100.758,58.722 100.758,60.598 C100.758,62.502 99.484,64.168 97.286,64.168 Z M107.408,64 L103.544,64 L103.544,58.526 L101.612,58.526 L101.612,57.238 L105.014,57.238 L105.014,59.688 L107.408,59.688 C108.906,59.688 109.648,60.682 109.648,61.844 C109.648,63.006 108.864,64 107.408,64 Z M107.226,60.976 L105.014,60.976 L105.014,62.712 L107.226,62.712 C107.814,62.712 108.15,62.348 108.15,61.844 C108.15,61.34 107.814,60.976 107.226,60.976 Z M114.226,64.168 C112.196,64.168 110.684,62.754 110.684,60.612 C110.684,58.652 112.112,57.07 114.114,57.07 C116.144,57.07 117.446,58.624 117.446,60.752 L117.446,61.102 L112.224,61.102 C112.336,62.124 113.106,62.964 114.38,62.964 C115.038,62.964 115.822,62.698 116.298,62.222 L116.97,63.188 C116.298,63.832 115.304,64.168 114.226,64.168 Z M116.018,60.066 C115.99,59.268 115.444,58.274 114.114,58.274 C112.854,58.274 112.28,59.24 112.21,60.066 L116.018,60.066 Z M126.476,64 L125.006,64 L125.006,59.296 L122.99,64 L122.402,64 L120.372,59.296 L120.372,64 L118.902,64 L118.902,57.238 L120.82,57.238 L122.696,61.606 L124.544,57.238 L126.476,57.238 L126.476,64 Z M131.502,64.168 C129.472,64.168 127.96,62.754 127.96,60.612 C127.96,58.652 129.388,57.07 131.39,57.07 C133.42,57.07 134.722,58.624 134.722,60.752 L134.722,61.102 L129.5,61.102 C129.612,62.124 130.382,62.964 131.656,62.964 C132.314,62.964 133.098,62.698 133.574,62.222 L134.246,63.188 C133.574,63.832 132.58,64.168 131.502,64.168 Z M133.294,60.066 C133.266,59.268 132.72,58.274 131.39,58.274 C130.13,58.274 129.556,59.24 129.486,60.066 L133.294,60.066 Z M145.824,64 L144.354,64 L144.354,58.526 L141.246,58.526 L141.246,64 L139.776,64 L139.776,57.238 L145.824,57.238 L145.824,64 Z M151.368,64.168 C150.514,64.168 149.744,63.79 149.198,63.062 L149.198,66.576 L147.728,66.576 L147.728,57.238 L149.198,57.238 L149.198,58.162 C149.702,57.49 150.486,57.07 151.368,57.07 C153.118,57.07 154.364,58.386 154.364,60.612 C154.364,62.838 153.118,64.168 151.368,64.168 Z M150.934,62.866 C152.096,62.866 152.838,61.928 152.838,60.612 C152.838,59.31 152.096,58.372 150.934,58.372 C150.248,58.372 149.52,58.778 149.198,59.282 L149.198,61.956 C149.52,62.446 150.248,62.866 150.934,62.866 Z M158.872,64.168 C156.73,64.168 155.4,62.558 155.4,60.612 C155.4,58.68 156.73,57.07 158.872,57.07 C161.042,57.07 162.358,58.68 162.358,60.612 C162.358,62.558 161.042,64.168 158.872,64.168 Z M158.872,62.866 C160.132,62.866 160.832,61.816 160.832,60.612 C160.832,59.422 160.132,58.372 158.872,58.372 C157.626,58.372 156.926,59.422 156.926,60.612 C156.926,61.816 157.626,62.866 158.872,62.866 Z M163.142,65.722 L163.142,62.782 C163.716,62.642 164.038,62.306 164.262,60.528 L164.668,57.238 L169.89,57.238 L169.89,62.712 L170.632,62.712 L170.632,65.722 L169.162,65.722 L169.162,64 L164.612,64 L164.612,65.722 L163.142,65.722 Z M165.97,58.526 L165.732,60.696 C165.634,61.634 165.312,62.292 164.836,62.712 L168.42,62.712 L168.42,58.526 L165.97,58.526 Z M177.436,64 L175.966,64 L175.966,63.272 C175.462,63.846 174.678,64.168 173.782,64.168 C172.676,64.168 171.43,63.426 171.43,61.928 C171.43,60.374 172.676,59.73 173.782,59.73 C174.692,59.73 175.476,60.024 175.966,60.598 L175.966,59.59 C175.966,58.806 175.322,58.33 174.384,58.33 C173.628,58.33 172.97,58.61 172.382,59.184 L171.78,58.162 C172.564,57.42 173.544,57.07 174.622,57.07 C176.12,57.07 177.436,57.7 177.436,59.52 L177.436,64 Z M174.356,63.16 C175,63.16 175.63,62.922 175.966,62.46 L175.966,61.438 C175.63,60.976 175,60.738 174.356,60.738 C173.53,60.738 172.914,61.214 172.914,61.956 C172.914,62.684 173.53,63.16 174.356,63.16 Z M180.32,64 L178.472,64 L181.342,60.304 L178.528,57.238 L180.348,57.238 L182.77,59.884 L182.77,57.238 L184.24,57.238 L184.24,59.884 L186.662,57.238 L188.482,57.238 L185.668,60.304 L188.538,64 L186.69,64 L184.618,61.214 L184.24,61.606 L184.24,64 L182.77,64 L182.77,61.606 L182.392,61.214 L180.32,64 Z M4.004,84.168 C1.862,84.168 0.532,82.558 0.532,80.612 C0.532,78.68 1.862,77.07 4.004,77.07 C6.174,77.07 7.49,78.68 7.49,80.612 C7.49,82.558 6.174,84.168 4.004,84.168 Z M4.004,82.866 C5.264,82.866 5.964,81.816 5.964,80.612 C5.964,79.422 5.264,78.372 4.004,78.372 C2.758,78.372 2.058,79.422 2.058,80.612 C2.058,81.816 2.758,82.866 4.004,82.866 Z M11.676,84 L10.206,84 L10.206,78.526 L8.274,78.526 L8.274,77.238 L13.622,77.238 L13.622,78.526 L11.676,78.526 L11.676,84 Z M24.934,84 L18.172,84 L18.172,82.712 C21.798,79.968 23.212,78.75 23.212,77.406 C23.212,76.426 22.372,75.978 21.518,75.978 C20.426,75.978 19.586,76.426 18.998,77.098 L18.046,76.02 C18.872,75.026 20.188,74.522 21.49,74.522 C23.296,74.522 24.878,75.544 24.878,77.406 C24.878,79.128 23.296,80.668 20.79,82.558 L24.934,82.558 L24.934,84 Z M33.656,84.168 C32.046,84.168 30.94,83.622 30.184,82.726 L31.122,81.606 C31.752,82.32 32.592,82.712 33.642,82.712 C34.818,82.712 35.56,81.984 35.56,81.074 C35.56,80.066 34.832,79.408 33.684,79.408 C32.886,79.408 32.228,79.66 31.64,80.22 L30.478,79.884 L30.478,74.662 L36.596,74.662 L36.596,76.104 L32.116,76.104 L32.116,78.806 C32.564,78.358 33.334,77.994 34.23,77.994 C35.798,77.994 37.212,79.1 37.212,81.004 C37.212,82.95 35.742,84.168 33.656,84.168 Z M42.112,84.168 C39.494,84.168 38.374,81.69 38.374,79.338 C38.374,76.986 39.494,74.522 42.112,74.522 C44.73,74.522 45.85,76.986 45.85,79.338 C45.85,81.69 44.73,84.168 42.112,84.168 Z M42.112,82.712 C43.638,82.712 44.184,81.116 44.184,79.338 C44.184,77.56 43.638,75.978 42.112,75.978 C40.586,75.978 40.04,77.56 40.04,79.338 C40.04,81.116 40.586,82.712 42.112,82.712 Z M50.736,84.168 C48.118,84.168 46.998,81.69 46.998,79.338 C46.998,76.986 48.118,74.522 50.736,74.522 C53.354,74.522 54.474,76.986 54.474,79.338 C54.474,81.69 53.354,84.168 50.736,84.168 Z M50.736,82.712 C52.262,82.712 52.808,81.116 52.808,79.338 C52.808,77.56 52.262,75.978 50.736,75.978 C49.21,75.978 48.664,77.56 48.664,79.338 C48.664,81.116 49.21,82.712 50.736,82.712 Z M62.958,84.168 C60.34,84.168 59.22,81.69 59.22,79.338 C59.22,76.986 60.34,74.522 62.958,74.522 C65.576,74.522 66.696,76.986 66.696,79.338 C66.696,81.69 65.576,84.168 62.958,84.168 Z M62.958,82.712 C64.484,82.712 65.03,81.116 65.03,79.338 C65.03,77.56 64.484,75.978 62.958,75.978 C61.432,75.978 60.886,77.56 60.886,79.338 C60.886,81.116 61.432,82.712 62.958,82.712 Z M71.582,84.168 C68.964,84.168 67.844,81.69 67.844,79.338 C67.844,76.986 68.964,74.522 71.582,74.522 C74.2,74.522 75.32,76.986 75.32,79.338 C75.32,81.69 74.2,84.168 71.582,84.168 Z M71.582,82.712 C73.108,82.712 73.654,81.116 73.654,79.338 C73.654,77.56 73.108,75.978 71.582,75.978 C70.056,75.978 69.51,77.56 69.51,79.338 C69.51,81.116 70.056,82.712 71.582,82.712 Z M80.206,84.168 C77.588,84.168 76.468,81.69 76.468,79.338 C76.468,76.986 77.588,74.522 80.206,74.522 C82.824,74.522 83.944,76.986 83.944,79.338 C83.944,81.69 82.824,84.168 80.206,84.168 Z M80.206,82.712 C81.732,82.712 82.278,81.116 82.278,79.338 C82.278,77.56 81.732,75.978 80.206,75.978 C78.68,75.978 78.134,77.56 78.134,79.338 C78.134,81.116 78.68,82.712 80.206,82.712 Z" id="наценка-при-объеме-п"></path>
                <path d="M16.15,25.868 L10.064,25.868 L10.064,32.77 L7.106,32.77 L7.106,25.868 L0.986,25.868 L0.986,23.182 L7.106,23.182 L7.106,16.552 L10.064,16.552 L10.064,23.182 L16.15,23.182 L16.15,25.868 Z M29.54,36.408 C25.596,36.408 22.74,35.116 20.802,33.008 L23.488,29.642 C25.018,31.24 27.126,32.124 29.506,32.124 C32.192,32.124 33.722,30.594 33.722,28.758 C33.722,26.752 32.226,25.392 29.642,25.392 C27.772,25.392 26.242,25.936 24.882,27.228 L21.516,26.344 L21.516,13.322 L37.088,13.322 L37.088,17.572 L26.344,17.572 L26.344,23.114 C27.432,22.026 29.268,21.21 31.342,21.21 C35.184,21.21 38.618,23.964 38.618,28.554 C38.618,33.382 35.014,36.408 29.54,36.408 Z M52.348,36.408 C45.854,36.408 42.964,30.526 42.964,24.678 C42.964,18.83 45.854,12.982 52.348,12.982 C58.808,12.982 61.732,18.83 61.732,24.678 C61.732,30.526 58.808,36.408 52.348,36.408 Z M52.348,32.124 C55.578,32.124 56.802,28.86 56.802,24.678 C56.802,20.496 55.578,17.266 52.348,17.266 C49.084,17.266 47.86,20.496 47.86,24.678 C47.86,28.86 49.084,32.124 52.348,32.124 Z M71.518,24.27 C68.05,24.27 65.772,21.856 65.772,18.694 C65.772,15.498 68.05,12.982 71.518,12.982 C75.02,12.982 77.298,15.498 77.298,18.694 C77.298,21.856 75.02,24.27 71.518,24.27 Z M71.858,36 L69.308,36 L83.792,13.322 L86.376,13.322 L71.858,36 Z M83.996,36.408 C80.528,36.408 78.25,33.96 78.25,30.798 C78.25,27.602 80.528,25.086 83.996,25.086 C87.464,25.086 89.776,27.602 89.776,30.798 C89.776,33.96 87.464,36.408 83.996,36.408 Z M71.518,21.618 C73.082,21.618 74.204,20.462 74.204,18.694 C74.204,16.79 73.082,15.668 71.518,15.668 C69.988,15.668 68.832,16.79 68.832,18.694 C68.832,20.462 69.988,21.618 71.518,21.618 Z M83.996,33.756 C85.56,33.756 86.716,32.634 86.716,30.798 C86.716,28.928 85.56,27.772 83.996,27.772 C82.432,27.772 81.31,28.928 81.31,30.798 C81.31,32.634 82.432,33.756 83.996,33.756 Z" id="+50%"></path>
            </g>
            <g id="Group-3" transform="translate(0.000000, 120.000000)" fill="#FFFFFF">
                <path d="M2.422,64 L0.952,64 L0.952,57.238 L2.422,57.238 L2.422,59.898 L5.53,59.898 L5.53,57.238 L7,57.238 L7,64 L5.53,64 L5.53,61.186 L2.422,61.186 L2.422,64 Z M14.504,64 L13.034,64 L13.034,63.272 C12.53,63.846 11.746,64.168 10.85,64.168 C9.744,64.168 8.498,63.426 8.498,61.928 C8.498,60.374 9.744,59.73 10.85,59.73 C11.76,59.73 12.544,60.024 13.034,60.598 L13.034,59.59 C13.034,58.806 12.39,58.33 11.452,58.33 C10.696,58.33 10.038,58.61 9.45,59.184 L8.848,58.162 C9.632,57.42 10.612,57.07 11.69,57.07 C13.188,57.07 14.504,57.7 14.504,59.52 L14.504,64 Z M11.424,63.16 C12.068,63.16 12.698,62.922 13.034,62.46 L13.034,61.438 C12.698,60.976 12.068,60.738 11.424,60.738 C10.598,60.738 9.982,61.214 9.982,61.956 C9.982,62.684 10.598,63.16 11.424,63.16 Z M21.728,65.722 L21.728,64 L16.408,64 L16.408,57.238 L17.878,57.238 L17.878,62.712 L20.986,62.712 L20.986,57.238 L22.456,57.238 L22.456,62.712 L23.198,62.712 L23.198,65.722 L21.728,65.722 Z M27.524,64.168 C25.494,64.168 23.982,62.754 23.982,60.612 C23.982,58.652 25.41,57.07 27.412,57.07 C29.442,57.07 30.744,58.624 30.744,60.752 L30.744,61.102 L25.522,61.102 C25.634,62.124 26.404,62.964 27.678,62.964 C28.336,62.964 29.12,62.698 29.596,62.222 L30.268,63.188 C29.596,63.832 28.602,64.168 27.524,64.168 Z M29.316,60.066 C29.288,59.268 28.742,58.274 27.412,58.274 C26.152,58.274 25.578,59.24 25.508,60.066 L29.316,60.066 Z M33.67,64 L32.2,64 L32.2,57.238 L33.67,57.238 L33.67,59.898 L36.778,59.898 L36.778,57.238 L38.248,57.238 L38.248,64 L36.778,64 L36.778,61.186 L33.67,61.186 L33.67,64 Z M46.48,64 L44.632,64 L42.56,61.214 L41.622,62.18 L41.622,64 L40.152,64 L40.152,57.238 L41.622,57.238 L41.622,60.5 L44.604,57.238 L46.424,57.238 L43.61,60.304 L46.48,64 Z M53.116,64 L51.646,64 L51.646,63.272 C51.142,63.846 50.358,64.168 49.462,64.168 C48.356,64.168 47.11,63.426 47.11,61.928 C47.11,60.374 48.356,59.73 49.462,59.73 C50.372,59.73 51.156,60.024 51.646,60.598 L51.646,59.59 C51.646,58.806 51.002,58.33 50.064,58.33 C49.308,58.33 48.65,58.61 48.062,59.184 L47.46,58.162 C48.244,57.42 49.224,57.07 50.302,57.07 C51.8,57.07 53.116,57.7 53.116,59.52 L53.116,64 Z M50.036,63.16 C50.68,63.16 51.31,62.922 51.646,62.46 L51.646,61.438 C51.31,60.976 50.68,60.738 50.036,60.738 C49.21,60.738 48.594,61.214 48.594,61.956 C48.594,62.684 49.21,63.16 50.036,63.16 Z M64.666,64 L63.196,64 L63.196,58.526 L60.088,58.526 L60.088,64 L58.618,64 L58.618,57.238 L64.666,57.238 L64.666,64 Z M70.21,64.168 C69.356,64.168 68.586,63.79 68.04,63.062 L68.04,66.576 L66.57,66.576 L66.57,57.238 L68.04,57.238 L68.04,58.162 C68.544,57.49 69.328,57.07 70.21,57.07 C71.96,57.07 73.206,58.386 73.206,60.612 C73.206,62.838 71.96,64.168 70.21,64.168 Z M69.776,62.866 C70.938,62.866 71.68,61.928 71.68,60.612 C71.68,59.31 70.938,58.372 69.776,58.372 C69.09,58.372 68.362,58.778 68.04,59.282 L68.04,61.956 C68.362,62.446 69.09,62.866 69.776,62.866 Z M76.076,64 L74.662,64 L74.662,57.238 L76.132,57.238 L76.132,61.788 L79.24,57.238 L80.71,57.238 L80.71,64 L79.24,64 L79.24,59.324 L76.076,64 Z M89.264,64.168 C87.122,64.168 85.792,62.558 85.792,60.612 C85.792,58.68 87.122,57.07 89.264,57.07 C91.434,57.07 92.75,58.68 92.75,60.612 C92.75,62.558 91.434,64.168 89.264,64.168 Z M89.264,62.866 C90.524,62.866 91.224,61.816 91.224,60.612 C91.224,59.422 90.524,58.372 89.264,58.372 C88.018,58.372 87.318,59.422 87.318,60.612 C87.318,61.816 88.018,62.866 89.264,62.866 Z M97.286,62.866 C98.546,62.866 99.246,61.816 99.246,60.584 C99.246,59.422 98.546,58.372 97.286,58.372 C96.04,58.372 95.34,59.422 95.34,60.584 C95.34,61.816 96.04,62.866 97.286,62.866 Z M97.286,64.168 C95.102,64.168 93.828,62.502 93.828,60.304 C93.828,57.014 94.962,55.572 97.23,55.292 C98.672,55.082 99.078,54.914 99.078,54.662 L100.52,54.662 C100.52,55.978 98.756,56.328 97.636,56.454 C96.012,56.636 95.312,57.434 95.13,58.26 C95.676,57.518 96.586,57.07 97.566,57.07 C99.484,57.07 100.758,58.722 100.758,60.598 C100.758,62.502 99.484,64.168 97.286,64.168 Z M107.408,64 L103.544,64 L103.544,58.526 L101.612,58.526 L101.612,57.238 L105.014,57.238 L105.014,59.688 L107.408,59.688 C108.906,59.688 109.648,60.682 109.648,61.844 C109.648,63.006 108.864,64 107.408,64 Z M107.226,60.976 L105.014,60.976 L105.014,62.712 L107.226,62.712 C107.814,62.712 108.15,62.348 108.15,61.844 C108.15,61.34 107.814,60.976 107.226,60.976 Z M114.226,64.168 C112.196,64.168 110.684,62.754 110.684,60.612 C110.684,58.652 112.112,57.07 114.114,57.07 C116.144,57.07 117.446,58.624 117.446,60.752 L117.446,61.102 L112.224,61.102 C112.336,62.124 113.106,62.964 114.38,62.964 C115.038,62.964 115.822,62.698 116.298,62.222 L116.97,63.188 C116.298,63.832 115.304,64.168 114.226,64.168 Z M116.018,60.066 C115.99,59.268 115.444,58.274 114.114,58.274 C112.854,58.274 112.28,59.24 112.21,60.066 L116.018,60.066 Z M126.476,64 L125.006,64 L125.006,59.296 L122.99,64 L122.402,64 L120.372,59.296 L120.372,64 L118.902,64 L118.902,57.238 L120.82,57.238 L122.696,61.606 L124.544,57.238 L126.476,57.238 L126.476,64 Z M131.502,64.168 C129.472,64.168 127.96,62.754 127.96,60.612 C127.96,58.652 129.388,57.07 131.39,57.07 C133.42,57.07 134.722,58.624 134.722,60.752 L134.722,61.102 L129.5,61.102 C129.612,62.124 130.382,62.964 131.656,62.964 C132.314,62.964 133.098,62.698 133.574,62.222 L134.246,63.188 C133.574,63.832 132.58,64.168 131.502,64.168 Z M133.294,60.066 C133.266,59.268 132.72,58.274 131.39,58.274 C130.13,58.274 129.556,59.24 129.486,60.066 L133.294,60.066 Z M145.824,64 L144.354,64 L144.354,58.526 L141.246,58.526 L141.246,64 L139.776,64 L139.776,57.238 L145.824,57.238 L145.824,64 Z M151.368,64.168 C150.514,64.168 149.744,63.79 149.198,63.062 L149.198,66.576 L147.728,66.576 L147.728,57.238 L149.198,57.238 L149.198,58.162 C149.702,57.49 150.486,57.07 151.368,57.07 C153.118,57.07 154.364,58.386 154.364,60.612 C154.364,62.838 153.118,64.168 151.368,64.168 Z M150.934,62.866 C152.096,62.866 152.838,61.928 152.838,60.612 C152.838,59.31 152.096,58.372 150.934,58.372 C150.248,58.372 149.52,58.778 149.198,59.282 L149.198,61.956 C149.52,62.446 150.248,62.866 150.934,62.866 Z M158.872,64.168 C156.73,64.168 155.4,62.558 155.4,60.612 C155.4,58.68 156.73,57.07 158.872,57.07 C161.042,57.07 162.358,58.68 162.358,60.612 C162.358,62.558 161.042,64.168 158.872,64.168 Z M158.872,62.866 C160.132,62.866 160.832,61.816 160.832,60.612 C160.832,59.422 160.132,58.372 158.872,58.372 C157.626,58.372 156.926,59.422 156.926,60.612 C156.926,61.816 157.626,62.866 158.872,62.866 Z M163.142,65.722 L163.142,62.782 C163.716,62.642 164.038,62.306 164.262,60.528 L164.668,57.238 L169.89,57.238 L169.89,62.712 L170.632,62.712 L170.632,65.722 L169.162,65.722 L169.162,64 L164.612,64 L164.612,65.722 L163.142,65.722 Z M165.97,58.526 L165.732,60.696 C165.634,61.634 165.312,62.292 164.836,62.712 L168.42,62.712 L168.42,58.526 L165.97,58.526 Z M177.436,64 L175.966,64 L175.966,63.272 C175.462,63.846 174.678,64.168 173.782,64.168 C172.676,64.168 171.43,63.426 171.43,61.928 C171.43,60.374 172.676,59.73 173.782,59.73 C174.692,59.73 175.476,60.024 175.966,60.598 L175.966,59.59 C175.966,58.806 175.322,58.33 174.384,58.33 C173.628,58.33 172.97,58.61 172.382,59.184 L171.78,58.162 C172.564,57.42 173.544,57.07 174.622,57.07 C176.12,57.07 177.436,57.7 177.436,59.52 L177.436,64 Z M174.356,63.16 C175,63.16 175.63,62.922 175.966,62.46 L175.966,61.438 C175.63,60.976 175,60.738 174.356,60.738 C173.53,60.738 172.914,61.214 172.914,61.956 C172.914,62.684 173.53,63.16 174.356,63.16 Z M180.32,64 L178.472,64 L181.342,60.304 L178.528,57.238 L180.348,57.238 L182.77,59.884 L182.77,57.238 L184.24,57.238 L184.24,59.884 L186.662,57.238 L188.482,57.238 L185.668,60.304 L188.538,64 L186.69,64 L184.618,61.214 L184.24,61.606 L184.24,64 L182.77,64 L182.77,61.606 L182.392,61.214 L180.32,64 Z M4.004,84.168 C1.862,84.168 0.532,82.558 0.532,80.612 C0.532,78.68 1.862,77.07 4.004,77.07 C6.174,77.07 7.49,78.68 7.49,80.612 C7.49,82.558 6.174,84.168 4.004,84.168 Z M4.004,82.866 C5.264,82.866 5.964,81.816 5.964,80.612 C5.964,79.422 5.264,78.372 4.004,78.372 C2.758,78.372 2.058,79.422 2.058,80.612 C2.058,81.816 2.758,82.866 4.004,82.866 Z M11.676,84 L10.206,84 L10.206,78.526 L8.274,78.526 L8.274,77.238 L13.622,77.238 L13.622,78.526 L11.676,78.526 L11.676,84 Z M21.798,84 L20.16,84 L20.16,76.79 L18.634,78.372 L17.682,77.378 L20.37,74.662 L21.798,74.662 L21.798,84 Z M30.702,84.168 C28.084,84.168 26.964,81.69 26.964,79.338 C26.964,76.986 28.084,74.522 30.702,74.522 C33.32,74.522 34.44,76.986 34.44,79.338 C34.44,81.69 33.32,84.168 30.702,84.168 Z M30.702,82.712 C32.228,82.712 32.774,81.116 32.774,79.338 C32.774,77.56 32.228,75.978 30.702,75.978 C29.176,75.978 28.63,77.56 28.63,79.338 C28.63,81.116 29.176,82.712 30.702,82.712 Z M39.326,84.168 C36.708,84.168 35.588,81.69 35.588,79.338 C35.588,76.986 36.708,74.522 39.326,74.522 C41.944,74.522 43.064,76.986 43.064,79.338 C43.064,81.69 41.944,84.168 39.326,84.168 Z M39.326,82.712 C40.852,82.712 41.398,81.116 41.398,79.338 C41.398,77.56 40.852,75.978 39.326,75.978 C37.8,75.978 37.254,77.56 37.254,79.338 C37.254,81.116 37.8,82.712 39.326,82.712 Z M47.95,84.168 C45.332,84.168 44.212,81.69 44.212,79.338 C44.212,76.986 45.332,74.522 47.95,74.522 C50.568,74.522 51.688,76.986 51.688,79.338 C51.688,81.69 50.568,84.168 47.95,84.168 Z M47.95,82.712 C49.476,82.712 50.022,81.116 50.022,79.338 C50.022,77.56 49.476,75.978 47.95,75.978 C46.424,75.978 45.878,77.56 45.878,79.338 C45.878,81.116 46.424,82.712 47.95,82.712 Z M60.172,84.168 C57.554,84.168 56.434,81.69 56.434,79.338 C56.434,76.986 57.554,74.522 60.172,74.522 C62.79,74.522 63.91,76.986 63.91,79.338 C63.91,81.69 62.79,84.168 60.172,84.168 Z M60.172,82.712 C61.698,82.712 62.244,81.116 62.244,79.338 C62.244,77.56 61.698,75.978 60.172,75.978 C58.646,75.978 58.1,77.56 58.1,79.338 C58.1,81.116 58.646,82.712 60.172,82.712 Z M68.796,84.168 C66.178,84.168 65.058,81.69 65.058,79.338 C65.058,76.986 66.178,74.522 68.796,74.522 C71.414,74.522 72.534,76.986 72.534,79.338 C72.534,81.69 71.414,84.168 68.796,84.168 Z M68.796,82.712 C70.322,82.712 70.868,81.116 70.868,79.338 C70.868,77.56 70.322,75.978 68.796,75.978 C67.27,75.978 66.724,77.56 66.724,79.338 C66.724,81.116 67.27,82.712 68.796,82.712 Z M77.42,84.168 C74.802,84.168 73.682,81.69 73.682,79.338 C73.682,76.986 74.802,74.522 77.42,74.522 C80.038,74.522 81.158,76.986 81.158,79.338 C81.158,81.69 80.038,84.168 77.42,84.168 Z M77.42,82.712 C78.946,82.712 79.492,81.116 79.492,79.338 C79.492,77.56 78.946,75.978 77.42,75.978 C75.894,75.978 75.348,77.56 75.348,79.338 C75.348,81.116 75.894,82.712 77.42,82.712 Z" id="наценка-при-объеме-п"></path>
                <path d="M16.15,25.868 L10.064,25.868 L10.064,32.77 L7.106,32.77 L7.106,25.868 L0.986,25.868 L0.986,23.182 L7.106,23.182 L7.106,16.552 L10.064,16.552 L10.064,23.182 L16.15,23.182 L16.15,25.868 Z M35.66,36 L30.832,36 L30.832,31.308 L19.986,31.308 L19.986,27.5 L28.996,13.322 L35.66,13.322 L35.66,27.058 L38.584,27.058 L38.584,31.308 L35.66,31.308 L35.66,36 Z M30.832,27.058 L30.832,17.606 L24.712,27.058 L30.832,27.058 Z M51.974,36.408 C45.48,36.408 42.59,30.526 42.59,24.678 C42.59,18.83 45.48,12.982 51.974,12.982 C58.434,12.982 61.358,18.83 61.358,24.678 C61.358,30.526 58.434,36.408 51.974,36.408 Z M51.974,32.124 C55.204,32.124 56.428,28.86 56.428,24.678 C56.428,20.496 55.204,17.266 51.974,17.266 C48.71,17.266 47.486,20.496 47.486,24.678 C47.486,28.86 48.71,32.124 51.974,32.124 Z M71.144,24.27 C67.676,24.27 65.398,21.856 65.398,18.694 C65.398,15.498 67.676,12.982 71.144,12.982 C74.646,12.982 76.924,15.498 76.924,18.694 C76.924,21.856 74.646,24.27 71.144,24.27 Z M71.484,36 L68.934,36 L83.418,13.322 L86.002,13.322 L71.484,36 Z M83.622,36.408 C80.154,36.408 77.876,33.96 77.876,30.798 C77.876,27.602 80.154,25.086 83.622,25.086 C87.09,25.086 89.402,27.602 89.402,30.798 C89.402,33.96 87.09,36.408 83.622,36.408 Z M71.144,21.618 C72.708,21.618 73.83,20.462 73.83,18.694 C73.83,16.79 72.708,15.668 71.144,15.668 C69.614,15.668 68.458,16.79 68.458,18.694 C68.458,20.462 69.614,21.618 71.144,21.618 Z M83.622,33.756 C85.186,33.756 86.342,32.634 86.342,30.798 C86.342,28.928 85.186,27.772 83.622,27.772 C82.058,27.772 80.936,28.928 80.936,30.798 C80.936,32.634 82.058,33.756 83.622,33.756 Z" id="+40%"></path>
            </g>
            <g id="Group-3-Copy-3" fill="#FFFFFF">
                <path d="M2.422,64 L0.952,64 L0.952,57.238 L2.422,57.238 L2.422,59.898 L5.53,59.898 L5.53,57.238 L7,57.238 L7,64 L5.53,64 L5.53,61.186 L2.422,61.186 L2.422,64 Z M14.504,64 L13.034,64 L13.034,63.272 C12.53,63.846 11.746,64.168 10.85,64.168 C9.744,64.168 8.498,63.426 8.498,61.928 C8.498,60.374 9.744,59.73 10.85,59.73 C11.76,59.73 12.544,60.024 13.034,60.598 L13.034,59.59 C13.034,58.806 12.39,58.33 11.452,58.33 C10.696,58.33 10.038,58.61 9.45,59.184 L8.848,58.162 C9.632,57.42 10.612,57.07 11.69,57.07 C13.188,57.07 14.504,57.7 14.504,59.52 L14.504,64 Z M11.424,63.16 C12.068,63.16 12.698,62.922 13.034,62.46 L13.034,61.438 C12.698,60.976 12.068,60.738 11.424,60.738 C10.598,60.738 9.982,61.214 9.982,61.956 C9.982,62.684 10.598,63.16 11.424,63.16 Z M21.728,65.722 L21.728,64 L16.408,64 L16.408,57.238 L17.878,57.238 L17.878,62.712 L20.986,62.712 L20.986,57.238 L22.456,57.238 L22.456,62.712 L23.198,62.712 L23.198,65.722 L21.728,65.722 Z M27.524,64.168 C25.494,64.168 23.982,62.754 23.982,60.612 C23.982,58.652 25.41,57.07 27.412,57.07 C29.442,57.07 30.744,58.624 30.744,60.752 L30.744,61.102 L25.522,61.102 C25.634,62.124 26.404,62.964 27.678,62.964 C28.336,62.964 29.12,62.698 29.596,62.222 L30.268,63.188 C29.596,63.832 28.602,64.168 27.524,64.168 Z M29.316,60.066 C29.288,59.268 28.742,58.274 27.412,58.274 C26.152,58.274 25.578,59.24 25.508,60.066 L29.316,60.066 Z M33.67,64 L32.2,64 L32.2,57.238 L33.67,57.238 L33.67,59.898 L36.778,59.898 L36.778,57.238 L38.248,57.238 L38.248,64 L36.778,64 L36.778,61.186 L33.67,61.186 L33.67,64 Z M46.48,64 L44.632,64 L42.56,61.214 L41.622,62.18 L41.622,64 L40.152,64 L40.152,57.238 L41.622,57.238 L41.622,60.5 L44.604,57.238 L46.424,57.238 L43.61,60.304 L46.48,64 Z M53.116,64 L51.646,64 L51.646,63.272 C51.142,63.846 50.358,64.168 49.462,64.168 C48.356,64.168 47.11,63.426 47.11,61.928 C47.11,60.374 48.356,59.73 49.462,59.73 C50.372,59.73 51.156,60.024 51.646,60.598 L51.646,59.59 C51.646,58.806 51.002,58.33 50.064,58.33 C49.308,58.33 48.65,58.61 48.062,59.184 L47.46,58.162 C48.244,57.42 49.224,57.07 50.302,57.07 C51.8,57.07 53.116,57.7 53.116,59.52 L53.116,64 Z M50.036,63.16 C50.68,63.16 51.31,62.922 51.646,62.46 L51.646,61.438 C51.31,60.976 50.68,60.738 50.036,60.738 C49.21,60.738 48.594,61.214 48.594,61.956 C48.594,62.684 49.21,63.16 50.036,63.16 Z M64.666,64 L63.196,64 L63.196,58.526 L60.088,58.526 L60.088,64 L58.618,64 L58.618,57.238 L64.666,57.238 L64.666,64 Z M70.21,64.168 C69.356,64.168 68.586,63.79 68.04,63.062 L68.04,66.576 L66.57,66.576 L66.57,57.238 L68.04,57.238 L68.04,58.162 C68.544,57.49 69.328,57.07 70.21,57.07 C71.96,57.07 73.206,58.386 73.206,60.612 C73.206,62.838 71.96,64.168 70.21,64.168 Z M69.776,62.866 C70.938,62.866 71.68,61.928 71.68,60.612 C71.68,59.31 70.938,58.372 69.776,58.372 C69.09,58.372 68.362,58.778 68.04,59.282 L68.04,61.956 C68.362,62.446 69.09,62.866 69.776,62.866 Z M76.076,64 L74.662,64 L74.662,57.238 L76.132,57.238 L76.132,61.788 L79.24,57.238 L80.71,57.238 L80.71,64 L79.24,64 L79.24,59.324 L76.076,64 Z M89.264,64.168 C87.122,64.168 85.792,62.558 85.792,60.612 C85.792,58.68 87.122,57.07 89.264,57.07 C91.434,57.07 92.75,58.68 92.75,60.612 C92.75,62.558 91.434,64.168 89.264,64.168 Z M89.264,62.866 C90.524,62.866 91.224,61.816 91.224,60.612 C91.224,59.422 90.524,58.372 89.264,58.372 C88.018,58.372 87.318,59.422 87.318,60.612 C87.318,61.816 88.018,62.866 89.264,62.866 Z M97.286,62.866 C98.546,62.866 99.246,61.816 99.246,60.584 C99.246,59.422 98.546,58.372 97.286,58.372 C96.04,58.372 95.34,59.422 95.34,60.584 C95.34,61.816 96.04,62.866 97.286,62.866 Z M97.286,64.168 C95.102,64.168 93.828,62.502 93.828,60.304 C93.828,57.014 94.962,55.572 97.23,55.292 C98.672,55.082 99.078,54.914 99.078,54.662 L100.52,54.662 C100.52,55.978 98.756,56.328 97.636,56.454 C96.012,56.636 95.312,57.434 95.13,58.26 C95.676,57.518 96.586,57.07 97.566,57.07 C99.484,57.07 100.758,58.722 100.758,60.598 C100.758,62.502 99.484,64.168 97.286,64.168 Z M107.408,64 L103.544,64 L103.544,58.526 L101.612,58.526 L101.612,57.238 L105.014,57.238 L105.014,59.688 L107.408,59.688 C108.906,59.688 109.648,60.682 109.648,61.844 C109.648,63.006 108.864,64 107.408,64 Z M107.226,60.976 L105.014,60.976 L105.014,62.712 L107.226,62.712 C107.814,62.712 108.15,62.348 108.15,61.844 C108.15,61.34 107.814,60.976 107.226,60.976 Z M114.226,64.168 C112.196,64.168 110.684,62.754 110.684,60.612 C110.684,58.652 112.112,57.07 114.114,57.07 C116.144,57.07 117.446,58.624 117.446,60.752 L117.446,61.102 L112.224,61.102 C112.336,62.124 113.106,62.964 114.38,62.964 C115.038,62.964 115.822,62.698 116.298,62.222 L116.97,63.188 C116.298,63.832 115.304,64.168 114.226,64.168 Z M116.018,60.066 C115.99,59.268 115.444,58.274 114.114,58.274 C112.854,58.274 112.28,59.24 112.21,60.066 L116.018,60.066 Z M126.476,64 L125.006,64 L125.006,59.296 L122.99,64 L122.402,64 L120.372,59.296 L120.372,64 L118.902,64 L118.902,57.238 L120.82,57.238 L122.696,61.606 L124.544,57.238 L126.476,57.238 L126.476,64 Z M131.502,64.168 C129.472,64.168 127.96,62.754 127.96,60.612 C127.96,58.652 129.388,57.07 131.39,57.07 C133.42,57.07 134.722,58.624 134.722,60.752 L134.722,61.102 L129.5,61.102 C129.612,62.124 130.382,62.964 131.656,62.964 C132.314,62.964 133.098,62.698 133.574,62.222 L134.246,63.188 C133.574,63.832 132.58,64.168 131.502,64.168 Z M133.294,60.066 C133.266,59.268 132.72,58.274 131.39,58.274 C130.13,58.274 129.556,59.24 129.486,60.066 L133.294,60.066 Z M145.824,64 L144.354,64 L144.354,58.526 L141.246,58.526 L141.246,64 L139.776,64 L139.776,57.238 L145.824,57.238 L145.824,64 Z M151.368,64.168 C150.514,64.168 149.744,63.79 149.198,63.062 L149.198,66.576 L147.728,66.576 L147.728,57.238 L149.198,57.238 L149.198,58.162 C149.702,57.49 150.486,57.07 151.368,57.07 C153.118,57.07 154.364,58.386 154.364,60.612 C154.364,62.838 153.118,64.168 151.368,64.168 Z M150.934,62.866 C152.096,62.866 152.838,61.928 152.838,60.612 C152.838,59.31 152.096,58.372 150.934,58.372 C150.248,58.372 149.52,58.778 149.198,59.282 L149.198,61.956 C149.52,62.446 150.248,62.866 150.934,62.866 Z M158.872,64.168 C156.73,64.168 155.4,62.558 155.4,60.612 C155.4,58.68 156.73,57.07 158.872,57.07 C161.042,57.07 162.358,58.68 162.358,60.612 C162.358,62.558 161.042,64.168 158.872,64.168 Z M158.872,62.866 C160.132,62.866 160.832,61.816 160.832,60.612 C160.832,59.422 160.132,58.372 158.872,58.372 C157.626,58.372 156.926,59.422 156.926,60.612 C156.926,61.816 157.626,62.866 158.872,62.866 Z M163.142,65.722 L163.142,62.782 C163.716,62.642 164.038,62.306 164.262,60.528 L164.668,57.238 L169.89,57.238 L169.89,62.712 L170.632,62.712 L170.632,65.722 L169.162,65.722 L169.162,64 L164.612,64 L164.612,65.722 L163.142,65.722 Z M165.97,58.526 L165.732,60.696 C165.634,61.634 165.312,62.292 164.836,62.712 L168.42,62.712 L168.42,58.526 L165.97,58.526 Z M177.436,64 L175.966,64 L175.966,63.272 C175.462,63.846 174.678,64.168 173.782,64.168 C172.676,64.168 171.43,63.426 171.43,61.928 C171.43,60.374 172.676,59.73 173.782,59.73 C174.692,59.73 175.476,60.024 175.966,60.598 L175.966,59.59 C175.966,58.806 175.322,58.33 174.384,58.33 C173.628,58.33 172.97,58.61 172.382,59.184 L171.78,58.162 C172.564,57.42 173.544,57.07 174.622,57.07 C176.12,57.07 177.436,57.7 177.436,59.52 L177.436,64 Z M174.356,63.16 C175,63.16 175.63,62.922 175.966,62.46 L175.966,61.438 C175.63,60.976 175,60.738 174.356,60.738 C173.53,60.738 172.914,61.214 172.914,61.956 C172.914,62.684 173.53,63.16 174.356,63.16 Z M180.32,64 L178.472,64 L181.342,60.304 L178.528,57.238 L180.348,57.238 L182.77,59.884 L182.77,57.238 L184.24,57.238 L184.24,59.884 L186.662,57.238 L188.482,57.238 L185.668,60.304 L188.538,64 L186.69,64 L184.618,61.214 L184.24,61.606 L184.24,64 L182.77,64 L182.77,61.606 L182.392,61.214 L180.32,64 Z M4.004,84.168 C1.862,84.168 0.532,82.558 0.532,80.612 C0.532,78.68 1.862,77.07 4.004,77.07 C6.174,77.07 7.49,78.68 7.49,80.612 C7.49,82.558 6.174,84.168 4.004,84.168 Z M4.004,82.866 C5.264,82.866 5.964,81.816 5.964,80.612 C5.964,79.422 5.264,78.372 4.004,78.372 C2.758,78.372 2.058,79.422 2.058,80.612 C2.058,81.816 2.758,82.866 4.004,82.866 Z M11.676,84 L10.206,84 L10.206,78.526 L8.274,78.526 L8.274,77.238 L13.622,77.238 L13.622,78.526 L11.676,78.526 L11.676,84 Z M21.728,84.168 C20.118,84.168 19.012,83.622 18.256,82.726 L19.194,81.606 C19.824,82.32 20.664,82.712 21.714,82.712 C22.89,82.712 23.632,81.984 23.632,81.074 C23.632,80.066 22.904,79.408 21.756,79.408 C20.958,79.408 20.3,79.66 19.712,80.22 L18.55,79.884 L18.55,74.662 L24.668,74.662 L24.668,76.104 L20.188,76.104 L20.188,78.806 C20.636,78.358 21.406,77.994 22.302,77.994 C23.87,77.994 25.284,79.1 25.284,81.004 C25.284,82.95 23.814,84.168 21.728,84.168 Z M30.184,84.168 C27.566,84.168 26.446,81.69 26.446,79.338 C26.446,76.986 27.566,74.522 30.184,74.522 C32.802,74.522 33.922,76.986 33.922,79.338 C33.922,81.69 32.802,84.168 30.184,84.168 Z M30.184,82.712 C31.71,82.712 32.256,81.116 32.256,79.338 C32.256,77.56 31.71,75.978 30.184,75.978 C28.658,75.978 28.112,77.56 28.112,79.338 C28.112,81.116 28.658,82.712 30.184,82.712 Z M38.808,84.168 C36.19,84.168 35.07,81.69 35.07,79.338 C35.07,76.986 36.19,74.522 38.808,74.522 C41.426,74.522 42.546,76.986 42.546,79.338 C42.546,81.69 41.426,84.168 38.808,84.168 Z M38.808,82.712 C40.334,82.712 40.88,81.116 40.88,79.338 C40.88,77.56 40.334,75.978 38.808,75.978 C37.282,75.978 36.736,77.56 36.736,79.338 C36.736,81.116 37.282,82.712 38.808,82.712 Z M51.03,84.168 C48.412,84.168 47.292,81.69 47.292,79.338 C47.292,76.986 48.412,74.522 51.03,74.522 C53.648,74.522 54.768,76.986 54.768,79.338 C54.768,81.69 53.648,84.168 51.03,84.168 Z M51.03,82.712 C52.556,82.712 53.102,81.116 53.102,79.338 C53.102,77.56 52.556,75.978 51.03,75.978 C49.504,75.978 48.958,77.56 48.958,79.338 C48.958,81.116 49.504,82.712 51.03,82.712 Z M59.654,84.168 C57.036,84.168 55.916,81.69 55.916,79.338 C55.916,76.986 57.036,74.522 59.654,74.522 C62.272,74.522 63.392,76.986 63.392,79.338 C63.392,81.69 62.272,84.168 59.654,84.168 Z M59.654,82.712 C61.18,82.712 61.726,81.116 61.726,79.338 C61.726,77.56 61.18,75.978 59.654,75.978 C58.128,75.978 57.582,77.56 57.582,79.338 C57.582,81.116 58.128,82.712 59.654,82.712 Z M68.278,84.168 C65.66,84.168 64.54,81.69 64.54,79.338 C64.54,76.986 65.66,74.522 68.278,74.522 C70.896,74.522 72.016,76.986 72.016,79.338 C72.016,81.69 70.896,84.168 68.278,84.168 Z M68.278,82.712 C69.804,82.712 70.35,81.116 70.35,79.338 C70.35,77.56 69.804,75.978 68.278,75.978 C66.752,75.978 66.206,77.56 66.206,79.338 C66.206,81.116 66.752,82.712 68.278,82.712 Z" id="наценка-при-объеме-п"></path>
                <path d="M16.15,25.868 L10.064,25.868 L10.064,32.77 L7.106,32.77 L7.106,25.868 L0.986,25.868 L0.986,23.182 L7.106,23.182 L7.106,16.552 L10.064,16.552 L10.064,23.182 L16.15,23.182 L16.15,25.868 Z M28.758,36.408 C24.576,36.408 21.482,34.81 19.816,32.77 L22.332,29.54 C23.896,31.172 26.378,32.124 28.588,32.124 C31.342,32.124 32.872,30.934 32.872,29.234 C32.872,27.432 31.478,26.616 28.316,26.616 C27.364,26.616 25.834,26.65 25.494,26.684 L25.494,22.332 C25.902,22.366 27.466,22.366 28.316,22.366 C30.832,22.366 32.498,21.618 32.498,19.952 C32.498,18.15 30.662,17.266 28.282,17.266 C26.106,17.266 24.134,18.082 22.536,19.612 L20.122,16.586 C21.958,14.512 24.814,12.982 28.792,12.982 C34.096,12.982 37.36,15.362 37.36,19.136 C37.36,21.992 34.912,23.862 32.396,24.304 C34.708,24.542 37.7,26.344 37.7,29.744 C37.7,33.654 34.198,36.408 28.758,36.408 Z M51.498,36.408 C47.554,36.408 44.698,35.116 42.76,33.008 L45.446,29.642 C46.976,31.24 49.084,32.124 51.464,32.124 C54.15,32.124 55.68,30.594 55.68,28.758 C55.68,26.752 54.184,25.392 51.6,25.392 C49.73,25.392 48.2,25.936 46.84,27.228 L43.474,26.344 L43.474,13.322 L59.046,13.322 L59.046,17.572 L48.302,17.572 L48.302,23.114 C49.39,22.026 51.226,21.21 53.3,21.21 C57.142,21.21 60.576,23.964 60.576,28.554 C60.576,33.382 56.972,36.408 51.498,36.408 Z M70.396,24.27 C66.928,24.27 64.65,21.856 64.65,18.694 C64.65,15.498 66.928,12.982 70.396,12.982 C73.898,12.982 76.176,15.498 76.176,18.694 C76.176,21.856 73.898,24.27 70.396,24.27 Z M70.736,36 L68.186,36 L82.67,13.322 L85.254,13.322 L70.736,36 Z M82.874,36.408 C79.406,36.408 77.128,33.96 77.128,30.798 C77.128,27.602 79.406,25.086 82.874,25.086 C86.342,25.086 88.654,27.602 88.654,30.798 C88.654,33.96 86.342,36.408 82.874,36.408 Z M70.396,21.618 C71.96,21.618 73.082,20.462 73.082,18.694 C73.082,16.79 71.96,15.668 70.396,15.668 C68.866,15.668 67.71,16.79 67.71,18.694 C67.71,20.462 68.866,21.618 70.396,21.618 Z M82.874,33.756 C84.438,33.756 85.594,32.634 85.594,30.798 C85.594,28.928 84.438,27.772 82.874,27.772 C81.31,27.772 80.188,28.928 80.188,30.798 C80.188,32.634 81.31,33.756 82.874,33.756 Z" id="+35%"></path>
            </g>
            <g id="Group-3-Copy-2" transform="translate(0.000000, 360.000000)" fill="#FFFFFF">
                <path d="M2.422,64 L0.952,64 L0.952,57.238 L2.422,57.238 L2.422,59.898 L5.53,59.898 L5.53,57.238 L7,57.238 L7,64 L5.53,64 L5.53,61.186 L2.422,61.186 L2.422,64 Z M14.504,64 L13.034,64 L13.034,63.272 C12.53,63.846 11.746,64.168 10.85,64.168 C9.744,64.168 8.498,63.426 8.498,61.928 C8.498,60.374 9.744,59.73 10.85,59.73 C11.76,59.73 12.544,60.024 13.034,60.598 L13.034,59.59 C13.034,58.806 12.39,58.33 11.452,58.33 C10.696,58.33 10.038,58.61 9.45,59.184 L8.848,58.162 C9.632,57.42 10.612,57.07 11.69,57.07 C13.188,57.07 14.504,57.7 14.504,59.52 L14.504,64 Z M11.424,63.16 C12.068,63.16 12.698,62.922 13.034,62.46 L13.034,61.438 C12.698,60.976 12.068,60.738 11.424,60.738 C10.598,60.738 9.982,61.214 9.982,61.956 C9.982,62.684 10.598,63.16 11.424,63.16 Z M21.728,65.722 L21.728,64 L16.408,64 L16.408,57.238 L17.878,57.238 L17.878,62.712 L20.986,62.712 L20.986,57.238 L22.456,57.238 L22.456,62.712 L23.198,62.712 L23.198,65.722 L21.728,65.722 Z M27.524,64.168 C25.494,64.168 23.982,62.754 23.982,60.612 C23.982,58.652 25.41,57.07 27.412,57.07 C29.442,57.07 30.744,58.624 30.744,60.752 L30.744,61.102 L25.522,61.102 C25.634,62.124 26.404,62.964 27.678,62.964 C28.336,62.964 29.12,62.698 29.596,62.222 L30.268,63.188 C29.596,63.832 28.602,64.168 27.524,64.168 Z M29.316,60.066 C29.288,59.268 28.742,58.274 27.412,58.274 C26.152,58.274 25.578,59.24 25.508,60.066 L29.316,60.066 Z M33.67,64 L32.2,64 L32.2,57.238 L33.67,57.238 L33.67,59.898 L36.778,59.898 L36.778,57.238 L38.248,57.238 L38.248,64 L36.778,64 L36.778,61.186 L33.67,61.186 L33.67,64 Z M46.48,64 L44.632,64 L42.56,61.214 L41.622,62.18 L41.622,64 L40.152,64 L40.152,57.238 L41.622,57.238 L41.622,60.5 L44.604,57.238 L46.424,57.238 L43.61,60.304 L46.48,64 Z M53.116,64 L51.646,64 L51.646,63.272 C51.142,63.846 50.358,64.168 49.462,64.168 C48.356,64.168 47.11,63.426 47.11,61.928 C47.11,60.374 48.356,59.73 49.462,59.73 C50.372,59.73 51.156,60.024 51.646,60.598 L51.646,59.59 C51.646,58.806 51.002,58.33 50.064,58.33 C49.308,58.33 48.65,58.61 48.062,59.184 L47.46,58.162 C48.244,57.42 49.224,57.07 50.302,57.07 C51.8,57.07 53.116,57.7 53.116,59.52 L53.116,64 Z M50.036,63.16 C50.68,63.16 51.31,62.922 51.646,62.46 L51.646,61.438 C51.31,60.976 50.68,60.738 50.036,60.738 C49.21,60.738 48.594,61.214 48.594,61.956 C48.594,62.684 49.21,63.16 50.036,63.16 Z M64.666,64 L63.196,64 L63.196,58.526 L60.088,58.526 L60.088,64 L58.618,64 L58.618,57.238 L64.666,57.238 L64.666,64 Z M70.21,64.168 C69.356,64.168 68.586,63.79 68.04,63.062 L68.04,66.576 L66.57,66.576 L66.57,57.238 L68.04,57.238 L68.04,58.162 C68.544,57.49 69.328,57.07 70.21,57.07 C71.96,57.07 73.206,58.386 73.206,60.612 C73.206,62.838 71.96,64.168 70.21,64.168 Z M69.776,62.866 C70.938,62.866 71.68,61.928 71.68,60.612 C71.68,59.31 70.938,58.372 69.776,58.372 C69.09,58.372 68.362,58.778 68.04,59.282 L68.04,61.956 C68.362,62.446 69.09,62.866 69.776,62.866 Z M76.076,64 L74.662,64 L74.662,57.238 L76.132,57.238 L76.132,61.788 L79.24,57.238 L80.71,57.238 L80.71,64 L79.24,64 L79.24,59.324 L76.076,64 Z M89.264,64.168 C87.122,64.168 85.792,62.558 85.792,60.612 C85.792,58.68 87.122,57.07 89.264,57.07 C91.434,57.07 92.75,58.68 92.75,60.612 C92.75,62.558 91.434,64.168 89.264,64.168 Z M89.264,62.866 C90.524,62.866 91.224,61.816 91.224,60.612 C91.224,59.422 90.524,58.372 89.264,58.372 C88.018,58.372 87.318,59.422 87.318,60.612 C87.318,61.816 88.018,62.866 89.264,62.866 Z M97.286,62.866 C98.546,62.866 99.246,61.816 99.246,60.584 C99.246,59.422 98.546,58.372 97.286,58.372 C96.04,58.372 95.34,59.422 95.34,60.584 C95.34,61.816 96.04,62.866 97.286,62.866 Z M97.286,64.168 C95.102,64.168 93.828,62.502 93.828,60.304 C93.828,57.014 94.962,55.572 97.23,55.292 C98.672,55.082 99.078,54.914 99.078,54.662 L100.52,54.662 C100.52,55.978 98.756,56.328 97.636,56.454 C96.012,56.636 95.312,57.434 95.13,58.26 C95.676,57.518 96.586,57.07 97.566,57.07 C99.484,57.07 100.758,58.722 100.758,60.598 C100.758,62.502 99.484,64.168 97.286,64.168 Z M107.408,64 L103.544,64 L103.544,58.526 L101.612,58.526 L101.612,57.238 L105.014,57.238 L105.014,59.688 L107.408,59.688 C108.906,59.688 109.648,60.682 109.648,61.844 C109.648,63.006 108.864,64 107.408,64 Z M107.226,60.976 L105.014,60.976 L105.014,62.712 L107.226,62.712 C107.814,62.712 108.15,62.348 108.15,61.844 C108.15,61.34 107.814,60.976 107.226,60.976 Z M114.226,64.168 C112.196,64.168 110.684,62.754 110.684,60.612 C110.684,58.652 112.112,57.07 114.114,57.07 C116.144,57.07 117.446,58.624 117.446,60.752 L117.446,61.102 L112.224,61.102 C112.336,62.124 113.106,62.964 114.38,62.964 C115.038,62.964 115.822,62.698 116.298,62.222 L116.97,63.188 C116.298,63.832 115.304,64.168 114.226,64.168 Z M116.018,60.066 C115.99,59.268 115.444,58.274 114.114,58.274 C112.854,58.274 112.28,59.24 112.21,60.066 L116.018,60.066 Z M126.476,64 L125.006,64 L125.006,59.296 L122.99,64 L122.402,64 L120.372,59.296 L120.372,64 L118.902,64 L118.902,57.238 L120.82,57.238 L122.696,61.606 L124.544,57.238 L126.476,57.238 L126.476,64 Z M131.502,64.168 C129.472,64.168 127.96,62.754 127.96,60.612 C127.96,58.652 129.388,57.07 131.39,57.07 C133.42,57.07 134.722,58.624 134.722,60.752 L134.722,61.102 L129.5,61.102 C129.612,62.124 130.382,62.964 131.656,62.964 C132.314,62.964 133.098,62.698 133.574,62.222 L134.246,63.188 C133.574,63.832 132.58,64.168 131.502,64.168 Z M133.294,60.066 C133.266,59.268 132.72,58.274 131.39,58.274 C130.13,58.274 129.556,59.24 129.486,60.066 L133.294,60.066 Z M145.824,64 L144.354,64 L144.354,58.526 L141.246,58.526 L141.246,64 L139.776,64 L139.776,57.238 L145.824,57.238 L145.824,64 Z M151.368,64.168 C150.514,64.168 149.744,63.79 149.198,63.062 L149.198,66.576 L147.728,66.576 L147.728,57.238 L149.198,57.238 L149.198,58.162 C149.702,57.49 150.486,57.07 151.368,57.07 C153.118,57.07 154.364,58.386 154.364,60.612 C154.364,62.838 153.118,64.168 151.368,64.168 Z M150.934,62.866 C152.096,62.866 152.838,61.928 152.838,60.612 C152.838,59.31 152.096,58.372 150.934,58.372 C150.248,58.372 149.52,58.778 149.198,59.282 L149.198,61.956 C149.52,62.446 150.248,62.866 150.934,62.866 Z M158.872,64.168 C156.73,64.168 155.4,62.558 155.4,60.612 C155.4,58.68 156.73,57.07 158.872,57.07 C161.042,57.07 162.358,58.68 162.358,60.612 C162.358,62.558 161.042,64.168 158.872,64.168 Z M158.872,62.866 C160.132,62.866 160.832,61.816 160.832,60.612 C160.832,59.422 160.132,58.372 158.872,58.372 C157.626,58.372 156.926,59.422 156.926,60.612 C156.926,61.816 157.626,62.866 158.872,62.866 Z M163.142,65.722 L163.142,62.782 C163.716,62.642 164.038,62.306 164.262,60.528 L164.668,57.238 L169.89,57.238 L169.89,62.712 L170.632,62.712 L170.632,65.722 L169.162,65.722 L169.162,64 L164.612,64 L164.612,65.722 L163.142,65.722 Z M165.97,58.526 L165.732,60.696 C165.634,61.634 165.312,62.292 164.836,62.712 L168.42,62.712 L168.42,58.526 L165.97,58.526 Z M177.436,64 L175.966,64 L175.966,63.272 C175.462,63.846 174.678,64.168 173.782,64.168 C172.676,64.168 171.43,63.426 171.43,61.928 C171.43,60.374 172.676,59.73 173.782,59.73 C174.692,59.73 175.476,60.024 175.966,60.598 L175.966,59.59 C175.966,58.806 175.322,58.33 174.384,58.33 C173.628,58.33 172.97,58.61 172.382,59.184 L171.78,58.162 C172.564,57.42 173.544,57.07 174.622,57.07 C176.12,57.07 177.436,57.7 177.436,59.52 L177.436,64 Z M174.356,63.16 C175,63.16 175.63,62.922 175.966,62.46 L175.966,61.438 C175.63,60.976 175,60.738 174.356,60.738 C173.53,60.738 172.914,61.214 172.914,61.956 C172.914,62.684 173.53,63.16 174.356,63.16 Z M180.32,64 L178.472,64 L181.342,60.304 L178.528,57.238 L180.348,57.238 L182.77,59.884 L182.77,57.238 L184.24,57.238 L184.24,59.884 L186.662,57.238 L188.482,57.238 L185.668,60.304 L188.538,64 L186.69,64 L184.618,61.214 L184.24,61.606 L184.24,64 L182.77,64 L182.77,61.606 L182.392,61.214 L180.32,64 Z M4.004,84.168 C1.862,84.168 0.532,82.558 0.532,80.612 C0.532,78.68 1.862,77.07 4.004,77.07 C6.174,77.07 7.49,78.68 7.49,80.612 C7.49,82.558 6.174,84.168 4.004,84.168 Z M4.004,82.866 C5.264,82.866 5.964,81.816 5.964,80.612 C5.964,79.422 5.264,78.372 4.004,78.372 C2.758,78.372 2.058,79.422 2.058,80.612 C2.058,81.816 2.758,82.866 4.004,82.866 Z M11.676,84 L10.206,84 L10.206,78.526 L8.274,78.526 L8.274,77.238 L13.622,77.238 L13.622,78.526 L11.676,78.526 L11.676,84 Z M21.728,84.168 C20.118,84.168 19.012,83.622 18.256,82.726 L19.194,81.606 C19.824,82.32 20.664,82.712 21.714,82.712 C22.89,82.712 23.632,81.984 23.632,81.074 C23.632,80.066 22.904,79.408 21.756,79.408 C20.958,79.408 20.3,79.66 19.712,80.22 L18.55,79.884 L18.55,74.662 L24.668,74.662 L24.668,76.104 L20.188,76.104 L20.188,78.806 C20.636,78.358 21.406,77.994 22.302,77.994 C23.87,77.994 25.284,79.1 25.284,81.004 C25.284,82.95 23.814,84.168 21.728,84.168 Z M33.782,84.168 C31.164,84.168 30.044,81.69 30.044,79.338 C30.044,76.986 31.164,74.522 33.782,74.522 C36.4,74.522 37.52,76.986 37.52,79.338 C37.52,81.69 36.4,84.168 33.782,84.168 Z M33.782,82.712 C35.308,82.712 35.854,81.116 35.854,79.338 C35.854,77.56 35.308,75.978 33.782,75.978 C32.256,75.978 31.71,77.56 31.71,79.338 C31.71,81.116 32.256,82.712 33.782,82.712 Z M42.406,84.168 C39.788,84.168 38.668,81.69 38.668,79.338 C38.668,76.986 39.788,74.522 42.406,74.522 C45.024,74.522 46.144,76.986 46.144,79.338 C46.144,81.69 45.024,84.168 42.406,84.168 Z M42.406,82.712 C43.932,82.712 44.478,81.116 44.478,79.338 C44.478,77.56 43.932,75.978 42.406,75.978 C40.88,75.978 40.334,77.56 40.334,79.338 C40.334,81.116 40.88,82.712 42.406,82.712 Z M51.03,84.168 C48.412,84.168 47.292,81.69 47.292,79.338 C47.292,76.986 48.412,74.522 51.03,74.522 C53.648,74.522 54.768,76.986 54.768,79.338 C54.768,81.69 53.648,84.168 51.03,84.168 Z M51.03,82.712 C52.556,82.712 53.102,81.116 53.102,79.338 C53.102,77.56 52.556,75.978 51.03,75.978 C49.504,75.978 48.958,77.56 48.958,79.338 C48.958,81.116 49.504,82.712 51.03,82.712 Z M63.252,84.168 C60.634,84.168 59.514,81.69 59.514,79.338 C59.514,76.986 60.634,74.522 63.252,74.522 C65.87,74.522 66.99,76.986 66.99,79.338 C66.99,81.69 65.87,84.168 63.252,84.168 Z M63.252,82.712 C64.778,82.712 65.324,81.116 65.324,79.338 C65.324,77.56 64.778,75.978 63.252,75.978 C61.726,75.978 61.18,77.56 61.18,79.338 C61.18,81.116 61.726,82.712 63.252,82.712 Z M71.876,84.168 C69.258,84.168 68.138,81.69 68.138,79.338 C68.138,76.986 69.258,74.522 71.876,74.522 C74.494,74.522 75.614,76.986 75.614,79.338 C75.614,81.69 74.494,84.168 71.876,84.168 Z M71.876,82.712 C73.402,82.712 73.948,81.116 73.948,79.338 C73.948,77.56 73.402,75.978 71.876,75.978 C70.35,75.978 69.804,77.56 69.804,79.338 C69.804,81.116 70.35,82.712 71.876,82.712 Z M80.5,84.168 C77.882,84.168 76.762,81.69 76.762,79.338 C76.762,76.986 77.882,74.522 80.5,74.522 C83.118,74.522 84.238,76.986 84.238,79.338 C84.238,81.69 83.118,84.168 80.5,84.168 Z M80.5,82.712 C82.026,82.712 82.572,81.116 82.572,79.338 C82.572,77.56 82.026,75.978 80.5,75.978 C78.974,75.978 78.428,77.56 78.428,79.338 C78.428,81.116 78.974,82.712 80.5,82.712 Z" id="наценка-при-объеме-п"></path>
                <path d="M16.15,25.868 L10.064,25.868 L10.064,32.77 L7.106,32.77 L7.106,25.868 L0.986,25.868 L0.986,23.182 L7.106,23.182 L7.106,16.552 L10.064,16.552 L10.064,23.182 L16.15,23.182 L16.15,25.868 Z M30.084,36.408 C23.182,36.408 20.292,31.104 20.292,24.712 C20.292,17.844 24.168,12.982 30.866,12.982 C33.62,12.982 35.932,13.934 37.564,15.328 L35.388,19.034 C34.164,17.878 32.872,17.266 30.866,17.266 C27.534,17.266 25.188,20.088 25.188,23.692 C25.188,23.862 25.188,23.998 25.222,24.168 C26.276,22.638 28.554,21.244 31.036,21.244 C35.116,21.244 38.754,23.794 38.754,28.622 C38.754,33.042 35.252,36.408 30.084,36.408 Z M29.812,32.124 C32.43,32.124 33.858,30.39 33.858,28.792 C33.858,26.412 31.818,25.392 29.642,25.392 C27.942,25.392 26.31,26.174 25.222,27.534 C25.426,29.71 26.65,32.124 29.812,32.124 Z M52.212,36.408 C48.268,36.408 45.412,35.116 43.474,33.008 L46.16,29.642 C47.69,31.24 49.798,32.124 52.178,32.124 C54.864,32.124 56.394,30.594 56.394,28.758 C56.394,26.752 54.898,25.392 52.314,25.392 C50.444,25.392 48.914,25.936 47.554,27.228 L44.188,26.344 L44.188,13.322 L59.76,13.322 L59.76,17.572 L49.016,17.572 L49.016,23.114 C50.104,22.026 51.94,21.21 54.014,21.21 C57.856,21.21 61.29,23.964 61.29,28.554 C61.29,33.382 57.686,36.408 52.212,36.408 Z M71.11,24.27 C67.642,24.27 65.364,21.856 65.364,18.694 C65.364,15.498 67.642,12.982 71.11,12.982 C74.612,12.982 76.89,15.498 76.89,18.694 C76.89,21.856 74.612,24.27 71.11,24.27 Z M71.45,36 L68.9,36 L83.384,13.322 L85.968,13.322 L71.45,36 Z M83.588,36.408 C80.12,36.408 77.842,33.96 77.842,30.798 C77.842,27.602 80.12,25.086 83.588,25.086 C87.056,25.086 89.368,27.602 89.368,30.798 C89.368,33.96 87.056,36.408 83.588,36.408 Z M71.11,21.618 C72.674,21.618 73.796,20.462 73.796,18.694 C73.796,16.79 72.674,15.668 71.11,15.668 C69.58,15.668 68.424,16.79 68.424,18.694 C68.424,20.462 69.58,21.618 71.11,21.618 Z M83.588,33.756 C85.152,33.756 86.308,32.634 86.308,30.798 C86.308,28.928 85.152,27.772 83.588,27.772 C82.024,27.772 80.902,28.928 80.902,30.798 C80.902,32.634 82.024,33.756 83.588,33.756 Z" id="+65%"></path>
            </g>
            <g id="Group-5" transform="translate(0.000000, 480.000000)">
                <g id="Group-2" transform="translate(30.000000, 0.000000)" fill="#FFFFFF">
                    <path d="M5.824,66 L1.088,66 L1.088,58.272 L5.712,58.272 C7.184,58.272 8,59.152 8,60.256 C8,61.184 7.408,61.808 6.704,62.016 C7.536,62.208 8.16,62.992 8.16,63.904 C8.16,65.104 7.328,66 5.824,66 Z M5.472,64.528 C6.064,64.528 6.432,64.208 6.432,63.664 C6.432,63.2 6.096,62.784 5.472,62.784 L2.768,62.784 L2.768,64.528 L5.472,64.528 Z M5.424,61.312 C5.968,61.312 6.288,60.976 6.288,60.544 C6.288,60.064 5.968,59.744 5.424,59.744 L2.768,59.744 L2.768,61.312 L5.424,61.312 Z M16.64,66 L14.96,66 L14.96,65.168 C14.384,65.824 13.488,66.192 12.464,66.192 C11.2,66.192 9.776,65.344 9.776,63.632 C9.776,61.856 11.2,61.12 12.464,61.12 C13.504,61.12 14.4,61.456 14.96,62.112 L14.96,60.96 C14.96,60.064 14.224,59.52 13.152,59.52 C12.288,59.52 11.536,59.84 10.864,60.496 L10.176,59.328 C11.072,58.48 12.192,58.08 13.424,58.08 C15.136,58.08 16.64,58.8 16.64,60.88 L16.64,66 Z M13.12,65.04 C13.856,65.04 14.576,64.768 14.96,64.24 L14.96,63.072 C14.576,62.544 13.856,62.272 13.12,62.272 C12.176,62.272 11.472,62.816 11.472,63.664 C11.472,64.496 12.176,65.04 13.12,65.04 Z M27.616,58.272 L29.296,58.272 L29.296,66 L18.816,66 L18.816,58.272 L20.496,58.272 L20.496,64.528 L23.216,64.528 L23.216,58.272 L24.896,58.272 L24.896,64.528 L27.616,64.528 L27.616,58.272 Z M38.368,66.192 C36.784,66.192 35.584,65.696 34.816,64.944 L35.6,63.872 C36.32,64.512 37.344,64.816 38.368,64.816 C39.552,64.816 40.256,64.4 40.256,63.776 C40.256,63.04 39.408,62.768 38.224,62.768 L36.576,62.768 L36.576,61.424 L38.224,61.424 C39.376,61.424 40.112,61.088 40.112,60.416 C40.112,59.856 39.328,59.456 38.256,59.456 C37.216,59.456 36.4,59.76 35.776,60.384 L34.944,59.36 C35.68,58.608 36.768,58.096 38.176,58.096 C40.448,58.08 41.856,58.88 41.856,60.192 C41.856,61.248 40.784,61.904 39.808,62.048 C40.736,62.112 42.016,62.688 42.016,63.904 C42.016,65.232 40.64,66.192 38.368,66.192 Z M50.112,66 L48.432,66 L48.432,65.168 C47.856,65.824 46.96,66.192 45.936,66.192 C44.672,66.192 43.248,65.344 43.248,63.632 C43.248,61.856 44.672,61.12 45.936,61.12 C46.976,61.12 47.872,61.456 48.432,62.112 L48.432,60.96 C48.432,60.064 47.696,59.52 46.624,59.52 C45.76,59.52 45.008,59.84 44.336,60.496 L43.648,59.328 C44.544,58.48 45.664,58.08 46.896,58.08 C48.608,58.08 50.112,58.8 50.112,60.88 L50.112,66 Z M46.592,65.04 C47.328,65.04 48.048,64.768 48.432,64.24 L48.432,63.072 C48.048,62.544 47.328,62.272 46.592,62.272 C45.648,62.272 44.944,62.816 44.944,63.664 C44.944,64.496 45.648,65.04 46.592,65.04 Z M56.448,66.192 C55.472,66.192 54.592,65.76 53.968,64.928 L53.968,68.944 L52.288,68.944 L52.288,58.272 L53.968,58.272 L53.968,59.328 C54.544,58.56 55.44,58.08 56.448,58.08 C58.448,58.08 59.872,59.584 59.872,62.128 C59.872,64.672 58.448,66.192 56.448,66.192 Z M55.952,64.704 C57.28,64.704 58.128,63.632 58.128,62.128 C58.128,60.64 57.28,59.568 55.952,59.568 C55.168,59.568 54.336,60.032 53.968,60.608 L53.968,63.664 C54.336,64.224 55.168,64.704 55.952,64.704 Z M67.936,66 L66.256,66 L66.256,65.168 C65.68,65.824 64.784,66.192 63.76,66.192 C62.496,66.192 61.072,65.344 61.072,63.632 C61.072,61.856 62.496,61.12 63.76,61.12 C64.8,61.12 65.696,61.456 66.256,62.112 L66.256,60.96 C66.256,60.064 65.52,59.52 64.448,59.52 C63.584,59.52 62.832,59.84 62.16,60.496 L61.472,59.328 C62.368,58.48 63.488,58.08 64.72,58.08 C66.432,58.08 67.936,58.8 67.936,60.88 L67.936,66 Z M64.416,65.04 C65.152,65.04 65.872,64.768 66.256,64.24 L66.256,63.072 C65.872,62.544 65.152,62.272 64.416,62.272 C63.472,62.272 62.768,62.816 62.768,63.664 C62.768,64.496 63.472,65.04 64.416,65.04 Z M73.6,64.704 C75.04,64.704 75.84,63.504 75.84,62.096 C75.84,60.768 75.04,59.568 73.6,59.568 C72.176,59.568 71.376,60.768 71.376,62.096 C71.376,63.504 72.176,64.704 73.6,64.704 Z M73.6,66.192 C71.104,66.192 69.648,64.288 69.648,61.776 C69.648,58.016 70.944,56.368 73.536,56.048 C75.184,55.808 75.648,55.616 75.648,55.328 L77.296,55.328 C77.296,56.832 75.28,57.232 74,57.376 C72.144,57.584 71.344,58.496 71.136,59.44 C71.76,58.592 72.8,58.08 73.92,58.08 C76.112,58.08 77.568,59.968 77.568,62.112 C77.568,64.288 76.112,66.192 73.6,66.192 Z M82.832,66.192 C80.384,66.192 78.864,64.352 78.864,62.128 C78.864,59.92 80.384,58.08 82.832,58.08 C85.312,58.08 86.816,59.92 86.816,62.128 C86.816,64.352 85.312,66.192 82.832,66.192 Z M82.832,64.704 C84.272,64.704 85.072,63.504 85.072,62.128 C85.072,60.768 84.272,59.568 82.832,59.568 C81.408,59.568 80.608,60.768 80.608,62.128 C80.608,63.504 81.408,64.704 82.832,64.704 Z M91.6,66 L89.92,66 L89.92,59.744 L87.712,59.744 L87.712,58.272 L93.824,58.272 L93.824,59.744 L91.6,59.744 L91.6,66 Z M98.688,66.192 C96.24,66.192 94.72,64.352 94.72,62.128 C94.72,59.92 96.24,58.08 98.688,58.08 C101.168,58.08 102.672,59.92 102.672,62.128 C102.672,64.352 101.168,66.192 98.688,66.192 Z M98.688,64.704 C100.128,64.704 100.928,63.504 100.928,62.128 C100.928,60.768 100.128,59.568 98.688,59.568 C97.264,59.568 96.464,60.768 96.464,62.128 C96.464,63.504 97.264,64.704 98.688,64.704 Z M111.6,66 L109.488,66 L107.12,62.816 L106.048,63.92 L106.048,66 L104.368,66 L104.368,58.272 L106.048,58.272 L106.048,62 L109.456,58.272 L111.536,58.272 L108.32,61.776 L111.6,66 Z M5.824,88 L1.088,88 L1.088,80.272 L5.712,80.272 C7.184,80.272 8,81.152 8,82.256 C8,83.184 7.408,83.808 6.704,84.016 C7.536,84.208 8.16,84.992 8.16,85.904 C8.16,87.104 7.328,88 5.824,88 Z M5.472,86.528 C6.064,86.528 6.432,86.208 6.432,85.664 C6.432,85.2 6.096,84.784 5.472,84.784 L2.768,84.784 L2.768,86.528 L5.472,86.528 Z M5.424,83.312 C5.968,83.312 6.288,82.976 6.288,82.544 C6.288,82.064 5.968,81.744 5.424,81.744 L2.768,81.744 L2.768,83.312 L5.424,83.312 Z M23.008,88 L21.328,88 L21.328,82.624 L19.024,88 L18.352,88 L16.032,82.624 L16.032,88 L14.352,88 L14.352,80.272 L16.544,80.272 L18.688,85.264 L20.8,80.272 L23.008,80.272 L23.008,88 Z M28.752,88.192 C26.432,88.192 24.704,86.576 24.704,84.128 C24.704,81.888 26.336,80.08 28.624,80.08 C30.944,80.08 32.432,81.856 32.432,84.288 L32.432,84.688 L26.464,84.688 C26.592,85.856 27.472,86.816 28.928,86.816 C29.68,86.816 30.576,86.512 31.12,85.968 L31.888,87.072 C31.12,87.808 29.984,88.192 28.752,88.192 Z M30.8,83.504 C30.768,82.592 30.144,81.456 28.624,81.456 C27.184,81.456 26.528,82.56 26.448,83.504 L30.8,83.504 Z M37.616,88.192 C35.264,88.192 33.616,86.48 33.616,84.128 C33.616,81.792 35.264,80.08 37.616,80.08 C39.12,80.08 40.032,80.72 40.576,81.456 L39.472,82.48 C39.04,81.872 38.448,81.568 37.696,81.568 C36.288,81.568 35.36,82.624 35.36,84.128 C35.36,85.632 36.288,86.704 37.696,86.704 C38.448,86.704 39.04,86.384 39.472,85.792 L40.576,86.816 C40.032,87.552 39.12,88.192 37.616,88.192 Z M43.696,88 L41.776,88 L43.68,85.12 C42.672,84.896 41.872,84.064 41.872,82.736 C41.872,81.408 42.768,80.272 44.432,80.272 L48.848,80.272 L48.848,88 L47.168,88 L47.168,85.2 L45.392,85.2 L43.696,88 Z M44.64,83.728 L47.168,83.728 L47.168,81.744 L44.64,81.744 C44,81.744 43.584,82.16 43.584,82.736 C43.584,83.312 43.968,83.728 44.64,83.728 Z M57.104,89.968 L57.104,88 L51.024,88 L51.024,80.272 L52.704,80.272 L52.704,86.528 L56.256,86.528 L56.256,80.272 L57.936,80.272 L57.936,86.528 L58.784,86.528 L58.784,89.968 L57.104,89.968 Z" id="ваш-заработок-в-меся"></path>
                    <path d="M11.73,36 L6.902,36 L6.902,19.544 L3.128,23.386 L0.374,20.496 L7.514,13.322 L11.73,13.322 L11.73,36 Z M20.326,36.374 C18.83,36.374 17.572,35.116 17.572,33.62 C17.572,32.124 18.83,30.866 20.326,30.866 C21.822,30.866 23.08,32.124 23.08,33.62 C23.08,35.116 21.822,36.374 20.326,36.374 Z M38.408,36 L33.58,36 L33.58,19.544 L29.806,23.386 L27.052,20.496 L34.192,13.322 L38.408,13.322 L38.408,36 Z M74.912,36 L70.594,36 L70.594,25.324 L66.208,36 L64.236,36 L59.816,25.324 L59.816,36 L55.498,36 L55.498,19.578 L61.176,19.578 L65.222,29.37 L69.2,19.578 L74.912,19.578 L74.912,36 Z M79.666,36.408 L79.666,32.872 C80.992,32.872 81.774,31.512 82.284,27.534 L83.338,19.578 L96.632,19.578 L96.632,36 L92.314,36 L92.314,23.352 L87.112,23.352 L86.568,28.044 C85.888,33.722 83.848,36.408 79.666,36.408 Z M107.234,36 L102.916,36 L102.916,19.578 L107.234,19.578 L107.234,25.664 L114.034,25.664 L114.034,19.578 L118.352,19.578 L118.352,36 L114.034,36 L114.034,29.438 L107.234,29.438 L107.234,36 Z M134.476455,22.9390244 L136.929707,22.9390244 L136.929707,11.9166667 L143.252878,11.9166667 C144.427681,11.9166667 145.498808,12.0491179 146.466293,12.3140244 C147.433777,12.5789309 148.263037,12.9820434 148.954098,13.523374 C149.645158,14.0647046 150.18648,14.7499959 150.578081,15.5792683 C150.969682,16.4085407 151.16548,17.3990457 151.16548,18.550813 C151.16548,19.7025803 150.958165,20.7046028 150.543528,21.5569106 C150.128892,22.4092184 149.564535,23.1175446 148.850439,23.6819106 C148.136343,24.2462765 147.295566,24.6666653 146.328081,24.9430894 C145.360597,25.2195136 144.312504,25.3577236 143.183772,25.3577236 L139.693935,25.3577236 L139.693935,28.847561 L145.256943,28.847561 L145.256943,31.1280488 L139.693935,31.1280488 L139.693935,36 L136.929707,36 L136.929707,31.1280488 L134.476455,31.1280488 L134.476455,28.847561 L136.929707,28.847561 L136.929707,25.3577236 L134.476455,25.3577236 L134.476455,22.9390244 Z M143.252878,22.9390244 C144.842317,22.9390244 146.091966,22.5762231 147.001862,21.8506098 C147.911758,21.1249964 148.366699,20.0250751 148.366699,18.550813 C148.366699,17.0765509 147.911758,16.0054234 147.001862,15.3373984 C146.091966,14.6693734 144.842317,14.3353659 143.252878,14.3353659 L139.693935,14.3353659 L139.693935,22.9390244 L143.252878,22.9390244 Z" id="1.1-млн-₽"></path>
                </g>
                <g id="Group-4" transform="translate(0.000000, 15.000000)">
                    <g id="Group-9" transform="translate(7.500000, 32.500000) rotate(-90.000000) translate(-7.500000, -32.500000) translate(-25.000000, 25.000000)">
                        <polygon id="Triangle" stroke="#00D9B1" stroke-width="2" points="65 7.5 56 15 56 0"></polygon>
                        <rect id="Rectangle-2" fill="#00D9B1" x="0" y="6.5" width="50" height="2"></rect>
                    </g>
                </g>
            </g>
        </g>
    </g>
</svg>