<?xml version="1.0" encoding="UTF-8"?>
<svg width="1597px" height="583px" viewBox="0 0 1597 583" version="1.1" xmlns="http://www.w3.org/2000/svg" xmlns:xlink="http://www.w3.org/1999/xlink">
    <!-- Generator: Sketch 48.1 (47250) - http://www.bohemiancoding.com/sketch -->
    <title>Group 41</title>
    <desc>Created with Sketch.</desc>
    <defs>
        <linearGradient x1="50%" y1="0%" x2="0%" y2="71.8963854%" id="linearGradient-1">
            <stop stop-color="#1DC6DA" offset="0%"></stop>
            <stop stop-color="#05BFF3" offset="0%"></stop>
            <stop stop-color="#05C0F3" offset="0%"></stop>
            <stop stop-color="#05DEF9" offset="100%"></stop>
        </linearGradient>
        <linearGradient x1="50%" y1="100%" x2="50%" y2="0%" id="linearGradient-2">
            <stop stop-color="#E6E9F0" offset="0%"></stop>
            <stop stop-color="#EEF1F5" offset="100%"></stop>
        </linearGradient>
    </defs>
    <g id="Landing-MHT-Warm-Floor" stroke="none" stroke-width="1" fill="none" fill-rule="evenodd">
        <g id="Group-41" transform="translate(1.000000, 5.000000)">
            <path d="M135.444863,514.320581 C135.444863,514.320581 129.489692,581.983044 194.8169,571.378066 C260.144108,560.773088 286.359574,522.40557 332.837862,514.320581 C379.316149,506.235591 379.657322,525.741513 437.87656,492.959361 C496.095798,460.17721 528.730327,479.87012 601.075448,441.530782 C673.420569,403.191444 669.969471,453.652272 759.996548,428.697421 C850.023626,403.74257 910.389064,325.371703 944.233782,314.566108 C962.643431,308.688463 1028.90664,356.877182 1087.16196,322.028308 C1145.41729,287.179434 1156.35985,275.11877 1205.94198,282.565266 C1249.05142,289.039661 1353.50893,269.369617 1423.73957,205.056413 C1509.3267,126.680614 1557.99986,0 1557.99986,0 L1595,327.932578 L1595,555.240216 C1595,555.240216 660.548338,589.206605 24.6253725,571.378066 C-69.2292311,568.746787 135.444863,514.320581 135.444863,514.320581 Z" id="Path-34" stroke="url(#linearGradient-1)" stroke-width="2" fill-opacity="0.15" fill="#ABDAFA"></path>
            <g id="Group-3-Copy-2" transform="translate(1227.000000, 169.552267)">
                <g id="Group-2" transform="translate(18.000000, 99.000000)"></g>
                <path d="M4.424,14.168 C1.68,14.168 0.574,11.942 0.574,9.352 C0.574,6.65 1.988,4.522 4.69,4.522 C5.852,4.522 6.748,4.942 7.378,5.558 L6.608,6.804 C6.118,6.286 5.586,5.978 4.69,5.978 C3.136,5.978 2.226,7.42 2.226,9.058 C2.226,9.156 2.226,9.24 2.24,9.324 C2.66,8.694 3.64,8.022 4.746,8.022 C6.426,8.022 7.868,9.044 7.868,11.032 C7.868,12.768 6.51,14.168 4.424,14.168 Z M4.34,12.712 C5.572,12.712 6.216,11.844 6.216,11.088 C6.216,9.94 5.32,9.422 4.298,9.422 C3.5,9.422 2.73,9.856 2.254,10.528 C2.352,11.536 2.898,12.712 4.34,12.712 Z M19.292,14 L17.444,14 L15.372,11.214 L14.434,12.18 L14.434,14 L12.964,14 L12.964,7.238 L14.434,7.238 L14.434,10.5 L17.416,7.238 L19.236,7.238 L16.422,10.304 L19.292,14 Z M19.628,14.168 L19.628,12.964 C20.202,12.964 20.524,12.306 20.748,10.528 L21.154,7.238 L26.376,7.238 L26.376,14 L24.906,14 L24.906,8.526 L22.456,8.526 L22.218,10.696 C21.952,13.146 21.112,14.168 19.628,14.168 Z M29.694,14 L28.28,14 L28.28,7.238 L29.75,7.238 L29.75,11.788 L32.858,7.238 L34.328,7.238 L34.328,14 L32.858,14 L32.858,9.324 L29.694,14 Z M39.354,14.168 C37.324,14.168 35.812,12.754 35.812,10.612 C35.812,8.652 37.24,7.07 39.242,7.07 C41.272,7.07 42.574,8.624 42.574,10.752 L42.574,11.102 L37.352,11.102 C37.464,12.124 38.234,12.964 39.508,12.964 C40.166,12.964 40.95,12.698 41.426,12.222 L42.098,13.188 C41.426,13.832 40.432,14.168 39.354,14.168 Z M41.146,10.066 C41.118,9.268 40.572,8.274 39.242,8.274 C37.982,8.274 37.408,9.24 37.338,10.066 L41.146,10.066 Z M45.5,14 L44.03,14 L44.03,7.238 L45.5,7.238 L45.5,9.898 L48.608,9.898 L48.608,7.238 L50.078,7.238 L50.078,14 L48.608,14 L48.608,11.186 L45.5,11.186 L45.5,14 Z M54.684,14 L53.214,14 L53.214,8.526 L51.282,8.526 L51.282,7.238 L56.63,7.238 L56.63,8.526 L54.684,8.526 L54.684,14 Z M60.886,14.168 C58.744,14.168 57.414,12.558 57.414,10.612 C57.414,8.68 58.744,7.07 60.886,7.07 C63.056,7.07 64.372,8.68 64.372,10.612 C64.372,12.558 63.056,14.168 60.886,14.168 Z M60.886,12.866 C62.146,12.866 62.846,11.816 62.846,10.612 C62.846,9.422 62.146,8.372 60.886,8.372 C59.64,8.372 58.94,9.422 58.94,10.612 C58.94,11.816 59.64,12.866 60.886,12.866 Z M70,14 L65.856,14 L65.856,7.238 L69.902,7.238 C71.19,7.238 71.904,8.008 71.904,8.974 C71.904,9.786 71.386,10.332 70.77,10.514 C71.498,10.682 72.044,11.368 72.044,12.166 C72.044,13.216 71.316,14 70,14 Z M69.692,12.712 C70.21,12.712 70.532,12.432 70.532,11.956 C70.532,11.55 70.238,11.186 69.692,11.186 L67.326,11.186 L67.326,12.712 L69.692,12.712 Z M69.65,9.898 C70.126,9.898 70.406,9.604 70.406,9.226 C70.406,8.806 70.126,8.526 69.65,8.526 L67.326,8.526 L67.326,9.898 L69.65,9.898 Z M83.51,14 L82.04,14 L82.04,8.526 L78.932,8.526 L78.932,14 L77.462,14 L77.462,7.238 L83.51,7.238 L83.51,14 Z M88.466,14.168 C86.324,14.168 84.994,12.558 84.994,10.612 C84.994,8.68 86.324,7.07 88.466,7.07 C90.636,7.07 91.952,8.68 91.952,10.612 C91.952,12.558 90.636,14.168 88.466,14.168 Z M88.466,12.866 C89.726,12.866 90.426,11.816 90.426,10.612 C90.426,9.422 89.726,8.372 88.466,8.372 C87.22,8.372 86.52,9.422 86.52,10.612 C86.52,11.816 87.22,12.866 88.466,12.866 Z M99.568,14 L97.776,14 L101.304,6.104 L96.46,6.104 L96.46,4.662 L103.194,4.662 L103.194,5.796 L99.568,14 Z M107.842,14.168 C105.224,14.168 104.104,11.69 104.104,9.338 C104.104,6.986 105.224,4.522 107.842,4.522 C110.46,4.522 111.58,6.986 111.58,9.338 C111.58,11.69 110.46,14.168 107.842,14.168 Z M107.842,12.712 C109.368,12.712 109.914,11.116 109.914,9.338 C109.914,7.56 109.368,5.978 107.842,5.978 C106.316,5.978 105.77,7.56 105.77,9.338 C105.77,11.116 106.316,12.712 107.842,12.712 Z M120.064,14.168 C117.446,14.168 116.326,11.69 116.326,9.338 C116.326,6.986 117.446,4.522 120.064,4.522 C122.682,4.522 123.802,6.986 123.802,9.338 C123.802,11.69 122.682,14.168 120.064,14.168 Z M120.064,12.712 C121.59,12.712 122.136,11.116 122.136,9.338 C122.136,7.56 121.59,5.978 120.064,5.978 C118.538,5.978 117.992,7.56 117.992,9.338 C117.992,11.116 118.538,12.712 120.064,12.712 Z M128.688,14.168 C126.07,14.168 124.95,11.69 124.95,9.338 C124.95,6.986 126.07,4.522 128.688,4.522 C131.306,4.522 132.426,6.986 132.426,9.338 C132.426,11.69 131.306,14.168 128.688,14.168 Z M128.688,12.712 C130.214,12.712 130.76,11.116 130.76,9.338 C130.76,7.56 130.214,5.978 128.688,5.978 C127.162,5.978 126.616,7.56 126.616,9.338 C126.616,11.116 127.162,12.712 128.688,12.712 Z M137.312,14.168 C134.694,14.168 133.574,11.69 133.574,9.338 C133.574,6.986 134.694,4.522 137.312,4.522 C139.93,4.522 141.05,6.986 141.05,9.338 C141.05,11.69 139.93,14.168 137.312,14.168 Z M137.312,12.712 C138.838,12.712 139.384,11.116 139.384,9.338 C139.384,7.56 138.838,5.978 137.312,5.978 C135.786,5.978 135.24,7.56 135.24,9.338 C135.24,11.116 135.786,12.712 137.312,12.712 Z M145.748423,8.62195122 L146.758585,8.62195122 L146.758585,4.08333333 L149.362244,4.08333333 C149.845986,4.08333333 150.287039,4.13787208 150.685415,4.24695122 C151.083791,4.35603036 151.425251,4.52201786 151.709805,4.7449187 C151.994359,4.96781954 152.217257,5.24999829 152.378504,5.59146341 C152.539751,5.93292854 152.620374,6.34078354 152.620374,6.81504065 C152.620374,7.28929776 152.535009,7.70189526 152.364276,8.05284553 C152.193544,8.40379579 151.961161,8.69545954 151.667122,8.92784553 C151.373083,9.16023151 151.02688,9.33333276 150.628504,9.44715447 C150.230128,9.56097618 149.798561,9.61788618 149.333789,9.61788618 L147.896797,9.61788618 L147.896797,11.054878 L150.187447,11.054878 L150.187447,11.9939024 L147.896797,11.9939024 L147.896797,14 L146.758585,14 L146.758585,11.9939024 L145.748423,11.9939024 L145.748423,11.054878 L146.758585,11.054878 L146.758585,9.61788618 L145.748423,9.61788618 L145.748423,8.62195122 Z M149.362244,8.62195122 C150.016719,8.62195122 150.53128,8.47256247 150.905943,8.17378049 C151.280606,7.87499851 151.467935,7.42208976 151.467935,6.81504065 C151.467935,6.20799154 151.280606,5.76693904 150.905943,5.49186992 C150.53128,5.21680079 150.016719,5.07926829 149.362244,5.07926829 L147.896797,5.07926829 L147.896797,8.62195122 L149.362244,8.62195122 Z M2.366,24.662 L2.366,27.14 C2.366,28.484 3.024,29.072 4.256,29.072 C4.984,29.072 5.67,28.932 6.202,28.722 L6.202,24.662 L7.84,24.662 L7.84,34 L6.202,34 L6.202,30.164 C5.656,30.36 4.858,30.514 4.088,30.514 C1.792,30.514 0.728,29.17 0.728,27.14 L0.728,24.662 L2.366,24.662 Z M11.2,34 L9.786,34 L9.786,27.238 L11.256,27.238 L11.256,31.788 L14.364,27.238 L15.834,27.238 L15.834,34 L14.364,34 L14.364,29.324 L11.2,34 Z M20.818,34.168 C18.76,34.168 17.318,32.67 17.318,30.612 C17.318,28.568 18.76,27.07 20.818,27.07 C22.134,27.07 22.932,27.63 23.408,28.274 L22.442,29.17 C22.064,28.638 21.546,28.372 20.888,28.372 C19.656,28.372 18.844,29.296 18.844,30.612 C18.844,31.928 19.656,32.866 20.888,32.866 C21.546,32.866 22.064,32.586 22.442,32.068 L23.408,32.964 C22.932,33.608 22.134,34.168 20.818,34.168 Z M27.398,34 L25.928,34 L25.928,28.526 L23.996,28.526 L23.996,27.238 L29.344,27.238 L29.344,28.526 L27.398,28.526 L27.398,34 Z M36.148,34 L34.678,34 L34.678,33.272 C34.174,33.846 33.39,34.168 32.494,34.168 C31.388,34.168 30.142,33.426 30.142,31.928 C30.142,30.374 31.388,29.73 32.494,29.73 C33.404,29.73 34.188,30.024 34.678,30.598 L34.678,29.59 C34.678,28.806 34.034,28.33 33.096,28.33 C32.34,28.33 31.682,28.61 31.094,29.184 L30.492,28.162 C31.276,27.42 32.256,27.07 33.334,27.07 C34.832,27.07 36.148,27.7 36.148,29.52 L36.148,34 Z M33.068,33.16 C33.712,33.16 34.342,32.922 34.678,32.46 L34.678,31.438 C34.342,30.976 33.712,30.738 33.068,30.738 C32.242,30.738 31.626,31.214 31.626,31.956 C31.626,32.684 32.242,33.16 33.068,33.16 Z M39.494,34 L37.814,34 L39.48,31.48 C38.598,31.284 37.898,30.556 37.898,29.394 C37.898,28.232 38.682,27.238 40.138,27.238 L44.002,27.238 L44.002,34 L42.532,34 L42.532,31.55 L40.978,31.55 L39.494,34 Z M40.32,30.262 L42.532,30.262 L42.532,28.526 L40.32,28.526 C39.76,28.526 39.396,28.89 39.396,29.394 C39.396,29.898 39.732,30.262 40.32,30.262 Z M55.552,34 L54.082,34 L54.082,28.526 L50.974,28.526 L50.974,34 L49.504,34 L49.504,27.238 L55.552,27.238 L55.552,34 Z M61.096,34.168 C60.242,34.168 59.472,33.79 58.926,33.062 L58.926,36.576 L57.456,36.576 L57.456,27.238 L58.926,27.238 L58.926,28.162 C59.43,27.49 60.214,27.07 61.096,27.07 C62.846,27.07 64.092,28.386 64.092,30.612 C64.092,32.838 62.846,34.168 61.096,34.168 Z M60.662,32.866 C61.824,32.866 62.566,31.928 62.566,30.612 C62.566,29.31 61.824,28.372 60.662,28.372 C59.976,28.372 59.248,28.778 58.926,29.282 L58.926,31.956 C59.248,32.446 59.976,32.866 60.662,32.866 Z M66.962,34 L65.548,34 L65.548,27.238 L67.018,27.238 L67.018,31.788 L70.126,27.238 L71.596,27.238 L71.596,34 L70.126,34 L70.126,29.324 L66.962,34 Z M76.552,32.866 C77.812,32.866 78.512,31.816 78.512,30.584 C78.512,29.422 77.812,28.372 76.552,28.372 C75.306,28.372 74.606,29.422 74.606,30.584 C74.606,31.816 75.306,32.866 76.552,32.866 Z M76.552,34.168 C74.368,34.168 73.094,32.502 73.094,30.304 C73.094,27.014 74.228,25.572 76.496,25.292 C77.938,25.082 78.344,24.914 78.344,24.662 L79.786,24.662 C79.786,25.978 78.022,26.328 76.902,26.454 C75.278,26.636 74.578,27.434 74.396,28.26 C74.942,27.518 75.852,27.07 76.832,27.07 C78.75,27.07 80.024,28.722 80.024,30.598 C80.024,32.502 78.75,34.168 76.552,34.168 Z M81.578,27.238 L83.048,27.238 L83.048,29.688 L85.442,29.688 C86.94,29.688 87.682,30.682 87.682,31.844 C87.682,33.006 86.898,34 85.442,34 L81.578,34 L81.578,27.238 Z M85.26,30.976 L83.048,30.976 L83.048,32.712 L85.26,32.712 C85.848,32.712 86.184,32.348 86.184,31.844 C86.184,31.34 85.848,30.976 85.26,30.976 Z M90.174,34 L88.704,34 L88.704,27.238 L90.174,27.238 L90.174,34 Z M91.378,34.168 L91.378,32.964 C91.952,32.964 92.274,32.306 92.498,30.528 L92.904,27.238 L98.126,27.238 L98.126,34 L96.656,34 L96.656,28.526 L94.206,28.526 L93.968,30.696 C93.702,33.146 92.862,34.168 91.378,34.168 Z M100.03,27.238 L101.5,27.238 L101.5,29.688 L103.894,29.688 C105.392,29.688 106.134,30.682 106.134,31.844 C106.134,33.006 105.35,34 103.894,34 L100.03,34 L100.03,27.238 Z M103.712,30.976 L101.5,30.976 L101.5,32.712 L103.712,32.712 C104.3,32.712 104.636,32.348 104.636,31.844 C104.636,31.34 104.3,30.976 103.712,30.976 Z M114.562,34 L112.924,34 L112.924,26.79 L111.398,28.372 L110.446,27.378 L113.134,24.662 L114.562,24.662 L114.562,34 Z M122.038,34 L120.4,34 L120.4,31.886 L115.948,31.886 L115.948,30.57 L119.784,24.662 L122.038,24.662 L122.038,30.444 L123.284,30.444 L123.284,31.886 L122.038,31.886 L122.038,34 Z M120.4,30.444 L120.4,26.132 L117.558,30.444 L120.4,30.444 Z M127.162,34 L125.37,34 L128.898,26.104 L124.054,26.104 L124.054,24.662 L130.788,24.662 L130.788,25.796 L127.162,34 Z M139.034,34.168 C136.416,34.168 135.296,31.69 135.296,29.338 C135.296,26.986 136.416,24.522 139.034,24.522 C141.652,24.522 142.772,26.986 142.772,29.338 C142.772,31.69 141.652,34.168 139.034,34.168 Z M139.034,32.712 C140.56,32.712 141.106,31.116 141.106,29.338 C141.106,27.56 140.56,25.978 139.034,25.978 C137.508,25.978 136.962,27.56 136.962,29.338 C136.962,31.116 137.508,32.712 139.034,32.712 Z M147.658,34.168 C145.04,34.168 143.92,31.69 143.92,29.338 C143.92,26.986 145.04,24.522 147.658,24.522 C150.276,24.522 151.396,26.986 151.396,29.338 C151.396,31.69 150.276,34.168 147.658,34.168 Z M147.658,32.712 C149.184,32.712 149.73,31.116 149.73,29.338 C149.73,27.56 149.184,25.978 147.658,25.978 C146.132,25.978 145.586,27.56 145.586,29.338 C145.586,31.116 146.132,32.712 147.658,32.712 Z M156.282,34.168 C153.664,34.168 152.544,31.69 152.544,29.338 C152.544,26.986 153.664,24.522 156.282,24.522 C158.9,24.522 160.02,26.986 160.02,29.338 C160.02,31.69 158.9,34.168 156.282,34.168 Z M156.282,32.712 C157.808,32.712 158.354,31.116 158.354,29.338 C158.354,27.56 157.808,25.978 156.282,25.978 C154.756,25.978 154.21,27.56 154.21,29.338 C154.21,31.116 154.756,32.712 156.282,32.712 Z M164.718423,28.6219512 L165.728585,28.6219512 L165.728585,24.0833333 L168.332244,24.0833333 C168.815986,24.0833333 169.257039,24.1378721 169.655415,24.2469512 C170.053791,24.3560304 170.395251,24.5220179 170.679805,24.7449187 C170.964359,24.9678195 171.187257,25.2499983 171.348504,25.5914634 C171.509751,25.9329285 171.590374,26.3407835 171.590374,26.8150407 C171.590374,27.2892978 171.505009,27.7018953 171.334276,28.0528455 C171.163544,28.4037958 170.931161,28.6954595 170.637122,28.9278455 C170.343083,29.1602315 169.99688,29.3333328 169.598504,29.4471545 C169.200128,29.5609762 168.768561,29.6178862 168.303789,29.6178862 L166.866797,29.6178862 L166.866797,31.054878 L169.157447,31.054878 L169.157447,31.9939024 L166.866797,31.9939024 L166.866797,34 L165.728585,34 L165.728585,31.9939024 L164.718423,31.9939024 L164.718423,31.054878 L165.728585,31.054878 L165.728585,29.6178862 L164.718423,29.6178862 L164.718423,28.6219512 Z M168.332244,28.6219512 C168.986719,28.6219512 169.50128,28.4725625 169.875943,28.1737805 C170.250606,27.8749985 170.437935,27.4220898 170.437935,26.8150407 C170.437935,26.2079915 170.250606,25.766939 169.875943,25.4918699 C169.50128,25.2168008 168.986719,25.0792683 168.332244,25.0792683 L166.866797,25.0792683 L166.866797,28.6219512 L168.332244,28.6219512 Z M5.348,54.168 C2.548,54.168 0.574,52.124 0.574,49.338 C0.574,46.552 2.548,44.508 5.348,44.508 C8.148,44.508 10.122,46.552 10.122,49.338 C10.122,52.124 8.148,54.168 5.348,54.168 Z M5.348,52.712 C7.224,52.712 8.442,51.256 8.442,49.338 C8.442,47.406 7.224,45.964 5.348,45.964 C3.458,45.964 2.254,47.406 2.254,49.338 C2.254,51.256 3.458,52.712 5.348,52.712 Z M17.99,54 L16.142,54 L14.07,51.214 L13.132,52.18 L13.132,54 L11.662,54 L11.662,47.238 L13.132,47.238 L13.132,50.5 L16.114,47.238 L17.934,47.238 L15.12,50.304 L17.99,54 Z M18.732,56.646 L18.956,55.33 C19.11,55.4 19.348,55.442 19.516,55.442 C19.978,55.442 20.286,55.302 20.482,54.854 L20.818,54.084 L18.046,47.238 L19.614,47.238 L21.588,52.306 L23.562,47.238 L25.144,47.238 L21.882,55.218 C21.42,56.366 20.608,56.73 19.558,56.744 C19.348,56.744 18.942,56.702 18.732,56.646 Z M32.116,54 L30.646,54 L30.646,48.526 L27.538,48.526 L27.538,54 L26.068,54 L26.068,47.238 L32.116,47.238 L32.116,54 Z M35.434,54 L34.02,54 L34.02,47.238 L35.49,47.238 L35.49,51.788 L38.598,47.238 L40.068,47.238 L40.068,54 L38.598,54 L38.598,49.324 L35.434,54 Z M44.674,54 L43.204,54 L43.204,48.526 L41.272,48.526 L41.272,47.238 L46.62,47.238 L46.62,48.526 L44.674,48.526 L44.674,54 Z M50.946,54.168 C48.916,54.168 47.404,52.754 47.404,50.612 C47.404,48.652 48.832,47.07 50.834,47.07 C52.864,47.07 54.166,48.624 54.166,50.752 L54.166,51.102 L48.944,51.102 C49.056,52.124 49.826,52.964 51.1,52.964 C51.758,52.964 52.542,52.698 53.018,52.222 L53.69,53.188 C53.018,53.832 52.024,54.168 50.946,54.168 Z M52.738,50.066 C52.71,49.268 52.164,48.274 50.834,48.274 C49.574,48.274 49,49.24 48.93,50.066 L52.738,50.066 Z M58.702,54.168 C56.644,54.168 55.202,52.67 55.202,50.612 C55.202,48.568 56.644,47.07 58.702,47.07 C60.018,47.07 60.816,47.63 61.292,48.274 L60.326,49.17 C59.948,48.638 59.43,48.372 58.772,48.372 C57.54,48.372 56.728,49.296 56.728,50.612 C56.728,51.928 57.54,52.866 58.772,52.866 C59.43,52.866 59.948,52.586 60.326,52.068 L61.292,52.964 C60.816,53.608 60.018,54.168 58.702,54.168 Z M62.58,47.238 L64.05,47.238 L64.05,49.688 L66.444,49.688 C67.942,49.688 68.684,50.682 68.684,51.844 C68.684,53.006 67.9,54 66.444,54 L62.58,54 L62.58,47.238 Z M66.262,50.976 L64.05,50.976 L64.05,52.712 L66.262,52.712 C66.85,52.712 67.186,52.348 67.186,51.844 C67.186,51.34 66.85,50.976 66.262,50.976 Z M76.174,54.168 C74.788,54.168 73.738,53.734 73.066,53.076 L73.752,52.138 C74.382,52.698 75.278,52.964 76.174,52.964 C77.21,52.964 77.826,52.6 77.826,52.054 C77.826,51.41 77.084,51.172 76.048,51.172 L74.606,51.172 L74.606,49.996 L76.048,49.996 C77.056,49.996 77.7,49.702 77.7,49.114 C77.7,48.624 77.014,48.274 76.076,48.274 C75.166,48.274 74.452,48.54 73.906,49.086 L73.178,48.19 C73.822,47.532 74.774,47.084 76.006,47.084 C77.994,47.07 79.226,47.77 79.226,48.918 C79.226,49.842 78.288,50.416 77.434,50.542 C78.246,50.598 79.366,51.102 79.366,52.166 C79.366,53.328 78.162,54.168 76.174,54.168 Z M86.45,54 L84.98,54 L84.98,53.272 C84.476,53.846 83.692,54.168 82.796,54.168 C81.69,54.168 80.444,53.426 80.444,51.928 C80.444,50.374 81.69,49.73 82.796,49.73 C83.706,49.73 84.49,50.024 84.98,50.598 L84.98,49.59 C84.98,48.806 84.336,48.33 83.398,48.33 C82.642,48.33 81.984,48.61 81.396,49.184 L80.794,48.162 C81.578,47.42 82.558,47.07 83.636,47.07 C85.134,47.07 86.45,47.7 86.45,49.52 L86.45,54 Z M83.37,53.16 C84.014,53.16 84.644,52.922 84.98,52.46 L84.98,51.438 C84.644,50.976 84.014,50.738 83.37,50.738 C82.544,50.738 81.928,51.214 81.928,51.956 C81.928,52.684 82.544,53.16 83.37,53.16 Z M98,54 L96.53,54 L96.53,48.526 L93.422,48.526 L93.422,54 L91.952,54 L91.952,47.238 L98,47.238 L98,54 Z M102.956,54.168 C100.814,54.168 99.484,52.558 99.484,50.612 C99.484,48.68 100.814,47.07 102.956,47.07 C105.126,47.07 106.442,48.68 106.442,50.612 C106.442,52.558 105.126,54.168 102.956,54.168 Z M102.956,52.866 C104.216,52.866 104.916,51.816 104.916,50.612 C104.916,49.422 104.216,48.372 102.956,48.372 C101.71,48.372 101.01,49.422 101.01,50.612 C101.01,51.816 101.71,52.866 102.956,52.866 Z M107.226,54.168 L107.226,52.964 C107.8,52.964 108.122,52.306 108.346,50.528 L108.752,47.238 L113.974,47.238 L113.974,54 L112.504,54 L112.504,48.526 L110.054,48.526 L109.816,50.696 C109.55,53.146 108.71,54.168 107.226,54.168 Z M124.6,47.238 L124.6,48.526 L120.946,48.526 L120.946,54 L119.476,54 L119.476,47.238 L124.6,47.238 Z M128.856,54.168 C126.714,54.168 125.384,52.558 125.384,50.612 C125.384,48.68 126.714,47.07 128.856,47.07 C131.026,47.07 132.342,48.68 132.342,50.612 C132.342,52.558 131.026,54.168 128.856,54.168 Z M128.856,52.866 C130.116,52.866 130.816,51.816 130.816,50.612 C130.816,49.422 130.116,48.372 128.856,48.372 C127.61,48.372 126.91,49.422 126.91,50.612 C126.91,51.816 127.61,52.866 128.856,52.866 Z M133.126,55.722 L133.126,52.782 C133.7,52.642 134.022,52.306 134.246,50.528 L134.652,47.238 L139.874,47.238 L139.874,52.712 L140.616,52.712 L140.616,55.722 L139.146,55.722 L139.146,54 L134.596,54 L134.596,55.722 L133.126,55.722 Z M135.954,48.526 L135.716,50.696 C135.618,51.634 135.296,52.292 134.82,52.712 L138.404,52.712 L138.404,48.526 L135.954,48.526 Z M147.42,54 L145.95,54 L145.95,53.272 C145.446,53.846 144.662,54.168 143.766,54.168 C142.66,54.168 141.414,53.426 141.414,51.928 C141.414,50.374 142.66,49.73 143.766,49.73 C144.676,49.73 145.46,50.024 145.95,50.598 L145.95,49.59 C145.95,48.806 145.306,48.33 144.368,48.33 C143.612,48.33 142.954,48.61 142.366,49.184 L141.764,48.162 C142.548,47.42 143.528,47.07 144.606,47.07 C146.104,47.07 147.42,47.7 147.42,49.52 L147.42,54 Z M144.34,53.16 C144.984,53.16 145.614,52.922 145.95,52.46 L145.95,51.438 C145.614,50.976 144.984,50.738 144.34,50.738 C143.514,50.738 142.898,51.214 142.898,51.956 C142.898,52.684 143.514,53.16 144.34,53.16 Z" id="6-клиентов-по-70-000" fill="#FFFFFF"></path>
            </g>
            <g id="Group-19" transform="translate(1195.000000, 199.552267)">
                <rect id="Rectangle-5" fill="url(#linearGradient-1)" opacity="0.300000012" x="10.5" y="3" width="1" height="75"></rect>
                <circle id="Oval-2" stroke-opacity="0.25" stroke="#00C1F8" fill-opacity="0.100000001" fill="url(#linearGradient-2)" cx="11" cy="83" r="11"></circle>
                <circle id="Oval" fill="#00C1F8" cx="11" cy="83" r="5"></circle>
                <circle id="Oval-Copy" fill="#FFFFFF" cx="11" cy="83" r="2"></circle>
                <circle id="Oval-Copy-2" fill="#00C1F8" cx="11" cy="1.5" r="1.5"></circle>
            </g>
            <g id="Group-18" transform="translate(935.000000, 211.552267)">
                <path d="M38.482,14 L36.844,14 L36.844,11.886 L32.392,11.886 L32.392,10.57 L36.228,4.662 L38.482,4.662 L38.482,10.444 L39.728,10.444 L39.728,11.886 L38.482,11.886 L38.482,14 Z M36.844,10.444 L36.844,6.132 L34.002,10.444 L36.844,10.444 Z M50.998,14 L49.15,14 L47.078,11.214 L46.14,12.18 L46.14,14 L44.67,14 L44.67,7.238 L46.14,7.238 L46.14,10.5 L49.122,7.238 L50.942,7.238 L48.128,10.304 L50.998,14 Z M51.334,14.168 L51.334,12.964 C51.908,12.964 52.23,12.306 52.454,10.528 L52.86,7.238 L58.082,7.238 L58.082,14 L56.612,14 L56.612,8.526 L54.162,8.526 L53.924,10.696 C53.658,13.146 52.818,14.168 51.334,14.168 Z M61.4,14 L59.986,14 L59.986,7.238 L61.456,7.238 L61.456,11.788 L64.564,7.238 L66.034,7.238 L66.034,14 L64.564,14 L64.564,9.324 L61.4,14 Z M71.06,14.168 C69.03,14.168 67.518,12.754 67.518,10.612 C67.518,8.652 68.946,7.07 70.948,7.07 C72.978,7.07 74.28,8.624 74.28,10.752 L74.28,11.102 L69.058,11.102 C69.17,12.124 69.94,12.964 71.214,12.964 C71.872,12.964 72.656,12.698 73.132,12.222 L73.804,13.188 C73.132,13.832 72.138,14.168 71.06,14.168 Z M72.852,10.066 C72.824,9.268 72.278,8.274 70.948,8.274 C69.688,8.274 69.114,9.24 69.044,10.066 L72.852,10.066 Z M77.206,14 L75.736,14 L75.736,7.238 L77.206,7.238 L77.206,9.898 L80.314,9.898 L80.314,7.238 L81.784,7.238 L81.784,14 L80.314,14 L80.314,11.186 L77.206,11.186 L77.206,14 Z M86.39,14 L84.92,14 L84.92,8.526 L82.988,8.526 L82.988,7.238 L88.336,7.238 L88.336,8.526 L86.39,8.526 L86.39,14 Z M95.14,14 L93.67,14 L93.67,13.272 C93.166,13.846 92.382,14.168 91.486,14.168 C90.38,14.168 89.134,13.426 89.134,11.928 C89.134,10.374 90.38,9.73 91.486,9.73 C92.396,9.73 93.18,10.024 93.67,10.598 L93.67,9.59 C93.67,8.806 93.026,8.33 92.088,8.33 C91.332,8.33 90.674,8.61 90.086,9.184 L89.484,8.162 C90.268,7.42 91.248,7.07 92.326,7.07 C93.824,7.07 95.14,7.7 95.14,9.52 L95.14,14 Z M92.06,13.16 C92.704,13.16 93.334,12.922 93.67,12.46 L93.67,11.438 C93.334,10.976 92.704,10.738 92.06,10.738 C91.234,10.738 90.618,11.214 90.618,11.956 C90.618,12.684 91.234,13.16 92.06,13.16 Z M110.288,14 L108.818,14 L108.818,8.526 L105.71,8.526 L105.71,14 L104.24,14 L104.24,7.238 L110.288,7.238 L110.288,14 Z M115.244,14.168 C113.102,14.168 111.772,12.558 111.772,10.612 C111.772,8.68 113.102,7.07 115.244,7.07 C117.414,7.07 118.73,8.68 118.73,10.612 C118.73,12.558 117.414,14.168 115.244,14.168 Z M115.244,12.866 C116.504,12.866 117.204,11.816 117.204,10.612 C117.204,9.422 116.504,8.372 115.244,8.372 C113.998,8.372 113.298,9.422 113.298,10.612 C113.298,11.816 113.998,12.866 115.244,12.866 Z M126.346,14 L124.554,14 L128.082,6.104 L123.238,6.104 L123.238,4.662 L129.972,4.662 L129.972,5.796 L126.346,14 Z M134.62,14.168 C132.002,14.168 130.882,11.69 130.882,9.338 C130.882,6.986 132.002,4.522 134.62,4.522 C137.238,4.522 138.358,6.986 138.358,9.338 C138.358,11.69 137.238,14.168 134.62,14.168 Z M134.62,12.712 C136.146,12.712 136.692,11.116 136.692,9.338 C136.692,7.56 136.146,5.978 134.62,5.978 C133.094,5.978 132.548,7.56 132.548,9.338 C132.548,11.116 133.094,12.712 134.62,12.712 Z M146.842,14.168 C144.224,14.168 143.104,11.69 143.104,9.338 C143.104,6.986 144.224,4.522 146.842,4.522 C149.46,4.522 150.58,6.986 150.58,9.338 C150.58,11.69 149.46,14.168 146.842,14.168 Z M146.842,12.712 C148.368,12.712 148.914,11.116 148.914,9.338 C148.914,7.56 148.368,5.978 146.842,5.978 C145.316,5.978 144.77,7.56 144.77,9.338 C144.77,11.116 145.316,12.712 146.842,12.712 Z M155.466,14.168 C152.848,14.168 151.728,11.69 151.728,9.338 C151.728,6.986 152.848,4.522 155.466,4.522 C158.084,4.522 159.204,6.986 159.204,9.338 C159.204,11.69 158.084,14.168 155.466,14.168 Z M155.466,12.712 C156.992,12.712 157.538,11.116 157.538,9.338 C157.538,7.56 156.992,5.978 155.466,5.978 C153.94,5.978 153.394,7.56 153.394,9.338 C153.394,11.116 153.94,12.712 155.466,12.712 Z M164.09,14.168 C161.472,14.168 160.352,11.69 160.352,9.338 C160.352,6.986 161.472,4.522 164.09,4.522 C166.708,4.522 167.828,6.986 167.828,9.338 C167.828,11.69 166.708,14.168 164.09,14.168 Z M164.09,12.712 C165.616,12.712 166.162,11.116 166.162,9.338 C166.162,7.56 165.616,5.978 164.09,5.978 C162.564,5.978 162.018,7.56 162.018,9.338 C162.018,11.116 162.564,12.712 164.09,12.712 Z M172.526423,8.62195122 L173.536585,8.62195122 L173.536585,4.08333333 L176.140244,4.08333333 C176.623986,4.08333333 177.065039,4.13787208 177.463415,4.24695122 C177.861791,4.35603036 178.203251,4.52201786 178.487805,4.7449187 C178.772359,4.96781954 178.995257,5.24999829 179.156504,5.59146341 C179.317751,5.93292854 179.398374,6.34078354 179.398374,6.81504065 C179.398374,7.28929776 179.313009,7.70189526 179.142276,8.05284553 C178.971544,8.40379579 178.739161,8.69545954 178.445122,8.92784553 C178.151083,9.16023151 177.80488,9.33333276 177.406504,9.44715447 C177.008128,9.56097618 176.576561,9.61788618 176.111789,9.61788618 L174.674797,9.61788618 L174.674797,11.054878 L176.965447,11.054878 L176.965447,11.9939024 L174.674797,11.9939024 L174.674797,14 L173.536585,14 L173.536585,11.9939024 L172.526423,11.9939024 L172.526423,11.054878 L173.536585,11.054878 L173.536585,9.61788618 L172.526423,9.61788618 L172.526423,8.62195122 Z M176.140244,8.62195122 C176.794719,8.62195122 177.30928,8.47256247 177.683943,8.17378049 C178.058606,7.87499851 178.245935,7.42208976 178.245935,6.81504065 C178.245935,6.20799154 178.058606,5.76693904 177.683943,5.49186992 C177.30928,5.21680079 176.794719,5.07926829 176.140244,5.07926829 L174.674797,5.07926829 L174.674797,8.62195122 L176.140244,8.62195122 Z M34.366,24.662 L34.366,27.14 C34.366,28.484 35.024,29.072 36.256,29.072 C36.984,29.072 37.67,28.932 38.202,28.722 L38.202,24.662 L39.84,24.662 L39.84,34 L38.202,34 L38.202,30.164 C37.656,30.36 36.858,30.514 36.088,30.514 C33.792,30.514 32.728,29.17 32.728,27.14 L32.728,24.662 L34.366,24.662 Z M43.2,34 L41.786,34 L41.786,27.238 L43.256,27.238 L43.256,31.788 L46.364,27.238 L47.834,27.238 L47.834,34 L46.364,34 L46.364,29.324 L43.2,34 Z M52.818,34.168 C50.76,34.168 49.318,32.67 49.318,30.612 C49.318,28.568 50.76,27.07 52.818,27.07 C54.134,27.07 54.932,27.63 55.408,28.274 L54.442,29.17 C54.064,28.638 53.546,28.372 52.888,28.372 C51.656,28.372 50.844,29.296 50.844,30.612 C50.844,31.928 51.656,32.866 52.888,32.866 C53.546,32.866 54.064,32.586 54.442,32.068 L55.408,32.964 C54.932,33.608 54.134,34.168 52.818,34.168 Z M59.398,34 L57.928,34 L57.928,28.526 L55.996,28.526 L55.996,27.238 L61.344,27.238 L61.344,28.526 L59.398,28.526 L59.398,34 Z M68.148,34 L66.678,34 L66.678,33.272 C66.174,33.846 65.39,34.168 64.494,34.168 C63.388,34.168 62.142,33.426 62.142,31.928 C62.142,30.374 63.388,29.73 64.494,29.73 C65.404,29.73 66.188,30.024 66.678,30.598 L66.678,29.59 C66.678,28.806 66.034,28.33 65.096,28.33 C64.34,28.33 63.682,28.61 63.094,29.184 L62.492,28.162 C63.276,27.42 64.256,27.07 65.334,27.07 C66.832,27.07 68.148,27.7 68.148,29.52 L68.148,34 Z M65.068,33.16 C65.712,33.16 66.342,32.922 66.678,32.46 L66.678,31.438 C66.342,30.976 65.712,30.738 65.068,30.738 C64.242,30.738 63.626,31.214 63.626,31.956 C63.626,32.684 64.242,33.16 65.068,33.16 Z M71.494,34 L69.814,34 L71.48,31.48 C70.598,31.284 69.898,30.556 69.898,29.394 C69.898,28.232 70.682,27.238 72.138,27.238 L76.002,27.238 L76.002,34 L74.532,34 L74.532,31.55 L72.978,31.55 L71.494,34 Z M72.32,30.262 L74.532,30.262 L74.532,28.526 L72.32,28.526 C71.76,28.526 71.396,28.89 71.396,29.394 C71.396,29.898 71.732,30.262 72.32,30.262 Z M87.552,34 L86.082,34 L86.082,28.526 L82.974,28.526 L82.974,34 L81.504,34 L81.504,27.238 L87.552,27.238 L87.552,34 Z M93.096,34.168 C92.242,34.168 91.472,33.79 90.926,33.062 L90.926,36.576 L89.456,36.576 L89.456,27.238 L90.926,27.238 L90.926,28.162 C91.43,27.49 92.214,27.07 93.096,27.07 C94.846,27.07 96.092,28.386 96.092,30.612 C96.092,32.838 94.846,34.168 93.096,34.168 Z M92.662,32.866 C93.824,32.866 94.566,31.928 94.566,30.612 C94.566,29.31 93.824,28.372 92.662,28.372 C91.976,28.372 91.248,28.778 90.926,29.282 L90.926,31.956 C91.248,32.446 91.976,32.866 92.662,32.866 Z M98.962,34 L97.548,34 L97.548,27.238 L99.018,27.238 L99.018,31.788 L102.126,27.238 L103.596,27.238 L103.596,34 L102.126,34 L102.126,29.324 L98.962,34 Z M108.552,32.866 C109.812,32.866 110.512,31.816 110.512,30.584 C110.512,29.422 109.812,28.372 108.552,28.372 C107.306,28.372 106.606,29.422 106.606,30.584 C106.606,31.816 107.306,32.866 108.552,32.866 Z M108.552,34.168 C106.368,34.168 105.094,32.502 105.094,30.304 C105.094,27.014 106.228,25.572 108.496,25.292 C109.938,25.082 110.344,24.914 110.344,24.662 L111.786,24.662 C111.786,25.978 110.022,26.328 108.902,26.454 C107.278,26.636 106.578,27.434 106.396,28.26 C106.942,27.518 107.852,27.07 108.832,27.07 C110.75,27.07 112.024,28.722 112.024,30.598 C112.024,32.502 110.75,34.168 108.552,34.168 Z M113.578,27.238 L115.048,27.238 L115.048,29.688 L117.442,29.688 C118.94,29.688 119.682,30.682 119.682,31.844 C119.682,33.006 118.898,34 117.442,34 L113.578,34 L113.578,27.238 Z M117.26,30.976 L115.048,30.976 L115.048,32.712 L117.26,32.712 C117.848,32.712 118.184,32.348 118.184,31.844 C118.184,31.34 117.848,30.976 117.26,30.976 Z M122.174,34 L120.704,34 L120.704,27.238 L122.174,27.238 L122.174,34 Z M123.378,34.168 L123.378,32.964 C123.952,32.964 124.274,32.306 124.498,30.528 L124.904,27.238 L130.126,27.238 L130.126,34 L128.656,34 L128.656,28.526 L126.206,28.526 L125.968,30.696 C125.702,33.146 124.862,34.168 123.378,34.168 Z M132.03,27.238 L133.5,27.238 L133.5,29.688 L135.894,29.688 C137.392,29.688 138.134,30.682 138.134,31.844 C138.134,33.006 137.35,34 135.894,34 L132.03,34 L132.03,27.238 Z M135.712,30.976 L133.5,30.976 L133.5,32.712 L135.712,32.712 C136.3,32.712 136.636,32.348 136.636,31.844 C136.636,31.34 136.3,30.976 135.712,30.976 Z M145.946,34.154 C144.798,34.154 143.902,33.748 143.272,33.118 L144.028,31.886 C144.518,32.39 145.064,32.698 145.946,32.698 C147.64,32.698 148.41,31.158 148.41,29.632 L148.41,29.352 C147.976,29.982 146.996,30.668 145.904,30.668 C144.224,30.668 142.768,29.632 142.768,27.644 C142.768,25.922 144.126,24.508 146.212,24.508 C148.956,24.508 150.062,26.734 150.062,29.338 C150.062,32.026 148.648,34.154 145.946,34.154 Z M146.338,29.254 C147.136,29.254 147.92,28.834 148.382,28.162 C148.298,27.154 147.738,25.964 146.296,25.964 C145.078,25.964 144.434,26.846 144.434,27.588 C144.434,28.736 145.33,29.254 146.338,29.254 Z M154.822,34.168 C152.904,34.168 151.238,33.286 151.238,31.606 C151.238,30.416 152.204,29.562 153.338,29.184 C152.288,28.848 151.392,28.162 151.392,26.972 C151.392,25.25 153.156,24.522 154.822,24.522 C156.46,24.522 158.252,25.25 158.252,26.972 C158.252,28.162 157.342,28.848 156.292,29.184 C157.426,29.562 158.392,30.416 158.392,31.606 C158.392,33.272 156.726,34.168 154.822,34.168 Z M154.822,28.54 C155.396,28.442 156.586,28.106 156.586,27.224 C156.586,26.44 155.816,25.978 154.822,25.978 C153.8,25.978 153.044,26.44 153.044,27.224 C153.044,28.106 154.248,28.442 154.822,28.54 Z M154.822,32.712 C155.858,32.712 156.74,32.208 156.74,31.396 C156.74,30.43 155.396,29.996 154.822,29.926 C154.234,29.996 152.89,30.43 152.89,31.396 C152.89,32.208 153.758,32.712 154.822,32.712 Z M166.89,34.168 C164.272,34.168 163.152,31.69 163.152,29.338 C163.152,26.986 164.272,24.522 166.89,24.522 C169.508,24.522 170.628,26.986 170.628,29.338 C170.628,31.69 169.508,34.168 166.89,34.168 Z M166.89,32.712 C168.416,32.712 168.962,31.116 168.962,29.338 C168.962,27.56 168.416,25.978 166.89,25.978 C165.364,25.978 164.818,27.56 164.818,29.338 C164.818,31.116 165.364,32.712 166.89,32.712 Z M175.514,34.168 C172.896,34.168 171.776,31.69 171.776,29.338 C171.776,26.986 172.896,24.522 175.514,24.522 C178.132,24.522 179.252,26.986 179.252,29.338 C179.252,31.69 178.132,34.168 175.514,34.168 Z M175.514,32.712 C177.04,32.712 177.586,31.116 177.586,29.338 C177.586,27.56 177.04,25.978 175.514,25.978 C173.988,25.978 173.442,27.56 173.442,29.338 C173.442,31.116 173.988,32.712 175.514,32.712 Z M184.138,34.168 C181.52,34.168 180.4,31.69 180.4,29.338 C180.4,26.986 181.52,24.522 184.138,24.522 C186.756,24.522 187.876,26.986 187.876,29.338 C187.876,31.69 186.756,34.168 184.138,34.168 Z M184.138,32.712 C185.664,32.712 186.21,31.116 186.21,29.338 C186.21,27.56 185.664,25.978 184.138,25.978 C182.612,25.978 182.066,27.56 182.066,29.338 C182.066,31.116 182.612,32.712 184.138,32.712 Z M192.574423,28.6219512 L193.584585,28.6219512 L193.584585,24.0833333 L196.188244,24.0833333 C196.671986,24.0833333 197.113039,24.1378721 197.511415,24.2469512 C197.909791,24.3560304 198.251251,24.5220179 198.535805,24.7449187 C198.820359,24.9678195 199.043257,25.2499983 199.204504,25.5914634 C199.365751,25.9329285 199.446374,26.3407835 199.446374,26.8150407 C199.446374,27.2892978 199.361009,27.7018953 199.190276,28.0528455 C199.019544,28.4037958 198.787161,28.6954595 198.493122,28.9278455 C198.199083,29.1602315 197.85288,29.3333328 197.454504,29.4471545 C197.056128,29.5609762 196.624561,29.6178862 196.159789,29.6178862 L194.722797,29.6178862 L194.722797,31.054878 L197.013447,31.054878 L197.013447,31.9939024 L194.722797,31.9939024 L194.722797,34 L193.584585,34 L193.584585,31.9939024 L192.574423,31.9939024 L192.574423,31.054878 L193.584585,31.054878 L193.584585,29.6178862 L192.574423,29.6178862 L192.574423,28.6219512 Z M196.188244,28.6219512 C196.842719,28.6219512 197.35728,28.4725625 197.731943,28.1737805 C198.106606,27.8749985 198.293935,27.4220898 198.293935,26.8150407 C198.293935,26.2079915 198.106606,25.766939 197.731943,25.4918699 C197.35728,25.2168008 196.842719,25.0792683 196.188244,25.0792683 L194.722797,25.0792683 L194.722797,28.6219512 L196.188244,28.6219512 Z" id="4-клиента-по-70-000" fill="#FFFFFF"></path>
                <g id="Group-20" transform="translate(0.000000, 20.000000)">
                    <rect id="Rectangle-5-Copy" fill="url(#linearGradient-1)" opacity="0.300000012" x="10.5" y="3" width="1" height="75"></rect>
                    <circle id="Oval-2" stroke-opacity="0.25" stroke="#00C1F8" fill-opacity="0.100000001" fill="url(#linearGradient-2)" cx="11" cy="83" r="11"></circle>
                    <circle id="Oval" fill="#00C1F8" cx="11" cy="83" r="5"></circle>
                    <circle id="Oval-Copy" fill="#FFFFFF" cx="11" cy="83" r="2"></circle>
                    <circle id="Oval-Copy-3" fill="#00C1F8" cx="11" cy="1.5" r="1.5"></circle>
                </g>
            </g>
            <g id="Group-8" transform="translate(605.000000, 332.552267)">
                <path d="M39.462,14 L32.7,14 L32.7,12.712 C36.326,9.968 37.74,8.75 37.74,7.406 C37.74,6.426 36.9,5.978 36.046,5.978 C34.954,5.978 34.114,6.426 33.526,7.098 L32.574,6.02 C33.4,5.026 34.716,4.522 36.018,4.522 C37.824,4.522 39.406,5.544 39.406,7.406 C39.406,9.128 37.824,10.668 35.318,12.558 L39.462,12.558 L39.462,14 Z M51.208,14 L49.36,14 L47.288,11.214 L46.35,12.18 L46.35,14 L44.88,14 L44.88,7.238 L46.35,7.238 L46.35,10.5 L49.332,7.238 L51.152,7.238 L48.338,10.304 L51.208,14 Z M51.544,14.168 L51.544,12.964 C52.118,12.964 52.44,12.306 52.664,10.528 L53.07,7.238 L58.292,7.238 L58.292,14 L56.822,14 L56.822,8.526 L54.372,8.526 L54.134,10.696 C53.868,13.146 53.028,14.168 51.544,14.168 Z M61.61,14 L60.196,14 L60.196,7.238 L61.666,7.238 L61.666,11.788 L64.774,7.238 L66.244,7.238 L66.244,14 L64.774,14 L64.774,9.324 L61.61,14 Z M71.27,14.168 C69.24,14.168 67.728,12.754 67.728,10.612 C67.728,8.652 69.156,7.07 71.158,7.07 C73.188,7.07 74.49,8.624 74.49,10.752 L74.49,11.102 L69.268,11.102 C69.38,12.124 70.15,12.964 71.424,12.964 C72.082,12.964 72.866,12.698 73.342,12.222 L74.014,13.188 C73.342,13.832 72.348,14.168 71.27,14.168 Z M73.062,10.066 C73.034,9.268 72.488,8.274 71.158,8.274 C69.898,8.274 69.324,9.24 69.254,10.066 L73.062,10.066 Z M77.416,14 L75.946,14 L75.946,7.238 L77.416,7.238 L77.416,9.898 L80.524,9.898 L80.524,7.238 L81.994,7.238 L81.994,14 L80.524,14 L80.524,11.186 L77.416,11.186 L77.416,14 Z M86.6,14 L85.13,14 L85.13,8.526 L83.198,8.526 L83.198,7.238 L88.546,7.238 L88.546,8.526 L86.6,8.526 L86.6,14 Z M95.35,14 L93.88,14 L93.88,13.272 C93.376,13.846 92.592,14.168 91.696,14.168 C90.59,14.168 89.344,13.426 89.344,11.928 C89.344,10.374 90.59,9.73 91.696,9.73 C92.606,9.73 93.39,10.024 93.88,10.598 L93.88,9.59 C93.88,8.806 93.236,8.33 92.298,8.33 C91.542,8.33 90.884,8.61 90.296,9.184 L89.694,8.162 C90.478,7.42 91.458,7.07 92.536,7.07 C94.034,7.07 95.35,7.7 95.35,9.52 L95.35,14 Z M92.27,13.16 C92.914,13.16 93.544,12.922 93.88,12.46 L93.88,11.438 C93.544,10.976 92.914,10.738 92.27,10.738 C91.444,10.738 90.828,11.214 90.828,11.956 C90.828,12.684 91.444,13.16 92.27,13.16 Z M106.9,14 L105.43,14 L105.43,8.526 L102.322,8.526 L102.322,14 L100.852,14 L100.852,7.238 L106.9,7.238 L106.9,14 Z M111.856,14.168 C109.714,14.168 108.384,12.558 108.384,10.612 C108.384,8.68 109.714,7.07 111.856,7.07 C114.026,7.07 115.342,8.68 115.342,10.612 C115.342,12.558 114.026,14.168 111.856,14.168 Z M111.856,12.866 C113.116,12.866 113.816,11.816 113.816,10.612 C113.816,9.422 113.116,8.372 111.856,8.372 C110.61,8.372 109.91,9.422 109.91,10.612 C109.91,11.816 110.61,12.866 111.856,12.866 Z M122.958,14 L121.166,14 L124.694,6.104 L119.85,6.104 L119.85,4.662 L126.584,4.662 L126.584,5.796 L122.958,14 Z M131.232,14.168 C128.614,14.168 127.494,11.69 127.494,9.338 C127.494,6.986 128.614,4.522 131.232,4.522 C133.85,4.522 134.97,6.986 134.97,9.338 C134.97,11.69 133.85,14.168 131.232,14.168 Z M131.232,12.712 C132.758,12.712 133.304,11.116 133.304,9.338 C133.304,7.56 132.758,5.978 131.232,5.978 C129.706,5.978 129.16,7.56 129.16,9.338 C129.16,11.116 129.706,12.712 131.232,12.712 Z M143.454,14.168 C140.836,14.168 139.716,11.69 139.716,9.338 C139.716,6.986 140.836,4.522 143.454,4.522 C146.072,4.522 147.192,6.986 147.192,9.338 C147.192,11.69 146.072,14.168 143.454,14.168 Z M143.454,12.712 C144.98,12.712 145.526,11.116 145.526,9.338 C145.526,7.56 144.98,5.978 143.454,5.978 C141.928,5.978 141.382,7.56 141.382,9.338 C141.382,11.116 141.928,12.712 143.454,12.712 Z M152.078,14.168 C149.46,14.168 148.34,11.69 148.34,9.338 C148.34,6.986 149.46,4.522 152.078,4.522 C154.696,4.522 155.816,6.986 155.816,9.338 C155.816,11.69 154.696,14.168 152.078,14.168 Z M152.078,12.712 C153.604,12.712 154.15,11.116 154.15,9.338 C154.15,7.56 153.604,5.978 152.078,5.978 C150.552,5.978 150.006,7.56 150.006,9.338 C150.006,11.116 150.552,12.712 152.078,12.712 Z M160.702,14.168 C158.084,14.168 156.964,11.69 156.964,9.338 C156.964,6.986 158.084,4.522 160.702,4.522 C163.32,4.522 164.44,6.986 164.44,9.338 C164.44,11.69 163.32,14.168 160.702,14.168 Z M160.702,12.712 C162.228,12.712 162.774,11.116 162.774,9.338 C162.774,7.56 162.228,5.978 160.702,5.978 C159.176,5.978 158.63,7.56 158.63,9.338 C158.63,11.116 159.176,12.712 160.702,12.712 Z M169.138423,8.62195122 L170.148585,8.62195122 L170.148585,4.08333333 L172.752244,4.08333333 C173.235986,4.08333333 173.677039,4.13787208 174.075415,4.24695122 C174.473791,4.35603036 174.815251,4.52201786 175.099805,4.7449187 C175.384359,4.96781954 175.607257,5.24999829 175.768504,5.59146341 C175.929751,5.93292854 176.010374,6.34078354 176.010374,6.81504065 C176.010374,7.28929776 175.925009,7.70189526 175.754276,8.05284553 C175.583544,8.40379579 175.351161,8.69545954 175.057122,8.92784553 C174.763083,9.16023151 174.41688,9.33333276 174.018504,9.44715447 C173.620128,9.56097618 173.188561,9.61788618 172.723789,9.61788618 L171.286797,9.61788618 L171.286797,11.054878 L173.577447,11.054878 L173.577447,11.9939024 L171.286797,11.9939024 L171.286797,14 L170.148585,14 L170.148585,11.9939024 L169.138423,11.9939024 L169.138423,11.054878 L170.148585,11.054878 L170.148585,9.61788618 L169.138423,9.61788618 L169.138423,8.62195122 Z M172.752244,8.62195122 C173.406719,8.62195122 173.92128,8.47256247 174.295943,8.17378049 C174.670606,7.87499851 174.857935,7.42208976 174.857935,6.81504065 C174.857935,6.20799154 174.670606,5.76693904 174.295943,5.49186992 C173.92128,5.21680079 173.406719,5.07926829 172.752244,5.07926829 L171.286797,5.07926829 L171.286797,8.62195122 L172.752244,8.62195122 Z M34.366,24.662 L34.366,27.14 C34.366,28.484 35.024,29.072 36.256,29.072 C36.984,29.072 37.67,28.932 38.202,28.722 L38.202,24.662 L39.84,24.662 L39.84,34 L38.202,34 L38.202,30.164 C37.656,30.36 36.858,30.514 36.088,30.514 C33.792,30.514 32.728,29.17 32.728,27.14 L32.728,24.662 L34.366,24.662 Z M43.2,34 L41.786,34 L41.786,27.238 L43.256,27.238 L43.256,31.788 L46.364,27.238 L47.834,27.238 L47.834,34 L46.364,34 L46.364,29.324 L43.2,34 Z M52.818,34.168 C50.76,34.168 49.318,32.67 49.318,30.612 C49.318,28.568 50.76,27.07 52.818,27.07 C54.134,27.07 54.932,27.63 55.408,28.274 L54.442,29.17 C54.064,28.638 53.546,28.372 52.888,28.372 C51.656,28.372 50.844,29.296 50.844,30.612 C50.844,31.928 51.656,32.866 52.888,32.866 C53.546,32.866 54.064,32.586 54.442,32.068 L55.408,32.964 C54.932,33.608 54.134,34.168 52.818,34.168 Z M59.398,34 L57.928,34 L57.928,28.526 L55.996,28.526 L55.996,27.238 L61.344,27.238 L61.344,28.526 L59.398,28.526 L59.398,34 Z M68.148,34 L66.678,34 L66.678,33.272 C66.174,33.846 65.39,34.168 64.494,34.168 C63.388,34.168 62.142,33.426 62.142,31.928 C62.142,30.374 63.388,29.73 64.494,29.73 C65.404,29.73 66.188,30.024 66.678,30.598 L66.678,29.59 C66.678,28.806 66.034,28.33 65.096,28.33 C64.34,28.33 63.682,28.61 63.094,29.184 L62.492,28.162 C63.276,27.42 64.256,27.07 65.334,27.07 C66.832,27.07 68.148,27.7 68.148,29.52 L68.148,34 Z M65.068,33.16 C65.712,33.16 66.342,32.922 66.678,32.46 L66.678,31.438 C66.342,30.976 65.712,30.738 65.068,30.738 C64.242,30.738 63.626,31.214 63.626,31.956 C63.626,32.684 64.242,33.16 65.068,33.16 Z M71.494,34 L69.814,34 L71.48,31.48 C70.598,31.284 69.898,30.556 69.898,29.394 C69.898,28.232 70.682,27.238 72.138,27.238 L76.002,27.238 L76.002,34 L74.532,34 L74.532,31.55 L72.978,31.55 L71.494,34 Z M72.32,30.262 L74.532,30.262 L74.532,28.526 L72.32,28.526 C71.76,28.526 71.396,28.89 71.396,29.394 C71.396,29.898 71.732,30.262 72.32,30.262 Z M87.552,34 L86.082,34 L86.082,28.526 L82.974,28.526 L82.974,34 L81.504,34 L81.504,27.238 L87.552,27.238 L87.552,34 Z M93.096,34.168 C92.242,34.168 91.472,33.79 90.926,33.062 L90.926,36.576 L89.456,36.576 L89.456,27.238 L90.926,27.238 L90.926,28.162 C91.43,27.49 92.214,27.07 93.096,27.07 C94.846,27.07 96.092,28.386 96.092,30.612 C96.092,32.838 94.846,34.168 93.096,34.168 Z M92.662,32.866 C93.824,32.866 94.566,31.928 94.566,30.612 C94.566,29.31 93.824,28.372 92.662,28.372 C91.976,28.372 91.248,28.778 90.926,29.282 L90.926,31.956 C91.248,32.446 91.976,32.866 92.662,32.866 Z M98.962,34 L97.548,34 L97.548,27.238 L99.018,27.238 L99.018,31.788 L102.126,27.238 L103.596,27.238 L103.596,34 L102.126,34 L102.126,29.324 L98.962,34 Z M108.552,32.866 C109.812,32.866 110.512,31.816 110.512,30.584 C110.512,29.422 109.812,28.372 108.552,28.372 C107.306,28.372 106.606,29.422 106.606,30.584 C106.606,31.816 107.306,32.866 108.552,32.866 Z M108.552,34.168 C106.368,34.168 105.094,32.502 105.094,30.304 C105.094,27.014 106.228,25.572 108.496,25.292 C109.938,25.082 110.344,24.914 110.344,24.662 L111.786,24.662 C111.786,25.978 110.022,26.328 108.902,26.454 C107.278,26.636 106.578,27.434 106.396,28.26 C106.942,27.518 107.852,27.07 108.832,27.07 C110.75,27.07 112.024,28.722 112.024,30.598 C112.024,32.502 110.75,34.168 108.552,34.168 Z M113.578,27.238 L115.048,27.238 L115.048,29.688 L117.442,29.688 C118.94,29.688 119.682,30.682 119.682,31.844 C119.682,33.006 118.898,34 117.442,34 L113.578,34 L113.578,27.238 Z M117.26,30.976 L115.048,30.976 L115.048,32.712 L117.26,32.712 C117.848,32.712 118.184,32.348 118.184,31.844 C118.184,31.34 117.848,30.976 117.26,30.976 Z M122.174,34 L120.704,34 L120.704,27.238 L122.174,27.238 L122.174,34 Z M123.378,34.168 L123.378,32.964 C123.952,32.964 124.274,32.306 124.498,30.528 L124.904,27.238 L130.126,27.238 L130.126,34 L128.656,34 L128.656,28.526 L126.206,28.526 L125.968,30.696 C125.702,33.146 124.862,34.168 123.378,34.168 Z M132.03,27.238 L133.5,27.238 L133.5,29.688 L135.894,29.688 C137.392,29.688 138.134,30.682 138.134,31.844 C138.134,33.006 137.35,34 135.894,34 L132.03,34 L132.03,27.238 Z M135.712,30.976 L133.5,30.976 L133.5,32.712 L135.712,32.712 C136.3,32.712 136.636,32.348 136.636,31.844 C136.636,31.34 136.3,30.976 135.712,30.976 Z M148.718,34 L147.08,34 L147.08,31.886 L142.628,31.886 L142.628,30.57 L146.464,24.662 L148.718,24.662 L148.718,30.444 L149.964,30.444 L149.964,31.886 L148.718,31.886 L148.718,34 Z M147.08,30.444 L147.08,26.132 L144.238,30.444 L147.08,30.444 Z M154.066,34.154 C152.918,34.154 152.022,33.748 151.392,33.118 L152.148,31.886 C152.638,32.39 153.184,32.698 154.066,32.698 C155.76,32.698 156.53,31.158 156.53,29.632 L156.53,29.352 C156.096,29.982 155.116,30.668 154.024,30.668 C152.344,30.668 150.888,29.632 150.888,27.644 C150.888,25.922 152.246,24.508 154.332,24.508 C157.076,24.508 158.182,26.734 158.182,29.338 C158.182,32.026 156.768,34.154 154.066,34.154 Z M154.458,29.254 C155.256,29.254 156.04,28.834 156.502,28.162 C156.418,27.154 155.858,25.964 154.416,25.964 C153.198,25.964 152.554,26.846 152.554,27.588 C152.554,28.736 153.45,29.254 154.458,29.254 Z M166.68,34.168 C164.062,34.168 162.942,31.69 162.942,29.338 C162.942,26.986 164.062,24.522 166.68,24.522 C169.298,24.522 170.418,26.986 170.418,29.338 C170.418,31.69 169.298,34.168 166.68,34.168 Z M166.68,32.712 C168.206,32.712 168.752,31.116 168.752,29.338 C168.752,27.56 168.206,25.978 166.68,25.978 C165.154,25.978 164.608,27.56 164.608,29.338 C164.608,31.116 165.154,32.712 166.68,32.712 Z M175.304,34.168 C172.686,34.168 171.566,31.69 171.566,29.338 C171.566,26.986 172.686,24.522 175.304,24.522 C177.922,24.522 179.042,26.986 179.042,29.338 C179.042,31.69 177.922,34.168 175.304,34.168 Z M175.304,32.712 C176.83,32.712 177.376,31.116 177.376,29.338 C177.376,27.56 176.83,25.978 175.304,25.978 C173.778,25.978 173.232,27.56 173.232,29.338 C173.232,31.116 173.778,32.712 175.304,32.712 Z M183.928,34.168 C181.31,34.168 180.19,31.69 180.19,29.338 C180.19,26.986 181.31,24.522 183.928,24.522 C186.546,24.522 187.666,26.986 187.666,29.338 C187.666,31.69 186.546,34.168 183.928,34.168 Z M183.928,32.712 C185.454,32.712 186,31.116 186,29.338 C186,27.56 185.454,25.978 183.928,25.978 C182.402,25.978 181.856,27.56 181.856,29.338 C181.856,31.116 182.402,32.712 183.928,32.712 Z M192.364423,28.6219512 L193.374585,28.6219512 L193.374585,24.0833333 L195.978244,24.0833333 C196.461986,24.0833333 196.903039,24.1378721 197.301415,24.2469512 C197.699791,24.3560304 198.041251,24.5220179 198.325805,24.7449187 C198.610359,24.9678195 198.833257,25.2499983 198.994504,25.5914634 C199.155751,25.9329285 199.236374,26.3407835 199.236374,26.8150407 C199.236374,27.2892978 199.151009,27.7018953 198.980276,28.0528455 C198.809544,28.4037958 198.577161,28.6954595 198.283122,28.9278455 C197.989083,29.1602315 197.64288,29.3333328 197.244504,29.4471545 C196.846128,29.5609762 196.414561,29.6178862 195.949789,29.6178862 L194.512797,29.6178862 L194.512797,31.054878 L196.803447,31.054878 L196.803447,31.9939024 L194.512797,31.9939024 L194.512797,34 L193.374585,34 L193.374585,31.9939024 L192.364423,31.9939024 L192.364423,31.054878 L193.374585,31.054878 L193.374585,29.6178862 L192.364423,29.6178862 L192.364423,28.6219512 Z M195.978244,28.6219512 C196.632719,28.6219512 197.14728,28.4725625 197.521943,28.1737805 C197.896606,27.8749985 198.083935,27.4220898 198.083935,26.8150407 C198.083935,26.2079915 197.896606,25.766939 197.521943,25.4918699 C197.14728,25.2168008 196.632719,25.0792683 195.978244,25.0792683 L194.512797,25.0792683 L194.512797,28.6219512 L195.978244,28.6219512 Z" id="2-клиента-по-70-000" fill="#FFFFFF"></path>
                <g id="Group-21" transform="translate(0.000000, 20.000000)">
                    <rect id="Rectangle-5-Copy-2" fill="url(#linearGradient-1)" opacity="0.300000012" x="10.5" y="3" width="1" height="75"></rect>
                    <circle id="Oval-Copy-4" fill="#00C1F8" cx="11" cy="1.5" r="1.5"></circle>
                    <circle id="Oval-2" stroke-opacity="0.25" stroke="#00C1F8" fill-opacity="0.100000001" fill="url(#linearGradient-2)" cx="11" cy="83" r="11"></circle>
                    <circle id="Oval" fill="#00C1F8" cx="11" cy="83" r="5"></circle>
                    <circle id="Oval-Copy" fill="#FFFFFF" cx="11" cy="83" r="2"></circle>
                </g>
            </g>
        </g>
    </g>
</svg>