<?xml version="1.0" encoding="UTF-8"?>
<svg width="319px" height="295px" viewBox="0 0 319 295" version="1.1" xmlns="http://www.w3.org/2000/svg" xmlns:xlink="http://www.w3.org/1999/xlink">
    <!-- Generator: Sketch 48.1 (47250) - http://www.bohemiancoding.com/sketch -->
    <title>Group 67</title>
    <desc>Created with Sketch.</desc>
    <defs>
        <rect id="path-1" x="0" y="0" width="319" height="307"></rect>
        <linearGradient x1="50%" y1="0%" x2="0%" y2="71.8963854%" id="linearGradient-3">
            <stop stop-color="#1DC6DA" offset="0%"></stop>
            <stop stop-color="#05BFF3" offset="0%"></stop>
            <stop stop-color="#05C0F3" offset="0%"></stop>
            <stop stop-color="#05DEF9" offset="100%"></stop>
        </linearGradient>
        <path d="M3.847364,183.112507 C71.4632012,241.807092 92.5466027,210.130614 123.816903,242.671802 C147.049532,266.848651 152.2974,234.182904 179.929623,265.743456 C201.070258,289.889545 201.654059,257.197764 232.833833,284.081235 C264.013607,310.964707 277.306315,270.902719 293.217567,304.463122 C317.353263,355.370721 313.420184,350.900226 347,350.900226 C380.579816,350.900226 355.833322,187.430102 402.944272,187.430103 C472.285512,187.430104 440.213192,222.982582 492.049514,205.262904 C551.942473,184.789153 546.993872,254.301172 573.648466,259.493689 C605.327664,265.665036 607.607734,164.836503 653.16547,150.212656 C679.49941,141.759569 704.081169,173.47303 743.965292,187.430103 C783.849414,201.387175 815.415504,161.577164 832,161.577164 C959.952409,161.577163 -63.7684732,124.417923 3.847364,183.112507 Z" id="path-4"></path>
        <filter x="-2.0%" y="-7.4%" width="104.0%" height="116.8%" filterUnits="objectBoundingBox" id="filter-5">
            <feMorphology radius="1" operator="dilate" in="SourceAlpha" result="shadowSpreadOuter1"></feMorphology>
            <feOffset dx="0" dy="2" in="shadowSpreadOuter1" result="shadowOffsetOuter1"></feOffset>
            <feMorphology radius="1" operator="erode" in="SourceAlpha" result="shadowInner"></feMorphology>
            <feOffset dx="0" dy="2" in="shadowInner" result="shadowInner"></feOffset>
            <feComposite in="shadowOffsetOuter1" in2="shadowInner" operator="out" result="shadowOffsetOuter1"></feComposite>
            <feGaussianBlur stdDeviation="5" in="shadowOffsetOuter1" result="shadowBlurOuter1"></feGaussianBlur>
            <feColorMatrix values="0 0 0 0 0   0 0 0 0 0   0 0 0 0 0  0 0 0 0.146427763 0" type="matrix" in="shadowBlurOuter1"></feColorMatrix>
        </filter>
        <linearGradient x1="50%" y1="100%" x2="50%" y2="0%" id="linearGradient-6">
            <stop stop-color="#E6E9F0" offset="0%"></stop>
            <stop stop-color="#EEF1F5" offset="100%"></stop>
        </linearGradient>
    </defs>
    <g id="Landing-MHT-Warm-Floor" stroke="none" stroke-width="1" fill="none" fill-rule="evenodd">
        <g id="Group-67" transform="translate(0.000000, -12.000000)">
            <mask id="mask-2" fill="white">
                <use xlink:href="#path-1"></use>
            </mask>
            <g id="Mask"></g>
            <g id="Group-69" mask="url(#mask-2)">
                <g transform="translate(-27.000000, 8.000000)">
                    <g id="LIKES_GRAPH" transform="translate(421.858330, 249.900923) scale(1, -1) translate(-421.858330, -249.900923) ">
                        <use fill="black" fill-opacity="1" filter="url(#filter-5)" xlink:href="#path-4"></use>
                        <use stroke="url(#linearGradient-3)" stroke-width="2" xlink:href="#path-4"></use>
                    </g>
                    <g id="Group-61" stroke-width="1" fill-rule="evenodd" transform="translate(138.000000, 0.000000)">
                        <g id="Group-3-Copy-2" fill="#FFFFFF">
                            <path d="M4.424,14.168 C1.68,14.168 0.574,11.942 0.574,9.352 C0.574,6.65 1.988,4.522 4.69,4.522 C5.852,4.522 6.748,4.942 7.378,5.558 L6.608,6.804 C6.118,6.286 5.586,5.978 4.69,5.978 C3.136,5.978 2.226,7.42 2.226,9.058 C2.226,9.156 2.226,9.24 2.24,9.324 C2.66,8.694 3.64,8.022 4.746,8.022 C6.426,8.022 7.868,9.044 7.868,11.032 C7.868,12.768 6.51,14.168 4.424,14.168 Z M4.34,12.712 C5.572,12.712 6.216,11.844 6.216,11.088 C6.216,9.94 5.32,9.422 4.298,9.422 C3.5,9.422 2.73,9.856 2.254,10.528 C2.352,11.536 2.898,12.712 4.34,12.712 Z M19.292,14 L17.444,14 L15.372,11.214 L14.434,12.18 L14.434,14 L12.964,14 L12.964,7.238 L14.434,7.238 L14.434,10.5 L17.416,7.238 L19.236,7.238 L16.422,10.304 L19.292,14 Z M19.628,14.168 L19.628,12.964 C20.202,12.964 20.524,12.306 20.748,10.528 L21.154,7.238 L26.376,7.238 L26.376,14 L24.906,14 L24.906,8.526 L22.456,8.526 L22.218,10.696 C21.952,13.146 21.112,14.168 19.628,14.168 Z M29.694,14 L28.28,14 L28.28,7.238 L29.75,7.238 L29.75,11.788 L32.858,7.238 L34.328,7.238 L34.328,14 L32.858,14 L32.858,9.324 L29.694,14 Z M39.354,14.168 C37.324,14.168 35.812,12.754 35.812,10.612 C35.812,8.652 37.24,7.07 39.242,7.07 C41.272,7.07 42.574,8.624 42.574,10.752 L42.574,11.102 L37.352,11.102 C37.464,12.124 38.234,12.964 39.508,12.964 C40.166,12.964 40.95,12.698 41.426,12.222 L42.098,13.188 C41.426,13.832 40.432,14.168 39.354,14.168 Z M41.146,10.066 C41.118,9.268 40.572,8.274 39.242,8.274 C37.982,8.274 37.408,9.24 37.338,10.066 L41.146,10.066 Z M45.5,14 L44.03,14 L44.03,7.238 L45.5,7.238 L45.5,9.898 L48.608,9.898 L48.608,7.238 L50.078,7.238 L50.078,14 L48.608,14 L48.608,11.186 L45.5,11.186 L45.5,14 Z M54.684,14 L53.214,14 L53.214,8.526 L51.282,8.526 L51.282,7.238 L56.63,7.238 L56.63,8.526 L54.684,8.526 L54.684,14 Z M60.886,14.168 C58.744,14.168 57.414,12.558 57.414,10.612 C57.414,8.68 58.744,7.07 60.886,7.07 C63.056,7.07 64.372,8.68 64.372,10.612 C64.372,12.558 63.056,14.168 60.886,14.168 Z M60.886,12.866 C62.146,12.866 62.846,11.816 62.846,10.612 C62.846,9.422 62.146,8.372 60.886,8.372 C59.64,8.372 58.94,9.422 58.94,10.612 C58.94,11.816 59.64,12.866 60.886,12.866 Z M70,14 L65.856,14 L65.856,7.238 L69.902,7.238 C71.19,7.238 71.904,8.008 71.904,8.974 C71.904,9.786 71.386,10.332 70.77,10.514 C71.498,10.682 72.044,11.368 72.044,12.166 C72.044,13.216 71.316,14 70,14 Z M69.692,12.712 C70.21,12.712 70.532,12.432 70.532,11.956 C70.532,11.55 70.238,11.186 69.692,11.186 L67.326,11.186 L67.326,12.712 L69.692,12.712 Z M69.65,9.898 C70.126,9.898 70.406,9.604 70.406,9.226 C70.406,8.806 70.126,8.526 69.65,8.526 L67.326,8.526 L67.326,9.898 L69.65,9.898 Z M83.51,14 L82.04,14 L82.04,8.526 L78.932,8.526 L78.932,14 L77.462,14 L77.462,7.238 L83.51,7.238 L83.51,14 Z M88.466,14.168 C86.324,14.168 84.994,12.558 84.994,10.612 C84.994,8.68 86.324,7.07 88.466,7.07 C90.636,7.07 91.952,8.68 91.952,10.612 C91.952,12.558 90.636,14.168 88.466,14.168 Z M88.466,12.866 C89.726,12.866 90.426,11.816 90.426,10.612 C90.426,9.422 89.726,8.372 88.466,8.372 C87.22,8.372 86.52,9.422 86.52,10.612 C86.52,11.816 87.22,12.866 88.466,12.866 Z M99.568,14 L97.776,14 L101.304,6.104 L96.46,6.104 L96.46,4.662 L103.194,4.662 L103.194,5.796 L99.568,14 Z M107.842,14.168 C105.224,14.168 104.104,11.69 104.104,9.338 C104.104,6.986 105.224,4.522 107.842,4.522 C110.46,4.522 111.58,6.986 111.58,9.338 C111.58,11.69 110.46,14.168 107.842,14.168 Z M107.842,12.712 C109.368,12.712 109.914,11.116 109.914,9.338 C109.914,7.56 109.368,5.978 107.842,5.978 C106.316,5.978 105.77,7.56 105.77,9.338 C105.77,11.116 106.316,12.712 107.842,12.712 Z M120.064,14.168 C117.446,14.168 116.326,11.69 116.326,9.338 C116.326,6.986 117.446,4.522 120.064,4.522 C122.682,4.522 123.802,6.986 123.802,9.338 C123.802,11.69 122.682,14.168 120.064,14.168 Z M120.064,12.712 C121.59,12.712 122.136,11.116 122.136,9.338 C122.136,7.56 121.59,5.978 120.064,5.978 C118.538,5.978 117.992,7.56 117.992,9.338 C117.992,11.116 118.538,12.712 120.064,12.712 Z M128.688,14.168 C126.07,14.168 124.95,11.69 124.95,9.338 C124.95,6.986 126.07,4.522 128.688,4.522 C131.306,4.522 132.426,6.986 132.426,9.338 C132.426,11.69 131.306,14.168 128.688,14.168 Z M128.688,12.712 C130.214,12.712 130.76,11.116 130.76,9.338 C130.76,7.56 130.214,5.978 128.688,5.978 C127.162,5.978 126.616,7.56 126.616,9.338 C126.616,11.116 127.162,12.712 128.688,12.712 Z M137.312,14.168 C134.694,14.168 133.574,11.69 133.574,9.338 C133.574,6.986 134.694,4.522 137.312,4.522 C139.93,4.522 141.05,6.986 141.05,9.338 C141.05,11.69 139.93,14.168 137.312,14.168 Z M137.312,12.712 C138.838,12.712 139.384,11.116 139.384,9.338 C139.384,7.56 138.838,5.978 137.312,5.978 C135.786,5.978 135.24,7.56 135.24,9.338 C135.24,11.116 135.786,12.712 137.312,12.712 Z M145.748423,8.62195122 L146.758585,8.62195122 L146.758585,4.08333333 L149.362244,4.08333333 C149.845986,4.08333333 150.287039,4.13787208 150.685415,4.24695122 C151.083791,4.35603036 151.425251,4.52201786 151.709805,4.7449187 C151.994359,4.96781954 152.217257,5.24999829 152.378504,5.59146341 C152.539751,5.93292854 152.620374,6.34078354 152.620374,6.81504065 C152.620374,7.28929776 152.535009,7.70189526 152.364276,8.05284553 C152.193544,8.40379579 151.961161,8.69545954 151.667122,8.92784553 C151.373083,9.16023151 151.02688,9.33333276 150.628504,9.44715447 C150.230128,9.56097618 149.798561,9.61788618 149.333789,9.61788618 L147.896797,9.61788618 L147.896797,11.054878 L150.187447,11.054878 L150.187447,11.9939024 L147.896797,11.9939024 L147.896797,14 L146.758585,14 L146.758585,11.9939024 L145.748423,11.9939024 L145.748423,11.054878 L146.758585,11.054878 L146.758585,9.61788618 L145.748423,9.61788618 L145.748423,8.62195122 Z M149.362244,8.62195122 C150.016719,8.62195122 150.53128,8.47256247 150.905943,8.17378049 C151.280606,7.87499851 151.467935,7.42208976 151.467935,6.81504065 C151.467935,6.20799154 151.280606,5.76693904 150.905943,5.49186992 C150.53128,5.21680079 150.016719,5.07926829 149.362244,5.07926829 L147.896797,5.07926829 L147.896797,8.62195122 L149.362244,8.62195122 Z M2.366,24.662 L2.366,27.14 C2.366,28.484 3.024,29.072 4.256,29.072 C4.984,29.072 5.67,28.932 6.202,28.722 L6.202,24.662 L7.84,24.662 L7.84,34 L6.202,34 L6.202,30.164 C5.656,30.36 4.858,30.514 4.088,30.514 C1.792,30.514 0.728,29.17 0.728,27.14 L0.728,24.662 L2.366,24.662 Z M11.2,34 L9.786,34 L9.786,27.238 L11.256,27.238 L11.256,31.788 L14.364,27.238 L15.834,27.238 L15.834,34 L14.364,34 L14.364,29.324 L11.2,34 Z M20.818,34.168 C18.76,34.168 17.318,32.67 17.318,30.612 C17.318,28.568 18.76,27.07 20.818,27.07 C22.134,27.07 22.932,27.63 23.408,28.274 L22.442,29.17 C22.064,28.638 21.546,28.372 20.888,28.372 C19.656,28.372 18.844,29.296 18.844,30.612 C18.844,31.928 19.656,32.866 20.888,32.866 C21.546,32.866 22.064,32.586 22.442,32.068 L23.408,32.964 C22.932,33.608 22.134,34.168 20.818,34.168 Z M27.398,34 L25.928,34 L25.928,28.526 L23.996,28.526 L23.996,27.238 L29.344,27.238 L29.344,28.526 L27.398,28.526 L27.398,34 Z M36.148,34 L34.678,34 L34.678,33.272 C34.174,33.846 33.39,34.168 32.494,34.168 C31.388,34.168 30.142,33.426 30.142,31.928 C30.142,30.374 31.388,29.73 32.494,29.73 C33.404,29.73 34.188,30.024 34.678,30.598 L34.678,29.59 C34.678,28.806 34.034,28.33 33.096,28.33 C32.34,28.33 31.682,28.61 31.094,29.184 L30.492,28.162 C31.276,27.42 32.256,27.07 33.334,27.07 C34.832,27.07 36.148,27.7 36.148,29.52 L36.148,34 Z M33.068,33.16 C33.712,33.16 34.342,32.922 34.678,32.46 L34.678,31.438 C34.342,30.976 33.712,30.738 33.068,30.738 C32.242,30.738 31.626,31.214 31.626,31.956 C31.626,32.684 32.242,33.16 33.068,33.16 Z M39.494,34 L37.814,34 L39.48,31.48 C38.598,31.284 37.898,30.556 37.898,29.394 C37.898,28.232 38.682,27.238 40.138,27.238 L44.002,27.238 L44.002,34 L42.532,34 L42.532,31.55 L40.978,31.55 L39.494,34 Z M40.32,30.262 L42.532,30.262 L42.532,28.526 L40.32,28.526 C39.76,28.526 39.396,28.89 39.396,29.394 C39.396,29.898 39.732,30.262 40.32,30.262 Z M55.552,34 L54.082,34 L54.082,28.526 L50.974,28.526 L50.974,34 L49.504,34 L49.504,27.238 L55.552,27.238 L55.552,34 Z M61.096,34.168 C60.242,34.168 59.472,33.79 58.926,33.062 L58.926,36.576 L57.456,36.576 L57.456,27.238 L58.926,27.238 L58.926,28.162 C59.43,27.49 60.214,27.07 61.096,27.07 C62.846,27.07 64.092,28.386 64.092,30.612 C64.092,32.838 62.846,34.168 61.096,34.168 Z M60.662,32.866 C61.824,32.866 62.566,31.928 62.566,30.612 C62.566,29.31 61.824,28.372 60.662,28.372 C59.976,28.372 59.248,28.778 58.926,29.282 L58.926,31.956 C59.248,32.446 59.976,32.866 60.662,32.866 Z M66.962,34 L65.548,34 L65.548,27.238 L67.018,27.238 L67.018,31.788 L70.126,27.238 L71.596,27.238 L71.596,34 L70.126,34 L70.126,29.324 L66.962,34 Z M76.552,32.866 C77.812,32.866 78.512,31.816 78.512,30.584 C78.512,29.422 77.812,28.372 76.552,28.372 C75.306,28.372 74.606,29.422 74.606,30.584 C74.606,31.816 75.306,32.866 76.552,32.866 Z M76.552,34.168 C74.368,34.168 73.094,32.502 73.094,30.304 C73.094,27.014 74.228,25.572 76.496,25.292 C77.938,25.082 78.344,24.914 78.344,24.662 L79.786,24.662 C79.786,25.978 78.022,26.328 76.902,26.454 C75.278,26.636 74.578,27.434 74.396,28.26 C74.942,27.518 75.852,27.07 76.832,27.07 C78.75,27.07 80.024,28.722 80.024,30.598 C80.024,32.502 78.75,34.168 76.552,34.168 Z M81.578,27.238 L83.048,27.238 L83.048,29.688 L85.442,29.688 C86.94,29.688 87.682,30.682 87.682,31.844 C87.682,33.006 86.898,34 85.442,34 L81.578,34 L81.578,27.238 Z M85.26,30.976 L83.048,30.976 L83.048,32.712 L85.26,32.712 C85.848,32.712 86.184,32.348 86.184,31.844 C86.184,31.34 85.848,30.976 85.26,30.976 Z M90.174,34 L88.704,34 L88.704,27.238 L90.174,27.238 L90.174,34 Z M91.378,34.168 L91.378,32.964 C91.952,32.964 92.274,32.306 92.498,30.528 L92.904,27.238 L98.126,27.238 L98.126,34 L96.656,34 L96.656,28.526 L94.206,28.526 L93.968,30.696 C93.702,33.146 92.862,34.168 91.378,34.168 Z M100.03,27.238 L101.5,27.238 L101.5,29.688 L103.894,29.688 C105.392,29.688 106.134,30.682 106.134,31.844 C106.134,33.006 105.35,34 103.894,34 L100.03,34 L100.03,27.238 Z M103.712,30.976 L101.5,30.976 L101.5,32.712 L103.712,32.712 C104.3,32.712 104.636,32.348 104.636,31.844 C104.636,31.34 104.3,30.976 103.712,30.976 Z M114.562,34 L112.924,34 L112.924,26.79 L111.398,28.372 L110.446,27.378 L113.134,24.662 L114.562,24.662 L114.562,34 Z M122.038,34 L120.4,34 L120.4,31.886 L115.948,31.886 L115.948,30.57 L119.784,24.662 L122.038,24.662 L122.038,30.444 L123.284,30.444 L123.284,31.886 L122.038,31.886 L122.038,34 Z M120.4,30.444 L120.4,26.132 L117.558,30.444 L120.4,30.444 Z M127.162,34 L125.37,34 L128.898,26.104 L124.054,26.104 L124.054,24.662 L130.788,24.662 L130.788,25.796 L127.162,34 Z M139.034,34.168 C136.416,34.168 135.296,31.69 135.296,29.338 C135.296,26.986 136.416,24.522 139.034,24.522 C141.652,24.522 142.772,26.986 142.772,29.338 C142.772,31.69 141.652,34.168 139.034,34.168 Z M139.034,32.712 C140.56,32.712 141.106,31.116 141.106,29.338 C141.106,27.56 140.56,25.978 139.034,25.978 C137.508,25.978 136.962,27.56 136.962,29.338 C136.962,31.116 137.508,32.712 139.034,32.712 Z M147.658,34.168 C145.04,34.168 143.92,31.69 143.92,29.338 C143.92,26.986 145.04,24.522 147.658,24.522 C150.276,24.522 151.396,26.986 151.396,29.338 C151.396,31.69 150.276,34.168 147.658,34.168 Z M147.658,32.712 C149.184,32.712 149.73,31.116 149.73,29.338 C149.73,27.56 149.184,25.978 147.658,25.978 C146.132,25.978 145.586,27.56 145.586,29.338 C145.586,31.116 146.132,32.712 147.658,32.712 Z M156.282,34.168 C153.664,34.168 152.544,31.69 152.544,29.338 C152.544,26.986 153.664,24.522 156.282,24.522 C158.9,24.522 160.02,26.986 160.02,29.338 C160.02,31.69 158.9,34.168 156.282,34.168 Z M156.282,32.712 C157.808,32.712 158.354,31.116 158.354,29.338 C158.354,27.56 157.808,25.978 156.282,25.978 C154.756,25.978 154.21,27.56 154.21,29.338 C154.21,31.116 154.756,32.712 156.282,32.712 Z M164.718423,28.6219512 L165.728585,28.6219512 L165.728585,24.0833333 L168.332244,24.0833333 C168.815986,24.0833333 169.257039,24.1378721 169.655415,24.2469512 C170.053791,24.3560304 170.395251,24.5220179 170.679805,24.7449187 C170.964359,24.9678195 171.187257,25.2499983 171.348504,25.5914634 C171.509751,25.9329285 171.590374,26.3407835 171.590374,26.8150407 C171.590374,27.2892978 171.505009,27.7018953 171.334276,28.0528455 C171.163544,28.4037958 170.931161,28.6954595 170.637122,28.9278455 C170.343083,29.1602315 169.99688,29.3333328 169.598504,29.4471545 C169.200128,29.5609762 168.768561,29.6178862 168.303789,29.6178862 L166.866797,29.6178862 L166.866797,31.054878 L169.157447,31.054878 L169.157447,31.9939024 L166.866797,31.9939024 L166.866797,34 L165.728585,34 L165.728585,31.9939024 L164.718423,31.9939024 L164.718423,31.054878 L165.728585,31.054878 L165.728585,29.6178862 L164.718423,29.6178862 L164.718423,28.6219512 Z M168.332244,28.6219512 C168.986719,28.6219512 169.50128,28.4725625 169.875943,28.1737805 C170.250606,27.8749985 170.437935,27.4220898 170.437935,26.8150407 C170.437935,26.2079915 170.250606,25.766939 169.875943,25.4918699 C169.50128,25.2168008 168.986719,25.0792683 168.332244,25.0792683 L166.866797,25.0792683 L166.866797,28.6219512 L168.332244,28.6219512 Z M5.348,54.168 C2.548,54.168 0.574,52.124 0.574,49.338 C0.574,46.552 2.548,44.508 5.348,44.508 C8.148,44.508 10.122,46.552 10.122,49.338 C10.122,52.124 8.148,54.168 5.348,54.168 Z M5.348,52.712 C7.224,52.712 8.442,51.256 8.442,49.338 C8.442,47.406 7.224,45.964 5.348,45.964 C3.458,45.964 2.254,47.406 2.254,49.338 C2.254,51.256 3.458,52.712 5.348,52.712 Z M17.99,54 L16.142,54 L14.07,51.214 L13.132,52.18 L13.132,54 L11.662,54 L11.662,47.238 L13.132,47.238 L13.132,50.5 L16.114,47.238 L17.934,47.238 L15.12,50.304 L17.99,54 Z M18.732,56.646 L18.956,55.33 C19.11,55.4 19.348,55.442 19.516,55.442 C19.978,55.442 20.286,55.302 20.482,54.854 L20.818,54.084 L18.046,47.238 L19.614,47.238 L21.588,52.306 L23.562,47.238 L25.144,47.238 L21.882,55.218 C21.42,56.366 20.608,56.73 19.558,56.744 C19.348,56.744 18.942,56.702 18.732,56.646 Z M32.116,54 L30.646,54 L30.646,48.526 L27.538,48.526 L27.538,54 L26.068,54 L26.068,47.238 L32.116,47.238 L32.116,54 Z M35.434,54 L34.02,54 L34.02,47.238 L35.49,47.238 L35.49,51.788 L38.598,47.238 L40.068,47.238 L40.068,54 L38.598,54 L38.598,49.324 L35.434,54 Z M44.674,54 L43.204,54 L43.204,48.526 L41.272,48.526 L41.272,47.238 L46.62,47.238 L46.62,48.526 L44.674,48.526 L44.674,54 Z M50.946,54.168 C48.916,54.168 47.404,52.754 47.404,50.612 C47.404,48.652 48.832,47.07 50.834,47.07 C52.864,47.07 54.166,48.624 54.166,50.752 L54.166,51.102 L48.944,51.102 C49.056,52.124 49.826,52.964 51.1,52.964 C51.758,52.964 52.542,52.698 53.018,52.222 L53.69,53.188 C53.018,53.832 52.024,54.168 50.946,54.168 Z M52.738,50.066 C52.71,49.268 52.164,48.274 50.834,48.274 C49.574,48.274 49,49.24 48.93,50.066 L52.738,50.066 Z M58.702,54.168 C56.644,54.168 55.202,52.67 55.202,50.612 C55.202,48.568 56.644,47.07 58.702,47.07 C60.018,47.07 60.816,47.63 61.292,48.274 L60.326,49.17 C59.948,48.638 59.43,48.372 58.772,48.372 C57.54,48.372 56.728,49.296 56.728,50.612 C56.728,51.928 57.54,52.866 58.772,52.866 C59.43,52.866 59.948,52.586 60.326,52.068 L61.292,52.964 C60.816,53.608 60.018,54.168 58.702,54.168 Z M62.58,47.238 L64.05,47.238 L64.05,49.688 L66.444,49.688 C67.942,49.688 68.684,50.682 68.684,51.844 C68.684,53.006 67.9,54 66.444,54 L62.58,54 L62.58,47.238 Z M66.262,50.976 L64.05,50.976 L64.05,52.712 L66.262,52.712 C66.85,52.712 67.186,52.348 67.186,51.844 C67.186,51.34 66.85,50.976 66.262,50.976 Z M76.174,54.168 C74.788,54.168 73.738,53.734 73.066,53.076 L73.752,52.138 C74.382,52.698 75.278,52.964 76.174,52.964 C77.21,52.964 77.826,52.6 77.826,52.054 C77.826,51.41 77.084,51.172 76.048,51.172 L74.606,51.172 L74.606,49.996 L76.048,49.996 C77.056,49.996 77.7,49.702 77.7,49.114 C77.7,48.624 77.014,48.274 76.076,48.274 C75.166,48.274 74.452,48.54 73.906,49.086 L73.178,48.19 C73.822,47.532 74.774,47.084 76.006,47.084 C77.994,47.07 79.226,47.77 79.226,48.918 C79.226,49.842 78.288,50.416 77.434,50.542 C78.246,50.598 79.366,51.102 79.366,52.166 C79.366,53.328 78.162,54.168 76.174,54.168 Z M86.45,54 L84.98,54 L84.98,53.272 C84.476,53.846 83.692,54.168 82.796,54.168 C81.69,54.168 80.444,53.426 80.444,51.928 C80.444,50.374 81.69,49.73 82.796,49.73 C83.706,49.73 84.49,50.024 84.98,50.598 L84.98,49.59 C84.98,48.806 84.336,48.33 83.398,48.33 C82.642,48.33 81.984,48.61 81.396,49.184 L80.794,48.162 C81.578,47.42 82.558,47.07 83.636,47.07 C85.134,47.07 86.45,47.7 86.45,49.52 L86.45,54 Z M83.37,53.16 C84.014,53.16 84.644,52.922 84.98,52.46 L84.98,51.438 C84.644,50.976 84.014,50.738 83.37,50.738 C82.544,50.738 81.928,51.214 81.928,51.956 C81.928,52.684 82.544,53.16 83.37,53.16 Z M98,54 L96.53,54 L96.53,48.526 L93.422,48.526 L93.422,54 L91.952,54 L91.952,47.238 L98,47.238 L98,54 Z M102.956,54.168 C100.814,54.168 99.484,52.558 99.484,50.612 C99.484,48.68 100.814,47.07 102.956,47.07 C105.126,47.07 106.442,48.68 106.442,50.612 C106.442,52.558 105.126,54.168 102.956,54.168 Z M102.956,52.866 C104.216,52.866 104.916,51.816 104.916,50.612 C104.916,49.422 104.216,48.372 102.956,48.372 C101.71,48.372 101.01,49.422 101.01,50.612 C101.01,51.816 101.71,52.866 102.956,52.866 Z M107.226,54.168 L107.226,52.964 C107.8,52.964 108.122,52.306 108.346,50.528 L108.752,47.238 L113.974,47.238 L113.974,54 L112.504,54 L112.504,48.526 L110.054,48.526 L109.816,50.696 C109.55,53.146 108.71,54.168 107.226,54.168 Z M124.6,47.238 L124.6,48.526 L120.946,48.526 L120.946,54 L119.476,54 L119.476,47.238 L124.6,47.238 Z M128.856,54.168 C126.714,54.168 125.384,52.558 125.384,50.612 C125.384,48.68 126.714,47.07 128.856,47.07 C131.026,47.07 132.342,48.68 132.342,50.612 C132.342,52.558 131.026,54.168 128.856,54.168 Z M128.856,52.866 C130.116,52.866 130.816,51.816 130.816,50.612 C130.816,49.422 130.116,48.372 128.856,48.372 C127.61,48.372 126.91,49.422 126.91,50.612 C126.91,51.816 127.61,52.866 128.856,52.866 Z M133.126,55.722 L133.126,52.782 C133.7,52.642 134.022,52.306 134.246,50.528 L134.652,47.238 L139.874,47.238 L139.874,52.712 L140.616,52.712 L140.616,55.722 L139.146,55.722 L139.146,54 L134.596,54 L134.596,55.722 L133.126,55.722 Z M135.954,48.526 L135.716,50.696 C135.618,51.634 135.296,52.292 134.82,52.712 L138.404,52.712 L138.404,48.526 L135.954,48.526 Z M147.42,54 L145.95,54 L145.95,53.272 C145.446,53.846 144.662,54.168 143.766,54.168 C142.66,54.168 141.414,53.426 141.414,51.928 C141.414,50.374 142.66,49.73 143.766,49.73 C144.676,49.73 145.46,50.024 145.95,50.598 L145.95,49.59 C145.95,48.806 145.306,48.33 144.368,48.33 C143.612,48.33 142.954,48.61 142.366,49.184 L141.764,48.162 C142.548,47.42 143.528,47.07 144.606,47.07 C146.104,47.07 147.42,47.7 147.42,49.52 L147.42,54 Z M144.34,53.16 C144.984,53.16 145.614,52.922 145.95,52.46 L145.95,51.438 C145.614,50.976 144.984,50.738 144.34,50.738 C143.514,50.738 142.898,51.214 142.898,51.956 C142.898,52.684 143.514,53.16 144.34,53.16 Z" id="6-клиентов-по-70-000"></path>
                        </g>
                        <g id="Group-19" transform="translate(84.000000, 70.000000)">
                            <rect id="Rectangle-5" fill="url(#linearGradient-3)" opacity="0.300000012" x="10.5" y="3" width="1" height="140"></rect>
                            <circle id="Oval-2" stroke-opacity="0.25" stroke="#00C1F8" fill-opacity="0.100000001" fill="url(#linearGradient-6)" cx="11" cy="146" r="11"></circle>
                            <circle id="Oval" fill="#00C1F8" cx="11" cy="146" r="5"></circle>
                            <circle id="Oval-Copy" fill="#FFFFFF" cx="11" cy="146" r="2"></circle>
                            <circle id="Oval-Copy-2" fill="#00C1F8" cx="11" cy="1.5" r="1.5"></circle>
                        </g>
                    </g>
                    <g id="Group-18" stroke-width="1" fill-rule="evenodd" transform="translate(92.000000, 75.000000)">
                        <path d="M6.982,14 L5.344,14 L5.344,11.886 L0.892,11.886 L0.892,10.57 L4.728,4.662 L6.982,4.662 L6.982,10.444 L8.228,10.444 L8.228,11.886 L6.982,11.886 L6.982,14 Z M5.344,10.444 L5.344,6.132 L2.502,10.444 L5.344,10.444 Z M19.498,14 L17.65,14 L15.578,11.214 L14.64,12.18 L14.64,14 L13.17,14 L13.17,7.238 L14.64,7.238 L14.64,10.5 L17.622,7.238 L19.442,7.238 L16.628,10.304 L19.498,14 Z M19.834,14.168 L19.834,12.964 C20.408,12.964 20.73,12.306 20.954,10.528 L21.36,7.238 L26.582,7.238 L26.582,14 L25.112,14 L25.112,8.526 L22.662,8.526 L22.424,10.696 C22.158,13.146 21.318,14.168 19.834,14.168 Z M29.9,14 L28.486,14 L28.486,7.238 L29.956,7.238 L29.956,11.788 L33.064,7.238 L34.534,7.238 L34.534,14 L33.064,14 L33.064,9.324 L29.9,14 Z M39.56,14.168 C37.53,14.168 36.018,12.754 36.018,10.612 C36.018,8.652 37.446,7.07 39.448,7.07 C41.478,7.07 42.78,8.624 42.78,10.752 L42.78,11.102 L37.558,11.102 C37.67,12.124 38.44,12.964 39.714,12.964 C40.372,12.964 41.156,12.698 41.632,12.222 L42.304,13.188 C41.632,13.832 40.638,14.168 39.56,14.168 Z M41.352,10.066 C41.324,9.268 40.778,8.274 39.448,8.274 C38.188,8.274 37.614,9.24 37.544,10.066 L41.352,10.066 Z M45.706,14 L44.236,14 L44.236,7.238 L45.706,7.238 L45.706,9.898 L48.814,9.898 L48.814,7.238 L50.284,7.238 L50.284,14 L48.814,14 L48.814,11.186 L45.706,11.186 L45.706,14 Z M54.89,14 L53.42,14 L53.42,8.526 L51.488,8.526 L51.488,7.238 L56.836,7.238 L56.836,8.526 L54.89,8.526 L54.89,14 Z M63.64,14 L62.17,14 L62.17,13.272 C61.666,13.846 60.882,14.168 59.986,14.168 C58.88,14.168 57.634,13.426 57.634,11.928 C57.634,10.374 58.88,9.73 59.986,9.73 C60.896,9.73 61.68,10.024 62.17,10.598 L62.17,9.59 C62.17,8.806 61.526,8.33 60.588,8.33 C59.832,8.33 59.174,8.61 58.586,9.184 L57.984,8.162 C58.768,7.42 59.748,7.07 60.826,7.07 C62.324,7.07 63.64,7.7 63.64,9.52 L63.64,14 Z M60.56,13.16 C61.204,13.16 61.834,12.922 62.17,12.46 L62.17,11.438 C61.834,10.976 61.204,10.738 60.56,10.738 C59.734,10.738 59.118,11.214 59.118,11.956 C59.118,12.684 59.734,13.16 60.56,13.16 Z M78.788,14 L77.318,14 L77.318,8.526 L74.21,8.526 L74.21,14 L72.74,14 L72.74,7.238 L78.788,7.238 L78.788,14 Z M83.744,14.168 C81.602,14.168 80.272,12.558 80.272,10.612 C80.272,8.68 81.602,7.07 83.744,7.07 C85.914,7.07 87.23,8.68 87.23,10.612 C87.23,12.558 85.914,14.168 83.744,14.168 Z M83.744,12.866 C85.004,12.866 85.704,11.816 85.704,10.612 C85.704,9.422 85.004,8.372 83.744,8.372 C82.498,8.372 81.798,9.422 81.798,10.612 C81.798,11.816 82.498,12.866 83.744,12.866 Z M94.846,14 L93.054,14 L96.582,6.104 L91.738,6.104 L91.738,4.662 L98.472,4.662 L98.472,5.796 L94.846,14 Z M103.12,14.168 C100.502,14.168 99.382,11.69 99.382,9.338 C99.382,6.986 100.502,4.522 103.12,4.522 C105.738,4.522 106.858,6.986 106.858,9.338 C106.858,11.69 105.738,14.168 103.12,14.168 Z M103.12,12.712 C104.646,12.712 105.192,11.116 105.192,9.338 C105.192,7.56 104.646,5.978 103.12,5.978 C101.594,5.978 101.048,7.56 101.048,9.338 C101.048,11.116 101.594,12.712 103.12,12.712 Z M115.342,14.168 C112.724,14.168 111.604,11.69 111.604,9.338 C111.604,6.986 112.724,4.522 115.342,4.522 C117.96,4.522 119.08,6.986 119.08,9.338 C119.08,11.69 117.96,14.168 115.342,14.168 Z M115.342,12.712 C116.868,12.712 117.414,11.116 117.414,9.338 C117.414,7.56 116.868,5.978 115.342,5.978 C113.816,5.978 113.27,7.56 113.27,9.338 C113.27,11.116 113.816,12.712 115.342,12.712 Z M123.966,14.168 C121.348,14.168 120.228,11.69 120.228,9.338 C120.228,6.986 121.348,4.522 123.966,4.522 C126.584,4.522 127.704,6.986 127.704,9.338 C127.704,11.69 126.584,14.168 123.966,14.168 Z M123.966,12.712 C125.492,12.712 126.038,11.116 126.038,9.338 C126.038,7.56 125.492,5.978 123.966,5.978 C122.44,5.978 121.894,7.56 121.894,9.338 C121.894,11.116 122.44,12.712 123.966,12.712 Z M132.59,14.168 C129.972,14.168 128.852,11.69 128.852,9.338 C128.852,6.986 129.972,4.522 132.59,4.522 C135.208,4.522 136.328,6.986 136.328,9.338 C136.328,11.69 135.208,14.168 132.59,14.168 Z M132.59,12.712 C134.116,12.712 134.662,11.116 134.662,9.338 C134.662,7.56 134.116,5.978 132.59,5.978 C131.064,5.978 130.518,7.56 130.518,9.338 C130.518,11.116 131.064,12.712 132.59,12.712 Z M141.026423,8.62195122 L142.036585,8.62195122 L142.036585,4.08333333 L144.640244,4.08333333 C145.123986,4.08333333 145.565039,4.13787208 145.963415,4.24695122 C146.361791,4.35603036 146.703251,4.52201786 146.987805,4.7449187 C147.272359,4.96781954 147.495257,5.24999829 147.656504,5.59146341 C147.817751,5.93292854 147.898374,6.34078354 147.898374,6.81504065 C147.898374,7.28929776 147.813009,7.70189526 147.642276,8.05284553 C147.471544,8.40379579 147.239161,8.69545954 146.945122,8.92784553 C146.651083,9.16023151 146.30488,9.33333276 145.906504,9.44715447 C145.508128,9.56097618 145.076561,9.61788618 144.611789,9.61788618 L143.174797,9.61788618 L143.174797,11.054878 L145.465447,11.054878 L145.465447,11.9939024 L143.174797,11.9939024 L143.174797,14 L142.036585,14 L142.036585,11.9939024 L141.026423,11.9939024 L141.026423,11.054878 L142.036585,11.054878 L142.036585,9.61788618 L141.026423,9.61788618 L141.026423,8.62195122 Z M144.640244,8.62195122 C145.294719,8.62195122 145.80928,8.47256247 146.183943,8.17378049 C146.558606,7.87499851 146.745935,7.42208976 146.745935,6.81504065 C146.745935,6.20799154 146.558606,5.76693904 146.183943,5.49186992 C145.80928,5.21680079 145.294719,5.07926829 144.640244,5.07926829 L143.174797,5.07926829 L143.174797,8.62195122 L144.640244,8.62195122 Z M2.866,24.662 L2.866,27.14 C2.866,28.484 3.524,29.072 4.756,29.072 C5.484,29.072 6.17,28.932 6.702,28.722 L6.702,24.662 L8.34,24.662 L8.34,34 L6.702,34 L6.702,30.164 C6.156,30.36 5.358,30.514 4.588,30.514 C2.292,30.514 1.228,29.17 1.228,27.14 L1.228,24.662 L2.866,24.662 Z M11.7,34 L10.286,34 L10.286,27.238 L11.756,27.238 L11.756,31.788 L14.864,27.238 L16.334,27.238 L16.334,34 L14.864,34 L14.864,29.324 L11.7,34 Z M21.318,34.168 C19.26,34.168 17.818,32.67 17.818,30.612 C17.818,28.568 19.26,27.07 21.318,27.07 C22.634,27.07 23.432,27.63 23.908,28.274 L22.942,29.17 C22.564,28.638 22.046,28.372 21.388,28.372 C20.156,28.372 19.344,29.296 19.344,30.612 C19.344,31.928 20.156,32.866 21.388,32.866 C22.046,32.866 22.564,32.586 22.942,32.068 L23.908,32.964 C23.432,33.608 22.634,34.168 21.318,34.168 Z M27.898,34 L26.428,34 L26.428,28.526 L24.496,28.526 L24.496,27.238 L29.844,27.238 L29.844,28.526 L27.898,28.526 L27.898,34 Z M36.648,34 L35.178,34 L35.178,33.272 C34.674,33.846 33.89,34.168 32.994,34.168 C31.888,34.168 30.642,33.426 30.642,31.928 C30.642,30.374 31.888,29.73 32.994,29.73 C33.904,29.73 34.688,30.024 35.178,30.598 L35.178,29.59 C35.178,28.806 34.534,28.33 33.596,28.33 C32.84,28.33 32.182,28.61 31.594,29.184 L30.992,28.162 C31.776,27.42 32.756,27.07 33.834,27.07 C35.332,27.07 36.648,27.7 36.648,29.52 L36.648,34 Z M33.568,33.16 C34.212,33.16 34.842,32.922 35.178,32.46 L35.178,31.438 C34.842,30.976 34.212,30.738 33.568,30.738 C32.742,30.738 32.126,31.214 32.126,31.956 C32.126,32.684 32.742,33.16 33.568,33.16 Z M39.994,34 L38.314,34 L39.98,31.48 C39.098,31.284 38.398,30.556 38.398,29.394 C38.398,28.232 39.182,27.238 40.638,27.238 L44.502,27.238 L44.502,34 L43.032,34 L43.032,31.55 L41.478,31.55 L39.994,34 Z M40.82,30.262 L43.032,30.262 L43.032,28.526 L40.82,28.526 C40.26,28.526 39.896,28.89 39.896,29.394 C39.896,29.898 40.232,30.262 40.82,30.262 Z M56.052,34 L54.582,34 L54.582,28.526 L51.474,28.526 L51.474,34 L50.004,34 L50.004,27.238 L56.052,27.238 L56.052,34 Z M61.596,34.168 C60.742,34.168 59.972,33.79 59.426,33.062 L59.426,36.576 L57.956,36.576 L57.956,27.238 L59.426,27.238 L59.426,28.162 C59.93,27.49 60.714,27.07 61.596,27.07 C63.346,27.07 64.592,28.386 64.592,30.612 C64.592,32.838 63.346,34.168 61.596,34.168 Z M61.162,32.866 C62.324,32.866 63.066,31.928 63.066,30.612 C63.066,29.31 62.324,28.372 61.162,28.372 C60.476,28.372 59.748,28.778 59.426,29.282 L59.426,31.956 C59.748,32.446 60.476,32.866 61.162,32.866 Z M67.462,34 L66.048,34 L66.048,27.238 L67.518,27.238 L67.518,31.788 L70.626,27.238 L72.096,27.238 L72.096,34 L70.626,34 L70.626,29.324 L67.462,34 Z M77.052,32.866 C78.312,32.866 79.012,31.816 79.012,30.584 C79.012,29.422 78.312,28.372 77.052,28.372 C75.806,28.372 75.106,29.422 75.106,30.584 C75.106,31.816 75.806,32.866 77.052,32.866 Z M77.052,34.168 C74.868,34.168 73.594,32.502 73.594,30.304 C73.594,27.014 74.728,25.572 76.996,25.292 C78.438,25.082 78.844,24.914 78.844,24.662 L80.286,24.662 C80.286,25.978 78.522,26.328 77.402,26.454 C75.778,26.636 75.078,27.434 74.896,28.26 C75.442,27.518 76.352,27.07 77.332,27.07 C79.25,27.07 80.524,28.722 80.524,30.598 C80.524,32.502 79.25,34.168 77.052,34.168 Z M82.078,27.238 L83.548,27.238 L83.548,29.688 L85.942,29.688 C87.44,29.688 88.182,30.682 88.182,31.844 C88.182,33.006 87.398,34 85.942,34 L82.078,34 L82.078,27.238 Z M85.76,30.976 L83.548,30.976 L83.548,32.712 L85.76,32.712 C86.348,32.712 86.684,32.348 86.684,31.844 C86.684,31.34 86.348,30.976 85.76,30.976 Z M90.674,34 L89.204,34 L89.204,27.238 L90.674,27.238 L90.674,34 Z M91.878,34.168 L91.878,32.964 C92.452,32.964 92.774,32.306 92.998,30.528 L93.404,27.238 L98.626,27.238 L98.626,34 L97.156,34 L97.156,28.526 L94.706,28.526 L94.468,30.696 C94.202,33.146 93.362,34.168 91.878,34.168 Z M100.53,27.238 L102,27.238 L102,29.688 L104.394,29.688 C105.892,29.688 106.634,30.682 106.634,31.844 C106.634,33.006 105.85,34 104.394,34 L100.53,34 L100.53,27.238 Z M104.212,30.976 L102,30.976 L102,32.712 L104.212,32.712 C104.8,32.712 105.136,32.348 105.136,31.844 C105.136,31.34 104.8,30.976 104.212,30.976 Z M114.446,34.154 C113.298,34.154 112.402,33.748 111.772,33.118 L112.528,31.886 C113.018,32.39 113.564,32.698 114.446,32.698 C116.14,32.698 116.91,31.158 116.91,29.632 L116.91,29.352 C116.476,29.982 115.496,30.668 114.404,30.668 C112.724,30.668 111.268,29.632 111.268,27.644 C111.268,25.922 112.626,24.508 114.712,24.508 C117.456,24.508 118.562,26.734 118.562,29.338 C118.562,32.026 117.148,34.154 114.446,34.154 Z M114.838,29.254 C115.636,29.254 116.42,28.834 116.882,28.162 C116.798,27.154 116.238,25.964 114.796,25.964 C113.578,25.964 112.934,26.846 112.934,27.588 C112.934,28.736 113.83,29.254 114.838,29.254 Z M123.322,34.168 C121.404,34.168 119.738,33.286 119.738,31.606 C119.738,30.416 120.704,29.562 121.838,29.184 C120.788,28.848 119.892,28.162 119.892,26.972 C119.892,25.25 121.656,24.522 123.322,24.522 C124.96,24.522 126.752,25.25 126.752,26.972 C126.752,28.162 125.842,28.848 124.792,29.184 C125.926,29.562 126.892,30.416 126.892,31.606 C126.892,33.272 125.226,34.168 123.322,34.168 Z M123.322,28.54 C123.896,28.442 125.086,28.106 125.086,27.224 C125.086,26.44 124.316,25.978 123.322,25.978 C122.3,25.978 121.544,26.44 121.544,27.224 C121.544,28.106 122.748,28.442 123.322,28.54 Z M123.322,32.712 C124.358,32.712 125.24,32.208 125.24,31.396 C125.24,30.43 123.896,29.996 123.322,29.926 C122.734,29.996 121.39,30.43 121.39,31.396 C121.39,32.208 122.258,32.712 123.322,32.712 Z M135.39,34.168 C132.772,34.168 131.652,31.69 131.652,29.338 C131.652,26.986 132.772,24.522 135.39,24.522 C138.008,24.522 139.128,26.986 139.128,29.338 C139.128,31.69 138.008,34.168 135.39,34.168 Z M135.39,32.712 C136.916,32.712 137.462,31.116 137.462,29.338 C137.462,27.56 136.916,25.978 135.39,25.978 C133.864,25.978 133.318,27.56 133.318,29.338 C133.318,31.116 133.864,32.712 135.39,32.712 Z M144.014,34.168 C141.396,34.168 140.276,31.69 140.276,29.338 C140.276,26.986 141.396,24.522 144.014,24.522 C146.632,24.522 147.752,26.986 147.752,29.338 C147.752,31.69 146.632,34.168 144.014,34.168 Z M144.014,32.712 C145.54,32.712 146.086,31.116 146.086,29.338 C146.086,27.56 145.54,25.978 144.014,25.978 C142.488,25.978 141.942,27.56 141.942,29.338 C141.942,31.116 142.488,32.712 144.014,32.712 Z M152.638,34.168 C150.02,34.168 148.9,31.69 148.9,29.338 C148.9,26.986 150.02,24.522 152.638,24.522 C155.256,24.522 156.376,26.986 156.376,29.338 C156.376,31.69 155.256,34.168 152.638,34.168 Z M152.638,32.712 C154.164,32.712 154.71,31.116 154.71,29.338 C154.71,27.56 154.164,25.978 152.638,25.978 C151.112,25.978 150.566,27.56 150.566,29.338 C150.566,31.116 151.112,32.712 152.638,32.712 Z M161.074423,28.6219512 L162.084585,28.6219512 L162.084585,24.0833333 L164.688244,24.0833333 C165.171986,24.0833333 165.613039,24.1378721 166.011415,24.2469512 C166.409791,24.3560304 166.751251,24.5220179 167.035805,24.7449187 C167.320359,24.9678195 167.543257,25.2499983 167.704504,25.5914634 C167.865751,25.9329285 167.946374,26.3407835 167.946374,26.8150407 C167.946374,27.2892978 167.861009,27.7018953 167.690276,28.0528455 C167.519544,28.4037958 167.287161,28.6954595 166.993122,28.9278455 C166.699083,29.1602315 166.35288,29.3333328 165.954504,29.4471545 C165.556128,29.5609762 165.124561,29.6178862 164.659789,29.6178862 L163.222797,29.6178862 L163.222797,31.054878 L165.513447,31.054878 L165.513447,31.9939024 L163.222797,31.9939024 L163.222797,34 L162.084585,34 L162.084585,31.9939024 L161.074423,31.9939024 L161.074423,31.054878 L162.084585,31.054878 L162.084585,29.6178862 L161.074423,29.6178862 L161.074423,28.6219512 Z M164.688244,28.6219512 C165.342719,28.6219512 165.85728,28.4725625 166.231943,28.1737805 C166.606606,27.8749985 166.793935,27.4220898 166.793935,26.8150407 C166.793935,26.2079915 166.606606,25.766939 166.231943,25.4918699 C165.85728,25.2168008 165.342719,25.0792683 164.688244,25.0792683 L163.222797,25.0792683 L163.222797,28.6219512 L164.688244,28.6219512 Z" id="4-клиента-по-70-000" fill="#FFFFFF"></path>
                        <g id="Group-20" transform="translate(85.000000, 50.000000)">
                            <rect id="Rectangle-5-Copy" fill="url(#linearGradient-3)" opacity="0.300000012" x="10.5" y="3" width="1" height="94"></rect>
                            <circle id="Oval-2" stroke-opacity="0.25" stroke="#00C1F8" fill-opacity="0.100000001" fill="url(#linearGradient-6)" cx="11" cy="102" r="11"></circle>
                            <circle id="Oval" fill="#00C1F8" cx="11" cy="102" r="5"></circle>
                            <circle id="Oval-Copy" fill="#FFFFFF" cx="11" cy="102" r="2"></circle>
                            <circle id="Oval-Copy-3" fill="#00C1F8" cx="11" cy="1.5" r="1.5"></circle>
                        </g>
                    </g>
                    <g id="Group-8" stroke-width="1" fill-rule="evenodd" transform="translate(47.000000, 130.000000)">
                        <path d="M7.462,14 L0.7,14 L0.7,12.712 C4.326,9.968 5.74,8.75 5.74,7.406 C5.74,6.426 4.9,5.978 4.046,5.978 C2.954,5.978 2.114,6.426 1.526,7.098 L0.574,6.02 C1.4,5.026 2.716,4.522 4.018,4.522 C5.824,4.522 7.406,5.544 7.406,7.406 C7.406,9.128 5.824,10.668 3.318,12.558 L7.462,12.558 L7.462,14 Z M19.208,14 L17.36,14 L15.288,11.214 L14.35,12.18 L14.35,14 L12.88,14 L12.88,7.238 L14.35,7.238 L14.35,10.5 L17.332,7.238 L19.152,7.238 L16.338,10.304 L19.208,14 Z M19.544,14.168 L19.544,12.964 C20.118,12.964 20.44,12.306 20.664,10.528 L21.07,7.238 L26.292,7.238 L26.292,14 L24.822,14 L24.822,8.526 L22.372,8.526 L22.134,10.696 C21.868,13.146 21.028,14.168 19.544,14.168 Z M29.61,14 L28.196,14 L28.196,7.238 L29.666,7.238 L29.666,11.788 L32.774,7.238 L34.244,7.238 L34.244,14 L32.774,14 L32.774,9.324 L29.61,14 Z M39.27,14.168 C37.24,14.168 35.728,12.754 35.728,10.612 C35.728,8.652 37.156,7.07 39.158,7.07 C41.188,7.07 42.49,8.624 42.49,10.752 L42.49,11.102 L37.268,11.102 C37.38,12.124 38.15,12.964 39.424,12.964 C40.082,12.964 40.866,12.698 41.342,12.222 L42.014,13.188 C41.342,13.832 40.348,14.168 39.27,14.168 Z M41.062,10.066 C41.034,9.268 40.488,8.274 39.158,8.274 C37.898,8.274 37.324,9.24 37.254,10.066 L41.062,10.066 Z M45.416,14 L43.946,14 L43.946,7.238 L45.416,7.238 L45.416,9.898 L48.524,9.898 L48.524,7.238 L49.994,7.238 L49.994,14 L48.524,14 L48.524,11.186 L45.416,11.186 L45.416,14 Z M54.6,14 L53.13,14 L53.13,8.526 L51.198,8.526 L51.198,7.238 L56.546,7.238 L56.546,8.526 L54.6,8.526 L54.6,14 Z M63.35,14 L61.88,14 L61.88,13.272 C61.376,13.846 60.592,14.168 59.696,14.168 C58.59,14.168 57.344,13.426 57.344,11.928 C57.344,10.374 58.59,9.73 59.696,9.73 C60.606,9.73 61.39,10.024 61.88,10.598 L61.88,9.59 C61.88,8.806 61.236,8.33 60.298,8.33 C59.542,8.33 58.884,8.61 58.296,9.184 L57.694,8.162 C58.478,7.42 59.458,7.07 60.536,7.07 C62.034,7.07 63.35,7.7 63.35,9.52 L63.35,14 Z M60.27,13.16 C60.914,13.16 61.544,12.922 61.88,12.46 L61.88,11.438 C61.544,10.976 60.914,10.738 60.27,10.738 C59.444,10.738 58.828,11.214 58.828,11.956 C58.828,12.684 59.444,13.16 60.27,13.16 Z M74.9,14 L73.43,14 L73.43,8.526 L70.322,8.526 L70.322,14 L68.852,14 L68.852,7.238 L74.9,7.238 L74.9,14 Z M79.856,14.168 C77.714,14.168 76.384,12.558 76.384,10.612 C76.384,8.68 77.714,7.07 79.856,7.07 C82.026,7.07 83.342,8.68 83.342,10.612 C83.342,12.558 82.026,14.168 79.856,14.168 Z M79.856,12.866 C81.116,12.866 81.816,11.816 81.816,10.612 C81.816,9.422 81.116,8.372 79.856,8.372 C78.61,8.372 77.91,9.422 77.91,10.612 C77.91,11.816 78.61,12.866 79.856,12.866 Z M90.958,14 L89.166,14 L92.694,6.104 L87.85,6.104 L87.85,4.662 L94.584,4.662 L94.584,5.796 L90.958,14 Z M99.232,14.168 C96.614,14.168 95.494,11.69 95.494,9.338 C95.494,6.986 96.614,4.522 99.232,4.522 C101.85,4.522 102.97,6.986 102.97,9.338 C102.97,11.69 101.85,14.168 99.232,14.168 Z M99.232,12.712 C100.758,12.712 101.304,11.116 101.304,9.338 C101.304,7.56 100.758,5.978 99.232,5.978 C97.706,5.978 97.16,7.56 97.16,9.338 C97.16,11.116 97.706,12.712 99.232,12.712 Z M111.454,14.168 C108.836,14.168 107.716,11.69 107.716,9.338 C107.716,6.986 108.836,4.522 111.454,4.522 C114.072,4.522 115.192,6.986 115.192,9.338 C115.192,11.69 114.072,14.168 111.454,14.168 Z M111.454,12.712 C112.98,12.712 113.526,11.116 113.526,9.338 C113.526,7.56 112.98,5.978 111.454,5.978 C109.928,5.978 109.382,7.56 109.382,9.338 C109.382,11.116 109.928,12.712 111.454,12.712 Z M120.078,14.168 C117.46,14.168 116.34,11.69 116.34,9.338 C116.34,6.986 117.46,4.522 120.078,4.522 C122.696,4.522 123.816,6.986 123.816,9.338 C123.816,11.69 122.696,14.168 120.078,14.168 Z M120.078,12.712 C121.604,12.712 122.15,11.116 122.15,9.338 C122.15,7.56 121.604,5.978 120.078,5.978 C118.552,5.978 118.006,7.56 118.006,9.338 C118.006,11.116 118.552,12.712 120.078,12.712 Z M128.702,14.168 C126.084,14.168 124.964,11.69 124.964,9.338 C124.964,6.986 126.084,4.522 128.702,4.522 C131.32,4.522 132.44,6.986 132.44,9.338 C132.44,11.69 131.32,14.168 128.702,14.168 Z M128.702,12.712 C130.228,12.712 130.774,11.116 130.774,9.338 C130.774,7.56 130.228,5.978 128.702,5.978 C127.176,5.978 126.63,7.56 126.63,9.338 C126.63,11.116 127.176,12.712 128.702,12.712 Z M137.138423,8.62195122 L138.148585,8.62195122 L138.148585,4.08333333 L140.752244,4.08333333 C141.235986,4.08333333 141.677039,4.13787208 142.075415,4.24695122 C142.473791,4.35603036 142.815251,4.52201786 143.099805,4.7449187 C143.384359,4.96781954 143.607257,5.24999829 143.768504,5.59146341 C143.929751,5.93292854 144.010374,6.34078354 144.010374,6.81504065 C144.010374,7.28929776 143.925009,7.70189526 143.754276,8.05284553 C143.583544,8.40379579 143.351161,8.69545954 143.057122,8.92784553 C142.763083,9.16023151 142.41688,9.33333276 142.018504,9.44715447 C141.620128,9.56097618 141.188561,9.61788618 140.723789,9.61788618 L139.286797,9.61788618 L139.286797,11.054878 L141.577447,11.054878 L141.577447,11.9939024 L139.286797,11.9939024 L139.286797,14 L138.148585,14 L138.148585,11.9939024 L137.138423,11.9939024 L137.138423,11.054878 L138.148585,11.054878 L138.148585,9.61788618 L137.138423,9.61788618 L137.138423,8.62195122 Z M140.752244,8.62195122 C141.406719,8.62195122 141.92128,8.47256247 142.295943,8.17378049 C142.670606,7.87499851 142.857935,7.42208976 142.857935,6.81504065 C142.857935,6.20799154 142.670606,5.76693904 142.295943,5.49186992 C141.92128,5.21680079 141.406719,5.07926829 140.752244,5.07926829 L139.286797,5.07926829 L139.286797,8.62195122 L140.752244,8.62195122 Z M2.366,24.662 L2.366,27.14 C2.366,28.484 3.024,29.072 4.256,29.072 C4.984,29.072 5.67,28.932 6.202,28.722 L6.202,24.662 L7.84,24.662 L7.84,34 L6.202,34 L6.202,30.164 C5.656,30.36 4.858,30.514 4.088,30.514 C1.792,30.514 0.728,29.17 0.728,27.14 L0.728,24.662 L2.366,24.662 Z M11.2,34 L9.786,34 L9.786,27.238 L11.256,27.238 L11.256,31.788 L14.364,27.238 L15.834,27.238 L15.834,34 L14.364,34 L14.364,29.324 L11.2,34 Z M20.818,34.168 C18.76,34.168 17.318,32.67 17.318,30.612 C17.318,28.568 18.76,27.07 20.818,27.07 C22.134,27.07 22.932,27.63 23.408,28.274 L22.442,29.17 C22.064,28.638 21.546,28.372 20.888,28.372 C19.656,28.372 18.844,29.296 18.844,30.612 C18.844,31.928 19.656,32.866 20.888,32.866 C21.546,32.866 22.064,32.586 22.442,32.068 L23.408,32.964 C22.932,33.608 22.134,34.168 20.818,34.168 Z M27.398,34 L25.928,34 L25.928,28.526 L23.996,28.526 L23.996,27.238 L29.344,27.238 L29.344,28.526 L27.398,28.526 L27.398,34 Z M36.148,34 L34.678,34 L34.678,33.272 C34.174,33.846 33.39,34.168 32.494,34.168 C31.388,34.168 30.142,33.426 30.142,31.928 C30.142,30.374 31.388,29.73 32.494,29.73 C33.404,29.73 34.188,30.024 34.678,30.598 L34.678,29.59 C34.678,28.806 34.034,28.33 33.096,28.33 C32.34,28.33 31.682,28.61 31.094,29.184 L30.492,28.162 C31.276,27.42 32.256,27.07 33.334,27.07 C34.832,27.07 36.148,27.7 36.148,29.52 L36.148,34 Z M33.068,33.16 C33.712,33.16 34.342,32.922 34.678,32.46 L34.678,31.438 C34.342,30.976 33.712,30.738 33.068,30.738 C32.242,30.738 31.626,31.214 31.626,31.956 C31.626,32.684 32.242,33.16 33.068,33.16 Z M39.494,34 L37.814,34 L39.48,31.48 C38.598,31.284 37.898,30.556 37.898,29.394 C37.898,28.232 38.682,27.238 40.138,27.238 L44.002,27.238 L44.002,34 L42.532,34 L42.532,31.55 L40.978,31.55 L39.494,34 Z M40.32,30.262 L42.532,30.262 L42.532,28.526 L40.32,28.526 C39.76,28.526 39.396,28.89 39.396,29.394 C39.396,29.898 39.732,30.262 40.32,30.262 Z M55.552,34 L54.082,34 L54.082,28.526 L50.974,28.526 L50.974,34 L49.504,34 L49.504,27.238 L55.552,27.238 L55.552,34 Z M61.096,34.168 C60.242,34.168 59.472,33.79 58.926,33.062 L58.926,36.576 L57.456,36.576 L57.456,27.238 L58.926,27.238 L58.926,28.162 C59.43,27.49 60.214,27.07 61.096,27.07 C62.846,27.07 64.092,28.386 64.092,30.612 C64.092,32.838 62.846,34.168 61.096,34.168 Z M60.662,32.866 C61.824,32.866 62.566,31.928 62.566,30.612 C62.566,29.31 61.824,28.372 60.662,28.372 C59.976,28.372 59.248,28.778 58.926,29.282 L58.926,31.956 C59.248,32.446 59.976,32.866 60.662,32.866 Z M66.962,34 L65.548,34 L65.548,27.238 L67.018,27.238 L67.018,31.788 L70.126,27.238 L71.596,27.238 L71.596,34 L70.126,34 L70.126,29.324 L66.962,34 Z M76.552,32.866 C77.812,32.866 78.512,31.816 78.512,30.584 C78.512,29.422 77.812,28.372 76.552,28.372 C75.306,28.372 74.606,29.422 74.606,30.584 C74.606,31.816 75.306,32.866 76.552,32.866 Z M76.552,34.168 C74.368,34.168 73.094,32.502 73.094,30.304 C73.094,27.014 74.228,25.572 76.496,25.292 C77.938,25.082 78.344,24.914 78.344,24.662 L79.786,24.662 C79.786,25.978 78.022,26.328 76.902,26.454 C75.278,26.636 74.578,27.434 74.396,28.26 C74.942,27.518 75.852,27.07 76.832,27.07 C78.75,27.07 80.024,28.722 80.024,30.598 C80.024,32.502 78.75,34.168 76.552,34.168 Z M81.578,27.238 L83.048,27.238 L83.048,29.688 L85.442,29.688 C86.94,29.688 87.682,30.682 87.682,31.844 C87.682,33.006 86.898,34 85.442,34 L81.578,34 L81.578,27.238 Z M85.26,30.976 L83.048,30.976 L83.048,32.712 L85.26,32.712 C85.848,32.712 86.184,32.348 86.184,31.844 C86.184,31.34 85.848,30.976 85.26,30.976 Z M90.174,34 L88.704,34 L88.704,27.238 L90.174,27.238 L90.174,34 Z M91.378,34.168 L91.378,32.964 C91.952,32.964 92.274,32.306 92.498,30.528 L92.904,27.238 L98.126,27.238 L98.126,34 L96.656,34 L96.656,28.526 L94.206,28.526 L93.968,30.696 C93.702,33.146 92.862,34.168 91.378,34.168 Z M100.03,27.238 L101.5,27.238 L101.5,29.688 L103.894,29.688 C105.392,29.688 106.134,30.682 106.134,31.844 C106.134,33.006 105.35,34 103.894,34 L100.03,34 L100.03,27.238 Z M103.712,30.976 L101.5,30.976 L101.5,32.712 L103.712,32.712 C104.3,32.712 104.636,32.348 104.636,31.844 C104.636,31.34 104.3,30.976 103.712,30.976 Z M116.718,34 L115.08,34 L115.08,31.886 L110.628,31.886 L110.628,30.57 L114.464,24.662 L116.718,24.662 L116.718,30.444 L117.964,30.444 L117.964,31.886 L116.718,31.886 L116.718,34 Z M115.08,30.444 L115.08,26.132 L112.238,30.444 L115.08,30.444 Z M122.066,34.154 C120.918,34.154 120.022,33.748 119.392,33.118 L120.148,31.886 C120.638,32.39 121.184,32.698 122.066,32.698 C123.76,32.698 124.53,31.158 124.53,29.632 L124.53,29.352 C124.096,29.982 123.116,30.668 122.024,30.668 C120.344,30.668 118.888,29.632 118.888,27.644 C118.888,25.922 120.246,24.508 122.332,24.508 C125.076,24.508 126.182,26.734 126.182,29.338 C126.182,32.026 124.768,34.154 122.066,34.154 Z M122.458,29.254 C123.256,29.254 124.04,28.834 124.502,28.162 C124.418,27.154 123.858,25.964 122.416,25.964 C121.198,25.964 120.554,26.846 120.554,27.588 C120.554,28.736 121.45,29.254 122.458,29.254 Z M134.68,34.168 C132.062,34.168 130.942,31.69 130.942,29.338 C130.942,26.986 132.062,24.522 134.68,24.522 C137.298,24.522 138.418,26.986 138.418,29.338 C138.418,31.69 137.298,34.168 134.68,34.168 Z M134.68,32.712 C136.206,32.712 136.752,31.116 136.752,29.338 C136.752,27.56 136.206,25.978 134.68,25.978 C133.154,25.978 132.608,27.56 132.608,29.338 C132.608,31.116 133.154,32.712 134.68,32.712 Z M143.304,34.168 C140.686,34.168 139.566,31.69 139.566,29.338 C139.566,26.986 140.686,24.522 143.304,24.522 C145.922,24.522 147.042,26.986 147.042,29.338 C147.042,31.69 145.922,34.168 143.304,34.168 Z M143.304,32.712 C144.83,32.712 145.376,31.116 145.376,29.338 C145.376,27.56 144.83,25.978 143.304,25.978 C141.778,25.978 141.232,27.56 141.232,29.338 C141.232,31.116 141.778,32.712 143.304,32.712 Z M151.928,34.168 C149.31,34.168 148.19,31.69 148.19,29.338 C148.19,26.986 149.31,24.522 151.928,24.522 C154.546,24.522 155.666,26.986 155.666,29.338 C155.666,31.69 154.546,34.168 151.928,34.168 Z M151.928,32.712 C153.454,32.712 154,31.116 154,29.338 C154,27.56 153.454,25.978 151.928,25.978 C150.402,25.978 149.856,27.56 149.856,29.338 C149.856,31.116 150.402,32.712 151.928,32.712 Z M160.364423,28.6219512 L161.374585,28.6219512 L161.374585,24.0833333 L163.978244,24.0833333 C164.461986,24.0833333 164.903039,24.1378721 165.301415,24.2469512 C165.699791,24.3560304 166.041251,24.5220179 166.325805,24.7449187 C166.610359,24.9678195 166.833257,25.2499983 166.994504,25.5914634 C167.155751,25.9329285 167.236374,26.3407835 167.236374,26.8150407 C167.236374,27.2892978 167.151009,27.7018953 166.980276,28.0528455 C166.809544,28.4037958 166.577161,28.6954595 166.283122,28.9278455 C165.989083,29.1602315 165.64288,29.3333328 165.244504,29.4471545 C164.846128,29.5609762 164.414561,29.6178862 163.949789,29.6178862 L162.512797,29.6178862 L162.512797,31.054878 L164.803447,31.054878 L164.803447,31.9939024 L162.512797,31.9939024 L162.512797,34 L161.374585,34 L161.374585,31.9939024 L160.364423,31.9939024 L160.364423,31.054878 L161.374585,31.054878 L161.374585,29.6178862 L160.364423,29.6178862 L160.364423,28.6219512 Z M163.978244,28.6219512 C164.632719,28.6219512 165.14728,28.4725625 165.521943,28.1737805 C165.896606,27.8749985 166.083935,27.4220898 166.083935,26.8150407 C166.083935,26.2079915 165.896606,25.766939 165.521943,25.4918699 C165.14728,25.2168008 164.632719,25.0792683 163.978244,25.0792683 L162.512797,25.0792683 L162.512797,28.6219512 L163.978244,28.6219512 Z" id="2-клиента-по-70-000" fill="#FFFFFF"></path>
                        <g id="Group-21" transform="translate(60.000000, 50.000000)">
                            <rect id="Rectangle-5-Copy-2" fill="url(#linearGradient-3)" opacity="0.300000012" x="10.5" y="3" width="1" height="75"></rect>
                            <circle id="Oval-Copy-4" fill="#00C1F8" cx="11" cy="1.5" r="1.5"></circle>
                            <circle id="Oval-2" stroke-opacity="0.25" stroke="#00C1F8" fill-opacity="0.100000001" fill="url(#linearGradient-6)" cx="11" cy="83" r="11"></circle>
                            <circle id="Oval" fill="#00C1F8" cx="11" cy="83" r="5"></circle>
                            <circle id="Oval-Copy" fill="#FFFFFF" cx="11" cy="83" r="2"></circle>
                        </g>
                    </g>
                </g>
            </g>
        </g>
    </g>
</svg>