<?xml version="1.0" encoding="UTF-8"?>
<svg width="11px" height="15px" viewBox="0 0 11 15" version="1.1" xmlns="http://www.w3.org/2000/svg" xmlns:xlink="http://www.w3.org/1999/xlink">
    <!-- Generator: Sketch 48.1 (47250) - http://www.bohemiancoding.com/sketch -->
    <title>media-play</title>
    <desc>Created with Sketch.</desc>
    <defs></defs>
    <g id="Landing-MHT-Warm-Floor" stroke="none" stroke-width="1" fill="none" fill-rule="evenodd">
        <path d="M1.76,12.5209494 L1.76,2.47907126 L8.6955,7.5000103 L1.76,12.5209494 Z M10.66362,6.86251118 L1.42362,0.17333118 C1.15896,-0.0186280156 0.79816,-0.0541009399 0.49522,0.0817096844 C0.19228,0.217317606 0,0.500492893 0,0.810830304 L0,14.1891903 C0,14.4995277 0.19228,14.782703 0.49522,14.9185136 C0.61754,14.9732433 0.7491,15 0.88,15 C1.07338,15 1.26566,14.9412163 1.42362,14.8266894 L10.66362,8.13771213 C10.87614,7.98386099 11,7.74892888 11,7.5000103 C11,7.25129443 10.87614,7.01615962 10.66362,6.86251118 L10.66362,6.86251118 Z" id="media-play" fill="#FFFFFF"></path>
    </g>
</svg>