<?xml version="1.0" encoding="UTF-8"?>
<svg width="1067px" height="196px" viewBox="0 0 1067 196" version="1.1" xmlns="http://www.w3.org/2000/svg" xmlns:xlink="http://www.w3.org/1999/xlink">
    <!-- Generator: Sketch 48.1 (47250) - http://www.bohemiancoding.com/sketch -->
    <title>Group 7</title>
    <desc>Created with Sketch.</desc>
    <defs></defs>
    <g id="Landing-MHT-Warm-Floor" stroke="none" stroke-width="1" fill="none" fill-rule="evenodd">
        <g id="Group-7" transform="translate(1.000000, -4.000000)">
            <path d="M245.632,14 L243.994,14 L243.994,4.662 L248.096,4.662 C250.056,4.662 251.148,6.006 251.148,7.588 C251.148,9.17 250.042,10.514 248.096,10.514 L245.632,10.514 L245.632,14 Z M247.872,9.072 C248.796,9.072 249.468,8.484 249.468,7.588 C249.468,6.692 248.796,6.104 247.872,6.104 L245.632,6.104 L245.632,9.072 L247.872,9.072 Z M258.064,14 L256.594,14 L256.594,13.272 C256.09,13.846 255.306,14.168 254.41,14.168 C253.304,14.168 252.058,13.426 252.058,11.928 C252.058,10.374 253.304,9.73 254.41,9.73 C255.32,9.73 256.104,10.024 256.594,10.598 L256.594,9.59 C256.594,8.806 255.95,8.33 255.012,8.33 C254.256,8.33 253.598,8.61 253.01,9.184 L252.408,8.162 C253.192,7.42 254.172,7.07 255.25,7.07 C256.748,7.07 258.064,7.7 258.064,9.52 L258.064,14 Z M254.984,13.16 C255.628,13.16 256.258,12.922 256.594,12.46 L256.594,11.438 C256.258,10.976 255.628,10.738 254.984,10.738 C254.158,10.738 253.542,11.214 253.542,11.956 C253.542,12.684 254.158,13.16 254.984,13.16 Z M263.02,12.866 C264.28,12.866 264.98,11.816 264.98,10.584 C264.98,9.422 264.28,8.372 263.02,8.372 C261.774,8.372 261.074,9.422 261.074,10.584 C261.074,11.816 261.774,12.866 263.02,12.866 Z M263.02,14.168 C260.836,14.168 259.562,12.502 259.562,10.304 C259.562,7.014 260.696,5.572 262.964,5.292 C264.406,5.082 264.812,4.914 264.812,4.662 L266.254,4.662 C266.254,5.978 264.49,6.328 263.37,6.454 C261.746,6.636 261.046,7.434 260.864,8.26 C261.41,7.518 262.32,7.07 263.3,7.07 C265.218,7.07 266.492,8.722 266.492,10.598 C266.492,12.502 265.218,14.168 263.02,14.168 Z M271.098,14.168 C268.956,14.168 267.626,12.558 267.626,10.612 C267.626,8.68 268.956,7.07 271.098,7.07 C273.268,7.07 274.584,8.68 274.584,10.612 C274.584,12.558 273.268,14.168 271.098,14.168 Z M271.098,12.866 C272.358,12.866 273.058,11.816 273.058,10.612 C273.058,9.422 272.358,8.372 271.098,8.372 C269.852,8.372 269.152,9.422 269.152,10.612 C269.152,11.816 269.852,12.866 271.098,12.866 Z M278.77,14 L277.3,14 L277.3,8.526 L275.368,8.526 L275.368,7.238 L280.716,7.238 L280.716,8.526 L278.77,8.526 L278.77,14 Z M287.52,14 L286.05,14 L286.05,13.272 C285.546,13.846 284.762,14.168 283.866,14.168 C282.76,14.168 281.514,13.426 281.514,11.928 C281.514,10.374 282.76,9.73 283.866,9.73 C284.776,9.73 285.56,10.024 286.05,10.598 L286.05,9.59 C286.05,8.806 285.406,8.33 284.468,8.33 C283.712,8.33 283.054,8.61 282.466,9.184 L281.864,8.162 C282.648,7.42 283.628,7.07 284.706,7.07 C286.204,7.07 287.52,7.7 287.52,9.52 L287.52,14 Z M284.44,13.16 C285.084,13.16 285.714,12.922 286.05,12.46 L286.05,11.438 C285.714,10.976 285.084,10.738 284.44,10.738 C283.614,10.738 282.998,11.214 282.998,11.956 C282.998,12.684 283.614,13.16 284.44,13.16 Z M295.5,14.168 C293.568,14.168 292.308,12.866 292.07,11.186 L290.894,11.186 L290.894,14 L289.424,14 L289.424,7.238 L290.894,7.238 L290.894,9.898 L292.084,9.898 C292.378,8.302 293.624,7.07 295.5,7.07 C297.67,7.07 298.986,8.68 298.986,10.612 C298.986,12.558 297.67,14.168 295.5,14.168 Z M295.5,12.866 C296.76,12.866 297.46,11.816 297.46,10.612 C297.46,9.422 296.76,8.372 295.5,8.372 C294.254,8.372 293.554,9.422 293.554,10.612 C293.554,11.816 294.254,12.866 295.5,12.866 Z M303.172,14 L301.702,14 L301.702,8.526 L299.77,8.526 L299.77,7.238 L305.118,7.238 L305.118,8.526 L303.172,8.526 L303.172,14 Z M314.064,14 L309.92,14 L309.92,7.238 L313.966,7.238 C315.254,7.238 315.968,8.008 315.968,8.974 C315.968,9.786 315.45,10.332 314.834,10.514 C315.562,10.682 316.108,11.368 316.108,12.166 C316.108,13.216 315.38,14 314.064,14 Z M313.756,12.712 C314.274,12.712 314.596,12.432 314.596,11.956 C314.596,11.55 314.302,11.186 313.756,11.186 L311.39,11.186 L311.39,12.712 L313.756,12.712 Z M313.714,9.898 C314.19,9.898 314.47,9.604 314.47,9.226 C314.47,8.806 314.19,8.526 313.714,8.526 L311.39,8.526 L311.39,9.898 L313.714,9.898 Z M317.228,15.722 L317.228,12.782 C317.802,12.642 318.124,12.306 318.348,10.528 L318.754,7.238 L323.976,7.238 L323.976,12.712 L324.718,12.712 L324.718,15.722 L323.248,15.722 L323.248,14 L318.698,14 L318.698,15.722 L317.228,15.722 Z M320.056,8.526 L319.818,10.696 C319.72,11.634 319.398,12.292 318.922,12.712 L322.506,12.712 L322.506,8.526 L320.056,8.526 Z M330.066,14 L325.922,14 L325.922,7.238 L329.968,7.238 C331.256,7.238 331.97,8.008 331.97,8.974 C331.97,9.786 331.452,10.332 330.836,10.514 C331.564,10.682 332.11,11.368 332.11,12.166 C332.11,13.216 331.382,14 330.066,14 Z M329.758,12.712 C330.276,12.712 330.598,12.432 330.598,11.956 C330.598,11.55 330.304,11.186 329.758,11.186 L327.392,11.186 L327.392,12.712 L329.758,12.712 Z M329.716,9.898 C330.192,9.898 330.472,9.604 330.472,9.226 C330.472,8.806 330.192,8.526 329.716,8.526 L327.392,8.526 L327.392,9.898 L329.716,9.898 Z M336.982,14.168 C334.84,14.168 333.51,12.558 333.51,10.612 C333.51,8.68 334.84,7.07 336.982,7.07 C339.152,7.07 340.468,8.68 340.468,10.612 C340.468,12.558 339.152,14.168 336.982,14.168 Z M336.982,12.866 C338.242,12.866 338.942,11.816 338.942,10.612 C338.942,9.422 338.242,8.372 336.982,8.372 C335.736,8.372 335.036,9.422 335.036,10.612 C335.036,11.816 335.736,12.866 336.982,12.866 Z M345.074,14.168 C343.044,14.168 341.532,12.754 341.532,10.612 C341.532,8.652 342.96,7.07 344.962,7.07 C346.992,7.07 348.294,8.624 348.294,10.752 L348.294,11.102 L343.072,11.102 C343.184,12.124 343.954,12.964 345.228,12.964 C345.886,12.964 346.67,12.698 347.146,12.222 L347.818,13.188 C347.146,13.832 346.152,14.168 345.074,14.168 Z M346.866,10.066 C346.838,9.268 346.292,8.274 344.962,8.274 C343.702,8.274 343.128,9.24 343.058,10.066 L346.866,10.066 Z M357.324,14 L355.854,14 L355.854,9.296 L353.838,14 L353.25,14 L351.22,9.296 L351.22,14 L349.75,14 L349.75,7.238 L351.668,7.238 L353.544,11.606 L355.392,7.238 L357.324,7.238 L357.324,14 Z M247.032,34.168 C245.366,34.168 243.966,33.496 243.336,32.656 L244.218,31.578 C244.82,32.278 245.982,32.712 246.976,32.712 C248.306,32.712 249.104,32.152 249.104,31.284 C249.104,30.36 248.278,29.968 246.85,29.968 L244.974,29.968 L244.974,28.526 L246.85,28.526 C248.04,28.526 248.95,28.148 248.95,27.294 C248.95,26.426 248.026,25.978 246.878,25.978 C245.926,25.978 244.974,26.342 244.302,27.014 L243.462,25.992 C244.176,25.152 245.478,24.522 247.032,24.522 C249.048,24.522 250.588,25.474 250.588,27.042 C250.588,28.288 249.524,29.016 248.558,29.184 C249.468,29.268 250.728,30.01 250.728,31.452 C250.728,33.034 249.188,34.168 247.032,34.168 Z M257.938,34 L256.468,34 L256.468,33.272 C255.964,33.846 255.18,34.168 254.284,34.168 C253.178,34.168 251.932,33.426 251.932,31.928 C251.932,30.374 253.178,29.73 254.284,29.73 C255.194,29.73 255.978,30.024 256.468,30.598 L256.468,29.59 C256.468,28.806 255.824,28.33 254.886,28.33 C254.13,28.33 253.472,28.61 252.884,29.184 L252.282,28.162 C253.066,27.42 254.046,27.07 255.124,27.07 C256.622,27.07 257.938,27.7 257.938,29.52 L257.938,34 Z M254.858,33.16 C255.502,33.16 256.132,32.922 256.468,32.46 L256.468,31.438 C256.132,30.976 255.502,30.738 254.858,30.738 C254.032,30.738 253.416,31.214 253.416,31.956 C253.416,32.684 254.032,33.16 254.858,33.16 Z M263.482,34.168 C262.628,34.168 261.858,33.79 261.312,33.062 L261.312,36.576 L259.842,36.576 L259.842,27.238 L261.312,27.238 L261.312,28.162 C261.816,27.49 262.6,27.07 263.482,27.07 C265.232,27.07 266.478,28.386 266.478,30.612 C266.478,32.838 265.232,34.168 263.482,34.168 Z M263.048,32.866 C264.21,32.866 264.952,31.928 264.952,30.612 C264.952,29.31 264.21,28.372 263.048,28.372 C262.362,28.372 261.634,28.778 261.312,29.282 L261.312,31.956 C261.634,32.446 262.362,32.866 263.048,32.866 Z M273.534,34 L272.064,34 L272.064,33.272 C271.56,33.846 270.776,34.168 269.88,34.168 C268.774,34.168 267.528,33.426 267.528,31.928 C267.528,30.374 268.774,29.73 269.88,29.73 C270.79,29.73 271.574,30.024 272.064,30.598 L272.064,29.59 C272.064,28.806 271.42,28.33 270.482,28.33 C269.726,28.33 269.068,28.61 268.48,29.184 L267.878,28.162 C268.662,27.42 269.642,27.07 270.72,27.07 C272.218,27.07 273.534,27.7 273.534,29.52 L273.534,34 Z M270.454,33.16 C271.098,33.16 271.728,32.922 272.064,32.46 L272.064,31.438 C271.728,30.976 271.098,30.738 270.454,30.738 C269.628,30.738 269.012,31.214 269.012,31.956 C269.012,32.684 269.628,33.16 270.454,33.16 Z M278.49,32.866 C279.75,32.866 280.45,31.816 280.45,30.584 C280.45,29.422 279.75,28.372 278.49,28.372 C277.244,28.372 276.544,29.422 276.544,30.584 C276.544,31.816 277.244,32.866 278.49,32.866 Z M278.49,34.168 C276.306,34.168 275.032,32.502 275.032,30.304 C275.032,27.014 276.166,25.572 278.434,25.292 C279.876,25.082 280.282,24.914 280.282,24.662 L281.724,24.662 C281.724,25.978 279.96,26.328 278.84,26.454 C277.216,26.636 276.516,27.434 276.334,28.26 C276.88,27.518 277.79,27.07 278.77,27.07 C280.688,27.07 281.962,28.722 281.962,30.598 C281.962,32.502 280.688,34.168 278.49,34.168 Z M286.568,34.168 C284.426,34.168 283.096,32.558 283.096,30.612 C283.096,28.68 284.426,27.07 286.568,27.07 C288.738,27.07 290.054,28.68 290.054,30.612 C290.054,32.558 288.738,34.168 286.568,34.168 Z M286.568,32.866 C287.828,32.866 288.528,31.816 288.528,30.612 C288.528,29.422 287.828,28.372 286.568,28.372 C285.322,28.372 284.622,29.422 284.622,30.612 C284.622,31.816 285.322,32.866 286.568,32.866 Z M294.24,34 L292.77,34 L292.77,28.526 L290.838,28.526 L290.838,27.238 L296.186,27.238 L296.186,28.526 L294.24,28.526 L294.24,34 Z M300.442,34.168 C298.3,34.168 296.97,32.558 296.97,30.612 C296.97,28.68 298.3,27.07 300.442,27.07 C302.612,27.07 303.928,28.68 303.928,30.612 C303.928,32.558 302.612,34.168 300.442,34.168 Z M300.442,32.866 C301.702,32.866 302.402,31.816 302.402,30.612 C302.402,29.422 301.702,28.372 300.442,28.372 C299.196,28.372 298.496,29.422 298.496,30.612 C298.496,31.816 299.196,32.866 300.442,32.866 Z M311.74,34 L309.892,34 L307.82,31.214 L306.882,32.18 L306.882,34 L305.412,34 L305.412,27.238 L306.882,27.238 L306.882,30.5 L309.864,27.238 L311.684,27.238 L308.87,30.304 L311.74,34 Z M319.426,34.168 C317.284,34.168 315.954,32.558 315.954,30.612 C315.954,28.68 317.284,27.07 319.426,27.07 C321.596,27.07 322.912,28.68 322.912,30.612 C322.912,32.558 321.596,34.168 319.426,34.168 Z M319.426,32.866 C320.686,32.866 321.386,31.816 321.386,30.612 C321.386,29.422 320.686,28.372 319.426,28.372 C318.18,28.372 317.48,29.422 317.48,30.612 C317.48,31.816 318.18,32.866 319.426,32.866 Z M330.724,34 L328.876,34 L326.804,31.214 L325.866,32.18 L325.866,34 L324.396,34 L324.396,27.238 L325.866,27.238 L325.866,30.5 L328.848,27.238 L330.668,27.238 L327.854,30.304 L330.724,34 Z M334.812,34.168 C332.67,34.168 331.34,32.558 331.34,30.612 C331.34,28.68 332.67,27.07 334.812,27.07 C336.982,27.07 338.298,28.68 338.298,30.612 C338.298,32.558 336.982,34.168 334.812,34.168 Z M334.812,32.866 C336.072,32.866 336.772,31.816 336.772,30.612 C336.772,29.422 336.072,28.372 334.812,28.372 C333.566,28.372 332.866,29.422 332.866,30.612 C332.866,31.816 333.566,32.866 334.812,32.866 Z M339.082,34.168 L339.082,32.964 C339.656,32.964 339.978,32.306 340.202,30.528 L340.608,27.238 L345.83,27.238 L345.83,34 L344.36,34 L344.36,28.526 L341.91,28.526 L341.672,30.696 C341.406,33.146 340.566,34.168 339.082,34.168 Z M350.786,34.168 C348.644,34.168 347.314,32.558 347.314,30.612 C347.314,28.68 348.644,27.07 350.786,27.07 C352.956,27.07 354.272,28.68 354.272,30.612 C354.272,32.558 352.956,34.168 350.786,34.168 Z M350.786,32.866 C352.046,32.866 352.746,31.816 352.746,30.612 C352.746,29.422 352.046,28.372 350.786,28.372 C349.54,28.372 348.84,29.422 348.84,30.612 C348.84,31.816 349.54,32.866 350.786,32.866 Z M365.864,34 L359.102,34 L359.102,32.712 C362.728,29.968 364.142,28.75 364.142,27.406 C364.142,26.426 363.302,25.978 362.448,25.978 C361.356,25.978 360.516,26.426 359.928,27.098 L358.976,26.02 C359.802,25.026 361.118,24.522 362.42,24.522 C364.226,24.522 365.808,25.544 365.808,27.406 C365.808,29.128 364.226,30.668 361.72,32.558 L365.864,32.558 L365.864,34 Z M371.044,34.168 C368.426,34.168 367.306,31.69 367.306,29.338 C367.306,26.986 368.426,24.522 371.044,24.522 C373.662,24.522 374.782,26.986 374.782,29.338 C374.782,31.69 373.662,34.168 371.044,34.168 Z M371.044,32.712 C372.57,32.712 373.116,31.116 373.116,29.338 C373.116,27.56 372.57,25.978 371.044,25.978 C369.518,25.978 368.972,27.56 368.972,29.338 C368.972,31.116 369.518,32.712 371.044,32.712 Z M379.668,34.168 C377.05,34.168 375.93,31.69 375.93,29.338 C375.93,26.986 377.05,24.522 379.668,24.522 C382.286,24.522 383.406,26.986 383.406,29.338 C383.406,31.69 382.286,34.168 379.668,34.168 Z M379.668,32.712 C381.194,32.712 381.74,31.116 381.74,29.338 C381.74,27.56 381.194,25.978 379.668,25.978 C378.142,25.978 377.596,27.56 377.596,29.338 C377.596,31.116 378.142,32.712 379.668,32.712 Z M391.89,34.168 C389.272,34.168 388.152,31.69 388.152,29.338 C388.152,26.986 389.272,24.522 391.89,24.522 C394.508,24.522 395.628,26.986 395.628,29.338 C395.628,31.69 394.508,34.168 391.89,34.168 Z M391.89,32.712 C393.416,32.712 393.962,31.116 393.962,29.338 C393.962,27.56 393.416,25.978 391.89,25.978 C390.364,25.978 389.818,27.56 389.818,29.338 C389.818,31.116 390.364,32.712 391.89,32.712 Z M400.514,34.168 C397.896,34.168 396.776,31.69 396.776,29.338 C396.776,26.986 397.896,24.522 400.514,24.522 C403.132,24.522 404.252,26.986 404.252,29.338 C404.252,31.69 403.132,34.168 400.514,34.168 Z M400.514,32.712 C402.04,32.712 402.586,31.116 402.586,29.338 C402.586,27.56 402.04,25.978 400.514,25.978 C398.988,25.978 398.442,27.56 398.442,29.338 C398.442,31.116 398.988,32.712 400.514,32.712 Z M409.138,34.168 C406.52,34.168 405.4,31.69 405.4,29.338 C405.4,26.986 406.52,24.522 409.138,24.522 C411.756,24.522 412.876,26.986 412.876,29.338 C412.876,31.69 411.756,34.168 409.138,34.168 Z M409.138,32.712 C410.664,32.712 411.21,31.116 411.21,29.338 C411.21,27.56 410.664,25.978 409.138,25.978 C407.612,25.978 407.066,27.56 407.066,29.338 C407.066,31.116 407.612,32.712 409.138,32.712 Z M417.574423,28.6219512 L418.584585,28.6219512 L418.584585,24.0833333 L421.188244,24.0833333 C421.671986,24.0833333 422.113039,24.1378721 422.511415,24.2469512 C422.909791,24.3560304 423.251251,24.5220179 423.535805,24.7449187 C423.820359,24.9678195 424.043257,25.2499983 424.204504,25.5914634 C424.365751,25.9329285 424.446374,26.3407835 424.446374,26.8150407 C424.446374,27.2892978 424.361009,27.7018953 424.190276,28.0528455 C424.019544,28.4037958 423.787161,28.6954595 423.493122,28.9278455 C423.199083,29.1602315 422.85288,29.3333328 422.454504,29.4471545 C422.056128,29.5609762 421.624561,29.6178862 421.159789,29.6178862 L419.722797,29.6178862 L419.722797,31.054878 L422.013447,31.054878 L422.013447,31.9939024 L419.722797,31.9939024 L419.722797,34 L418.584585,34 L418.584585,31.9939024 L417.574423,31.9939024 L417.574423,31.054878 L418.584585,31.054878 L418.584585,29.6178862 L417.574423,29.6178862 L417.574423,28.6219512 Z M421.188244,28.6219512 C421.842719,28.6219512 422.35728,28.4725625 422.731943,28.1737805 C423.106606,27.8749985 423.293935,27.4220898 423.293935,26.8150407 C423.293935,26.2079915 423.106606,25.766939 422.731943,25.4918699 C422.35728,25.2168008 421.842719,25.0792683 421.188244,25.0792683 L419.722797,25.0792683 L419.722797,28.6219512 L421.188244,28.6219512 Z M429.648569,34.28 L428.556569,34.28 L431.874569,24.382 L432.966569,24.382 L429.648569,34.28 Z M445.090569,34 L443.620569,34 L443.620569,29.296 L441.604569,34 L441.016569,34 L438.986569,29.296 L438.986569,34 L437.516569,34 L437.516569,27.238 L439.434569,27.238 L441.310569,31.606 L443.158569,27.238 L445.090569,27.238 L445.090569,34 Z M450.116569,34.168 C448.086569,34.168 446.574569,32.754 446.574569,30.612 C446.574569,28.652 448.002569,27.07 450.004569,27.07 C452.034569,27.07 453.336569,28.624 453.336569,30.752 L453.336569,31.102 L448.114569,31.102 C448.226569,32.124 448.996569,32.964 450.270569,32.964 C450.928569,32.964 451.712569,32.698 452.188569,32.222 L452.860569,33.188 C452.188569,33.832 451.194569,34.168 450.116569,34.168 Z M451.908569,30.066 C451.880569,29.268 451.334569,28.274 450.004569,28.274 C448.744569,28.274 448.170569,29.24 448.100569,30.066 L451.908569,30.066 Z M457.872569,34.168 C455.814569,34.168 454.372569,32.67 454.372569,30.612 C454.372569,28.568 455.814569,27.07 457.872569,27.07 C459.188569,27.07 459.986569,27.63 460.462569,28.274 L459.496569,29.17 C459.118569,28.638 458.600569,28.372 457.942569,28.372 C456.710569,28.372 455.898569,29.296 455.898569,30.612 C455.898569,31.928 456.710569,32.866 457.942569,32.866 C458.600569,32.866 459.118569,32.586 459.496569,32.068 L460.462569,32.964 C459.986569,33.608 459.188569,34.168 457.872569,34.168 Z" id="Работают-вдвоем-Зара" fill="#FFFFFF"></path>
            <path d="M2.632,177 L0.994,177 L0.994,167.662 L5.096,167.662 C7.056,167.662 8.148,169.006 8.148,170.588 C8.148,172.17 7.042,173.514 5.096,173.514 L2.632,173.514 L2.632,177 Z M4.872,172.072 C5.796,172.072 6.468,171.484 6.468,170.588 C6.468,169.692 5.796,169.104 4.872,169.104 L2.632,169.104 L2.632,172.072 L4.872,172.072 Z M15.064,177 L13.594,177 L13.594,176.272 C13.09,176.846 12.306,177.168 11.41,177.168 C10.304,177.168 9.058,176.426 9.058,174.928 C9.058,173.374 10.304,172.73 11.41,172.73 C12.32,172.73 13.104,173.024 13.594,173.598 L13.594,172.59 C13.594,171.806 12.95,171.33 12.012,171.33 C11.256,171.33 10.598,171.61 10.01,172.184 L9.408,171.162 C10.192,170.42 11.172,170.07 12.25,170.07 C13.748,170.07 15.064,170.7 15.064,172.52 L15.064,177 Z M11.984,176.16 C12.628,176.16 13.258,175.922 13.594,175.46 L13.594,174.438 C13.258,173.976 12.628,173.738 11.984,173.738 C11.158,173.738 10.542,174.214 10.542,174.956 C10.542,175.684 11.158,176.16 11.984,176.16 Z M20.02,175.866 C21.28,175.866 21.98,174.816 21.98,173.584 C21.98,172.422 21.28,171.372 20.02,171.372 C18.774,171.372 18.074,172.422 18.074,173.584 C18.074,174.816 18.774,175.866 20.02,175.866 Z M20.02,177.168 C17.836,177.168 16.562,175.502 16.562,173.304 C16.562,170.014 17.696,168.572 19.964,168.292 C21.406,168.082 21.812,167.914 21.812,167.662 L23.254,167.662 C23.254,168.978 21.49,169.328 20.37,169.454 C18.746,169.636 18.046,170.434 17.864,171.26 C18.41,170.518 19.32,170.07 20.3,170.07 C22.218,170.07 23.492,171.722 23.492,173.598 C23.492,175.502 22.218,177.168 20.02,177.168 Z M28.098,177.168 C25.956,177.168 24.626,175.558 24.626,173.612 C24.626,171.68 25.956,170.07 28.098,170.07 C30.268,170.07 31.584,171.68 31.584,173.612 C31.584,175.558 30.268,177.168 28.098,177.168 Z M28.098,175.866 C29.358,175.866 30.058,174.816 30.058,173.612 C30.058,172.422 29.358,171.372 28.098,171.372 C26.852,171.372 26.152,172.422 26.152,173.612 C26.152,174.816 26.852,175.866 28.098,175.866 Z M35.77,177 L34.3,177 L34.3,171.526 L32.368,171.526 L32.368,170.238 L37.716,170.238 L37.716,171.526 L35.77,171.526 L35.77,177 Z M44.52,177 L43.05,177 L43.05,176.272 C42.546,176.846 41.762,177.168 40.866,177.168 C39.76,177.168 38.514,176.426 38.514,174.928 C38.514,173.374 39.76,172.73 40.866,172.73 C41.776,172.73 42.56,173.024 43.05,173.598 L43.05,172.59 C43.05,171.806 42.406,171.33 41.468,171.33 C40.712,171.33 40.054,171.61 39.466,172.184 L38.864,171.162 C39.648,170.42 40.628,170.07 41.706,170.07 C43.204,170.07 44.52,170.7 44.52,172.52 L44.52,177 Z M41.44,176.16 C42.084,176.16 42.714,175.922 43.05,175.46 L43.05,174.438 C42.714,173.976 42.084,173.738 41.44,173.738 C40.614,173.738 39.998,174.214 39.998,174.956 C39.998,175.684 40.614,176.16 41.44,176.16 Z M49.546,177.168 C47.516,177.168 46.004,175.754 46.004,173.612 C46.004,171.652 47.432,170.07 49.434,170.07 C51.464,170.07 52.766,171.624 52.766,173.752 L52.766,174.102 L47.544,174.102 C47.656,175.124 48.426,175.964 49.7,175.964 C50.358,175.964 51.142,175.698 51.618,175.222 L52.29,176.188 C51.618,176.832 50.624,177.168 49.546,177.168 Z M51.338,173.066 C51.31,172.268 50.764,171.274 49.434,171.274 C48.174,171.274 47.6,172.24 47.53,173.066 L51.338,173.066 Z M56.924,177 L55.454,177 L55.454,171.526 L53.522,171.526 L53.522,170.238 L58.87,170.238 L58.87,171.526 L56.924,171.526 L56.924,177 Z M66.752,177.168 C64.694,177.168 63.252,175.67 63.252,173.612 C63.252,171.568 64.694,170.07 66.752,170.07 C68.068,170.07 68.866,170.63 69.342,171.274 L68.376,172.17 C67.998,171.638 67.48,171.372 66.822,171.372 C65.59,171.372 64.778,172.296 64.778,173.612 C64.778,174.928 65.59,175.866 66.822,175.866 C67.48,175.866 67.998,175.586 68.376,175.068 L69.342,175.964 C68.866,176.608 68.068,177.168 66.752,177.168 Z M76.23,177 L74.76,177 L74.76,176.272 C74.256,176.846 73.472,177.168 72.576,177.168 C71.47,177.168 70.224,176.426 70.224,174.928 C70.224,173.374 71.47,172.73 72.576,172.73 C73.486,172.73 74.27,173.024 74.76,173.598 L74.76,172.59 C74.76,171.806 74.116,171.33 73.178,171.33 C72.422,171.33 71.764,171.61 71.176,172.184 L70.574,171.162 C71.358,170.42 72.338,170.07 73.416,170.07 C74.914,170.07 76.23,170.7 76.23,172.52 L76.23,177 Z M73.15,176.16 C73.794,176.16 74.424,175.922 74.76,175.46 L74.76,174.438 C74.424,173.976 73.794,173.738 73.15,173.738 C72.324,173.738 71.708,174.214 71.708,174.956 C71.708,175.684 72.324,176.16 73.15,176.16 Z M85.708,177 L84.238,177 L84.238,172.296 L82.222,177 L81.634,177 L79.604,172.296 L79.604,177 L78.134,177 L78.134,170.238 L80.052,170.238 L81.928,174.606 L83.776,170.238 L85.708,170.238 L85.708,177 Z M4.032,197.168 C2.366,197.168 0.966,196.496 0.336,195.656 L1.218,194.578 C1.82,195.278 2.982,195.712 3.976,195.712 C5.306,195.712 6.104,195.152 6.104,194.284 C6.104,193.36 5.278,192.968 3.85,192.968 L1.974,192.968 L1.974,191.526 L3.85,191.526 C5.04,191.526 5.95,191.148 5.95,190.294 C5.95,189.426 5.026,188.978 3.878,188.978 C2.926,188.978 1.974,189.342 1.302,190.014 L0.462,188.992 C1.176,188.152 2.478,187.522 4.032,187.522 C6.048,187.522 7.588,188.474 7.588,190.042 C7.588,191.288 6.524,192.016 5.558,192.184 C6.468,192.268 7.728,193.01 7.728,194.452 C7.728,196.034 6.188,197.168 4.032,197.168 Z M14.938,197 L13.468,197 L13.468,196.272 C12.964,196.846 12.18,197.168 11.284,197.168 C10.178,197.168 8.932,196.426 8.932,194.928 C8.932,193.374 10.178,192.73 11.284,192.73 C12.194,192.73 12.978,193.024 13.468,193.598 L13.468,192.59 C13.468,191.806 12.824,191.33 11.886,191.33 C11.13,191.33 10.472,191.61 9.884,192.184 L9.282,191.162 C10.066,190.42 11.046,190.07 12.124,190.07 C13.622,190.07 14.938,190.7 14.938,192.52 L14.938,197 Z M11.858,196.16 C12.502,196.16 13.132,195.922 13.468,195.46 L13.468,194.438 C13.132,193.976 12.502,193.738 11.858,193.738 C11.032,193.738 10.416,194.214 10.416,194.956 C10.416,195.684 11.032,196.16 11.858,196.16 Z M20.482,197.168 C19.628,197.168 18.858,196.79 18.312,196.062 L18.312,199.576 L16.842,199.576 L16.842,190.238 L18.312,190.238 L18.312,191.162 C18.816,190.49 19.6,190.07 20.482,190.07 C22.232,190.07 23.478,191.386 23.478,193.612 C23.478,195.838 22.232,197.168 20.482,197.168 Z M20.048,195.866 C21.21,195.866 21.952,194.928 21.952,193.612 C21.952,192.31 21.21,191.372 20.048,191.372 C19.362,191.372 18.634,191.778 18.312,192.282 L18.312,194.956 C18.634,195.446 19.362,195.866 20.048,195.866 Z M30.534,197 L29.064,197 L29.064,196.272 C28.56,196.846 27.776,197.168 26.88,197.168 C25.774,197.168 24.528,196.426 24.528,194.928 C24.528,193.374 25.774,192.73 26.88,192.73 C27.79,192.73 28.574,193.024 29.064,193.598 L29.064,192.59 C29.064,191.806 28.42,191.33 27.482,191.33 C26.726,191.33 26.068,191.61 25.48,192.184 L24.878,191.162 C25.662,190.42 26.642,190.07 27.72,190.07 C29.218,190.07 30.534,190.7 30.534,192.52 L30.534,197 Z M27.454,196.16 C28.098,196.16 28.728,195.922 29.064,195.46 L29.064,194.438 C28.728,193.976 28.098,193.738 27.454,193.738 C26.628,193.738 26.012,194.214 26.012,194.956 C26.012,195.684 26.628,196.16 27.454,196.16 Z M35.49,195.866 C36.75,195.866 37.45,194.816 37.45,193.584 C37.45,192.422 36.75,191.372 35.49,191.372 C34.244,191.372 33.544,192.422 33.544,193.584 C33.544,194.816 34.244,195.866 35.49,195.866 Z M35.49,197.168 C33.306,197.168 32.032,195.502 32.032,193.304 C32.032,190.014 33.166,188.572 35.434,188.292 C36.876,188.082 37.282,187.914 37.282,187.662 L38.724,187.662 C38.724,188.978 36.96,189.328 35.84,189.454 C34.216,189.636 33.516,190.434 33.334,191.26 C33.88,190.518 34.79,190.07 35.77,190.07 C37.688,190.07 38.962,191.722 38.962,193.598 C38.962,195.502 37.688,197.168 35.49,197.168 Z M43.568,197.168 C41.426,197.168 40.096,195.558 40.096,193.612 C40.096,191.68 41.426,190.07 43.568,190.07 C45.738,190.07 47.054,191.68 47.054,193.612 C47.054,195.558 45.738,197.168 43.568,197.168 Z M43.568,195.866 C44.828,195.866 45.528,194.816 45.528,193.612 C45.528,192.422 44.828,191.372 43.568,191.372 C42.322,191.372 41.622,192.422 41.622,193.612 C41.622,194.816 42.322,195.866 43.568,195.866 Z M51.24,197 L49.77,197 L49.77,191.526 L47.838,191.526 L47.838,190.238 L53.186,190.238 L53.186,191.526 L51.24,191.526 L51.24,197 Z M57.442,197.168 C55.3,197.168 53.97,195.558 53.97,193.612 C53.97,191.68 55.3,190.07 57.442,190.07 C59.612,190.07 60.928,191.68 60.928,193.612 C60.928,195.558 59.612,197.168 57.442,197.168 Z M57.442,195.866 C58.702,195.866 59.402,194.816 59.402,193.612 C59.402,192.422 58.702,191.372 57.442,191.372 C56.196,191.372 55.496,192.422 55.496,193.612 C55.496,194.816 56.196,195.866 57.442,195.866 Z M68.74,197 L66.892,197 L64.82,194.214 L63.882,195.18 L63.882,197 L62.412,197 L62.412,190.238 L63.882,190.238 L63.882,193.5 L66.864,190.238 L68.684,190.238 L65.87,193.304 L68.74,197 Z M76.426,197.168 C74.284,197.168 72.954,195.558 72.954,193.612 C72.954,191.68 74.284,190.07 76.426,190.07 C78.596,190.07 79.912,191.68 79.912,193.612 C79.912,195.558 78.596,197.168 76.426,197.168 Z M76.426,195.866 C77.686,195.866 78.386,194.816 78.386,193.612 C78.386,192.422 77.686,191.372 76.426,191.372 C75.18,191.372 74.48,192.422 74.48,193.612 C74.48,194.816 75.18,195.866 76.426,195.866 Z M87.724,197 L85.876,197 L83.804,194.214 L82.866,195.18 L82.866,197 L81.396,197 L81.396,190.238 L82.866,190.238 L82.866,193.5 L85.848,190.238 L87.668,190.238 L84.854,193.304 L87.724,197 Z M91.812,197.168 C89.67,197.168 88.34,195.558 88.34,193.612 C88.34,191.68 89.67,190.07 91.812,190.07 C93.982,190.07 95.298,191.68 95.298,193.612 C95.298,195.558 93.982,197.168 91.812,197.168 Z M91.812,195.866 C93.072,195.866 93.772,194.816 93.772,193.612 C93.772,192.422 93.072,191.372 91.812,191.372 C90.566,191.372 89.866,192.422 89.866,193.612 C89.866,194.816 90.566,195.866 91.812,195.866 Z M96.082,197.168 L96.082,195.964 C96.656,195.964 96.978,195.306 97.202,193.528 L97.608,190.238 L102.83,190.238 L102.83,197 L101.36,197 L101.36,191.526 L98.91,191.526 L98.672,193.696 C98.406,196.146 97.566,197.168 96.082,197.168 Z M107.786,197.168 C105.644,197.168 104.314,195.558 104.314,193.612 C104.314,191.68 105.644,190.07 107.786,190.07 C109.956,190.07 111.272,191.68 111.272,193.612 C111.272,195.558 109.956,197.168 107.786,197.168 Z M107.786,195.866 C109.046,195.866 109.746,194.816 109.746,193.612 C109.746,192.422 109.046,191.372 107.786,191.372 C106.54,191.372 105.84,192.422 105.84,193.612 C105.84,194.816 106.54,195.866 107.786,195.866 Z M119.728,197 L118.09,197 L118.09,189.79 L116.564,191.372 L115.612,190.378 L118.3,187.662 L119.728,187.662 L119.728,197 Z M124.978,197.168 C123.368,197.168 122.262,196.622 121.506,195.726 L122.444,194.606 C123.074,195.32 123.914,195.712 124.964,195.712 C126.14,195.712 126.882,194.984 126.882,194.074 C126.882,193.066 126.154,192.408 125.006,192.408 C124.208,192.408 123.55,192.66 122.962,193.22 L121.8,192.884 L121.8,187.662 L127.918,187.662 L127.918,189.104 L123.438,189.104 L123.438,191.806 C123.886,191.358 124.656,190.994 125.552,190.994 C127.12,190.994 128.534,192.1 128.534,194.004 C128.534,195.95 127.064,197.168 124.978,197.168 Z M133.434,197.168 C130.816,197.168 129.696,194.69 129.696,192.338 C129.696,189.986 130.816,187.522 133.434,187.522 C136.052,187.522 137.172,189.986 137.172,192.338 C137.172,194.69 136.052,197.168 133.434,197.168 Z M133.434,195.712 C134.96,195.712 135.506,194.116 135.506,192.338 C135.506,190.56 134.96,188.978 133.434,188.978 C131.908,188.978 131.362,190.56 131.362,192.338 C131.362,194.116 131.908,195.712 133.434,195.712 Z M145.656,197.168 C143.038,197.168 141.918,194.69 141.918,192.338 C141.918,189.986 143.038,187.522 145.656,187.522 C148.274,187.522 149.394,189.986 149.394,192.338 C149.394,194.69 148.274,197.168 145.656,197.168 Z M145.656,195.712 C147.182,195.712 147.728,194.116 147.728,192.338 C147.728,190.56 147.182,188.978 145.656,188.978 C144.13,188.978 143.584,190.56 143.584,192.338 C143.584,194.116 144.13,195.712 145.656,195.712 Z M154.28,197.168 C151.662,197.168 150.542,194.69 150.542,192.338 C150.542,189.986 151.662,187.522 154.28,187.522 C156.898,187.522 158.018,189.986 158.018,192.338 C158.018,194.69 156.898,197.168 154.28,197.168 Z M154.28,195.712 C155.806,195.712 156.352,194.116 156.352,192.338 C156.352,190.56 155.806,188.978 154.28,188.978 C152.754,188.978 152.208,190.56 152.208,192.338 C152.208,194.116 152.754,195.712 154.28,195.712 Z M162.904,197.168 C160.286,197.168 159.166,194.69 159.166,192.338 C159.166,189.986 160.286,187.522 162.904,187.522 C165.522,187.522 166.642,189.986 166.642,192.338 C166.642,194.69 165.522,197.168 162.904,197.168 Z M162.904,195.712 C164.43,195.712 164.976,194.116 164.976,192.338 C164.976,190.56 164.43,188.978 162.904,188.978 C161.378,188.978 160.832,190.56 160.832,192.338 C160.832,194.116 161.378,195.712 162.904,195.712 Z M171.340423,191.621951 L172.350585,191.621951 L172.350585,187.083333 L174.954244,187.083333 C175.437986,187.083333 175.879039,187.137872 176.277415,187.246951 C176.675791,187.35603 177.017251,187.522018 177.301805,187.744919 C177.586359,187.96782 177.809257,188.249998 177.970504,188.591463 C178.131751,188.932929 178.212374,189.340784 178.212374,189.815041 C178.212374,190.289298 178.127009,190.701895 177.956276,191.052846 C177.785544,191.403796 177.553161,191.69546 177.259122,191.927846 C176.965083,192.160232 176.61888,192.333333 176.220504,192.447154 C175.822128,192.560976 175.390561,192.617886 174.925789,192.617886 L173.488797,192.617886 L173.488797,194.054878 L175.779447,194.054878 L175.779447,194.993902 L173.488797,194.993902 L173.488797,197 L172.350585,197 L172.350585,194.993902 L171.340423,194.993902 L171.340423,194.054878 L172.350585,194.054878 L172.350585,192.617886 L171.340423,192.617886 L171.340423,191.621951 Z M174.954244,191.621951 C175.608719,191.621951 176.12328,191.472562 176.497943,191.17378 C176.872606,190.874999 177.059935,190.42209 177.059935,189.815041 C177.059935,189.207992 176.872606,188.766939 176.497943,188.49187 C176.12328,188.216801 175.608719,188.079268 174.954244,188.079268 L173.488797,188.079268 L173.488797,191.621951 L174.954244,191.621951 Z M183.414569,197.28 L182.322569,197.28 L185.640569,187.382 L186.732569,187.382 L183.414569,197.28 Z M198.856569,197 L197.386569,197 L197.386569,192.296 L195.370569,197 L194.782569,197 L192.752569,192.296 L192.752569,197 L191.282569,197 L191.282569,190.238 L193.200569,190.238 L195.076569,194.606 L196.924569,190.238 L198.856569,190.238 L198.856569,197 Z M203.882569,197.168 C201.852569,197.168 200.340569,195.754 200.340569,193.612 C200.340569,191.652 201.768569,190.07 203.770569,190.07 C205.800569,190.07 207.102569,191.624 207.102569,193.752 L207.102569,194.102 L201.880569,194.102 C201.992569,195.124 202.762569,195.964 204.036569,195.964 C204.694569,195.964 205.478569,195.698 205.954569,195.222 L206.626569,196.188 C205.954569,196.832 204.960569,197.168 203.882569,197.168 Z M205.674569,193.066 C205.646569,192.268 205.100569,191.274 203.770569,191.274 C202.510569,191.274 201.936569,192.24 201.866569,193.066 L205.674569,193.066 Z M211.638569,197.168 C209.580569,197.168 208.138569,195.67 208.138569,193.612 C208.138569,191.568 209.580569,190.07 211.638569,190.07 C212.954569,190.07 213.752569,190.63 214.228569,191.274 L213.262569,192.17 C212.884569,191.638 212.366569,191.372 211.708569,191.372 C210.476569,191.372 209.664569,192.296 209.664569,193.612 C209.664569,194.928 210.476569,195.866 211.708569,195.866 C212.366569,195.866 212.884569,195.586 213.262569,195.068 L214.228569,195.964 C213.752569,196.608 212.954569,197.168 211.638569,197.168 Z" id="Работает-сам-Заработ" fill="#FFFFFF"></path>
            <g id="Group-5" transform="translate(0.000000, 80.000000)" fill="#FFFFFF">
                <path d="M36.312,13.168 C33.694,13.168 32.574,10.69 32.574,8.338 C32.574,5.986 33.694,3.522 36.312,3.522 C38.93,3.522 40.05,5.986 40.05,8.338 C40.05,10.69 38.93,13.168 36.312,13.168 Z M36.312,11.712 C37.838,11.712 38.384,10.116 38.384,8.338 C38.384,6.56 37.838,4.978 36.312,4.978 C34.786,4.978 34.24,6.56 34.24,8.338 C34.24,10.116 34.786,11.712 36.312,11.712 Z M48.95,13 L47.312,13 L47.312,5.79 L45.786,7.372 L44.834,6.378 L47.522,3.662 L48.95,3.662 L48.95,13 Z" id="01"></path>
                <path d="M116.312,13.168 C113.694,13.168 112.574,10.69 112.574,8.338 C112.574,5.986 113.694,3.522 116.312,3.522 C118.93,3.522 120.05,5.986 120.05,8.338 C120.05,10.69 118.93,13.168 116.312,13.168 Z M116.312,11.712 C117.838,11.712 118.384,10.116 118.384,8.338 C118.384,6.56 117.838,4.978 116.312,4.978 C114.786,4.978 114.24,6.56 114.24,8.338 C114.24,10.116 114.786,11.712 116.312,11.712 Z M132.086,13 L125.324,13 L125.324,11.712 C128.95,8.968 130.364,7.75 130.364,6.406 C130.364,5.426 129.524,4.978 128.67,4.978 C127.578,4.978 126.738,5.426 126.15,6.098 L125.198,5.02 C126.024,4.026 127.34,3.522 128.642,3.522 C130.448,3.522 132.03,4.544 132.03,6.406 C132.03,8.128 130.448,9.668 127.942,11.558 L132.086,11.558 L132.086,13 Z" id="02"></path>
                <path d="M197.312,13.168 C194.694,13.168 193.574,10.69 193.574,8.338 C193.574,5.986 194.694,3.522 197.312,3.522 C199.93,3.522 201.05,5.986 201.05,8.338 C201.05,10.69 199.93,13.168 197.312,13.168 Z M197.312,11.712 C198.838,11.712 199.384,10.116 199.384,8.338 C199.384,6.56 198.838,4.978 197.312,4.978 C195.786,4.978 195.24,6.56 195.24,8.338 C195.24,10.116 195.786,11.712 197.312,11.712 Z M209.488,13.168 C207.822,13.168 206.59,12.496 205.96,11.656 L206.842,10.578 C207.444,11.278 208.438,11.712 209.432,11.712 C210.664,11.712 211.378,11.152 211.378,10.284 C211.378,9.36 210.636,8.968 209.306,8.968 C208.914,8.968 208.368,8.968 208.228,8.982 L208.228,7.512 C208.396,7.526 208.942,7.526 209.306,7.526 C210.398,7.526 211.224,7.148 211.224,6.294 C211.224,5.426 210.384,4.978 209.334,4.978 C208.382,4.978 207.598,5.342 206.926,6.014 L206.086,4.992 C206.8,4.152 207.934,3.522 209.488,3.522 C211.504,3.522 212.862,4.474 212.862,6.042 C212.862,7.288 211.798,8.016 210.832,8.184 C211.742,8.268 213.002,9.01 213.002,10.452 C213.002,12.034 211.644,13.168 209.488,13.168 Z" id="03"></path>
                <path d="M278.312,13.168 C275.694,13.168 274.574,10.69 274.574,8.338 C274.574,5.986 275.694,3.522 278.312,3.522 C280.93,3.522 282.05,5.986 282.05,8.338 C282.05,10.69 280.93,13.168 278.312,13.168 Z M278.312,11.712 C279.838,11.712 280.384,10.116 280.384,8.338 C280.384,6.56 279.838,4.978 278.312,4.978 C276.786,4.978 276.24,6.56 276.24,8.338 C276.24,10.116 276.786,11.712 278.312,11.712 Z M293.106,13 L291.468,13 L291.468,10.886 L287.016,10.886 L287.016,9.57 L290.852,3.662 L293.106,3.662 L293.106,9.444 L294.352,9.444 L294.352,10.886 L293.106,10.886 L293.106,13 Z M291.468,9.444 L291.468,5.132 L288.626,9.444 L291.468,9.444 Z" id="04"></path>
                <path d="M358.312,13.168 C355.694,13.168 354.574,10.69 354.574,8.338 C354.574,5.986 355.694,3.522 358.312,3.522 C360.93,3.522 362.05,5.986 362.05,8.338 C362.05,10.69 360.93,13.168 358.312,13.168 Z M358.312,11.712 C359.838,11.712 360.384,10.116 360.384,8.338 C360.384,6.56 359.838,4.978 358.312,4.978 C356.786,4.978 356.24,6.56 356.24,8.338 C356.24,10.116 356.786,11.712 358.312,11.712 Z M370.88,13.168 C369.27,13.168 368.164,12.622 367.408,11.726 L368.346,10.606 C368.976,11.32 369.816,11.712 370.866,11.712 C372.042,11.712 372.784,10.984 372.784,10.074 C372.784,9.066 372.056,8.408 370.908,8.408 C370.11,8.408 369.452,8.66 368.864,9.22 L367.702,8.884 L367.702,3.662 L373.82,3.662 L373.82,5.104 L369.34,5.104 L369.34,7.806 C369.788,7.358 370.558,6.994 371.454,6.994 C373.022,6.994 374.436,8.1 374.436,10.004 C374.436,11.95 372.966,13.168 370.88,13.168 Z" id="05"></path>
                <path d="M439.312,13.168 C436.694,13.168 435.574,10.69 435.574,8.338 C435.574,5.986 436.694,3.522 439.312,3.522 C441.93,3.522 443.05,5.986 443.05,8.338 C443.05,10.69 441.93,13.168 439.312,13.168 Z M439.312,11.712 C440.838,11.712 441.384,10.116 441.384,8.338 C441.384,6.56 440.838,4.978 439.312,4.978 C437.786,4.978 437.24,6.56 437.24,8.338 C437.24,10.116 437.786,11.712 439.312,11.712 Z M452.048,13.168 C449.304,13.168 448.198,10.942 448.198,8.352 C448.198,5.65 449.612,3.522 452.314,3.522 C453.476,3.522 454.372,3.942 455.002,4.558 L454.232,5.804 C453.742,5.286 453.21,4.978 452.314,4.978 C450.76,4.978 449.85,6.42 449.85,8.058 C449.85,8.156 449.85,8.24 449.864,8.324 C450.284,7.694 451.264,7.022 452.37,7.022 C454.05,7.022 455.492,8.044 455.492,10.032 C455.492,11.768 454.134,13.168 452.048,13.168 Z M451.964,11.712 C453.196,11.712 453.84,10.844 453.84,10.088 C453.84,8.94 452.944,8.422 451.922,8.422 C451.124,8.422 450.354,8.856 449.878,9.528 C449.976,10.536 450.522,11.712 451.964,11.712 Z" id="06"></path>
                <path d="M521.312,13.168 C518.694,13.168 517.574,10.69 517.574,8.338 C517.574,5.986 518.694,3.522 521.312,3.522 C523.93,3.522 525.05,5.986 525.05,8.338 C525.05,10.69 523.93,13.168 521.312,13.168 Z M521.312,11.712 C522.838,11.712 523.384,10.116 523.384,8.338 C523.384,6.56 522.838,4.978 521.312,4.978 C519.786,4.978 519.24,6.56 519.24,8.338 C519.24,10.116 519.786,11.712 521.312,11.712 Z M533.11,13 L531.318,13 L534.846,5.104 L530.002,5.104 L530.002,3.662 L536.736,3.662 L536.736,4.796 L533.11,13 Z" id="07"></path>
                <path d="M602.312,13.168 C599.694,13.168 598.574,10.69 598.574,8.338 C598.574,5.986 599.694,3.522 602.312,3.522 C604.93,3.522 606.05,5.986 606.05,8.338 C606.05,10.69 604.93,13.168 602.312,13.168 Z M602.312,11.712 C603.838,11.712 604.384,10.116 604.384,8.338 C604.384,6.56 603.838,4.978 602.312,4.978 C600.786,4.978 600.24,6.56 600.24,8.338 C600.24,10.116 600.786,11.712 602.312,11.712 Z M614.796,13.168 C612.878,13.168 611.212,12.286 611.212,10.606 C611.212,9.416 612.178,8.562 613.312,8.184 C612.262,7.848 611.366,7.162 611.366,5.972 C611.366,4.25 613.13,3.522 614.796,3.522 C616.434,3.522 618.226,4.25 618.226,5.972 C618.226,7.162 617.316,7.848 616.266,8.184 C617.4,8.562 618.366,9.416 618.366,10.606 C618.366,12.272 616.7,13.168 614.796,13.168 Z M614.796,7.54 C615.37,7.442 616.56,7.106 616.56,6.224 C616.56,5.44 615.79,4.978 614.796,4.978 C613.774,4.978 613.018,5.44 613.018,6.224 C613.018,7.106 614.222,7.442 614.796,7.54 Z M614.796,11.712 C615.832,11.712 616.714,11.208 616.714,10.396 C616.714,9.43 615.37,8.996 614.796,8.926 C614.208,8.996 612.864,9.43 612.864,10.396 C612.864,11.208 613.732,11.712 614.796,11.712 Z" id="08"></path>
                <path d="M682.312,13.168 C679.694,13.168 678.574,10.69 678.574,8.338 C678.574,5.986 679.694,3.522 682.312,3.522 C684.93,3.522 686.05,5.986 686.05,8.338 C686.05,10.69 684.93,13.168 682.312,13.168 Z M682.312,11.712 C683.838,11.712 684.384,10.116 684.384,8.338 C684.384,6.56 683.838,4.978 682.312,4.978 C680.786,4.978 680.24,6.56 680.24,8.338 C680.24,10.116 680.786,11.712 682.312,11.712 Z M694.334,13.154 C693.186,13.154 692.29,12.748 691.66,12.118 L692.416,10.886 C692.906,11.39 693.452,11.698 694.334,11.698 C696.028,11.698 696.798,10.158 696.798,8.632 L696.798,8.352 C696.364,8.982 695.384,9.668 694.292,9.668 C692.612,9.668 691.156,8.632 691.156,6.644 C691.156,4.922 692.514,3.508 694.6,3.508 C697.344,3.508 698.45,5.734 698.45,8.338 C698.45,11.026 697.036,13.154 694.334,13.154 Z M694.726,8.254 C695.524,8.254 696.308,7.834 696.77,7.162 C696.686,6.154 696.126,4.964 694.684,4.964 C693.466,4.964 692.822,5.846 692.822,6.588 C692.822,7.736 693.718,8.254 694.726,8.254 Z" id="09"></path>
                <path d="M763.326,13 L761.688,13 L761.688,5.79 L760.162,7.372 L759.21,6.378 L761.898,3.662 L763.326,3.662 L763.326,13 Z M772.632,13.168 C770.014,13.168 768.894,10.69 768.894,8.338 C768.894,5.986 770.014,3.522 772.632,3.522 C775.25,3.522 776.37,5.986 776.37,8.338 C776.37,10.69 775.25,13.168 772.632,13.168 Z M772.632,11.712 C774.158,11.712 774.704,10.116 774.704,8.338 C774.704,6.56 774.158,4.978 772.632,4.978 C771.106,4.978 770.56,6.56 770.56,8.338 C770.56,10.116 771.106,11.712 772.632,11.712 Z" id="10"></path>
                <path d="M846.326,13 L844.688,13 L844.688,5.79 L843.162,7.372 L842.21,6.378 L844.898,3.662 L846.326,3.662 L846.326,13 Z M855.646,13 L854.008,13 L854.008,5.79 L852.482,7.372 L851.53,6.378 L854.218,3.662 L855.646,3.662 L855.646,13 Z" id="11"></path>
                <path d="M925.326,13 L923.688,13 L923.688,5.79 L922.162,7.372 L921.21,6.378 L923.898,3.662 L925.326,3.662 L925.326,13 Z M937.782,13 L931.02,13 L931.02,11.712 C934.646,8.968 936.06,7.75 936.06,6.406 C936.06,5.426 935.22,4.978 934.366,4.978 C933.274,4.978 932.434,5.426 931.846,6.098 L930.894,5.02 C931.72,4.026 933.036,3.522 934.338,3.522 C936.144,3.522 937.726,4.544 937.726,6.406 C937.726,8.128 936.144,9.668 933.638,11.558 L937.782,11.558 L937.782,13 Z" id="12"></path>
                <path d="M1011.696,40 L1010.058,40 L1010.058,33.07 L1007.188,40 L1006.488,40 L1003.632,33.07 L1003.632,40 L1001.994,40 L1001.994,30.662 L1004.304,30.662 L1006.838,36.808 L1009.386,30.662 L1011.696,30.662 L1011.696,40 Z M1024.082,40 L1017.684,40 L1017.684,30.662 L1024.082,30.662 L1024.082,32.104 L1019.322,32.104 L1019.322,34.526 L1023.984,34.526 L1023.984,35.968 L1019.322,35.968 L1019.322,38.558 L1024.082,38.558 L1024.082,40 Z M1034.242,40.168 C1031.484,40.168 1029.342,38.208 1029.342,35.338 C1029.342,32.468 1031.484,30.508 1034.242,30.508 C1036.132,30.508 1037.294,31.488 1037.994,32.608 L1036.594,33.322 C1036.146,32.552 1035.25,31.964 1034.242,31.964 C1032.394,31.964 1031.022,33.378 1031.022,35.338 C1031.022,37.298 1032.394,38.712 1034.242,38.712 C1035.25,38.712 1036.146,38.138 1036.594,37.354 L1037.994,38.068 C1037.28,39.188 1036.132,40.168 1034.242,40.168 Z M1044.78,40 L1042.89,40 L1045.172,36.332 C1044.052,36.15 1042.96,35.254 1042.96,33.588 C1042.96,31.866 1044.164,30.662 1046.012,30.662 L1050.114,30.662 L1050.114,40 L1048.476,40 L1048.476,36.514 L1046.852,36.514 L1044.78,40 Z M1046.236,35.072 L1048.476,35.072 L1048.476,32.104 L1046.236,32.104 C1045.312,32.104 1044.64,32.692 1044.64,33.588 C1044.64,34.484 1045.312,35.072 1046.236,35.072 Z M1063.466,41.722 L1063.466,40 L1056.102,40 L1056.102,30.662 L1057.74,30.662 L1057.74,38.558 L1062.598,38.558 L1062.598,30.662 L1064.236,30.662 L1064.236,38.558 L1065.104,38.558 L1065.104,41.722 L1063.466,41.722 Z" id="месяц" opacity="0.400000006"></path>
                <g id="Group-4" transform="translate(0.000000, 27.000000)">
                    <rect id="Rectangle-8" x="0" y="0.5" width="1" height="15" rx="0.5"></rect>
                    <g id="Group-2" opacity="0.200000003" transform="translate(11.000000, 6.000000)">
                        <circle id="Oval" cx="2" cy="2" r="2"></circle>
                        <circle id="Oval-Copy" cx="16" cy="2" r="2"></circle>
                        <circle id="Oval-Copy-2" cx="30" cy="2" r="2"></circle>
                        <circle id="Oval-Copy-4" cx="44" cy="2" r="2"></circle>
                        <circle id="Oval-Copy-3" cx="58" cy="2" r="2"></circle>
                    </g>
                </g>
                <g id="Group-3" transform="translate(81.000000, 27.000000)">
                    <rect id="Rectangle-8-Copy" x="0" y="0.5" width="1" height="15" rx="0.5"></rect>
                    <g id="Group-2-Copy" opacity="0.200000003" transform="translate(11.000000, 6.000000)">
                        <circle id="Oval" cx="2" cy="2" r="2"></circle>
                        <circle id="Oval-Copy" cx="16" cy="2" r="2"></circle>
                        <circle id="Oval-Copy-2" cx="30" cy="2" r="2"></circle>
                        <circle id="Oval-Copy-4" cx="44" cy="2" r="2"></circle>
                        <circle id="Oval-Copy-3" cx="58" cy="2" r="2"></circle>
                    </g>
                </g>
                <g id="Group-3-Copy" transform="translate(162.000000, 27.000000)">
                    <rect id="Rectangle-8-Copy" x="0" y="0.5" width="1" height="15" rx="0.5"></rect>
                    <g id="Group-2-Copy" opacity="0.200000003" transform="translate(11.000000, 6.000000)">
                        <circle id="Oval" cx="2" cy="2" r="2"></circle>
                        <circle id="Oval-Copy" cx="16" cy="2" r="2"></circle>
                        <circle id="Oval-Copy-2" cx="30" cy="2" r="2"></circle>
                        <circle id="Oval-Copy-4" cx="44" cy="2" r="2"></circle>
                        <circle id="Oval-Copy-3" cx="58" cy="2" r="2"></circle>
                    </g>
                </g>
                <g id="Group-3-Copy-2" transform="translate(243.000000, 27.000000)">
                    <rect id="Rectangle-8-Copy" x="0" y="0.5" width="1" height="15" rx="0.5"></rect>
                    <g id="Group-2-Copy" opacity="0.200000003" transform="translate(11.000000, 6.000000)">
                        <circle id="Oval" cx="2" cy="2" r="2"></circle>
                        <circle id="Oval-Copy" cx="16" cy="2" r="2"></circle>
                        <circle id="Oval-Copy-2" cx="30" cy="2" r="2"></circle>
                        <circle id="Oval-Copy-4" cx="44" cy="2" r="2"></circle>
                        <circle id="Oval-Copy-3" cx="58" cy="2" r="2"></circle>
                    </g>
                </g>
                <g id="Group-3-Copy-3" transform="translate(324.000000, 27.000000)">
                    <rect id="Rectangle-8-Copy" x="0" y="0.5" width="1" height="15" rx="0.5"></rect>
                    <g id="Group-2-Copy" opacity="0.200000003" transform="translate(11.000000, 6.000000)">
                        <circle id="Oval" cx="2" cy="2" r="2"></circle>
                        <circle id="Oval-Copy" cx="16" cy="2" r="2"></circle>
                        <circle id="Oval-Copy-2" cx="30" cy="2" r="2"></circle>
                        <circle id="Oval-Copy-4" cx="44" cy="2" r="2"></circle>
                        <circle id="Oval-Copy-3" cx="58" cy="2" r="2"></circle>
                    </g>
                </g>
                <g id="Group-3-Copy-4" transform="translate(405.000000, 27.000000)">
                    <rect id="Rectangle-8-Copy" x="0" y="0.5" width="1" height="15" rx="0.5"></rect>
                    <g id="Group-2-Copy" opacity="0.200000003" transform="translate(11.000000, 6.000000)">
                        <circle id="Oval" cx="2" cy="2" r="2"></circle>
                        <circle id="Oval-Copy" cx="16" cy="2" r="2"></circle>
                        <circle id="Oval-Copy-2" cx="30" cy="2" r="2"></circle>
                        <circle id="Oval-Copy-4" cx="44" cy="2" r="2"></circle>
                        <circle id="Oval-Copy-3" cx="58" cy="2" r="2"></circle>
                    </g>
                </g>
                <g id="Group-3-Copy-5" transform="translate(486.000000, 27.000000)">
                    <rect id="Rectangle-8-Copy" x="0" y="0.5" width="1" height="15" rx="0.5"></rect>
                    <g id="Group-2-Copy" opacity="0.200000003" transform="translate(11.000000, 6.000000)">
                        <circle id="Oval" cx="2" cy="2" r="2"></circle>
                        <circle id="Oval-Copy" cx="16" cy="2" r="2"></circle>
                        <circle id="Oval-Copy-2" cx="30" cy="2" r="2"></circle>
                        <circle id="Oval-Copy-4" cx="44" cy="2" r="2"></circle>
                        <circle id="Oval-Copy-3" cx="58" cy="2" r="2"></circle>
                    </g>
                </g>
                <g id="Group-3-Copy-6" transform="translate(567.000000, 27.000000)">
                    <rect id="Rectangle-8-Copy" x="0" y="0.5" width="1" height="15" rx="0.5"></rect>
                    <g id="Group-2-Copy" opacity="0.200000003" transform="translate(11.000000, 6.000000)">
                        <circle id="Oval" cx="2" cy="2" r="2"></circle>
                        <circle id="Oval-Copy" cx="16" cy="2" r="2"></circle>
                        <circle id="Oval-Copy-2" cx="30" cy="2" r="2"></circle>
                        <circle id="Oval-Copy-4" cx="44" cy="2" r="2"></circle>
                        <circle id="Oval-Copy-3" cx="58" cy="2" r="2"></circle>
                    </g>
                </g>
                <g id="Group-3-Copy-7" transform="translate(648.000000, 27.000000)">
                    <rect id="Rectangle-8-Copy" x="0" y="0.5" width="1" height="15" rx="0.5"></rect>
                    <g id="Group-2-Copy" opacity="0.200000003" transform="translate(11.000000, 6.000000)">
                        <circle id="Oval" cx="2" cy="2" r="2"></circle>
                        <circle id="Oval-Copy" cx="16" cy="2" r="2"></circle>
                        <circle id="Oval-Copy-2" cx="30" cy="2" r="2"></circle>
                        <circle id="Oval-Copy-4" cx="44" cy="2" r="2"></circle>
                        <circle id="Oval-Copy-3" cx="58" cy="2" r="2"></circle>
                    </g>
                </g>
                <g id="Group-3-Copy-8" transform="translate(729.000000, 27.000000)">
                    <rect id="Rectangle-8-Copy" x="0" y="0.5" width="1" height="15" rx="0.5"></rect>
                    <g id="Group-2-Copy" opacity="0.200000003" transform="translate(11.000000, 6.000000)">
                        <circle id="Oval" cx="2" cy="2" r="2"></circle>
                        <circle id="Oval-Copy" cx="16" cy="2" r="2"></circle>
                        <circle id="Oval-Copy-2" cx="30" cy="2" r="2"></circle>
                        <circle id="Oval-Copy-4" cx="44" cy="2" r="2"></circle>
                        <circle id="Oval-Copy-3" cx="58" cy="2" r="2"></circle>
                    </g>
                </g>
                <g id="Group-3-Copy-9" transform="translate(810.000000, 27.000000)">
                    <rect id="Rectangle-8-Copy" x="0" y="0.5" width="1" height="15" rx="0.5"></rect>
                    <g id="Group-2-Copy" opacity="0.200000003" transform="translate(11.000000, 6.000000)">
                        <circle id="Oval" cx="2" cy="2" r="2"></circle>
                        <circle id="Oval-Copy" cx="16" cy="2" r="2"></circle>
                        <circle id="Oval-Copy-2" cx="30" cy="2" r="2"></circle>
                        <circle id="Oval-Copy-4" cx="44" cy="2" r="2"></circle>
                        <circle id="Oval-Copy-3" cx="58" cy="2" r="2"></circle>
                    </g>
                </g>
                <g id="Group-3-Copy-10" transform="translate(891.000000, 27.000000)">
                    <rect id="Rectangle-8-Copy" x="0" y="0.5" width="1" height="15" rx="0.5"></rect>
                    <rect id="Rectangle-8-Copy-2" x="81" y="0.5" width="1" height="15" rx="0.5"></rect>
                    <g id="Group-2-Copy" opacity="0.200000003" transform="translate(11.000000, 6.000000)">
                        <circle id="Oval" cx="2" cy="2" r="2"></circle>
                        <circle id="Oval-Copy" cx="16" cy="2" r="2"></circle>
                        <circle id="Oval-Copy-2" cx="30" cy="2" r="2"></circle>
                        <circle id="Oval-Copy-4" cx="44" cy="2" r="2"></circle>
                        <circle id="Oval-Copy-3" cx="58" cy="2" r="2"></circle>
                    </g>
                </g>
            </g>
            <polyline id="Rectangle-9" stroke="#A9A9A9" opacity="0.300000012" points="244 133 244 158 0 158 0 133 0 133"></polyline>
            <polyline id="Rectangle-9-Copy" stroke="#A9A9A9" opacity="0.300000012" points="243 70 243 45 243 45 487 45 487 70"></polyline>
            <polyline id="Rectangle-9-Copy-2" stroke="#A9A9A9" opacity="0.300000012" points="730 133 730 158 486 158 486 133 486 133"></polyline>
            <path d="M488.632,177 L486.994,177 L486.994,167.662 L491.096,167.662 C493.056,167.662 494.148,169.006 494.148,170.588 C494.148,172.17 493.042,173.514 491.096,173.514 L488.632,173.514 L488.632,177 Z M490.872,172.072 C491.796,172.072 492.468,171.484 492.468,170.588 C492.468,169.692 491.796,169.104 490.872,169.104 L488.632,169.104 L488.632,172.072 L490.872,172.072 Z M501.064,177 L499.594,177 L499.594,176.272 C499.09,176.846 498.306,177.168 497.41,177.168 C496.304,177.168 495.058,176.426 495.058,174.928 C495.058,173.374 496.304,172.73 497.41,172.73 C498.32,172.73 499.104,173.024 499.594,173.598 L499.594,172.59 C499.594,171.806 498.95,171.33 498.012,171.33 C497.256,171.33 496.598,171.61 496.01,172.184 L495.408,171.162 C496.192,170.42 497.172,170.07 498.25,170.07 C499.748,170.07 501.064,170.7 501.064,172.52 L501.064,177 Z M497.984,176.16 C498.628,176.16 499.258,175.922 499.594,175.46 L499.594,174.438 C499.258,173.976 498.628,173.738 497.984,173.738 C497.158,173.738 496.542,174.214 496.542,174.956 C496.542,175.684 497.158,176.16 497.984,176.16 Z M506.02,175.866 C507.28,175.866 507.98,174.816 507.98,173.584 C507.98,172.422 507.28,171.372 506.02,171.372 C504.774,171.372 504.074,172.422 504.074,173.584 C504.074,174.816 504.774,175.866 506.02,175.866 Z M506.02,177.168 C503.836,177.168 502.562,175.502 502.562,173.304 C502.562,170.014 503.696,168.572 505.964,168.292 C507.406,168.082 507.812,167.914 507.812,167.662 L509.254,167.662 C509.254,168.978 507.49,169.328 506.37,169.454 C504.746,169.636 504.046,170.434 503.864,171.26 C504.41,170.518 505.32,170.07 506.3,170.07 C508.218,170.07 509.492,171.722 509.492,173.598 C509.492,175.502 508.218,177.168 506.02,177.168 Z M514.098,177.168 C511.956,177.168 510.626,175.558 510.626,173.612 C510.626,171.68 511.956,170.07 514.098,170.07 C516.268,170.07 517.584,171.68 517.584,173.612 C517.584,175.558 516.268,177.168 514.098,177.168 Z M514.098,175.866 C515.358,175.866 516.058,174.816 516.058,173.612 C516.058,172.422 515.358,171.372 514.098,171.372 C512.852,171.372 512.152,172.422 512.152,173.612 C512.152,174.816 512.852,175.866 514.098,175.866 Z M521.77,177 L520.3,177 L520.3,171.526 L518.368,171.526 L518.368,170.238 L523.716,170.238 L523.716,171.526 L521.77,171.526 L521.77,177 Z M530.52,177 L529.05,177 L529.05,176.272 C528.546,176.846 527.762,177.168 526.866,177.168 C525.76,177.168 524.514,176.426 524.514,174.928 C524.514,173.374 525.76,172.73 526.866,172.73 C527.776,172.73 528.56,173.024 529.05,173.598 L529.05,172.59 C529.05,171.806 528.406,171.33 527.468,171.33 C526.712,171.33 526.054,171.61 525.466,172.184 L524.864,171.162 C525.648,170.42 526.628,170.07 527.706,170.07 C529.204,170.07 530.52,170.7 530.52,172.52 L530.52,177 Z M527.44,176.16 C528.084,176.16 528.714,175.922 529.05,175.46 L529.05,174.438 C528.714,173.976 528.084,173.738 527.44,173.738 C526.614,173.738 525.998,174.214 525.998,174.956 C525.998,175.684 526.614,176.16 527.44,176.16 Z M538.5,177.168 C536.568,177.168 535.308,175.866 535.07,174.186 L533.894,174.186 L533.894,177 L532.424,177 L532.424,170.238 L533.894,170.238 L533.894,172.898 L535.084,172.898 C535.378,171.302 536.624,170.07 538.5,170.07 C540.67,170.07 541.986,171.68 541.986,173.612 C541.986,175.558 540.67,177.168 538.5,177.168 Z M538.5,175.866 C539.76,175.866 540.46,174.816 540.46,173.612 C540.46,172.422 539.76,171.372 538.5,171.372 C537.254,171.372 536.554,172.422 536.554,173.612 C536.554,174.816 537.254,175.866 538.5,175.866 Z M546.172,177 L544.702,177 L544.702,171.526 L542.77,171.526 L542.77,170.238 L548.118,170.238 L548.118,171.526 L546.172,171.526 L546.172,177 Z M559.43,177 L552.668,177 L552.668,175.712 C556.294,172.968 557.708,171.75 557.708,170.406 C557.708,169.426 556.868,168.978 556.014,168.978 C554.922,168.978 554.082,169.426 553.494,170.098 L552.542,169.02 C553.368,168.026 554.684,167.522 555.986,167.522 C557.792,167.522 559.374,168.544 559.374,170.406 C559.374,172.128 557.792,173.668 555.286,175.558 L559.43,175.558 L559.43,177 Z M570.896,177 L569.426,177 L569.426,171.526 L566.318,171.526 L566.318,177 L564.848,177 L564.848,170.238 L570.896,170.238 L570.896,177 Z M575.852,177.168 C573.71,177.168 572.38,175.558 572.38,173.612 C572.38,171.68 573.71,170.07 575.852,170.07 C578.022,170.07 579.338,171.68 579.338,173.612 C579.338,175.558 578.022,177.168 575.852,177.168 Z M575.852,175.866 C577.112,175.866 577.812,174.816 577.812,173.612 C577.812,172.422 577.112,171.372 575.852,171.372 C574.606,171.372 573.906,172.422 573.906,173.612 C573.906,174.816 574.606,175.866 575.852,175.866 Z M588.396,177 L586.926,177 L586.926,172.296 L584.91,177 L584.322,177 L582.292,172.296 L582.292,177 L580.822,177 L580.822,170.238 L582.74,170.238 L584.616,174.606 L586.464,170.238 L588.396,170.238 L588.396,177 Z M593.352,177.168 C591.21,177.168 589.88,175.558 589.88,173.612 C589.88,171.68 591.21,170.07 593.352,170.07 C595.522,170.07 596.838,171.68 596.838,173.612 C596.838,175.558 595.522,177.168 593.352,177.168 Z M593.352,175.866 C594.612,175.866 595.312,174.816 595.312,173.612 C595.312,172.422 594.612,171.372 593.352,171.372 C592.106,171.372 591.406,172.422 591.406,173.612 C591.406,174.816 592.106,175.866 593.352,175.866 Z M606.022,170.238 L607.492,170.238 L607.492,175.712 L608.374,175.712 L608.374,178.722 L606.904,178.722 L606.904,177 L598.322,177 L598.322,170.238 L599.792,170.238 L599.792,175.712 L602.172,175.712 L602.172,170.238 L603.642,170.238 L603.642,175.712 L606.022,175.712 L606.022,170.238 Z M611.048,177 L609.578,177 L609.578,170.238 L611.048,170.238 L611.048,172.898 L614.156,172.898 L614.156,170.238 L615.626,170.238 L615.626,177 L614.156,177 L614.156,174.186 L611.048,174.186 L611.048,177 Z M618.944,177 L617.53,177 L617.53,170.238 L619,170.238 L619,174.788 L622.108,170.238 L623.578,170.238 L623.578,177 L622.108,177 L622.108,172.324 L618.944,177 Z M631.81,177 L629.962,177 L627.89,174.214 L626.952,175.18 L626.952,177 L625.482,177 L625.482,170.238 L626.952,170.238 L626.952,173.5 L629.934,170.238 L631.754,170.238 L628.94,173.304 L631.81,177 Z M638.446,177 L636.976,177 L636.976,176.272 C636.472,176.846 635.688,177.168 634.792,177.168 C633.686,177.168 632.44,176.426 632.44,174.928 C632.44,173.374 633.686,172.73 634.792,172.73 C635.702,172.73 636.486,173.024 636.976,173.598 L636.976,172.59 C636.976,171.806 636.332,171.33 635.394,171.33 C634.638,171.33 633.98,171.61 633.392,172.184 L632.79,171.162 C633.574,170.42 634.554,170.07 635.632,170.07 C637.13,170.07 638.446,170.7 638.446,172.52 L638.446,177 Z M635.366,176.16 C636.01,176.16 636.64,175.922 636.976,175.46 L636.976,174.438 C636.64,173.976 636.01,173.738 635.366,173.738 C634.54,173.738 633.924,174.214 633.924,174.956 C633.924,175.684 634.54,176.16 635.366,176.16 Z M490.032,197.168 C488.366,197.168 486.966,196.496 486.336,195.656 L487.218,194.578 C487.82,195.278 488.982,195.712 489.976,195.712 C491.306,195.712 492.104,195.152 492.104,194.284 C492.104,193.36 491.278,192.968 489.85,192.968 L487.974,192.968 L487.974,191.526 L489.85,191.526 C491.04,191.526 491.95,191.148 491.95,190.294 C491.95,189.426 491.026,188.978 489.878,188.978 C488.926,188.978 487.974,189.342 487.302,190.014 L486.462,188.992 C487.176,188.152 488.478,187.522 490.032,187.522 C492.048,187.522 493.588,188.474 493.588,190.042 C493.588,191.288 492.524,192.016 491.558,192.184 C492.468,192.268 493.728,193.01 493.728,194.452 C493.728,196.034 492.188,197.168 490.032,197.168 Z M500.938,197 L499.468,197 L499.468,196.272 C498.964,196.846 498.18,197.168 497.284,197.168 C496.178,197.168 494.932,196.426 494.932,194.928 C494.932,193.374 496.178,192.73 497.284,192.73 C498.194,192.73 498.978,193.024 499.468,193.598 L499.468,192.59 C499.468,191.806 498.824,191.33 497.886,191.33 C497.13,191.33 496.472,191.61 495.884,192.184 L495.282,191.162 C496.066,190.42 497.046,190.07 498.124,190.07 C499.622,190.07 500.938,190.7 500.938,192.52 L500.938,197 Z M497.858,196.16 C498.502,196.16 499.132,195.922 499.468,195.46 L499.468,194.438 C499.132,193.976 498.502,193.738 497.858,193.738 C497.032,193.738 496.416,194.214 496.416,194.956 C496.416,195.684 497.032,196.16 497.858,196.16 Z M506.482,197.168 C505.628,197.168 504.858,196.79 504.312,196.062 L504.312,199.576 L502.842,199.576 L502.842,190.238 L504.312,190.238 L504.312,191.162 C504.816,190.49 505.6,190.07 506.482,190.07 C508.232,190.07 509.478,191.386 509.478,193.612 C509.478,195.838 508.232,197.168 506.482,197.168 Z M506.048,195.866 C507.21,195.866 507.952,194.928 507.952,193.612 C507.952,192.31 507.21,191.372 506.048,191.372 C505.362,191.372 504.634,191.778 504.312,192.282 L504.312,194.956 C504.634,195.446 505.362,195.866 506.048,195.866 Z M516.534,197 L515.064,197 L515.064,196.272 C514.56,196.846 513.776,197.168 512.88,197.168 C511.774,197.168 510.528,196.426 510.528,194.928 C510.528,193.374 511.774,192.73 512.88,192.73 C513.79,192.73 514.574,193.024 515.064,193.598 L515.064,192.59 C515.064,191.806 514.42,191.33 513.482,191.33 C512.726,191.33 512.068,191.61 511.48,192.184 L510.878,191.162 C511.662,190.42 512.642,190.07 513.72,190.07 C515.218,190.07 516.534,190.7 516.534,192.52 L516.534,197 Z M513.454,196.16 C514.098,196.16 514.728,195.922 515.064,195.46 L515.064,194.438 C514.728,193.976 514.098,193.738 513.454,193.738 C512.628,193.738 512.012,194.214 512.012,194.956 C512.012,195.684 512.628,196.16 513.454,196.16 Z M521.49,195.866 C522.75,195.866 523.45,194.816 523.45,193.584 C523.45,192.422 522.75,191.372 521.49,191.372 C520.244,191.372 519.544,192.422 519.544,193.584 C519.544,194.816 520.244,195.866 521.49,195.866 Z M521.49,197.168 C519.306,197.168 518.032,195.502 518.032,193.304 C518.032,190.014 519.166,188.572 521.434,188.292 C522.876,188.082 523.282,187.914 523.282,187.662 L524.724,187.662 C524.724,188.978 522.96,189.328 521.84,189.454 C520.216,189.636 519.516,190.434 519.334,191.26 C519.88,190.518 520.79,190.07 521.77,190.07 C523.688,190.07 524.962,191.722 524.962,193.598 C524.962,195.502 523.688,197.168 521.49,197.168 Z M529.568,197.168 C527.426,197.168 526.096,195.558 526.096,193.612 C526.096,191.68 527.426,190.07 529.568,190.07 C531.738,190.07 533.054,191.68 533.054,193.612 C533.054,195.558 531.738,197.168 529.568,197.168 Z M529.568,195.866 C530.828,195.866 531.528,194.816 531.528,193.612 C531.528,192.422 530.828,191.372 529.568,191.372 C528.322,191.372 527.622,192.422 527.622,193.612 C527.622,194.816 528.322,195.866 529.568,195.866 Z M537.24,197 L535.77,197 L535.77,191.526 L533.838,191.526 L533.838,190.238 L539.186,190.238 L539.186,191.526 L537.24,191.526 L537.24,197 Z M543.442,197.168 C541.3,197.168 539.97,195.558 539.97,193.612 C539.97,191.68 541.3,190.07 543.442,190.07 C545.612,190.07 546.928,191.68 546.928,193.612 C546.928,195.558 545.612,197.168 543.442,197.168 Z M543.442,195.866 C544.702,195.866 545.402,194.816 545.402,193.612 C545.402,192.422 544.702,191.372 543.442,191.372 C542.196,191.372 541.496,192.422 541.496,193.612 C541.496,194.816 542.196,195.866 543.442,195.866 Z M554.74,197 L552.892,197 L550.82,194.214 L549.882,195.18 L549.882,197 L548.412,197 L548.412,190.238 L549.882,190.238 L549.882,193.5 L552.864,190.238 L554.684,190.238 L551.87,193.304 L554.74,197 Z M562.426,197.168 C560.284,197.168 558.954,195.558 558.954,193.612 C558.954,191.68 560.284,190.07 562.426,190.07 C564.596,190.07 565.912,191.68 565.912,193.612 C565.912,195.558 564.596,197.168 562.426,197.168 Z M562.426,195.866 C563.686,195.866 564.386,194.816 564.386,193.612 C564.386,192.422 563.686,191.372 562.426,191.372 C561.18,191.372 560.48,192.422 560.48,193.612 C560.48,194.816 561.18,195.866 562.426,195.866 Z M573.724,197 L571.876,197 L569.804,194.214 L568.866,195.18 L568.866,197 L567.396,197 L567.396,190.238 L568.866,190.238 L568.866,193.5 L571.848,190.238 L573.668,190.238 L570.854,193.304 L573.724,197 Z M577.812,197.168 C575.67,197.168 574.34,195.558 574.34,193.612 C574.34,191.68 575.67,190.07 577.812,190.07 C579.982,190.07 581.298,191.68 581.298,193.612 C581.298,195.558 579.982,197.168 577.812,197.168 Z M577.812,195.866 C579.072,195.866 579.772,194.816 579.772,193.612 C579.772,192.422 579.072,191.372 577.812,191.372 C576.566,191.372 575.866,192.422 575.866,193.612 C575.866,194.816 576.566,195.866 577.812,195.866 Z M582.082,197.168 L582.082,195.964 C582.656,195.964 582.978,195.306 583.202,193.528 L583.608,190.238 L588.83,190.238 L588.83,197 L587.36,197 L587.36,191.526 L584.91,191.526 L584.672,193.696 C584.406,196.146 583.566,197.168 582.082,197.168 Z M593.786,197.168 C591.644,197.168 590.314,195.558 590.314,193.612 C590.314,191.68 591.644,190.07 593.786,190.07 C595.956,190.07 597.272,191.68 597.272,193.612 C597.272,195.558 595.956,197.168 593.786,197.168 Z M593.786,195.866 C595.046,195.866 595.746,194.816 595.746,193.612 C595.746,192.422 595.046,191.372 593.786,191.372 C592.54,191.372 591.84,192.422 591.84,193.612 C591.84,194.816 592.54,195.866 593.786,195.866 Z M608.864,197 L602.102,197 L602.102,195.712 C605.728,192.968 607.142,191.75 607.142,190.406 C607.142,189.426 606.302,188.978 605.448,188.978 C604.356,188.978 603.516,189.426 602.928,190.098 L601.976,189.02 C602.802,188.026 604.118,187.522 605.42,187.522 C607.226,187.522 608.808,188.544 608.808,190.406 C608.808,192.128 607.226,193.668 604.72,195.558 L608.864,195.558 L608.864,197 Z M613.218,197 L611.426,197 L614.954,189.104 L610.11,189.104 L610.11,187.662 L616.844,187.662 L616.844,188.796 L613.218,197 Z M621.492,197.168 C618.874,197.168 617.754,194.69 617.754,192.338 C617.754,189.986 618.874,187.522 621.492,187.522 C624.11,187.522 625.23,189.986 625.23,192.338 C625.23,194.69 624.11,197.168 621.492,197.168 Z M621.492,195.712 C623.018,195.712 623.564,194.116 623.564,192.338 C623.564,190.56 623.018,188.978 621.492,188.978 C619.966,188.978 619.42,190.56 619.42,192.338 C619.42,194.116 619.966,195.712 621.492,195.712 Z M633.714,197.168 C631.096,197.168 629.976,194.69 629.976,192.338 C629.976,189.986 631.096,187.522 633.714,187.522 C636.332,187.522 637.452,189.986 637.452,192.338 C637.452,194.69 636.332,197.168 633.714,197.168 Z M633.714,195.712 C635.24,195.712 635.786,194.116 635.786,192.338 C635.786,190.56 635.24,188.978 633.714,188.978 C632.188,188.978 631.642,190.56 631.642,192.338 C631.642,194.116 632.188,195.712 633.714,195.712 Z M642.338,197.168 C639.72,197.168 638.6,194.69 638.6,192.338 C638.6,189.986 639.72,187.522 642.338,187.522 C644.956,187.522 646.076,189.986 646.076,192.338 C646.076,194.69 644.956,197.168 642.338,197.168 Z M642.338,195.712 C643.864,195.712 644.41,194.116 644.41,192.338 C644.41,190.56 643.864,188.978 642.338,188.978 C640.812,188.978 640.266,190.56 640.266,192.338 C640.266,194.116 640.812,195.712 642.338,195.712 Z M650.962,197.168 C648.344,197.168 647.224,194.69 647.224,192.338 C647.224,189.986 648.344,187.522 650.962,187.522 C653.58,187.522 654.7,189.986 654.7,192.338 C654.7,194.69 653.58,197.168 650.962,197.168 Z M650.962,195.712 C652.488,195.712 653.034,194.116 653.034,192.338 C653.034,190.56 652.488,188.978 650.962,188.978 C649.436,188.978 648.89,190.56 648.89,192.338 C648.89,194.116 649.436,195.712 650.962,195.712 Z M659.398423,191.621951 L660.408585,191.621951 L660.408585,187.083333 L663.012244,187.083333 C663.495986,187.083333 663.937039,187.137872 664.335415,187.246951 C664.733791,187.35603 665.075251,187.522018 665.359805,187.744919 C665.644359,187.96782 665.867257,188.249998 666.028504,188.591463 C666.189751,188.932929 666.270374,189.340784 666.270374,189.815041 C666.270374,190.289298 666.185009,190.701895 666.014276,191.052846 C665.843544,191.403796 665.611161,191.69546 665.317122,191.927846 C665.023083,192.160232 664.67688,192.333333 664.278504,192.447154 C663.880128,192.560976 663.448561,192.617886 662.983789,192.617886 L661.546797,192.617886 L661.546797,194.054878 L663.837447,194.054878 L663.837447,194.993902 L661.546797,194.993902 L661.546797,197 L660.408585,197 L660.408585,194.993902 L659.398423,194.993902 L659.398423,194.054878 L660.408585,194.054878 L660.408585,192.617886 L659.398423,192.617886 L659.398423,191.621951 Z M663.012244,191.621951 C663.666719,191.621951 664.18128,191.472562 664.555943,191.17378 C664.930606,190.874999 665.117935,190.42209 665.117935,189.815041 C665.117935,189.207992 664.930606,188.766939 664.555943,188.49187 C664.18128,188.216801 663.666719,188.079268 663.012244,188.079268 L661.546797,188.079268 L661.546797,191.621951 L663.012244,191.621951 Z M671.472569,197.28 L670.380569,197.28 L673.698569,187.382 L674.790569,187.382 L671.472569,197.28 Z M686.914569,197 L685.444569,197 L685.444569,192.296 L683.428569,197 L682.840569,197 L680.810569,192.296 L680.810569,197 L679.340569,197 L679.340569,190.238 L681.258569,190.238 L683.134569,194.606 L684.982569,190.238 L686.914569,190.238 L686.914569,197 Z M691.940569,197.168 C689.910569,197.168 688.398569,195.754 688.398569,193.612 C688.398569,191.652 689.826569,190.07 691.828569,190.07 C693.858569,190.07 695.160569,191.624 695.160569,193.752 L695.160569,194.102 L689.938569,194.102 C690.050569,195.124 690.820569,195.964 692.094569,195.964 C692.752569,195.964 693.536569,195.698 694.012569,195.222 L694.684569,196.188 C694.012569,196.832 693.018569,197.168 691.940569,197.168 Z M693.732569,193.066 C693.704569,192.268 693.158569,191.274 691.828569,191.274 C690.568569,191.274 689.994569,192.24 689.924569,193.066 L693.732569,193.066 Z M699.696569,197.168 C697.638569,197.168 696.196569,195.67 696.196569,193.612 C696.196569,191.568 697.638569,190.07 699.696569,190.07 C701.012569,190.07 701.810569,190.63 702.286569,191.274 L701.320569,192.17 C700.942569,191.638 700.424569,191.372 699.766569,191.372 C698.534569,191.372 697.722569,192.296 697.722569,193.612 C697.722569,194.928 698.534569,195.866 699.766569,195.866 C700.424569,195.866 700.942569,195.586 701.320569,195.068 L702.286569,195.964 C701.810569,196.608 701.012569,197.168 699.696569,197.168 Z" id="Работают-2-помощника" fill="#FFFFFF"></path>
            <polyline id="Rectangle-9-Copy-3" stroke="#A9A9A9" opacity="0.300000012" points="729 70 729 45 729 45 973 45 973 70"></polyline>
            <path d="M731.632,14 L729.994,14 L729.994,4.662 L734.096,4.662 C736.056,4.662 737.148,6.006 737.148,7.588 C737.148,9.17 736.042,10.514 734.096,10.514 L731.632,10.514 L731.632,14 Z M733.872,9.072 C734.796,9.072 735.468,8.484 735.468,7.588 C735.468,6.692 734.796,6.104 733.872,6.104 L731.632,6.104 L731.632,9.072 L733.872,9.072 Z M744.064,14 L742.594,14 L742.594,13.272 C742.09,13.846 741.306,14.168 740.41,14.168 C739.304,14.168 738.058,13.426 738.058,11.928 C738.058,10.374 739.304,9.73 740.41,9.73 C741.32,9.73 742.104,10.024 742.594,10.598 L742.594,9.59 C742.594,8.806 741.95,8.33 741.012,8.33 C740.256,8.33 739.598,8.61 739.01,9.184 L738.408,8.162 C739.192,7.42 740.172,7.07 741.25,7.07 C742.748,7.07 744.064,7.7 744.064,9.52 L744.064,14 Z M740.984,13.16 C741.628,13.16 742.258,12.922 742.594,12.46 L742.594,11.438 C742.258,10.976 741.628,10.738 740.984,10.738 C740.158,10.738 739.542,11.214 739.542,11.956 C739.542,12.684 740.158,13.16 740.984,13.16 Z M749.02,12.866 C750.28,12.866 750.98,11.816 750.98,10.584 C750.98,9.422 750.28,8.372 749.02,8.372 C747.774,8.372 747.074,9.422 747.074,10.584 C747.074,11.816 747.774,12.866 749.02,12.866 Z M749.02,14.168 C746.836,14.168 745.562,12.502 745.562,10.304 C745.562,7.014 746.696,5.572 748.964,5.292 C750.406,5.082 750.812,4.914 750.812,4.662 L752.254,4.662 C752.254,5.978 750.49,6.328 749.37,6.454 C747.746,6.636 747.046,7.434 746.864,8.26 C747.41,7.518 748.32,7.07 749.3,7.07 C751.218,7.07 752.492,8.722 752.492,10.598 C752.492,12.502 751.218,14.168 749.02,14.168 Z M757.098,14.168 C754.956,14.168 753.626,12.558 753.626,10.612 C753.626,8.68 754.956,7.07 757.098,7.07 C759.268,7.07 760.584,8.68 760.584,10.612 C760.584,12.558 759.268,14.168 757.098,14.168 Z M757.098,12.866 C758.358,12.866 759.058,11.816 759.058,10.612 C759.058,9.422 758.358,8.372 757.098,8.372 C755.852,8.372 755.152,9.422 755.152,10.612 C755.152,11.816 755.852,12.866 757.098,12.866 Z M764.77,14 L763.3,14 L763.3,8.526 L761.368,8.526 L761.368,7.238 L766.716,7.238 L766.716,8.526 L764.77,8.526 L764.77,14 Z M773.52,14 L772.05,14 L772.05,13.272 C771.546,13.846 770.762,14.168 769.866,14.168 C768.76,14.168 767.514,13.426 767.514,11.928 C767.514,10.374 768.76,9.73 769.866,9.73 C770.776,9.73 771.56,10.024 772.05,10.598 L772.05,9.59 C772.05,8.806 771.406,8.33 770.468,8.33 C769.712,8.33 769.054,8.61 768.466,9.184 L767.864,8.162 C768.648,7.42 769.628,7.07 770.706,7.07 C772.204,7.07 773.52,7.7 773.52,9.52 L773.52,14 Z M770.44,13.16 C771.084,13.16 771.714,12.922 772.05,12.46 L772.05,11.438 C771.714,10.976 771.084,10.738 770.44,10.738 C769.614,10.738 768.998,11.214 768.998,11.956 C768.998,12.684 769.614,13.16 770.44,13.16 Z M781.5,14.168 C779.568,14.168 778.308,12.866 778.07,11.186 L776.894,11.186 L776.894,14 L775.424,14 L775.424,7.238 L776.894,7.238 L776.894,9.898 L778.084,9.898 C778.378,8.302 779.624,7.07 781.5,7.07 C783.67,7.07 784.986,8.68 784.986,10.612 C784.986,12.558 783.67,14.168 781.5,14.168 Z M781.5,12.866 C782.76,12.866 783.46,11.816 783.46,10.612 C783.46,9.422 782.76,8.372 781.5,8.372 C780.254,8.372 779.554,9.422 779.554,10.612 C779.554,11.816 780.254,12.866 781.5,12.866 Z M789.172,14 L787.702,14 L787.702,8.526 L785.77,8.526 L785.77,7.238 L791.118,7.238 L791.118,8.526 L789.172,8.526 L789.172,14 Z M798.832,14.168 C797.166,14.168 795.934,13.496 795.304,12.656 L796.186,11.578 C796.788,12.278 797.782,12.712 798.776,12.712 C800.008,12.712 800.722,12.152 800.722,11.284 C800.722,10.36 799.98,9.968 798.65,9.968 C798.258,9.968 797.712,9.968 797.572,9.982 L797.572,8.512 C797.74,8.526 798.286,8.526 798.65,8.526 C799.742,8.526 800.568,8.148 800.568,7.294 C800.568,6.426 799.728,5.978 798.678,5.978 C797.726,5.978 796.942,6.342 796.27,7.014 L795.43,5.992 C796.144,5.152 797.278,4.522 798.832,4.522 C800.848,4.522 802.206,5.474 802.206,7.042 C802.206,8.288 801.142,9.016 800.176,9.184 C801.086,9.268 802.346,10.01 802.346,11.452 C802.346,13.034 800.988,14.168 798.832,14.168 Z M813.602,14 L812.132,14 L812.132,8.526 L809.024,8.526 L809.024,14 L807.554,14 L807.554,7.238 L813.602,7.238 L813.602,14 Z M818.558,14.168 C816.416,14.168 815.086,12.558 815.086,10.612 C815.086,8.68 816.416,7.07 818.558,7.07 C820.728,7.07 822.044,8.68 822.044,10.612 C822.044,12.558 820.728,14.168 818.558,14.168 Z M818.558,12.866 C819.818,12.866 820.518,11.816 820.518,10.612 C820.518,9.422 819.818,8.372 818.558,8.372 C817.312,8.372 816.612,9.422 816.612,10.612 C816.612,11.816 817.312,12.866 818.558,12.866 Z M831.102,14 L829.632,14 L829.632,9.296 L827.616,14 L827.028,14 L824.998,9.296 L824.998,14 L823.528,14 L823.528,7.238 L825.446,7.238 L827.322,11.606 L829.17,7.238 L831.102,7.238 L831.102,14 Z M836.058,14.168 C833.916,14.168 832.586,12.558 832.586,10.612 C832.586,8.68 833.916,7.07 836.058,7.07 C838.228,7.07 839.544,8.68 839.544,10.612 C839.544,12.558 838.228,14.168 836.058,14.168 Z M836.058,12.866 C837.318,12.866 838.018,11.816 838.018,10.612 C838.018,9.422 837.318,8.372 836.058,8.372 C834.812,8.372 834.112,9.422 834.112,10.612 C834.112,11.816 834.812,12.866 836.058,12.866 Z M848.728,7.238 L850.198,7.238 L850.198,12.712 L851.08,12.712 L851.08,15.722 L849.61,15.722 L849.61,14 L841.028,14 L841.028,7.238 L842.498,7.238 L842.498,12.712 L844.878,12.712 L844.878,7.238 L846.348,7.238 L846.348,12.712 L848.728,12.712 L848.728,7.238 Z M853.754,14 L852.284,14 L852.284,7.238 L853.754,7.238 L853.754,9.898 L856.862,9.898 L856.862,7.238 L858.332,7.238 L858.332,14 L856.862,14 L856.862,11.186 L853.754,11.186 L853.754,14 Z M861.65,14 L860.236,14 L860.236,7.238 L861.706,7.238 L861.706,11.788 L864.814,7.238 L866.284,7.238 L866.284,14 L864.814,14 L864.814,9.324 L861.65,14 Z M874.516,14 L872.668,14 L870.596,11.214 L869.658,12.18 L869.658,14 L868.188,14 L868.188,7.238 L869.658,7.238 L869.658,10.5 L872.64,7.238 L874.46,7.238 L871.646,10.304 L874.516,14 Z M881.152,14 L879.682,14 L879.682,13.272 C879.178,13.846 878.394,14.168 877.498,14.168 C876.392,14.168 875.146,13.426 875.146,11.928 C875.146,10.374 876.392,9.73 877.498,9.73 C878.408,9.73 879.192,10.024 879.682,10.598 L879.682,9.59 C879.682,8.806 879.038,8.33 878.1,8.33 C877.344,8.33 876.686,8.61 876.098,9.184 L875.496,8.162 C876.28,7.42 877.26,7.07 878.338,7.07 C879.836,7.07 881.152,7.7 881.152,9.52 L881.152,14 Z M878.072,13.16 C878.716,13.16 879.346,12.922 879.682,12.46 L879.682,11.438 C879.346,10.976 878.716,10.738 878.072,10.738 C877.246,10.738 876.63,11.214 876.63,11.956 C876.63,12.684 877.246,13.16 878.072,13.16 Z M731.366,24.662 L731.366,27.14 C731.366,28.484 732.024,29.072 733.256,29.072 C733.984,29.072 734.67,28.932 735.202,28.722 L735.202,24.662 L736.84,24.662 L736.84,34 L735.202,34 L735.202,30.164 C734.656,30.36 733.858,30.514 733.088,30.514 C730.792,30.514 729.728,29.17 729.728,27.14 L729.728,24.662 L731.366,24.662 Z M740.2,34 L738.786,34 L738.786,27.238 L740.256,27.238 L740.256,31.788 L743.364,27.238 L744.834,27.238 L744.834,34 L743.364,34 L743.364,29.324 L740.2,34 Z M749.818,34.168 C747.76,34.168 746.318,32.67 746.318,30.612 C746.318,28.568 747.76,27.07 749.818,27.07 C751.134,27.07 751.932,27.63 752.408,28.274 L751.442,29.17 C751.064,28.638 750.546,28.372 749.888,28.372 C748.656,28.372 747.844,29.296 747.844,30.612 C747.844,31.928 748.656,32.866 749.888,32.866 C750.546,32.866 751.064,32.586 751.442,32.068 L752.408,32.964 C751.932,33.608 751.134,34.168 749.818,34.168 Z M756.398,34 L754.928,34 L754.928,28.526 L752.996,28.526 L752.996,27.238 L758.344,27.238 L758.344,28.526 L756.398,28.526 L756.398,34 Z M765.148,34 L763.678,34 L763.678,33.272 C763.174,33.846 762.39,34.168 761.494,34.168 C760.388,34.168 759.142,33.426 759.142,31.928 C759.142,30.374 760.388,29.73 761.494,29.73 C762.404,29.73 763.188,30.024 763.678,30.598 L763.678,29.59 C763.678,28.806 763.034,28.33 762.096,28.33 C761.34,28.33 760.682,28.61 760.094,29.184 L759.492,28.162 C760.276,27.42 761.256,27.07 762.334,27.07 C763.832,27.07 765.148,27.7 765.148,29.52 L765.148,34 Z M762.068,33.16 C762.712,33.16 763.342,32.922 763.678,32.46 L763.678,31.438 C763.342,30.976 762.712,30.738 762.068,30.738 C761.242,30.738 760.626,31.214 760.626,31.956 C760.626,32.684 761.242,33.16 762.068,33.16 Z M768.494,34 L766.814,34 L768.48,31.48 C767.598,31.284 766.898,30.556 766.898,29.394 C766.898,28.232 767.682,27.238 769.138,27.238 L773.002,27.238 L773.002,34 L771.532,34 L771.532,31.55 L769.978,31.55 L768.494,34 Z M769.32,30.262 L771.532,30.262 L771.532,28.526 L769.32,28.526 C768.76,28.526 768.396,28.89 768.396,29.394 C768.396,29.898 768.732,30.262 769.32,30.262 Z M784.552,34 L783.082,34 L783.082,28.526 L779.974,28.526 L779.974,34 L778.504,34 L778.504,27.238 L784.552,27.238 L784.552,34 Z M790.096,34.168 C789.242,34.168 788.472,33.79 787.926,33.062 L787.926,36.576 L786.456,36.576 L786.456,27.238 L787.926,27.238 L787.926,28.162 C788.43,27.49 789.214,27.07 790.096,27.07 C791.846,27.07 793.092,28.386 793.092,30.612 C793.092,32.838 791.846,34.168 790.096,34.168 Z M789.662,32.866 C790.824,32.866 791.566,31.928 791.566,30.612 C791.566,29.31 790.824,28.372 789.662,28.372 C788.976,28.372 788.248,28.778 787.926,29.282 L787.926,31.956 C788.248,32.446 788.976,32.866 789.662,32.866 Z M795.962,34 L794.548,34 L794.548,27.238 L796.018,27.238 L796.018,31.788 L799.126,27.238 L800.596,27.238 L800.596,34 L799.126,34 L799.126,29.324 L795.962,34 Z M805.552,32.866 C806.812,32.866 807.512,31.816 807.512,30.584 C807.512,29.422 806.812,28.372 805.552,28.372 C804.306,28.372 803.606,29.422 803.606,30.584 C803.606,31.816 804.306,32.866 805.552,32.866 Z M805.552,34.168 C803.368,34.168 802.094,32.502 802.094,30.304 C802.094,27.014 803.228,25.572 805.496,25.292 C806.938,25.082 807.344,24.914 807.344,24.662 L808.786,24.662 C808.786,25.978 807.022,26.328 805.902,26.454 C804.278,26.636 803.578,27.434 803.396,28.26 C803.942,27.518 804.852,27.07 805.832,27.07 C807.75,27.07 809.024,28.722 809.024,30.598 C809.024,32.502 807.75,34.168 805.552,34.168 Z M810.578,27.238 L812.048,27.238 L812.048,29.688 L814.442,29.688 C815.94,29.688 816.682,30.682 816.682,31.844 C816.682,33.006 815.898,34 814.442,34 L810.578,34 L810.578,27.238 Z M814.26,30.976 L812.048,30.976 L812.048,32.712 L814.26,32.712 C814.848,32.712 815.184,32.348 815.184,31.844 C815.184,31.34 814.848,30.976 814.26,30.976 Z M819.174,34 L817.704,34 L817.704,27.238 L819.174,27.238 L819.174,34 Z M820.378,34.168 L820.378,32.964 C820.952,32.964 821.274,32.306 821.498,30.528 L821.904,27.238 L827.126,27.238 L827.126,34 L825.656,34 L825.656,28.526 L823.206,28.526 L822.968,30.696 C822.702,33.146 821.862,34.168 820.378,34.168 Z M829.03,27.238 L830.5,27.238 L830.5,29.688 L832.894,29.688 C834.392,29.688 835.134,30.682 835.134,31.844 C835.134,33.006 834.35,34 832.894,34 L829.03,34 L829.03,27.238 Z M832.712,30.976 L830.5,30.976 L830.5,32.712 L832.712,32.712 C833.3,32.712 833.636,32.348 833.636,31.844 C833.636,31.34 833.3,30.976 832.712,30.976 Z M843.24,34.168 C841.098,34.168 839.768,32.558 839.768,30.612 C839.768,28.68 841.098,27.07 843.24,27.07 C845.41,27.07 846.726,28.68 846.726,30.612 C846.726,32.558 845.41,34.168 843.24,34.168 Z M843.24,32.866 C844.5,32.866 845.2,31.816 845.2,30.612 C845.2,29.422 844.5,28.372 843.24,28.372 C841.994,28.372 841.294,29.422 841.294,30.612 C841.294,31.816 841.994,32.866 843.24,32.866 Z M850.912,34 L849.442,34 L849.442,28.526 L847.51,28.526 L847.51,27.238 L852.858,27.238 L852.858,28.526 L850.912,28.526 L850.912,34 Z M860.572,34.168 C858.906,34.168 857.674,33.496 857.044,32.656 L857.926,31.578 C858.528,32.278 859.522,32.712 860.516,32.712 C861.748,32.712 862.462,32.152 862.462,31.284 C862.462,30.36 861.72,29.968 860.39,29.968 C859.998,29.968 859.452,29.968 859.312,29.982 L859.312,28.512 C859.48,28.526 860.026,28.526 860.39,28.526 C861.482,28.526 862.308,28.148 862.308,27.294 C862.308,26.426 861.468,25.978 860.418,25.978 C859.466,25.978 858.682,26.342 858.01,27.014 L857.17,25.992 C857.884,25.152 859.018,24.522 860.572,24.522 C862.588,24.522 863.946,25.474 863.946,27.042 C863.946,28.288 862.882,29.016 861.916,29.184 C862.826,29.268 864.086,30.01 864.086,31.452 C864.086,33.034 862.728,34.168 860.572,34.168 Z M869,34.168 C867.39,34.168 866.284,33.622 865.528,32.726 L866.466,31.606 C867.096,32.32 867.936,32.712 868.986,32.712 C870.162,32.712 870.904,31.984 870.904,31.074 C870.904,30.066 870.176,29.408 869.028,29.408 C868.23,29.408 867.572,29.66 866.984,30.22 L865.822,29.884 L865.822,24.662 L871.94,24.662 L871.94,26.104 L867.46,26.104 L867.46,28.806 C867.908,28.358 868.678,27.994 869.574,27.994 C871.142,27.994 872.556,29.1 872.556,31.004 C872.556,32.95 871.086,34.168 869,34.168 Z M877.456,34.168 C874.838,34.168 873.718,31.69 873.718,29.338 C873.718,26.986 874.838,24.522 877.456,24.522 C880.074,24.522 881.194,26.986 881.194,29.338 C881.194,31.69 880.074,34.168 877.456,34.168 Z M877.456,32.712 C878.982,32.712 879.528,31.116 879.528,29.338 C879.528,27.56 878.982,25.978 877.456,25.978 C875.93,25.978 875.384,27.56 875.384,29.338 C875.384,31.116 875.93,32.712 877.456,32.712 Z M889.678,34.168 C887.06,34.168 885.94,31.69 885.94,29.338 C885.94,26.986 887.06,24.522 889.678,24.522 C892.296,24.522 893.416,26.986 893.416,29.338 C893.416,31.69 892.296,34.168 889.678,34.168 Z M889.678,32.712 C891.204,32.712 891.75,31.116 891.75,29.338 C891.75,27.56 891.204,25.978 889.678,25.978 C888.152,25.978 887.606,27.56 887.606,29.338 C887.606,31.116 888.152,32.712 889.678,32.712 Z M898.302,34.168 C895.684,34.168 894.564,31.69 894.564,29.338 C894.564,26.986 895.684,24.522 898.302,24.522 C900.92,24.522 902.04,26.986 902.04,29.338 C902.04,31.69 900.92,34.168 898.302,34.168 Z M898.302,32.712 C899.828,32.712 900.374,31.116 900.374,29.338 C900.374,27.56 899.828,25.978 898.302,25.978 C896.776,25.978 896.23,27.56 896.23,29.338 C896.23,31.116 896.776,32.712 898.302,32.712 Z M906.926,34.168 C904.308,34.168 903.188,31.69 903.188,29.338 C903.188,26.986 904.308,24.522 906.926,24.522 C909.544,24.522 910.664,26.986 910.664,29.338 C910.664,31.69 909.544,34.168 906.926,34.168 Z M906.926,32.712 C908.452,32.712 908.998,31.116 908.998,29.338 C908.998,27.56 908.452,25.978 906.926,25.978 C905.4,25.978 904.854,27.56 904.854,29.338 C904.854,31.116 905.4,32.712 906.926,32.712 Z M915.362423,28.6219512 L916.372585,28.6219512 L916.372585,24.0833333 L918.976244,24.0833333 C919.459986,24.0833333 919.901039,24.1378721 920.299415,24.2469512 C920.697791,24.3560304 921.039251,24.5220179 921.323805,24.7449187 C921.608359,24.9678195 921.831257,25.2499983 921.992504,25.5914634 C922.153751,25.9329285 922.234374,26.3407835 922.234374,26.8150407 C922.234374,27.2892978 922.149009,27.7018953 921.978276,28.0528455 C921.807544,28.4037958 921.575161,28.6954595 921.281122,28.9278455 C920.987083,29.1602315 920.64088,29.3333328 920.242504,29.4471545 C919.844128,29.5609762 919.412561,29.6178862 918.947789,29.6178862 L917.510797,29.6178862 L917.510797,31.054878 L919.801447,31.054878 L919.801447,31.9939024 L917.510797,31.9939024 L917.510797,34 L916.372585,34 L916.372585,31.9939024 L915.362423,31.9939024 L915.362423,31.054878 L916.372585,31.054878 L916.372585,29.6178862 L915.362423,29.6178862 L915.362423,28.6219512 Z M918.976244,28.6219512 C919.630719,28.6219512 920.14528,28.4725625 920.519943,28.1737805 C920.894606,27.8749985 921.081935,27.4220898 921.081935,26.8150407 C921.081935,26.2079915 920.894606,25.766939 920.519943,25.4918699 C920.14528,25.2168008 919.630719,25.0792683 918.976244,25.0792683 L917.510797,25.0792683 L917.510797,28.6219512 L918.976244,28.6219512 Z M927.436569,34.28 L926.344569,34.28 L929.662569,24.382 L930.754569,24.382 L927.436569,34.28 Z M942.878569,34 L941.408569,34 L941.408569,29.296 L939.392569,34 L938.804569,34 L936.774569,29.296 L936.774569,34 L935.304569,34 L935.304569,27.238 L937.222569,27.238 L939.098569,31.606 L940.946569,27.238 L942.878569,27.238 L942.878569,34 Z M947.904569,34.168 C945.874569,34.168 944.362569,32.754 944.362569,30.612 C944.362569,28.652 945.790569,27.07 947.792569,27.07 C949.822569,27.07 951.124569,28.624 951.124569,30.752 L951.124569,31.102 L945.902569,31.102 C946.014569,32.124 946.784569,32.964 948.058569,32.964 C948.716569,32.964 949.500569,32.698 949.976569,32.222 L950.648569,33.188 C949.976569,33.832 948.982569,34.168 947.904569,34.168 Z M949.696569,30.066 C949.668569,29.268 949.122569,28.274 947.792569,28.274 C946.532569,28.274 945.958569,29.24 945.888569,30.066 L949.696569,30.066 Z M955.660569,34.168 C953.602569,34.168 952.160569,32.67 952.160569,30.612 C952.160569,28.568 953.602569,27.07 955.660569,27.07 C956.976569,27.07 957.774569,27.63 958.250569,28.274 L957.284569,29.17 C956.906569,28.638 956.388569,28.372 955.730569,28.372 C954.498569,28.372 953.686569,29.296 953.686569,30.612 C953.686569,31.928 954.498569,32.866 955.730569,32.866 C956.388569,32.866 956.906569,32.586 957.284569,32.068 L958.250569,32.964 C957.774569,33.608 956.976569,34.168 955.660569,34.168 Z" id="Работают-3-помощника" fill="#FFFFFF"></path>
        </g>
    </g>
</svg>