<?xml version="1.0" encoding="UTF-8"?>
<svg width="230px" height="352px" viewBox="0 0 230 352" version="1.1" xmlns="http://www.w3.org/2000/svg" xmlns:xlink="http://www.w3.org/1999/xlink">
    <!-- Generator: Sketch 48.1 (47250) - http://www.bohemiancoding.com/sketch -->
    <title>Group 68</title>
    <desc>Created with Sketch.</desc>
    <defs></defs>
    <g id="Landing-MHT-Warm-Floor" stroke="none" stroke-width="1" fill="none" fill-rule="evenodd">
        <g id="Group-68" transform="translate(0.000000, -3.000000)">
            <g id="Group-34">
                <g id="Group-66" transform="translate(0.000000, 291.000000)">
                    <path d="M2.632,41 L0.994,41 L0.994,31.662 L5.096,31.662 C7.056,31.662 8.148,33.006 8.148,34.588 C8.148,36.17 7.042,37.514 5.096,37.514 L2.632,37.514 L2.632,41 Z M4.872,36.072 C5.796,36.072 6.468,35.484 6.468,34.588 C6.468,33.692 5.796,33.104 4.872,33.104 L2.632,33.104 L2.632,36.072 L4.872,36.072 Z M15.064,41 L13.594,41 L13.594,40.272 C13.09,40.846 12.306,41.168 11.41,41.168 C10.304,41.168 9.058,40.426 9.058,38.928 C9.058,37.374 10.304,36.73 11.41,36.73 C12.32,36.73 13.104,37.024 13.594,37.598 L13.594,36.59 C13.594,35.806 12.95,35.33 12.012,35.33 C11.256,35.33 10.598,35.61 10.01,36.184 L9.408,35.162 C10.192,34.42 11.172,34.07 12.25,34.07 C13.748,34.07 15.064,34.7 15.064,36.52 L15.064,41 Z M11.984,40.16 C12.628,40.16 13.258,39.922 13.594,39.46 L13.594,38.438 C13.258,37.976 12.628,37.738 11.984,37.738 C11.158,37.738 10.542,38.214 10.542,38.956 C10.542,39.684 11.158,40.16 11.984,40.16 Z M20.02,39.866 C21.28,39.866 21.98,38.816 21.98,37.584 C21.98,36.422 21.28,35.372 20.02,35.372 C18.774,35.372 18.074,36.422 18.074,37.584 C18.074,38.816 18.774,39.866 20.02,39.866 Z M20.02,41.168 C17.836,41.168 16.562,39.502 16.562,37.304 C16.562,34.014 17.696,32.572 19.964,32.292 C21.406,32.082 21.812,31.914 21.812,31.662 L23.254,31.662 C23.254,32.978 21.49,33.328 20.37,33.454 C18.746,33.636 18.046,34.434 17.864,35.26 C18.41,34.518 19.32,34.07 20.3,34.07 C22.218,34.07 23.492,35.722 23.492,37.598 C23.492,39.502 22.218,41.168 20.02,41.168 Z M28.098,41.168 C25.956,41.168 24.626,39.558 24.626,37.612 C24.626,35.68 25.956,34.07 28.098,34.07 C30.268,34.07 31.584,35.68 31.584,37.612 C31.584,39.558 30.268,41.168 28.098,41.168 Z M28.098,39.866 C29.358,39.866 30.058,38.816 30.058,37.612 C30.058,36.422 29.358,35.372 28.098,35.372 C26.852,35.372 26.152,36.422 26.152,37.612 C26.152,38.816 26.852,39.866 28.098,39.866 Z M35.77,41 L34.3,41 L34.3,35.526 L32.368,35.526 L32.368,34.238 L37.716,34.238 L37.716,35.526 L35.77,35.526 L35.77,41 Z M44.52,41 L43.05,41 L43.05,40.272 C42.546,40.846 41.762,41.168 40.866,41.168 C39.76,41.168 38.514,40.426 38.514,38.928 C38.514,37.374 39.76,36.73 40.866,36.73 C41.776,36.73 42.56,37.024 43.05,37.598 L43.05,36.59 C43.05,35.806 42.406,35.33 41.468,35.33 C40.712,35.33 40.054,35.61 39.466,36.184 L38.864,35.162 C39.648,34.42 40.628,34.07 41.706,34.07 C43.204,34.07 44.52,34.7 44.52,36.52 L44.52,41 Z M41.44,40.16 C42.084,40.16 42.714,39.922 43.05,39.46 L43.05,38.438 C42.714,37.976 42.084,37.738 41.44,37.738 C40.614,37.738 39.998,38.214 39.998,38.956 C39.998,39.684 40.614,40.16 41.44,40.16 Z M52.5,41.168 C50.568,41.168 49.308,39.866 49.07,38.186 L47.894,38.186 L47.894,41 L46.424,41 L46.424,34.238 L47.894,34.238 L47.894,36.898 L49.084,36.898 C49.378,35.302 50.624,34.07 52.5,34.07 C54.67,34.07 55.986,35.68 55.986,37.612 C55.986,39.558 54.67,41.168 52.5,41.168 Z M52.5,39.866 C53.76,39.866 54.46,38.816 54.46,37.612 C54.46,36.422 53.76,35.372 52.5,35.372 C51.254,35.372 50.554,36.422 50.554,37.612 C50.554,38.816 51.254,39.866 52.5,39.866 Z M60.172,41 L58.702,41 L58.702,35.526 L56.77,35.526 L56.77,34.238 L62.118,34.238 L62.118,35.526 L60.172,35.526 L60.172,41 Z M69.832,41.168 C68.166,41.168 66.934,40.496 66.304,39.656 L67.186,38.578 C67.788,39.278 68.782,39.712 69.776,39.712 C71.008,39.712 71.722,39.152 71.722,38.284 C71.722,37.36 70.98,36.968 69.65,36.968 C69.258,36.968 68.712,36.968 68.572,36.982 L68.572,35.512 C68.74,35.526 69.286,35.526 69.65,35.526 C70.742,35.526 71.568,35.148 71.568,34.294 C71.568,33.426 70.728,32.978 69.678,32.978 C68.726,32.978 67.942,33.342 67.27,34.014 L66.43,32.992 C67.144,32.152 68.278,31.522 69.832,31.522 C71.848,31.522 73.206,32.474 73.206,34.042 C73.206,35.288 72.142,36.016 71.176,36.184 C72.086,36.268 73.346,37.01 73.346,38.452 C73.346,40.034 71.988,41.168 69.832,41.168 Z M84.602,41 L83.132,41 L83.132,35.526 L80.024,35.526 L80.024,41 L78.554,41 L78.554,34.238 L84.602,34.238 L84.602,41 Z M89.558,41.168 C87.416,41.168 86.086,39.558 86.086,37.612 C86.086,35.68 87.416,34.07 89.558,34.07 C91.728,34.07 93.044,35.68 93.044,37.612 C93.044,39.558 91.728,41.168 89.558,41.168 Z M89.558,39.866 C90.818,39.866 91.518,38.816 91.518,37.612 C91.518,36.422 90.818,35.372 89.558,35.372 C88.312,35.372 87.612,36.422 87.612,37.612 C87.612,38.816 88.312,39.866 89.558,39.866 Z M102.102,41 L100.632,41 L100.632,36.296 L98.616,41 L98.028,41 L95.998,36.296 L95.998,41 L94.528,41 L94.528,34.238 L96.446,34.238 L98.322,38.606 L100.17,34.238 L102.102,34.238 L102.102,41 Z M107.058,41.168 C104.916,41.168 103.586,39.558 103.586,37.612 C103.586,35.68 104.916,34.07 107.058,34.07 C109.228,34.07 110.544,35.68 110.544,37.612 C110.544,39.558 109.228,41.168 107.058,41.168 Z M107.058,39.866 C108.318,39.866 109.018,38.816 109.018,37.612 C109.018,36.422 108.318,35.372 107.058,35.372 C105.812,35.372 105.112,36.422 105.112,37.612 C105.112,38.816 105.812,39.866 107.058,39.866 Z M119.728,34.238 L121.198,34.238 L121.198,39.712 L122.08,39.712 L122.08,42.722 L120.61,42.722 L120.61,41 L112.028,41 L112.028,34.238 L113.498,34.238 L113.498,39.712 L115.878,39.712 L115.878,34.238 L117.348,34.238 L117.348,39.712 L119.728,39.712 L119.728,34.238 Z M124.754,41 L123.284,41 L123.284,34.238 L124.754,34.238 L124.754,36.898 L127.862,36.898 L127.862,34.238 L129.332,34.238 L129.332,41 L127.862,41 L127.862,38.186 L124.754,38.186 L124.754,41 Z M132.65,41 L131.236,41 L131.236,34.238 L132.706,34.238 L132.706,38.788 L135.814,34.238 L137.284,34.238 L137.284,41 L135.814,41 L135.814,36.324 L132.65,41 Z M145.516,41 L143.668,41 L141.596,38.214 L140.658,39.18 L140.658,41 L139.188,41 L139.188,34.238 L140.658,34.238 L140.658,37.5 L143.64,34.238 L145.46,34.238 L142.646,37.304 L145.516,41 Z M152.152,41 L150.682,41 L150.682,40.272 C150.178,40.846 149.394,41.168 148.498,41.168 C147.392,41.168 146.146,40.426 146.146,38.928 C146.146,37.374 147.392,36.73 148.498,36.73 C149.408,36.73 150.192,37.024 150.682,37.598 L150.682,36.59 C150.682,35.806 150.038,35.33 149.1,35.33 C148.344,35.33 147.686,35.61 147.098,36.184 L146.496,35.162 C147.28,34.42 148.26,34.07 149.338,34.07 C150.836,34.07 152.152,34.7 152.152,36.52 L152.152,41 Z M149.072,40.16 C149.716,40.16 150.346,39.922 150.682,39.46 L150.682,38.438 C150.346,37.976 149.716,37.738 149.072,37.738 C148.246,37.738 147.63,38.214 147.63,38.956 C147.63,39.684 148.246,40.16 149.072,40.16 Z M2.366,51.662 L2.366,54.14 C2.366,55.484 3.024,56.072 4.256,56.072 C4.984,56.072 5.67,55.932 6.202,55.722 L6.202,51.662 L7.84,51.662 L7.84,61 L6.202,61 L6.202,57.164 C5.656,57.36 4.858,57.514 4.088,57.514 C1.792,57.514 0.728,56.17 0.728,54.14 L0.728,51.662 L2.366,51.662 Z M11.2,61 L9.786,61 L9.786,54.238 L11.256,54.238 L11.256,58.788 L14.364,54.238 L15.834,54.238 L15.834,61 L14.364,61 L14.364,56.324 L11.2,61 Z M20.818,61.168 C18.76,61.168 17.318,59.67 17.318,57.612 C17.318,55.568 18.76,54.07 20.818,54.07 C22.134,54.07 22.932,54.63 23.408,55.274 L22.442,56.17 C22.064,55.638 21.546,55.372 20.888,55.372 C19.656,55.372 18.844,56.296 18.844,57.612 C18.844,58.928 19.656,59.866 20.888,59.866 C21.546,59.866 22.064,59.586 22.442,59.068 L23.408,59.964 C22.932,60.608 22.134,61.168 20.818,61.168 Z M27.398,61 L25.928,61 L25.928,55.526 L23.996,55.526 L23.996,54.238 L29.344,54.238 L29.344,55.526 L27.398,55.526 L27.398,61 Z M36.148,61 L34.678,61 L34.678,60.272 C34.174,60.846 33.39,61.168 32.494,61.168 C31.388,61.168 30.142,60.426 30.142,58.928 C30.142,57.374 31.388,56.73 32.494,56.73 C33.404,56.73 34.188,57.024 34.678,57.598 L34.678,56.59 C34.678,55.806 34.034,55.33 33.096,55.33 C32.34,55.33 31.682,55.61 31.094,56.184 L30.492,55.162 C31.276,54.42 32.256,54.07 33.334,54.07 C34.832,54.07 36.148,54.7 36.148,56.52 L36.148,61 Z M33.068,60.16 C33.712,60.16 34.342,59.922 34.678,59.46 L34.678,58.438 C34.342,57.976 33.712,57.738 33.068,57.738 C32.242,57.738 31.626,58.214 31.626,58.956 C31.626,59.684 32.242,60.16 33.068,60.16 Z M39.494,61 L37.814,61 L39.48,58.48 C38.598,58.284 37.898,57.556 37.898,56.394 C37.898,55.232 38.682,54.238 40.138,54.238 L44.002,54.238 L44.002,61 L42.532,61 L42.532,58.55 L40.978,58.55 L39.494,61 Z M40.32,57.262 L42.532,57.262 L42.532,55.526 L40.32,55.526 C39.76,55.526 39.396,55.89 39.396,56.394 C39.396,56.898 39.732,57.262 40.32,57.262 Z M55.552,61 L54.082,61 L54.082,55.526 L50.974,55.526 L50.974,61 L49.504,61 L49.504,54.238 L55.552,54.238 L55.552,61 Z M61.096,61.168 C60.242,61.168 59.472,60.79 58.926,60.062 L58.926,63.576 L57.456,63.576 L57.456,54.238 L58.926,54.238 L58.926,55.162 C59.43,54.49 60.214,54.07 61.096,54.07 C62.846,54.07 64.092,55.386 64.092,57.612 C64.092,59.838 62.846,61.168 61.096,61.168 Z M60.662,59.866 C61.824,59.866 62.566,58.928 62.566,57.612 C62.566,56.31 61.824,55.372 60.662,55.372 C59.976,55.372 59.248,55.778 58.926,56.282 L58.926,58.956 C59.248,59.446 59.976,59.866 60.662,59.866 Z M66.962,61 L65.548,61 L65.548,54.238 L67.018,54.238 L67.018,58.788 L70.126,54.238 L71.596,54.238 L71.596,61 L70.126,61 L70.126,56.324 L66.962,61 Z M76.552,59.866 C77.812,59.866 78.512,58.816 78.512,57.584 C78.512,56.422 77.812,55.372 76.552,55.372 C75.306,55.372 74.606,56.422 74.606,57.584 C74.606,58.816 75.306,59.866 76.552,59.866 Z M76.552,61.168 C74.368,61.168 73.094,59.502 73.094,57.304 C73.094,54.014 74.228,52.572 76.496,52.292 C77.938,52.082 78.344,51.914 78.344,51.662 L79.786,51.662 C79.786,52.978 78.022,53.328 76.902,53.454 C75.278,53.636 74.578,54.434 74.396,55.26 C74.942,54.518 75.852,54.07 76.832,54.07 C78.75,54.07 80.024,55.722 80.024,57.598 C80.024,59.502 78.75,61.168 76.552,61.168 Z M81.578,54.238 L83.048,54.238 L83.048,56.688 L85.442,56.688 C86.94,56.688 87.682,57.682 87.682,58.844 C87.682,60.006 86.898,61 85.442,61 L81.578,61 L81.578,54.238 Z M85.26,57.976 L83.048,57.976 L83.048,59.712 L85.26,59.712 C85.848,59.712 86.184,59.348 86.184,58.844 C86.184,58.34 85.848,57.976 85.26,57.976 Z M90.174,61 L88.704,61 L88.704,54.238 L90.174,54.238 L90.174,61 Z M91.378,61.168 L91.378,59.964 C91.952,59.964 92.274,59.306 92.498,57.528 L92.904,54.238 L98.126,54.238 L98.126,61 L96.656,61 L96.656,55.526 L94.206,55.526 L93.968,57.696 C93.702,60.146 92.862,61.168 91.378,61.168 Z M100.03,54.238 L101.5,54.238 L101.5,56.688 L103.894,56.688 C105.392,56.688 106.134,57.682 106.134,58.844 C106.134,60.006 105.35,61 103.894,61 L100.03,61 L100.03,54.238 Z M103.712,57.976 L101.5,57.976 L101.5,59.712 L103.712,59.712 C104.3,59.712 104.636,59.348 104.636,58.844 C104.636,58.34 104.3,57.976 103.712,57.976 Z M114.24,61.168 C112.098,61.168 110.768,59.558 110.768,57.612 C110.768,55.68 112.098,54.07 114.24,54.07 C116.41,54.07 117.726,55.68 117.726,57.612 C117.726,59.558 116.41,61.168 114.24,61.168 Z M114.24,59.866 C115.5,59.866 116.2,58.816 116.2,57.612 C116.2,56.422 115.5,55.372 114.24,55.372 C112.994,55.372 112.294,56.422 112.294,57.612 C112.294,58.816 112.994,59.866 114.24,59.866 Z M121.912,61 L120.442,61 L120.442,55.526 L118.51,55.526 L118.51,54.238 L123.858,54.238 L123.858,55.526 L121.912,55.526 L121.912,61 Z M131.572,61.168 C129.906,61.168 128.674,60.496 128.044,59.656 L128.926,58.578 C129.528,59.278 130.522,59.712 131.516,59.712 C132.748,59.712 133.462,59.152 133.462,58.284 C133.462,57.36 132.72,56.968 131.39,56.968 C130.998,56.968 130.452,56.968 130.312,56.982 L130.312,55.512 C130.48,55.526 131.026,55.526 131.39,55.526 C132.482,55.526 133.308,55.148 133.308,54.294 C133.308,53.426 132.468,52.978 131.418,52.978 C130.466,52.978 129.682,53.342 129.01,54.014 L128.17,52.992 C128.884,52.152 130.018,51.522 131.572,51.522 C133.588,51.522 134.946,52.474 134.946,54.042 C134.946,55.288 133.882,56.016 132.916,56.184 C133.826,56.268 135.086,57.01 135.086,58.452 C135.086,60.034 133.728,61.168 131.572,61.168 Z M140,61.168 C138.39,61.168 137.284,60.622 136.528,59.726 L137.466,58.606 C138.096,59.32 138.936,59.712 139.986,59.712 C141.162,59.712 141.904,58.984 141.904,58.074 C141.904,57.066 141.176,56.408 140.028,56.408 C139.23,56.408 138.572,56.66 137.984,57.22 L136.822,56.884 L136.822,51.662 L142.94,51.662 L142.94,53.104 L138.46,53.104 L138.46,55.806 C138.908,55.358 139.678,54.994 140.574,54.994 C142.142,54.994 143.556,56.1 143.556,58.004 C143.556,59.95 142.086,61.168 140,61.168 Z M148.456,61.168 C145.838,61.168 144.718,58.69 144.718,56.338 C144.718,53.986 145.838,51.522 148.456,51.522 C151.074,51.522 152.194,53.986 152.194,56.338 C152.194,58.69 151.074,61.168 148.456,61.168 Z M148.456,59.712 C149.982,59.712 150.528,58.116 150.528,56.338 C150.528,54.56 149.982,52.978 148.456,52.978 C146.93,52.978 146.384,54.56 146.384,56.338 C146.384,58.116 146.93,59.712 148.456,59.712 Z M160.678,61.168 C158.06,61.168 156.94,58.69 156.94,56.338 C156.94,53.986 158.06,51.522 160.678,51.522 C163.296,51.522 164.416,53.986 164.416,56.338 C164.416,58.69 163.296,61.168 160.678,61.168 Z M160.678,59.712 C162.204,59.712 162.75,58.116 162.75,56.338 C162.75,54.56 162.204,52.978 160.678,52.978 C159.152,52.978 158.606,54.56 158.606,56.338 C158.606,58.116 159.152,59.712 160.678,59.712 Z M169.302,61.168 C166.684,61.168 165.564,58.69 165.564,56.338 C165.564,53.986 166.684,51.522 169.302,51.522 C171.92,51.522 173.04,53.986 173.04,56.338 C173.04,58.69 171.92,61.168 169.302,61.168 Z M169.302,59.712 C170.828,59.712 171.374,58.116 171.374,56.338 C171.374,54.56 170.828,52.978 169.302,52.978 C167.776,52.978 167.23,54.56 167.23,56.338 C167.23,58.116 167.776,59.712 169.302,59.712 Z M177.926,61.168 C175.308,61.168 174.188,58.69 174.188,56.338 C174.188,53.986 175.308,51.522 177.926,51.522 C180.544,51.522 181.664,53.986 181.664,56.338 C181.664,58.69 180.544,61.168 177.926,61.168 Z M177.926,59.712 C179.452,59.712 179.998,58.116 179.998,56.338 C179.998,54.56 179.452,52.978 177.926,52.978 C176.4,52.978 175.854,54.56 175.854,56.338 C175.854,58.116 176.4,59.712 177.926,59.712 Z M186.362423,55.6219512 L187.372585,55.6219512 L187.372585,51.0833333 L189.976244,51.0833333 C190.459986,51.0833333 190.901039,51.1378721 191.299415,51.2469512 C191.697791,51.3560304 192.039251,51.5220179 192.323805,51.7449187 C192.608359,51.9678195 192.831257,52.2499983 192.992504,52.5914634 C193.153751,52.9329285 193.234374,53.3407835 193.234374,53.8150407 C193.234374,54.2892978 193.149009,54.7018953 192.978276,55.0528455 C192.807544,55.4037958 192.575161,55.6954595 192.281122,55.9278455 C191.987083,56.1602315 191.64088,56.3333328 191.242504,56.4471545 C190.844128,56.5609762 190.412561,56.6178862 189.947789,56.6178862 L188.510797,56.6178862 L188.510797,58.054878 L190.801447,58.054878 L190.801447,58.9939024 L188.510797,58.9939024 L188.510797,61 L187.372585,61 L187.372585,58.9939024 L186.362423,58.9939024 L186.362423,58.054878 L187.372585,58.054878 L187.372585,56.6178862 L186.362423,56.6178862 L186.362423,55.6219512 Z M189.976244,55.6219512 C190.630719,55.6219512 191.14528,55.4725625 191.519943,55.1737805 C191.894606,54.8749985 192.081935,54.4220898 192.081935,53.8150407 C192.081935,53.2079915 191.894606,52.766939 191.519943,52.4918699 C191.14528,52.2168008 190.630719,52.0792683 189.976244,52.0792683 L188.510797,52.0792683 L188.510797,55.6219512 L189.976244,55.6219512 Z M198.436569,61.28 L197.344569,61.28 L200.662569,51.382 L201.754569,51.382 L198.436569,61.28 Z M213.878569,61 L212.408569,61 L212.408569,56.296 L210.392569,61 L209.804569,61 L207.774569,56.296 L207.774569,61 L206.304569,61 L206.304569,54.238 L208.222569,54.238 L210.098569,58.606 L211.946569,54.238 L213.878569,54.238 L213.878569,61 Z M218.904569,61.168 C216.874569,61.168 215.362569,59.754 215.362569,57.612 C215.362569,55.652 216.790569,54.07 218.792569,54.07 C220.822569,54.07 222.124569,55.624 222.124569,57.752 L222.124569,58.102 L216.902569,58.102 C217.014569,59.124 217.784569,59.964 219.058569,59.964 C219.716569,59.964 220.500569,59.698 220.976569,59.222 L221.648569,60.188 C220.976569,60.832 219.982569,61.168 218.904569,61.168 Z M220.696569,57.066 C220.668569,56.268 220.122569,55.274 218.792569,55.274 C217.532569,55.274 216.958569,56.24 216.888569,57.066 L220.696569,57.066 Z M226.660569,61.168 C224.602569,61.168 223.160569,59.67 223.160569,57.612 C223.160569,55.568 224.602569,54.07 226.660569,54.07 C227.976569,54.07 228.774569,54.63 229.250569,55.274 L228.284569,56.17 C227.906569,55.638 227.388569,55.372 226.730569,55.372 C225.498569,55.372 224.686569,56.296 224.686569,57.612 C224.686569,58.928 225.498569,59.866 226.730569,59.866 C227.388569,59.866 227.906569,59.586 228.284569,59.068 L229.250569,59.964 C228.774569,60.608 227.976569,61.168 226.660569,61.168 Z" id="Работают-3-помощника" fill="#FFFFFF"></path>
                    <path d="M2.366,3.662 L2.366,6.14 C2.366,7.484 3.024,8.072 4.256,8.072 C4.984,8.072 5.67,7.932 6.202,7.722 L6.202,3.662 L7.84,3.662 L7.84,13 L6.202,13 L6.202,9.164 C5.656,9.36 4.858,9.514 4.088,9.514 C1.792,9.514 0.728,8.17 0.728,6.14 L0.728,3.662 L2.366,3.662 Z M20.226,13 L13.828,13 L13.828,3.662 L20.226,3.662 L20.226,5.104 L15.466,5.104 L15.466,7.526 L20.128,7.526 L20.128,8.968 L15.466,8.968 L15.466,11.558 L20.226,11.558 L20.226,13 Z M29.77,13 L28.132,13 L28.132,5.104 L25.304,5.104 L25.304,3.662 L32.598,3.662 L32.598,5.104 L29.77,5.104 L29.77,13 Z M42.702,13 L37.984,13 L37.984,3.662 L42.576,3.662 C44.284,3.662 45.236,4.726 45.236,6.042 C45.236,7.218 44.48,8.002 43.612,8.184 C44.606,8.338 45.418,9.332 45.418,10.48 C45.418,11.922 44.452,13 42.702,13 Z M42.24,7.526 C43.08,7.526 43.556,7.022 43.556,6.322 C43.556,5.622 43.08,5.104 42.24,5.104 L39.622,5.104 L39.622,7.526 L42.24,7.526 Z M42.31,11.558 C43.206,11.558 43.738,11.068 43.738,10.256 C43.738,9.556 43.248,8.968 42.31,8.968 L39.622,8.968 L39.622,11.558 L42.31,11.558 Z M57.454,13 L51.056,13 L51.056,3.662 L57.454,3.662 L57.454,5.104 L52.694,5.104 L52.694,7.526 L57.356,7.526 L57.356,8.968 L52.694,8.968 L52.694,11.558 L57.454,11.558 L57.454,13 Z M64.772,13 L63.134,13 L63.134,3.662 L67.236,3.662 C69.196,3.662 70.288,5.006 70.288,6.588 C70.288,8.17 69.182,9.514 67.236,9.514 L64.772,9.514 L64.772,13 Z M67.012,8.072 C67.936,8.072 68.608,7.484 68.608,6.588 C68.608,5.692 67.936,5.104 67.012,5.104 L64.772,5.104 L64.772,8.072 L67.012,8.072 Z M79.51,13 L77.872,13 L77.872,5.104 L75.044,5.104 L75.044,3.662 L82.338,3.662 L82.338,5.104 L79.51,5.104 L79.51,13 Z M87.724,3.662 L89.362,3.662 L89.362,7.148 L91.826,7.148 C93.772,7.148 94.878,8.492 94.878,10.074 C94.878,11.656 93.786,13 91.826,13 L87.724,13 L87.724,3.662 Z M91.602,8.59 L89.362,8.59 L89.362,11.558 L91.602,11.558 C92.526,11.558 93.198,10.97 93.198,10.074 C93.198,9.178 92.526,8.59 91.602,8.59 Z M97.384,13 L95.746,13 L95.746,3.662 L97.384,3.662 L97.384,13 Z M109.77,13 L103.372,13 L103.372,3.662 L109.77,3.662 L109.77,5.104 L105.01,5.104 L105.01,7.526 L109.672,7.526 L109.672,8.968 L105.01,8.968 L105.01,11.558 L109.77,11.558 L109.77,13 Z M125.918,13.168 C124.252,13.168 123.02,12.496 122.39,11.656 L123.272,10.578 C123.874,11.278 124.868,11.712 125.862,11.712 C127.094,11.712 127.808,11.152 127.808,10.284 C127.808,9.36 127.066,8.968 125.736,8.968 C125.344,8.968 124.798,8.968 124.658,8.982 L124.658,7.512 C124.826,7.526 125.372,7.526 125.736,7.526 C126.828,7.526 127.654,7.148 127.654,6.294 C127.654,5.426 126.814,4.978 125.764,4.978 C124.812,4.978 124.028,5.342 123.356,6.014 L122.516,4.992 C123.23,4.152 124.364,3.522 125.918,3.522 C127.934,3.522 129.292,4.474 129.292,6.042 C129.292,7.288 128.228,8.016 127.262,8.184 C128.172,8.268 129.432,9.01 129.432,10.452 C129.432,12.034 128.074,13.168 125.918,13.168 Z M152.384,13 L150.746,13 L150.746,6.07 L147.876,13 L147.176,13 L144.32,6.07 L144.32,13 L142.682,13 L142.682,3.662 L144.992,3.662 L147.526,9.808 L150.074,3.662 L152.384,3.662 L152.384,13 Z M164.77,13 L158.372,13 L158.372,3.662 L164.77,3.662 L164.77,5.104 L160.01,5.104 L160.01,7.526 L164.672,7.526 L164.672,8.968 L160.01,8.968 L160.01,11.558 L164.77,11.558 L164.77,13 Z M174.93,13.168 C172.172,13.168 170.03,11.208 170.03,8.338 C170.03,5.468 172.172,3.508 174.93,3.508 C176.82,3.508 177.982,4.488 178.682,5.608 L177.282,6.322 C176.834,5.552 175.938,4.964 174.93,4.964 C173.082,4.964 171.71,6.378 171.71,8.338 C171.71,10.298 173.082,11.712 174.93,11.712 C175.938,11.712 176.834,11.138 177.282,10.354 L178.682,11.068 C177.968,12.188 176.82,13.168 174.93,13.168 Z M185.468,13 L183.578,13 L185.86,9.332 C184.74,9.15 183.648,8.254 183.648,6.588 C183.648,4.866 184.852,3.662 186.7,3.662 L190.802,3.662 L190.802,13 L189.164,13 L189.164,9.514 L187.54,9.514 L185.468,13 Z M186.924,8.072 L189.164,8.072 L189.164,5.104 L186.924,5.104 C186,5.104 185.328,5.692 185.328,6.588 C185.328,7.484 186,8.072 186.924,8.072 Z M204.154,14.722 L204.154,13 L196.79,13 L196.79,3.662 L198.428,3.662 L198.428,11.558 L203.286,11.558 L203.286,3.662 L204.924,3.662 L204.924,11.558 L205.792,11.558 L205.792,14.722 L204.154,14.722 Z M219.438,13 L217.576,13 L216.89,11.208 L212.606,11.208 L211.92,13 L210.058,13 L213.726,3.662 L215.77,3.662 L219.438,13 Z M216.428,9.766 L214.748,5.314 L213.068,9.766 L216.428,9.766 Z" id="Четвертые-3-месяца" fill="#3E4353"></path>
                </g>
                <g id="Group-63">
                    <path d="M2.632,41 L0.994,41 L0.994,31.662 L5.096,31.662 C7.056,31.662 8.148,33.006 8.148,34.588 C8.148,36.17 7.042,37.514 5.096,37.514 L2.632,37.514 L2.632,41 Z M4.872,36.072 C5.796,36.072 6.468,35.484 6.468,34.588 C6.468,33.692 5.796,33.104 4.872,33.104 L2.632,33.104 L2.632,36.072 L4.872,36.072 Z M15.064,41 L13.594,41 L13.594,40.272 C13.09,40.846 12.306,41.168 11.41,41.168 C10.304,41.168 9.058,40.426 9.058,38.928 C9.058,37.374 10.304,36.73 11.41,36.73 C12.32,36.73 13.104,37.024 13.594,37.598 L13.594,36.59 C13.594,35.806 12.95,35.33 12.012,35.33 C11.256,35.33 10.598,35.61 10.01,36.184 L9.408,35.162 C10.192,34.42 11.172,34.07 12.25,34.07 C13.748,34.07 15.064,34.7 15.064,36.52 L15.064,41 Z M11.984,40.16 C12.628,40.16 13.258,39.922 13.594,39.46 L13.594,38.438 C13.258,37.976 12.628,37.738 11.984,37.738 C11.158,37.738 10.542,38.214 10.542,38.956 C10.542,39.684 11.158,40.16 11.984,40.16 Z M20.02,39.866 C21.28,39.866 21.98,38.816 21.98,37.584 C21.98,36.422 21.28,35.372 20.02,35.372 C18.774,35.372 18.074,36.422 18.074,37.584 C18.074,38.816 18.774,39.866 20.02,39.866 Z M20.02,41.168 C17.836,41.168 16.562,39.502 16.562,37.304 C16.562,34.014 17.696,32.572 19.964,32.292 C21.406,32.082 21.812,31.914 21.812,31.662 L23.254,31.662 C23.254,32.978 21.49,33.328 20.37,33.454 C18.746,33.636 18.046,34.434 17.864,35.26 C18.41,34.518 19.32,34.07 20.3,34.07 C22.218,34.07 23.492,35.722 23.492,37.598 C23.492,39.502 22.218,41.168 20.02,41.168 Z M28.098,41.168 C25.956,41.168 24.626,39.558 24.626,37.612 C24.626,35.68 25.956,34.07 28.098,34.07 C30.268,34.07 31.584,35.68 31.584,37.612 C31.584,39.558 30.268,41.168 28.098,41.168 Z M28.098,39.866 C29.358,39.866 30.058,38.816 30.058,37.612 C30.058,36.422 29.358,35.372 28.098,35.372 C26.852,35.372 26.152,36.422 26.152,37.612 C26.152,38.816 26.852,39.866 28.098,39.866 Z M35.77,41 L34.3,41 L34.3,35.526 L32.368,35.526 L32.368,34.238 L37.716,34.238 L37.716,35.526 L35.77,35.526 L35.77,41 Z M44.52,41 L43.05,41 L43.05,40.272 C42.546,40.846 41.762,41.168 40.866,41.168 C39.76,41.168 38.514,40.426 38.514,38.928 C38.514,37.374 39.76,36.73 40.866,36.73 C41.776,36.73 42.56,37.024 43.05,37.598 L43.05,36.59 C43.05,35.806 42.406,35.33 41.468,35.33 C40.712,35.33 40.054,35.61 39.466,36.184 L38.864,35.162 C39.648,34.42 40.628,34.07 41.706,34.07 C43.204,34.07 44.52,34.7 44.52,36.52 L44.52,41 Z M41.44,40.16 C42.084,40.16 42.714,39.922 43.05,39.46 L43.05,38.438 C42.714,37.976 42.084,37.738 41.44,37.738 C40.614,37.738 39.998,38.214 39.998,38.956 C39.998,39.684 40.614,40.16 41.44,40.16 Z M49.546,41.168 C47.516,41.168 46.004,39.754 46.004,37.612 C46.004,35.652 47.432,34.07 49.434,34.07 C51.464,34.07 52.766,35.624 52.766,37.752 L52.766,38.102 L47.544,38.102 C47.656,39.124 48.426,39.964 49.7,39.964 C50.358,39.964 51.142,39.698 51.618,39.222 L52.29,40.188 C51.618,40.832 50.624,41.168 49.546,41.168 Z M51.338,37.066 C51.31,36.268 50.764,35.274 49.434,35.274 C48.174,35.274 47.6,36.24 47.53,37.066 L51.338,37.066 Z M56.924,41 L55.454,41 L55.454,35.526 L53.522,35.526 L53.522,34.238 L58.87,34.238 L58.87,35.526 L56.924,35.526 L56.924,41 Z M66.752,41.168 C64.694,41.168 63.252,39.67 63.252,37.612 C63.252,35.568 64.694,34.07 66.752,34.07 C68.068,34.07 68.866,34.63 69.342,35.274 L68.376,36.17 C67.998,35.638 67.48,35.372 66.822,35.372 C65.59,35.372 64.778,36.296 64.778,37.612 C64.778,38.928 65.59,39.866 66.822,39.866 C67.48,39.866 67.998,39.586 68.376,39.068 L69.342,39.964 C68.866,40.608 68.068,41.168 66.752,41.168 Z M76.23,41 L74.76,41 L74.76,40.272 C74.256,40.846 73.472,41.168 72.576,41.168 C71.47,41.168 70.224,40.426 70.224,38.928 C70.224,37.374 71.47,36.73 72.576,36.73 C73.486,36.73 74.27,37.024 74.76,37.598 L74.76,36.59 C74.76,35.806 74.116,35.33 73.178,35.33 C72.422,35.33 71.764,35.61 71.176,36.184 L70.574,35.162 C71.358,34.42 72.338,34.07 73.416,34.07 C74.914,34.07 76.23,34.7 76.23,36.52 L76.23,41 Z M73.15,40.16 C73.794,40.16 74.424,39.922 74.76,39.46 L74.76,38.438 C74.424,37.976 73.794,37.738 73.15,37.738 C72.324,37.738 71.708,38.214 71.708,38.956 C71.708,39.684 72.324,40.16 73.15,40.16 Z M85.708,41 L84.238,41 L84.238,36.296 L82.222,41 L81.634,41 L79.604,36.296 L79.604,41 L78.134,41 L78.134,34.238 L80.052,34.238 L81.928,38.606 L83.776,34.238 L85.708,34.238 L85.708,41 Z M4.032,61.168 C2.366,61.168 0.966,60.496 0.336,59.656 L1.218,58.578 C1.82,59.278 2.982,59.712 3.976,59.712 C5.306,59.712 6.104,59.152 6.104,58.284 C6.104,57.36 5.278,56.968 3.85,56.968 L1.974,56.968 L1.974,55.526 L3.85,55.526 C5.04,55.526 5.95,55.148 5.95,54.294 C5.95,53.426 5.026,52.978 3.878,52.978 C2.926,52.978 1.974,53.342 1.302,54.014 L0.462,52.992 C1.176,52.152 2.478,51.522 4.032,51.522 C6.048,51.522 7.588,52.474 7.588,54.042 C7.588,55.288 6.524,56.016 5.558,56.184 C6.468,56.268 7.728,57.01 7.728,58.452 C7.728,60.034 6.188,61.168 4.032,61.168 Z M14.938,61 L13.468,61 L13.468,60.272 C12.964,60.846 12.18,61.168 11.284,61.168 C10.178,61.168 8.932,60.426 8.932,58.928 C8.932,57.374 10.178,56.73 11.284,56.73 C12.194,56.73 12.978,57.024 13.468,57.598 L13.468,56.59 C13.468,55.806 12.824,55.33 11.886,55.33 C11.13,55.33 10.472,55.61 9.884,56.184 L9.282,55.162 C10.066,54.42 11.046,54.07 12.124,54.07 C13.622,54.07 14.938,54.7 14.938,56.52 L14.938,61 Z M11.858,60.16 C12.502,60.16 13.132,59.922 13.468,59.46 L13.468,58.438 C13.132,57.976 12.502,57.738 11.858,57.738 C11.032,57.738 10.416,58.214 10.416,58.956 C10.416,59.684 11.032,60.16 11.858,60.16 Z M20.482,61.168 C19.628,61.168 18.858,60.79 18.312,60.062 L18.312,63.576 L16.842,63.576 L16.842,54.238 L18.312,54.238 L18.312,55.162 C18.816,54.49 19.6,54.07 20.482,54.07 C22.232,54.07 23.478,55.386 23.478,57.612 C23.478,59.838 22.232,61.168 20.482,61.168 Z M20.048,59.866 C21.21,59.866 21.952,58.928 21.952,57.612 C21.952,56.31 21.21,55.372 20.048,55.372 C19.362,55.372 18.634,55.778 18.312,56.282 L18.312,58.956 C18.634,59.446 19.362,59.866 20.048,59.866 Z M30.534,61 L29.064,61 L29.064,60.272 C28.56,60.846 27.776,61.168 26.88,61.168 C25.774,61.168 24.528,60.426 24.528,58.928 C24.528,57.374 25.774,56.73 26.88,56.73 C27.79,56.73 28.574,57.024 29.064,57.598 L29.064,56.59 C29.064,55.806 28.42,55.33 27.482,55.33 C26.726,55.33 26.068,55.61 25.48,56.184 L24.878,55.162 C25.662,54.42 26.642,54.07 27.72,54.07 C29.218,54.07 30.534,54.7 30.534,56.52 L30.534,61 Z M27.454,60.16 C28.098,60.16 28.728,59.922 29.064,59.46 L29.064,58.438 C28.728,57.976 28.098,57.738 27.454,57.738 C26.628,57.738 26.012,58.214 26.012,58.956 C26.012,59.684 26.628,60.16 27.454,60.16 Z M35.49,59.866 C36.75,59.866 37.45,58.816 37.45,57.584 C37.45,56.422 36.75,55.372 35.49,55.372 C34.244,55.372 33.544,56.422 33.544,57.584 C33.544,58.816 34.244,59.866 35.49,59.866 Z M35.49,61.168 C33.306,61.168 32.032,59.502 32.032,57.304 C32.032,54.014 33.166,52.572 35.434,52.292 C36.876,52.082 37.282,51.914 37.282,51.662 L38.724,51.662 C38.724,52.978 36.96,53.328 35.84,53.454 C34.216,53.636 33.516,54.434 33.334,55.26 C33.88,54.518 34.79,54.07 35.77,54.07 C37.688,54.07 38.962,55.722 38.962,57.598 C38.962,59.502 37.688,61.168 35.49,61.168 Z M43.568,61.168 C41.426,61.168 40.096,59.558 40.096,57.612 C40.096,55.68 41.426,54.07 43.568,54.07 C45.738,54.07 47.054,55.68 47.054,57.612 C47.054,59.558 45.738,61.168 43.568,61.168 Z M43.568,59.866 C44.828,59.866 45.528,58.816 45.528,57.612 C45.528,56.422 44.828,55.372 43.568,55.372 C42.322,55.372 41.622,56.422 41.622,57.612 C41.622,58.816 42.322,59.866 43.568,59.866 Z M51.24,61 L49.77,61 L49.77,55.526 L47.838,55.526 L47.838,54.238 L53.186,54.238 L53.186,55.526 L51.24,55.526 L51.24,61 Z M57.442,61.168 C55.3,61.168 53.97,59.558 53.97,57.612 C53.97,55.68 55.3,54.07 57.442,54.07 C59.612,54.07 60.928,55.68 60.928,57.612 C60.928,59.558 59.612,61.168 57.442,61.168 Z M57.442,59.866 C58.702,59.866 59.402,58.816 59.402,57.612 C59.402,56.422 58.702,55.372 57.442,55.372 C56.196,55.372 55.496,56.422 55.496,57.612 C55.496,58.816 56.196,59.866 57.442,59.866 Z M68.74,61 L66.892,61 L64.82,58.214 L63.882,59.18 L63.882,61 L62.412,61 L62.412,54.238 L63.882,54.238 L63.882,57.5 L66.864,54.238 L68.684,54.238 L65.87,57.304 L68.74,61 Z M76.426,61.168 C74.284,61.168 72.954,59.558 72.954,57.612 C72.954,55.68 74.284,54.07 76.426,54.07 C78.596,54.07 79.912,55.68 79.912,57.612 C79.912,59.558 78.596,61.168 76.426,61.168 Z M76.426,59.866 C77.686,59.866 78.386,58.816 78.386,57.612 C78.386,56.422 77.686,55.372 76.426,55.372 C75.18,55.372 74.48,56.422 74.48,57.612 C74.48,58.816 75.18,59.866 76.426,59.866 Z M87.724,61 L85.876,61 L83.804,58.214 L82.866,59.18 L82.866,61 L81.396,61 L81.396,54.238 L82.866,54.238 L82.866,57.5 L85.848,54.238 L87.668,54.238 L84.854,57.304 L87.724,61 Z M91.812,61.168 C89.67,61.168 88.34,59.558 88.34,57.612 C88.34,55.68 89.67,54.07 91.812,54.07 C93.982,54.07 95.298,55.68 95.298,57.612 C95.298,59.558 93.982,61.168 91.812,61.168 Z M91.812,59.866 C93.072,59.866 93.772,58.816 93.772,57.612 C93.772,56.422 93.072,55.372 91.812,55.372 C90.566,55.372 89.866,56.422 89.866,57.612 C89.866,58.816 90.566,59.866 91.812,59.866 Z M96.082,61.168 L96.082,59.964 C96.656,59.964 96.978,59.306 97.202,57.528 L97.608,54.238 L102.83,54.238 L102.83,61 L101.36,61 L101.36,55.526 L98.91,55.526 L98.672,57.696 C98.406,60.146 97.566,61.168 96.082,61.168 Z M107.786,61.168 C105.644,61.168 104.314,59.558 104.314,57.612 C104.314,55.68 105.644,54.07 107.786,54.07 C109.956,54.07 111.272,55.68 111.272,57.612 C111.272,59.558 109.956,61.168 107.786,61.168 Z M107.786,59.866 C109.046,59.866 109.746,58.816 109.746,57.612 C109.746,56.422 109.046,55.372 107.786,55.372 C106.54,55.372 105.84,56.422 105.84,57.612 C105.84,58.816 106.54,59.866 107.786,59.866 Z M119.728,61 L118.09,61 L118.09,53.79 L116.564,55.372 L115.612,54.378 L118.3,51.662 L119.728,51.662 L119.728,61 Z M124.978,61.168 C123.368,61.168 122.262,60.622 121.506,59.726 L122.444,58.606 C123.074,59.32 123.914,59.712 124.964,59.712 C126.14,59.712 126.882,58.984 126.882,58.074 C126.882,57.066 126.154,56.408 125.006,56.408 C124.208,56.408 123.55,56.66 122.962,57.22 L121.8,56.884 L121.8,51.662 L127.918,51.662 L127.918,53.104 L123.438,53.104 L123.438,55.806 C123.886,55.358 124.656,54.994 125.552,54.994 C127.12,54.994 128.534,56.1 128.534,58.004 C128.534,59.95 127.064,61.168 124.978,61.168 Z M133.434,61.168 C130.816,61.168 129.696,58.69 129.696,56.338 C129.696,53.986 130.816,51.522 133.434,51.522 C136.052,51.522 137.172,53.986 137.172,56.338 C137.172,58.69 136.052,61.168 133.434,61.168 Z M133.434,59.712 C134.96,59.712 135.506,58.116 135.506,56.338 C135.506,54.56 134.96,52.978 133.434,52.978 C131.908,52.978 131.362,54.56 131.362,56.338 C131.362,58.116 131.908,59.712 133.434,59.712 Z M145.656,61.168 C143.038,61.168 141.918,58.69 141.918,56.338 C141.918,53.986 143.038,51.522 145.656,51.522 C148.274,51.522 149.394,53.986 149.394,56.338 C149.394,58.69 148.274,61.168 145.656,61.168 Z M145.656,59.712 C147.182,59.712 147.728,58.116 147.728,56.338 C147.728,54.56 147.182,52.978 145.656,52.978 C144.13,52.978 143.584,54.56 143.584,56.338 C143.584,58.116 144.13,59.712 145.656,59.712 Z M154.28,61.168 C151.662,61.168 150.542,58.69 150.542,56.338 C150.542,53.986 151.662,51.522 154.28,51.522 C156.898,51.522 158.018,53.986 158.018,56.338 C158.018,58.69 156.898,61.168 154.28,61.168 Z M154.28,59.712 C155.806,59.712 156.352,58.116 156.352,56.338 C156.352,54.56 155.806,52.978 154.28,52.978 C152.754,52.978 152.208,54.56 152.208,56.338 C152.208,58.116 152.754,59.712 154.28,59.712 Z M162.904,61.168 C160.286,61.168 159.166,58.69 159.166,56.338 C159.166,53.986 160.286,51.522 162.904,51.522 C165.522,51.522 166.642,53.986 166.642,56.338 C166.642,58.69 165.522,61.168 162.904,61.168 Z M162.904,59.712 C164.43,59.712 164.976,58.116 164.976,56.338 C164.976,54.56 164.43,52.978 162.904,52.978 C161.378,52.978 160.832,54.56 160.832,56.338 C160.832,58.116 161.378,59.712 162.904,59.712 Z M171.340423,55.6219512 L172.350585,55.6219512 L172.350585,51.0833333 L174.954244,51.0833333 C175.437986,51.0833333 175.879039,51.1378721 176.277415,51.2469512 C176.675791,51.3560304 177.017251,51.5220179 177.301805,51.7449187 C177.586359,51.9678195 177.809257,52.2499983 177.970504,52.5914634 C178.131751,52.9329285 178.212374,53.3407835 178.212374,53.8150407 C178.212374,54.2892978 178.127009,54.7018953 177.956276,55.0528455 C177.785544,55.4037958 177.553161,55.6954595 177.259122,55.9278455 C176.965083,56.1602315 176.61888,56.3333328 176.220504,56.4471545 C175.822128,56.5609762 175.390561,56.6178862 174.925789,56.6178862 L173.488797,56.6178862 L173.488797,58.054878 L175.779447,58.054878 L175.779447,58.9939024 L173.488797,58.9939024 L173.488797,61 L172.350585,61 L172.350585,58.9939024 L171.340423,58.9939024 L171.340423,58.054878 L172.350585,58.054878 L172.350585,56.6178862 L171.340423,56.6178862 L171.340423,55.6219512 Z M174.954244,55.6219512 C175.608719,55.6219512 176.12328,55.4725625 176.497943,55.1737805 C176.872606,54.8749985 177.059935,54.4220898 177.059935,53.8150407 C177.059935,53.2079915 176.872606,52.766939 176.497943,52.4918699 C176.12328,52.2168008 175.608719,52.0792683 174.954244,52.0792683 L173.488797,52.0792683 L173.488797,55.6219512 L174.954244,55.6219512 Z M183.414569,61.28 L182.322569,61.28 L185.640569,51.382 L186.732569,51.382 L183.414569,61.28 Z M198.856569,61 L197.386569,61 L197.386569,56.296 L195.370569,61 L194.782569,61 L192.752569,56.296 L192.752569,61 L191.282569,61 L191.282569,54.238 L193.200569,54.238 L195.076569,58.606 L196.924569,54.238 L198.856569,54.238 L198.856569,61 Z M203.882569,61.168 C201.852569,61.168 200.340569,59.754 200.340569,57.612 C200.340569,55.652 201.768569,54.07 203.770569,54.07 C205.800569,54.07 207.102569,55.624 207.102569,57.752 L207.102569,58.102 L201.880569,58.102 C201.992569,59.124 202.762569,59.964 204.036569,59.964 C204.694569,59.964 205.478569,59.698 205.954569,59.222 L206.626569,60.188 C205.954569,60.832 204.960569,61.168 203.882569,61.168 Z M205.674569,57.066 C205.646569,56.268 205.100569,55.274 203.770569,55.274 C202.510569,55.274 201.936569,56.24 201.866569,57.066 L205.674569,57.066 Z M211.638569,61.168 C209.580569,61.168 208.138569,59.67 208.138569,57.612 C208.138569,55.568 209.580569,54.07 211.638569,54.07 C212.954569,54.07 213.752569,54.63 214.228569,55.274 L213.262569,56.17 C212.884569,55.638 212.366569,55.372 211.708569,55.372 C210.476569,55.372 209.664569,56.296 209.664569,57.612 C209.664569,58.928 210.476569,59.866 211.708569,59.866 C212.366569,59.866 212.884569,59.586 213.262569,59.068 L214.228569,59.964 C213.752569,60.608 212.954569,61.168 211.638569,61.168 Z" id="Работает-сам-Заработ" fill="#FFFFFF"></path>
                    <path d="M9.128,13 L7.49,13 L7.49,5.104 L2.632,5.104 L2.632,13 L0.994,13 L0.994,3.662 L9.128,3.662 L9.128,13 Z M21.514,13 L15.116,13 L15.116,3.662 L21.514,3.662 L21.514,5.104 L16.754,5.104 L16.754,7.526 L21.416,7.526 L21.416,8.968 L16.754,8.968 L16.754,11.558 L21.514,11.558 L21.514,13 Z M28.832,13 L27.194,13 L27.194,3.662 L31.296,3.662 C33.256,3.662 34.348,5.006 34.348,6.588 C34.348,8.17 33.242,9.514 31.296,9.514 L28.832,9.514 L28.832,13 Z M31.072,8.072 C31.996,8.072 32.668,7.484 32.668,6.588 C32.668,5.692 31.996,5.104 31.072,5.104 L28.832,5.104 L28.832,8.072 L31.072,8.072 Z M44.424,13 L39.706,13 L39.706,3.662 L44.298,3.662 C46.006,3.662 46.958,4.726 46.958,6.042 C46.958,7.218 46.202,8.002 45.334,8.184 C46.328,8.338 47.14,9.332 47.14,10.48 C47.14,11.922 46.174,13 44.424,13 Z M43.962,7.526 C44.802,7.526 45.278,7.022 45.278,6.322 C45.278,5.622 44.802,5.104 43.962,5.104 L41.344,5.104 L41.344,7.526 L43.962,7.526 Z M44.032,11.558 C44.928,11.558 45.46,11.068 45.46,10.256 C45.46,9.556 44.97,8.968 44.032,8.968 L41.344,8.968 L41.344,11.558 L44.032,11.558 Z M52.778,3.662 L54.416,3.662 L54.416,7.148 L56.88,7.148 C58.826,7.148 59.932,8.492 59.932,10.074 C59.932,11.656 58.84,13 56.88,13 L52.778,13 L52.778,3.662 Z M56.656,8.59 L54.416,8.59 L54.416,11.558 L56.656,11.558 C57.58,11.558 58.252,10.97 58.252,10.074 C58.252,9.178 57.58,8.59 56.656,8.59 Z M62.438,13 L60.8,13 L60.8,3.662 L62.438,3.662 L62.438,13 Z M74.824,13 L68.426,13 L68.426,3.662 L74.824,3.662 L74.824,5.104 L70.064,5.104 L70.064,7.526 L74.726,7.526 L74.726,8.968 L70.064,8.968 L70.064,11.558 L74.824,11.558 L74.824,13 Z M90.972,13.168 C89.306,13.168 88.074,12.496 87.444,11.656 L88.326,10.578 C88.928,11.278 89.922,11.712 90.916,11.712 C92.148,11.712 92.862,11.152 92.862,10.284 C92.862,9.36 92.12,8.968 90.79,8.968 C90.398,8.968 89.852,8.968 89.712,8.982 L89.712,7.512 C89.88,7.526 90.426,7.526 90.79,7.526 C91.882,7.526 92.708,7.148 92.708,6.294 C92.708,5.426 91.868,4.978 90.818,4.978 C89.866,4.978 89.082,5.342 88.41,6.014 L87.57,4.992 C88.284,4.152 89.418,3.522 90.972,3.522 C92.988,3.522 94.346,4.474 94.346,6.042 C94.346,7.288 93.282,8.016 92.316,8.184 C93.226,8.268 94.486,9.01 94.486,10.452 C94.486,12.034 93.128,13.168 90.972,13.168 Z M117.438,13 L115.8,13 L115.8,6.07 L112.93,13 L112.23,13 L109.374,6.07 L109.374,13 L107.736,13 L107.736,3.662 L110.046,3.662 L112.58,9.808 L115.128,3.662 L117.438,3.662 L117.438,13 Z M129.824,13 L123.426,13 L123.426,3.662 L129.824,3.662 L129.824,5.104 L125.064,5.104 L125.064,7.526 L129.726,7.526 L129.726,8.968 L125.064,8.968 L125.064,11.558 L129.824,11.558 L129.824,13 Z M139.984,13.168 C137.226,13.168 135.084,11.208 135.084,8.338 C135.084,5.468 137.226,3.508 139.984,3.508 C141.874,3.508 143.036,4.488 143.736,5.608 L142.336,6.322 C141.888,5.552 140.992,4.964 139.984,4.964 C138.136,4.964 136.764,6.378 136.764,8.338 C136.764,10.298 138.136,11.712 139.984,11.712 C140.992,11.712 141.888,11.138 142.336,10.354 L143.736,11.068 C143.022,12.188 141.874,13.168 139.984,13.168 Z M150.522,13 L148.632,13 L150.914,9.332 C149.794,9.15 148.702,8.254 148.702,6.588 C148.702,4.866 149.906,3.662 151.754,3.662 L155.856,3.662 L155.856,13 L154.218,13 L154.218,9.514 L152.594,9.514 L150.522,13 Z M151.978,8.072 L154.218,8.072 L154.218,5.104 L151.978,5.104 C151.054,5.104 150.382,5.692 150.382,6.588 C150.382,7.484 151.054,8.072 151.978,8.072 Z M169.208,14.722 L169.208,13 L161.844,13 L161.844,3.662 L163.482,3.662 L163.482,11.558 L168.34,11.558 L168.34,3.662 L169.978,3.662 L169.978,11.558 L170.846,11.558 L170.846,14.722 L169.208,14.722 Z M184.492,13 L182.63,13 L181.944,11.208 L177.66,11.208 L176.974,13 L175.112,13 L178.78,3.662 L180.824,3.662 L184.492,13 Z M181.482,9.766 L179.802,5.314 L178.122,9.766 L181.482,9.766 Z" id="Первые-3-месяца" fill="#3E4353"></path>
                </g>
                <g id="Group-62" transform="translate(0.000000, 97.000000)">
                    <path d="M2.632,41 L0.994,41 L0.994,31.662 L5.096,31.662 C7.056,31.662 8.148,33.006 8.148,34.588 C8.148,36.17 7.042,37.514 5.096,37.514 L2.632,37.514 L2.632,41 Z M4.872,36.072 C5.796,36.072 6.468,35.484 6.468,34.588 C6.468,33.692 5.796,33.104 4.872,33.104 L2.632,33.104 L2.632,36.072 L4.872,36.072 Z M15.064,41 L13.594,41 L13.594,40.272 C13.09,40.846 12.306,41.168 11.41,41.168 C10.304,41.168 9.058,40.426 9.058,38.928 C9.058,37.374 10.304,36.73 11.41,36.73 C12.32,36.73 13.104,37.024 13.594,37.598 L13.594,36.59 C13.594,35.806 12.95,35.33 12.012,35.33 C11.256,35.33 10.598,35.61 10.01,36.184 L9.408,35.162 C10.192,34.42 11.172,34.07 12.25,34.07 C13.748,34.07 15.064,34.7 15.064,36.52 L15.064,41 Z M11.984,40.16 C12.628,40.16 13.258,39.922 13.594,39.46 L13.594,38.438 C13.258,37.976 12.628,37.738 11.984,37.738 C11.158,37.738 10.542,38.214 10.542,38.956 C10.542,39.684 11.158,40.16 11.984,40.16 Z M20.02,39.866 C21.28,39.866 21.98,38.816 21.98,37.584 C21.98,36.422 21.28,35.372 20.02,35.372 C18.774,35.372 18.074,36.422 18.074,37.584 C18.074,38.816 18.774,39.866 20.02,39.866 Z M20.02,41.168 C17.836,41.168 16.562,39.502 16.562,37.304 C16.562,34.014 17.696,32.572 19.964,32.292 C21.406,32.082 21.812,31.914 21.812,31.662 L23.254,31.662 C23.254,32.978 21.49,33.328 20.37,33.454 C18.746,33.636 18.046,34.434 17.864,35.26 C18.41,34.518 19.32,34.07 20.3,34.07 C22.218,34.07 23.492,35.722 23.492,37.598 C23.492,39.502 22.218,41.168 20.02,41.168 Z M28.098,41.168 C25.956,41.168 24.626,39.558 24.626,37.612 C24.626,35.68 25.956,34.07 28.098,34.07 C30.268,34.07 31.584,35.68 31.584,37.612 C31.584,39.558 30.268,41.168 28.098,41.168 Z M28.098,39.866 C29.358,39.866 30.058,38.816 30.058,37.612 C30.058,36.422 29.358,35.372 28.098,35.372 C26.852,35.372 26.152,36.422 26.152,37.612 C26.152,38.816 26.852,39.866 28.098,39.866 Z M35.77,41 L34.3,41 L34.3,35.526 L32.368,35.526 L32.368,34.238 L37.716,34.238 L37.716,35.526 L35.77,35.526 L35.77,41 Z M44.52,41 L43.05,41 L43.05,40.272 C42.546,40.846 41.762,41.168 40.866,41.168 C39.76,41.168 38.514,40.426 38.514,38.928 C38.514,37.374 39.76,36.73 40.866,36.73 C41.776,36.73 42.56,37.024 43.05,37.598 L43.05,36.59 C43.05,35.806 42.406,35.33 41.468,35.33 C40.712,35.33 40.054,35.61 39.466,36.184 L38.864,35.162 C39.648,34.42 40.628,34.07 41.706,34.07 C43.204,34.07 44.52,34.7 44.52,36.52 L44.52,41 Z M41.44,40.16 C42.084,40.16 42.714,39.922 43.05,39.46 L43.05,38.438 C42.714,37.976 42.084,37.738 41.44,37.738 C40.614,37.738 39.998,38.214 39.998,38.956 C39.998,39.684 40.614,40.16 41.44,40.16 Z M52.5,41.168 C50.568,41.168 49.308,39.866 49.07,38.186 L47.894,38.186 L47.894,41 L46.424,41 L46.424,34.238 L47.894,34.238 L47.894,36.898 L49.084,36.898 C49.378,35.302 50.624,34.07 52.5,34.07 C54.67,34.07 55.986,35.68 55.986,37.612 C55.986,39.558 54.67,41.168 52.5,41.168 Z M52.5,39.866 C53.76,39.866 54.46,38.816 54.46,37.612 C54.46,36.422 53.76,35.372 52.5,35.372 C51.254,35.372 50.554,36.422 50.554,37.612 C50.554,38.816 51.254,39.866 52.5,39.866 Z M60.172,41 L58.702,41 L58.702,35.526 L56.77,35.526 L56.77,34.238 L62.118,34.238 L62.118,35.526 L60.172,35.526 L60.172,41 Z M71.064,41 L66.92,41 L66.92,34.238 L70.966,34.238 C72.254,34.238 72.968,35.008 72.968,35.974 C72.968,36.786 72.45,37.332 71.834,37.514 C72.562,37.682 73.108,38.368 73.108,39.166 C73.108,40.216 72.38,41 71.064,41 Z M70.756,39.712 C71.274,39.712 71.596,39.432 71.596,38.956 C71.596,38.55 71.302,38.186 70.756,38.186 L68.39,38.186 L68.39,39.712 L70.756,39.712 Z M70.714,36.898 C71.19,36.898 71.47,36.604 71.47,36.226 C71.47,35.806 71.19,35.526 70.714,35.526 L68.39,35.526 L68.39,36.898 L70.714,36.898 Z M74.228,42.722 L74.228,39.782 C74.802,39.642 75.124,39.306 75.348,37.528 L75.754,34.238 L80.976,34.238 L80.976,39.712 L81.718,39.712 L81.718,42.722 L80.248,42.722 L80.248,41 L75.698,41 L75.698,42.722 L74.228,42.722 Z M77.056,35.526 L76.818,37.696 C76.72,38.634 76.398,39.292 75.922,39.712 L79.506,39.712 L79.506,35.526 L77.056,35.526 Z M87.066,41 L82.922,41 L82.922,34.238 L86.968,34.238 C88.256,34.238 88.97,35.008 88.97,35.974 C88.97,36.786 88.452,37.332 87.836,37.514 C88.564,37.682 89.11,38.368 89.11,39.166 C89.11,40.216 88.382,41 87.066,41 Z M86.758,39.712 C87.276,39.712 87.598,39.432 87.598,38.956 C87.598,38.55 87.304,38.186 86.758,38.186 L84.392,38.186 L84.392,39.712 L86.758,39.712 Z M86.716,36.898 C87.192,36.898 87.472,36.604 87.472,36.226 C87.472,35.806 87.192,35.526 86.716,35.526 L84.392,35.526 L84.392,36.898 L86.716,36.898 Z M93.982,41.168 C91.84,41.168 90.51,39.558 90.51,37.612 C90.51,35.68 91.84,34.07 93.982,34.07 C96.152,34.07 97.468,35.68 97.468,37.612 C97.468,39.558 96.152,41.168 93.982,41.168 Z M93.982,39.866 C95.242,39.866 95.942,38.816 95.942,37.612 C95.942,36.422 95.242,35.372 93.982,35.372 C92.736,35.372 92.036,36.422 92.036,37.612 C92.036,38.816 92.736,39.866 93.982,39.866 Z M102.074,41.168 C100.044,41.168 98.532,39.754 98.532,37.612 C98.532,35.652 99.96,34.07 101.962,34.07 C103.992,34.07 105.294,35.624 105.294,37.752 L105.294,38.102 L100.072,38.102 C100.184,39.124 100.954,39.964 102.228,39.964 C102.886,39.964 103.67,39.698 104.146,39.222 L104.818,40.188 C104.146,40.832 103.152,41.168 102.074,41.168 Z M103.866,37.066 C103.838,36.268 103.292,35.274 101.962,35.274 C100.702,35.274 100.128,36.24 100.058,37.066 L103.866,37.066 Z M114.324,41 L112.854,41 L112.854,36.296 L110.838,41 L110.25,41 L108.22,36.296 L108.22,41 L106.75,41 L106.75,34.238 L108.668,34.238 L110.544,38.606 L112.392,34.238 L114.324,34.238 L114.324,41 Z M4.032,61.168 C2.366,61.168 0.966,60.496 0.336,59.656 L1.218,58.578 C1.82,59.278 2.982,59.712 3.976,59.712 C5.306,59.712 6.104,59.152 6.104,58.284 C6.104,57.36 5.278,56.968 3.85,56.968 L1.974,56.968 L1.974,55.526 L3.85,55.526 C5.04,55.526 5.95,55.148 5.95,54.294 C5.95,53.426 5.026,52.978 3.878,52.978 C2.926,52.978 1.974,53.342 1.302,54.014 L0.462,52.992 C1.176,52.152 2.478,51.522 4.032,51.522 C6.048,51.522 7.588,52.474 7.588,54.042 C7.588,55.288 6.524,56.016 5.558,56.184 C6.468,56.268 7.728,57.01 7.728,58.452 C7.728,60.034 6.188,61.168 4.032,61.168 Z M14.938,61 L13.468,61 L13.468,60.272 C12.964,60.846 12.18,61.168 11.284,61.168 C10.178,61.168 8.932,60.426 8.932,58.928 C8.932,57.374 10.178,56.73 11.284,56.73 C12.194,56.73 12.978,57.024 13.468,57.598 L13.468,56.59 C13.468,55.806 12.824,55.33 11.886,55.33 C11.13,55.33 10.472,55.61 9.884,56.184 L9.282,55.162 C10.066,54.42 11.046,54.07 12.124,54.07 C13.622,54.07 14.938,54.7 14.938,56.52 L14.938,61 Z M11.858,60.16 C12.502,60.16 13.132,59.922 13.468,59.46 L13.468,58.438 C13.132,57.976 12.502,57.738 11.858,57.738 C11.032,57.738 10.416,58.214 10.416,58.956 C10.416,59.684 11.032,60.16 11.858,60.16 Z M20.482,61.168 C19.628,61.168 18.858,60.79 18.312,60.062 L18.312,63.576 L16.842,63.576 L16.842,54.238 L18.312,54.238 L18.312,55.162 C18.816,54.49 19.6,54.07 20.482,54.07 C22.232,54.07 23.478,55.386 23.478,57.612 C23.478,59.838 22.232,61.168 20.482,61.168 Z M20.048,59.866 C21.21,59.866 21.952,58.928 21.952,57.612 C21.952,56.31 21.21,55.372 20.048,55.372 C19.362,55.372 18.634,55.778 18.312,56.282 L18.312,58.956 C18.634,59.446 19.362,59.866 20.048,59.866 Z M30.534,61 L29.064,61 L29.064,60.272 C28.56,60.846 27.776,61.168 26.88,61.168 C25.774,61.168 24.528,60.426 24.528,58.928 C24.528,57.374 25.774,56.73 26.88,56.73 C27.79,56.73 28.574,57.024 29.064,57.598 L29.064,56.59 C29.064,55.806 28.42,55.33 27.482,55.33 C26.726,55.33 26.068,55.61 25.48,56.184 L24.878,55.162 C25.662,54.42 26.642,54.07 27.72,54.07 C29.218,54.07 30.534,54.7 30.534,56.52 L30.534,61 Z M27.454,60.16 C28.098,60.16 28.728,59.922 29.064,59.46 L29.064,58.438 C28.728,57.976 28.098,57.738 27.454,57.738 C26.628,57.738 26.012,58.214 26.012,58.956 C26.012,59.684 26.628,60.16 27.454,60.16 Z M35.49,59.866 C36.75,59.866 37.45,58.816 37.45,57.584 C37.45,56.422 36.75,55.372 35.49,55.372 C34.244,55.372 33.544,56.422 33.544,57.584 C33.544,58.816 34.244,59.866 35.49,59.866 Z M35.49,61.168 C33.306,61.168 32.032,59.502 32.032,57.304 C32.032,54.014 33.166,52.572 35.434,52.292 C36.876,52.082 37.282,51.914 37.282,51.662 L38.724,51.662 C38.724,52.978 36.96,53.328 35.84,53.454 C34.216,53.636 33.516,54.434 33.334,55.26 C33.88,54.518 34.79,54.07 35.77,54.07 C37.688,54.07 38.962,55.722 38.962,57.598 C38.962,59.502 37.688,61.168 35.49,61.168 Z M43.568,61.168 C41.426,61.168 40.096,59.558 40.096,57.612 C40.096,55.68 41.426,54.07 43.568,54.07 C45.738,54.07 47.054,55.68 47.054,57.612 C47.054,59.558 45.738,61.168 43.568,61.168 Z M43.568,59.866 C44.828,59.866 45.528,58.816 45.528,57.612 C45.528,56.422 44.828,55.372 43.568,55.372 C42.322,55.372 41.622,56.422 41.622,57.612 C41.622,58.816 42.322,59.866 43.568,59.866 Z M51.24,61 L49.77,61 L49.77,55.526 L47.838,55.526 L47.838,54.238 L53.186,54.238 L53.186,55.526 L51.24,55.526 L51.24,61 Z M57.442,61.168 C55.3,61.168 53.97,59.558 53.97,57.612 C53.97,55.68 55.3,54.07 57.442,54.07 C59.612,54.07 60.928,55.68 60.928,57.612 C60.928,59.558 59.612,61.168 57.442,61.168 Z M57.442,59.866 C58.702,59.866 59.402,58.816 59.402,57.612 C59.402,56.422 58.702,55.372 57.442,55.372 C56.196,55.372 55.496,56.422 55.496,57.612 C55.496,58.816 56.196,59.866 57.442,59.866 Z M68.74,61 L66.892,61 L64.82,58.214 L63.882,59.18 L63.882,61 L62.412,61 L62.412,54.238 L63.882,54.238 L63.882,57.5 L66.864,54.238 L68.684,54.238 L65.87,57.304 L68.74,61 Z M76.426,61.168 C74.284,61.168 72.954,59.558 72.954,57.612 C72.954,55.68 74.284,54.07 76.426,54.07 C78.596,54.07 79.912,55.68 79.912,57.612 C79.912,59.558 78.596,61.168 76.426,61.168 Z M76.426,59.866 C77.686,59.866 78.386,58.816 78.386,57.612 C78.386,56.422 77.686,55.372 76.426,55.372 C75.18,55.372 74.48,56.422 74.48,57.612 C74.48,58.816 75.18,59.866 76.426,59.866 Z M87.724,61 L85.876,61 L83.804,58.214 L82.866,59.18 L82.866,61 L81.396,61 L81.396,54.238 L82.866,54.238 L82.866,57.5 L85.848,54.238 L87.668,54.238 L84.854,57.304 L87.724,61 Z M91.812,61.168 C89.67,61.168 88.34,59.558 88.34,57.612 C88.34,55.68 89.67,54.07 91.812,54.07 C93.982,54.07 95.298,55.68 95.298,57.612 C95.298,59.558 93.982,61.168 91.812,61.168 Z M91.812,59.866 C93.072,59.866 93.772,58.816 93.772,57.612 C93.772,56.422 93.072,55.372 91.812,55.372 C90.566,55.372 89.866,56.422 89.866,57.612 C89.866,58.816 90.566,59.866 91.812,59.866 Z M96.082,61.168 L96.082,59.964 C96.656,59.964 96.978,59.306 97.202,57.528 L97.608,54.238 L102.83,54.238 L102.83,61 L101.36,61 L101.36,55.526 L98.91,55.526 L98.672,57.696 C98.406,60.146 97.566,61.168 96.082,61.168 Z M107.786,61.168 C105.644,61.168 104.314,59.558 104.314,57.612 C104.314,55.68 105.644,54.07 107.786,54.07 C109.956,54.07 111.272,55.68 111.272,57.612 C111.272,59.558 109.956,61.168 107.786,61.168 Z M107.786,59.866 C109.046,59.866 109.746,58.816 109.746,57.612 C109.746,56.422 109.046,55.372 107.786,55.372 C106.54,55.372 105.84,56.422 105.84,57.612 C105.84,58.816 106.54,59.866 107.786,59.866 Z M122.864,61 L116.102,61 L116.102,59.712 C119.728,56.968 121.142,55.75 121.142,54.406 C121.142,53.426 120.302,52.978 119.448,52.978 C118.356,52.978 117.516,53.426 116.928,54.098 L115.976,53.02 C116.802,52.026 118.118,51.522 119.42,51.522 C121.226,51.522 122.808,52.544 122.808,54.406 C122.808,56.128 121.226,57.668 118.72,59.558 L122.864,59.558 L122.864,61 Z M128.044,61.168 C125.426,61.168 124.306,58.69 124.306,56.338 C124.306,53.986 125.426,51.522 128.044,51.522 C130.662,51.522 131.782,53.986 131.782,56.338 C131.782,58.69 130.662,61.168 128.044,61.168 Z M128.044,59.712 C129.57,59.712 130.116,58.116 130.116,56.338 C130.116,54.56 129.57,52.978 128.044,52.978 C126.518,52.978 125.972,54.56 125.972,56.338 C125.972,58.116 126.518,59.712 128.044,59.712 Z M136.668,61.168 C134.05,61.168 132.93,58.69 132.93,56.338 C132.93,53.986 134.05,51.522 136.668,51.522 C139.286,51.522 140.406,53.986 140.406,56.338 C140.406,58.69 139.286,61.168 136.668,61.168 Z M136.668,59.712 C138.194,59.712 138.74,58.116 138.74,56.338 C138.74,54.56 138.194,52.978 136.668,52.978 C135.142,52.978 134.596,54.56 134.596,56.338 C134.596,58.116 135.142,59.712 136.668,59.712 Z M148.89,61.168 C146.272,61.168 145.152,58.69 145.152,56.338 C145.152,53.986 146.272,51.522 148.89,51.522 C151.508,51.522 152.628,53.986 152.628,56.338 C152.628,58.69 151.508,61.168 148.89,61.168 Z M148.89,59.712 C150.416,59.712 150.962,58.116 150.962,56.338 C150.962,54.56 150.416,52.978 148.89,52.978 C147.364,52.978 146.818,54.56 146.818,56.338 C146.818,58.116 147.364,59.712 148.89,59.712 Z M157.514,61.168 C154.896,61.168 153.776,58.69 153.776,56.338 C153.776,53.986 154.896,51.522 157.514,51.522 C160.132,51.522 161.252,53.986 161.252,56.338 C161.252,58.69 160.132,61.168 157.514,61.168 Z M157.514,59.712 C159.04,59.712 159.586,58.116 159.586,56.338 C159.586,54.56 159.04,52.978 157.514,52.978 C155.988,52.978 155.442,54.56 155.442,56.338 C155.442,58.116 155.988,59.712 157.514,59.712 Z M166.138,61.168 C163.52,61.168 162.4,58.69 162.4,56.338 C162.4,53.986 163.52,51.522 166.138,51.522 C168.756,51.522 169.876,53.986 169.876,56.338 C169.876,58.69 168.756,61.168 166.138,61.168 Z M166.138,59.712 C167.664,59.712 168.21,58.116 168.21,56.338 C168.21,54.56 167.664,52.978 166.138,52.978 C164.612,52.978 164.066,54.56 164.066,56.338 C164.066,58.116 164.612,59.712 166.138,59.712 Z M174.574423,55.6219512 L175.584585,55.6219512 L175.584585,51.0833333 L178.188244,51.0833333 C178.671986,51.0833333 179.113039,51.1378721 179.511415,51.2469512 C179.909791,51.3560304 180.251251,51.5220179 180.535805,51.7449187 C180.820359,51.9678195 181.043257,52.2499983 181.204504,52.5914634 C181.365751,52.9329285 181.446374,53.3407835 181.446374,53.8150407 C181.446374,54.2892978 181.361009,54.7018953 181.190276,55.0528455 C181.019544,55.4037958 180.787161,55.6954595 180.493122,55.9278455 C180.199083,56.1602315 179.85288,56.3333328 179.454504,56.4471545 C179.056128,56.5609762 178.624561,56.6178862 178.159789,56.6178862 L176.722797,56.6178862 L176.722797,58.054878 L179.013447,58.054878 L179.013447,58.9939024 L176.722797,58.9939024 L176.722797,61 L175.584585,61 L175.584585,58.9939024 L174.574423,58.9939024 L174.574423,58.054878 L175.584585,58.054878 L175.584585,56.6178862 L174.574423,56.6178862 L174.574423,55.6219512 Z M178.188244,55.6219512 C178.842719,55.6219512 179.35728,55.4725625 179.731943,55.1737805 C180.106606,54.8749985 180.293935,54.4220898 180.293935,53.8150407 C180.293935,53.2079915 180.106606,52.766939 179.731943,52.4918699 C179.35728,52.2168008 178.842719,52.0792683 178.188244,52.0792683 L176.722797,52.0792683 L176.722797,55.6219512 L178.188244,55.6219512 Z M186.648569,61.28 L185.556569,61.28 L188.874569,51.382 L189.966569,51.382 L186.648569,61.28 Z M202.090569,61 L200.620569,61 L200.620569,56.296 L198.604569,61 L198.016569,61 L195.986569,56.296 L195.986569,61 L194.516569,61 L194.516569,54.238 L196.434569,54.238 L198.310569,58.606 L200.158569,54.238 L202.090569,54.238 L202.090569,61 Z M207.116569,61.168 C205.086569,61.168 203.574569,59.754 203.574569,57.612 C203.574569,55.652 205.002569,54.07 207.004569,54.07 C209.034569,54.07 210.336569,55.624 210.336569,57.752 L210.336569,58.102 L205.114569,58.102 C205.226569,59.124 205.996569,59.964 207.270569,59.964 C207.928569,59.964 208.712569,59.698 209.188569,59.222 L209.860569,60.188 C209.188569,60.832 208.194569,61.168 207.116569,61.168 Z M208.908569,57.066 C208.880569,56.268 208.334569,55.274 207.004569,55.274 C205.744569,55.274 205.170569,56.24 205.100569,57.066 L208.908569,57.066 Z M214.872569,61.168 C212.814569,61.168 211.372569,59.67 211.372569,57.612 C211.372569,55.568 212.814569,54.07 214.872569,54.07 C216.188569,54.07 216.986569,54.63 217.462569,55.274 L216.496569,56.17 C216.118569,55.638 215.600569,55.372 214.942569,55.372 C213.710569,55.372 212.898569,56.296 212.898569,57.612 C212.898569,58.928 213.710569,59.866 214.942569,59.866 C215.600569,59.866 216.118569,59.586 216.496569,59.068 L217.462569,59.964 C216.986569,60.608 216.188569,61.168 214.872569,61.168 Z" id="Работают-вдвоем-Зара" fill="#FFFFFF"></path>
                    <path d="M5.712,13 L0.994,13 L0.994,3.662 L5.586,3.662 C7.294,3.662 8.246,4.726 8.246,6.042 C8.246,7.218 7.49,8.002 6.622,8.184 C7.616,8.338 8.428,9.332 8.428,10.48 C8.428,11.922 7.462,13 5.712,13 Z M5.25,7.526 C6.09,7.526 6.566,7.022 6.566,6.322 C6.566,5.622 6.09,5.104 5.25,5.104 L2.632,5.104 L2.632,7.526 L5.25,7.526 Z M5.32,11.558 C6.216,11.558 6.748,11.068 6.748,10.256 C6.748,9.556 6.258,8.968 5.32,8.968 L2.632,8.968 L2.632,11.558 L5.32,11.558 Z M17.93,13 L16.292,13 L16.292,5.104 L13.464,5.104 L13.464,3.662 L20.758,3.662 L20.758,5.104 L17.93,5.104 L17.93,13 Z M30.498,13.168 C27.698,13.168 25.724,11.124 25.724,8.338 C25.724,5.552 27.698,3.508 30.498,3.508 C33.298,3.508 35.272,5.552 35.272,8.338 C35.272,11.124 33.298,13.168 30.498,13.168 Z M30.498,11.712 C32.374,11.712 33.592,10.256 33.592,8.338 C33.592,6.406 32.374,4.964 30.498,4.964 C28.608,4.964 27.404,6.406 27.404,8.338 C27.404,10.256 28.608,11.712 30.498,11.712 Z M42.492,13 L40.854,13 L40.854,3.662 L44.956,3.662 C46.916,3.662 48.008,5.006 48.008,6.588 C48.008,8.17 46.902,9.514 44.956,9.514 L42.492,9.514 L42.492,13 Z M44.732,8.072 C45.656,8.072 46.328,7.484 46.328,6.588 C46.328,5.692 45.656,5.104 44.732,5.104 L42.492,5.104 L42.492,8.072 L44.732,8.072 Z M53.366,3.662 L55.004,3.662 L55.004,7.148 L57.468,7.148 C59.414,7.148 60.52,8.492 60.52,10.074 C60.52,11.656 59.428,13 57.468,13 L53.366,13 L53.366,3.662 Z M57.244,8.59 L55.004,8.59 L55.004,11.558 L57.244,11.558 C58.168,11.558 58.84,10.97 58.84,10.074 C58.84,9.178 58.168,8.59 57.244,8.59 Z M63.026,13 L61.388,13 L61.388,3.662 L63.026,3.662 L63.026,13 Z M75.412,13 L69.014,13 L69.014,3.662 L75.412,3.662 L75.412,5.104 L70.652,5.104 L70.652,7.526 L75.314,7.526 L75.314,8.968 L70.652,8.968 L70.652,11.558 L75.412,11.558 L75.412,13 Z M91.56,13.168 C89.894,13.168 88.662,12.496 88.032,11.656 L88.914,10.578 C89.516,11.278 90.51,11.712 91.504,11.712 C92.736,11.712 93.45,11.152 93.45,10.284 C93.45,9.36 92.708,8.968 91.378,8.968 C90.986,8.968 90.44,8.968 90.3,8.982 L90.3,7.512 C90.468,7.526 91.014,7.526 91.378,7.526 C92.47,7.526 93.296,7.148 93.296,6.294 C93.296,5.426 92.456,4.978 91.406,4.978 C90.454,4.978 89.67,5.342 88.998,6.014 L88.158,4.992 C88.872,4.152 90.006,3.522 91.56,3.522 C93.576,3.522 94.934,4.474 94.934,6.042 C94.934,7.288 93.87,8.016 92.904,8.184 C93.814,8.268 95.074,9.01 95.074,10.452 C95.074,12.034 93.716,13.168 91.56,13.168 Z M118.026,13 L116.388,13 L116.388,6.07 L113.518,13 L112.818,13 L109.962,6.07 L109.962,13 L108.324,13 L108.324,3.662 L110.634,3.662 L113.168,9.808 L115.716,3.662 L118.026,3.662 L118.026,13 Z M130.412,13 L124.014,13 L124.014,3.662 L130.412,3.662 L130.412,5.104 L125.652,5.104 L125.652,7.526 L130.314,7.526 L130.314,8.968 L125.652,8.968 L125.652,11.558 L130.412,11.558 L130.412,13 Z M140.572,13.168 C137.814,13.168 135.672,11.208 135.672,8.338 C135.672,5.468 137.814,3.508 140.572,3.508 C142.462,3.508 143.624,4.488 144.324,5.608 L142.924,6.322 C142.476,5.552 141.58,4.964 140.572,4.964 C138.724,4.964 137.352,6.378 137.352,8.338 C137.352,10.298 138.724,11.712 140.572,11.712 C141.58,11.712 142.476,11.138 142.924,10.354 L144.324,11.068 C143.61,12.188 142.462,13.168 140.572,13.168 Z M151.11,13 L149.22,13 L151.502,9.332 C150.382,9.15 149.29,8.254 149.29,6.588 C149.29,4.866 150.494,3.662 152.342,3.662 L156.444,3.662 L156.444,13 L154.806,13 L154.806,9.514 L153.182,9.514 L151.11,13 Z M152.566,8.072 L154.806,8.072 L154.806,5.104 L152.566,5.104 C151.642,5.104 150.97,5.692 150.97,6.588 C150.97,7.484 151.642,8.072 152.566,8.072 Z M169.796,14.722 L169.796,13 L162.432,13 L162.432,3.662 L164.07,3.662 L164.07,11.558 L168.928,11.558 L168.928,3.662 L170.566,3.662 L170.566,11.558 L171.434,11.558 L171.434,14.722 L169.796,14.722 Z M185.08,13 L183.218,13 L182.532,11.208 L178.248,11.208 L177.562,13 L175.7,13 L179.368,3.662 L181.412,3.662 L185.08,13 Z M182.07,9.766 L180.39,5.314 L178.71,9.766 L182.07,9.766 Z" id="Вторые-3-месяца" fill="#3E4353"></path>
                </g>
            </g>
            <g id="Group-64" transform="translate(0.000000, 194.000000)">
                <g id="Group-65">
                    <path d="M4.858,13 L3.22,13 L3.22,5.104 L0.392,5.104 L0.392,3.662 L7.686,3.662 L7.686,5.104 L4.858,5.104 L4.858,13 Z M14.71,13 L13.072,13 L13.072,3.662 L17.174,3.662 C19.134,3.662 20.226,5.006 20.226,6.588 C20.226,8.17 19.12,9.514 17.174,9.514 L14.71,9.514 L14.71,13 Z M16.95,8.072 C17.874,8.072 18.546,7.484 18.546,6.588 C18.546,5.692 17.874,5.104 16.95,5.104 L14.71,5.104 L14.71,8.072 L16.95,8.072 Z M31.982,13 L25.584,13 L25.584,3.662 L31.982,3.662 L31.982,5.104 L27.222,5.104 L27.222,7.526 L31.884,7.526 L31.884,8.968 L27.222,8.968 L27.222,11.558 L31.982,11.558 L31.982,13 Z M41.526,13 L39.888,13 L39.888,5.104 L37.06,5.104 L37.06,3.662 L44.354,3.662 L44.354,5.104 L41.526,5.104 L41.526,13 Z M49.74,3.662 L51.378,3.662 L51.378,7.148 L53.842,7.148 C55.788,7.148 56.894,8.492 56.894,10.074 C56.894,11.656 55.802,13 53.842,13 L49.74,13 L49.74,3.662 Z M53.618,8.59 L51.378,8.59 L51.378,11.558 L53.618,11.558 C54.542,11.558 55.214,10.97 55.214,10.074 C55.214,9.178 54.542,8.59 53.618,8.59 Z M63.834,13 L62.252,13 L62.252,3.662 L63.89,3.662 L63.89,10.144 L68.664,3.662 L70.344,3.662 L70.344,13 L68.706,13 L68.706,6.336 L63.834,13 Z M86.8,13.168 C85.134,13.168 83.902,12.496 83.272,11.656 L84.154,10.578 C84.756,11.278 85.75,11.712 86.744,11.712 C87.976,11.712 88.69,11.152 88.69,10.284 C88.69,9.36 87.948,8.968 86.618,8.968 C86.226,8.968 85.68,8.968 85.54,8.982 L85.54,7.512 C85.708,7.526 86.254,7.526 86.618,7.526 C87.71,7.526 88.536,7.148 88.536,6.294 C88.536,5.426 87.696,4.978 86.646,4.978 C85.694,4.978 84.91,5.342 84.238,6.014 L83.398,4.992 C84.112,4.152 85.246,3.522 86.8,3.522 C88.816,3.522 90.174,4.474 90.174,6.042 C90.174,7.288 89.11,8.016 88.144,8.184 C89.054,8.268 90.314,9.01 90.314,10.452 C90.314,12.034 88.956,13.168 86.8,13.168 Z M113.266,13 L111.628,13 L111.628,6.07 L108.758,13 L108.058,13 L105.202,6.07 L105.202,13 L103.564,13 L103.564,3.662 L105.874,3.662 L108.408,9.808 L110.956,3.662 L113.266,3.662 L113.266,13 Z M125.652,13 L119.254,13 L119.254,3.662 L125.652,3.662 L125.652,5.104 L120.892,5.104 L120.892,7.526 L125.554,7.526 L125.554,8.968 L120.892,8.968 L120.892,11.558 L125.652,11.558 L125.652,13 Z M135.812,13.168 C133.054,13.168 130.912,11.208 130.912,8.338 C130.912,5.468 133.054,3.508 135.812,3.508 C137.702,3.508 138.864,4.488 139.564,5.608 L138.164,6.322 C137.716,5.552 136.82,4.964 135.812,4.964 C133.964,4.964 132.592,6.378 132.592,8.338 C132.592,10.298 133.964,11.712 135.812,11.712 C136.82,11.712 137.716,11.138 138.164,10.354 L139.564,11.068 C138.85,12.188 137.702,13.168 135.812,13.168 Z M146.35,13 L144.46,13 L146.742,9.332 C145.622,9.15 144.53,8.254 144.53,6.588 C144.53,4.866 145.734,3.662 147.582,3.662 L151.684,3.662 L151.684,13 L150.046,13 L150.046,9.514 L148.422,9.514 L146.35,13 Z M147.806,8.072 L150.046,8.072 L150.046,5.104 L147.806,5.104 C146.882,5.104 146.21,5.692 146.21,6.588 C146.21,7.484 146.882,8.072 147.806,8.072 Z M165.036,14.722 L165.036,13 L157.672,13 L157.672,3.662 L159.31,3.662 L159.31,11.558 L164.168,11.558 L164.168,3.662 L165.806,3.662 L165.806,11.558 L166.674,11.558 L166.674,14.722 L165.036,14.722 Z M180.32,13 L178.458,13 L177.772,11.208 L173.488,11.208 L172.802,13 L170.94,13 L174.608,3.662 L176.652,3.662 L180.32,13 Z M177.31,9.766 L175.63,5.314 L173.95,9.766 L177.31,9.766 Z" id="Третьи-3-месяца" fill="#3E4353"></path>
                    <path d="M2.632,41 L0.994,41 L0.994,31.662 L5.096,31.662 C7.056,31.662 8.148,33.006 8.148,34.588 C8.148,36.17 7.042,37.514 5.096,37.514 L2.632,37.514 L2.632,41 Z M4.872,36.072 C5.796,36.072 6.468,35.484 6.468,34.588 C6.468,33.692 5.796,33.104 4.872,33.104 L2.632,33.104 L2.632,36.072 L4.872,36.072 Z M15.064,41 L13.594,41 L13.594,40.272 C13.09,40.846 12.306,41.168 11.41,41.168 C10.304,41.168 9.058,40.426 9.058,38.928 C9.058,37.374 10.304,36.73 11.41,36.73 C12.32,36.73 13.104,37.024 13.594,37.598 L13.594,36.59 C13.594,35.806 12.95,35.33 12.012,35.33 C11.256,35.33 10.598,35.61 10.01,36.184 L9.408,35.162 C10.192,34.42 11.172,34.07 12.25,34.07 C13.748,34.07 15.064,34.7 15.064,36.52 L15.064,41 Z M11.984,40.16 C12.628,40.16 13.258,39.922 13.594,39.46 L13.594,38.438 C13.258,37.976 12.628,37.738 11.984,37.738 C11.158,37.738 10.542,38.214 10.542,38.956 C10.542,39.684 11.158,40.16 11.984,40.16 Z M20.02,39.866 C21.28,39.866 21.98,38.816 21.98,37.584 C21.98,36.422 21.28,35.372 20.02,35.372 C18.774,35.372 18.074,36.422 18.074,37.584 C18.074,38.816 18.774,39.866 20.02,39.866 Z M20.02,41.168 C17.836,41.168 16.562,39.502 16.562,37.304 C16.562,34.014 17.696,32.572 19.964,32.292 C21.406,32.082 21.812,31.914 21.812,31.662 L23.254,31.662 C23.254,32.978 21.49,33.328 20.37,33.454 C18.746,33.636 18.046,34.434 17.864,35.26 C18.41,34.518 19.32,34.07 20.3,34.07 C22.218,34.07 23.492,35.722 23.492,37.598 C23.492,39.502 22.218,41.168 20.02,41.168 Z M28.098,41.168 C25.956,41.168 24.626,39.558 24.626,37.612 C24.626,35.68 25.956,34.07 28.098,34.07 C30.268,34.07 31.584,35.68 31.584,37.612 C31.584,39.558 30.268,41.168 28.098,41.168 Z M28.098,39.866 C29.358,39.866 30.058,38.816 30.058,37.612 C30.058,36.422 29.358,35.372 28.098,35.372 C26.852,35.372 26.152,36.422 26.152,37.612 C26.152,38.816 26.852,39.866 28.098,39.866 Z M35.77,41 L34.3,41 L34.3,35.526 L32.368,35.526 L32.368,34.238 L37.716,34.238 L37.716,35.526 L35.77,35.526 L35.77,41 Z M44.52,41 L43.05,41 L43.05,40.272 C42.546,40.846 41.762,41.168 40.866,41.168 C39.76,41.168 38.514,40.426 38.514,38.928 C38.514,37.374 39.76,36.73 40.866,36.73 C41.776,36.73 42.56,37.024 43.05,37.598 L43.05,36.59 C43.05,35.806 42.406,35.33 41.468,35.33 C40.712,35.33 40.054,35.61 39.466,36.184 L38.864,35.162 C39.648,34.42 40.628,34.07 41.706,34.07 C43.204,34.07 44.52,34.7 44.52,36.52 L44.52,41 Z M41.44,40.16 C42.084,40.16 42.714,39.922 43.05,39.46 L43.05,38.438 C42.714,37.976 42.084,37.738 41.44,37.738 C40.614,37.738 39.998,38.214 39.998,38.956 C39.998,39.684 40.614,40.16 41.44,40.16 Z M52.5,41.168 C50.568,41.168 49.308,39.866 49.07,38.186 L47.894,38.186 L47.894,41 L46.424,41 L46.424,34.238 L47.894,34.238 L47.894,36.898 L49.084,36.898 C49.378,35.302 50.624,34.07 52.5,34.07 C54.67,34.07 55.986,35.68 55.986,37.612 C55.986,39.558 54.67,41.168 52.5,41.168 Z M52.5,39.866 C53.76,39.866 54.46,38.816 54.46,37.612 C54.46,36.422 53.76,35.372 52.5,35.372 C51.254,35.372 50.554,36.422 50.554,37.612 C50.554,38.816 51.254,39.866 52.5,39.866 Z M60.172,41 L58.702,41 L58.702,35.526 L56.77,35.526 L56.77,34.238 L62.118,34.238 L62.118,35.526 L60.172,35.526 L60.172,41 Z M73.43,41 L66.668,41 L66.668,39.712 C70.294,36.968 71.708,35.75 71.708,34.406 C71.708,33.426 70.868,32.978 70.014,32.978 C68.922,32.978 68.082,33.426 67.494,34.098 L66.542,33.02 C67.368,32.026 68.684,31.522 69.986,31.522 C71.792,31.522 73.374,32.544 73.374,34.406 C73.374,36.128 71.792,37.668 69.286,39.558 L73.43,39.558 L73.43,41 Z M84.896,41 L83.426,41 L83.426,35.526 L80.318,35.526 L80.318,41 L78.848,41 L78.848,34.238 L84.896,34.238 L84.896,41 Z M89.852,41.168 C87.71,41.168 86.38,39.558 86.38,37.612 C86.38,35.68 87.71,34.07 89.852,34.07 C92.022,34.07 93.338,35.68 93.338,37.612 C93.338,39.558 92.022,41.168 89.852,41.168 Z M89.852,39.866 C91.112,39.866 91.812,38.816 91.812,37.612 C91.812,36.422 91.112,35.372 89.852,35.372 C88.606,35.372 87.906,36.422 87.906,37.612 C87.906,38.816 88.606,39.866 89.852,39.866 Z M102.396,41 L100.926,41 L100.926,36.296 L98.91,41 L98.322,41 L96.292,36.296 L96.292,41 L94.822,41 L94.822,34.238 L96.74,34.238 L98.616,38.606 L100.464,34.238 L102.396,34.238 L102.396,41 Z M107.352,41.168 C105.21,41.168 103.88,39.558 103.88,37.612 C103.88,35.68 105.21,34.07 107.352,34.07 C109.522,34.07 110.838,35.68 110.838,37.612 C110.838,39.558 109.522,41.168 107.352,41.168 Z M107.352,39.866 C108.612,39.866 109.312,38.816 109.312,37.612 C109.312,36.422 108.612,35.372 107.352,35.372 C106.106,35.372 105.406,36.422 105.406,37.612 C105.406,38.816 106.106,39.866 107.352,39.866 Z M120.022,34.238 L121.492,34.238 L121.492,39.712 L122.374,39.712 L122.374,42.722 L120.904,42.722 L120.904,41 L112.322,41 L112.322,34.238 L113.792,34.238 L113.792,39.712 L116.172,39.712 L116.172,34.238 L117.642,34.238 L117.642,39.712 L120.022,39.712 L120.022,34.238 Z M125.048,41 L123.578,41 L123.578,34.238 L125.048,34.238 L125.048,36.898 L128.156,36.898 L128.156,34.238 L129.626,34.238 L129.626,41 L128.156,41 L128.156,38.186 L125.048,38.186 L125.048,41 Z M132.944,41 L131.53,41 L131.53,34.238 L133,34.238 L133,38.788 L136.108,34.238 L137.578,34.238 L137.578,41 L136.108,41 L136.108,36.324 L132.944,41 Z M145.81,41 L143.962,41 L141.89,38.214 L140.952,39.18 L140.952,41 L139.482,41 L139.482,34.238 L140.952,34.238 L140.952,37.5 L143.934,34.238 L145.754,34.238 L142.94,37.304 L145.81,41 Z M152.446,41 L150.976,41 L150.976,40.272 C150.472,40.846 149.688,41.168 148.792,41.168 C147.686,41.168 146.44,40.426 146.44,38.928 C146.44,37.374 147.686,36.73 148.792,36.73 C149.702,36.73 150.486,37.024 150.976,37.598 L150.976,36.59 C150.976,35.806 150.332,35.33 149.394,35.33 C148.638,35.33 147.98,35.61 147.392,36.184 L146.79,35.162 C147.574,34.42 148.554,34.07 149.632,34.07 C151.13,34.07 152.446,34.7 152.446,36.52 L152.446,41 Z M149.366,40.16 C150.01,40.16 150.64,39.922 150.976,39.46 L150.976,38.438 C150.64,37.976 150.01,37.738 149.366,37.738 C148.54,37.738 147.924,38.214 147.924,38.956 C147.924,39.684 148.54,40.16 149.366,40.16 Z M4.032,61.168 C2.366,61.168 0.966,60.496 0.336,59.656 L1.218,58.578 C1.82,59.278 2.982,59.712 3.976,59.712 C5.306,59.712 6.104,59.152 6.104,58.284 C6.104,57.36 5.278,56.968 3.85,56.968 L1.974,56.968 L1.974,55.526 L3.85,55.526 C5.04,55.526 5.95,55.148 5.95,54.294 C5.95,53.426 5.026,52.978 3.878,52.978 C2.926,52.978 1.974,53.342 1.302,54.014 L0.462,52.992 C1.176,52.152 2.478,51.522 4.032,51.522 C6.048,51.522 7.588,52.474 7.588,54.042 C7.588,55.288 6.524,56.016 5.558,56.184 C6.468,56.268 7.728,57.01 7.728,58.452 C7.728,60.034 6.188,61.168 4.032,61.168 Z M14.938,61 L13.468,61 L13.468,60.272 C12.964,60.846 12.18,61.168 11.284,61.168 C10.178,61.168 8.932,60.426 8.932,58.928 C8.932,57.374 10.178,56.73 11.284,56.73 C12.194,56.73 12.978,57.024 13.468,57.598 L13.468,56.59 C13.468,55.806 12.824,55.33 11.886,55.33 C11.13,55.33 10.472,55.61 9.884,56.184 L9.282,55.162 C10.066,54.42 11.046,54.07 12.124,54.07 C13.622,54.07 14.938,54.7 14.938,56.52 L14.938,61 Z M11.858,60.16 C12.502,60.16 13.132,59.922 13.468,59.46 L13.468,58.438 C13.132,57.976 12.502,57.738 11.858,57.738 C11.032,57.738 10.416,58.214 10.416,58.956 C10.416,59.684 11.032,60.16 11.858,60.16 Z M20.482,61.168 C19.628,61.168 18.858,60.79 18.312,60.062 L18.312,63.576 L16.842,63.576 L16.842,54.238 L18.312,54.238 L18.312,55.162 C18.816,54.49 19.6,54.07 20.482,54.07 C22.232,54.07 23.478,55.386 23.478,57.612 C23.478,59.838 22.232,61.168 20.482,61.168 Z M20.048,59.866 C21.21,59.866 21.952,58.928 21.952,57.612 C21.952,56.31 21.21,55.372 20.048,55.372 C19.362,55.372 18.634,55.778 18.312,56.282 L18.312,58.956 C18.634,59.446 19.362,59.866 20.048,59.866 Z M30.534,61 L29.064,61 L29.064,60.272 C28.56,60.846 27.776,61.168 26.88,61.168 C25.774,61.168 24.528,60.426 24.528,58.928 C24.528,57.374 25.774,56.73 26.88,56.73 C27.79,56.73 28.574,57.024 29.064,57.598 L29.064,56.59 C29.064,55.806 28.42,55.33 27.482,55.33 C26.726,55.33 26.068,55.61 25.48,56.184 L24.878,55.162 C25.662,54.42 26.642,54.07 27.72,54.07 C29.218,54.07 30.534,54.7 30.534,56.52 L30.534,61 Z M27.454,60.16 C28.098,60.16 28.728,59.922 29.064,59.46 L29.064,58.438 C28.728,57.976 28.098,57.738 27.454,57.738 C26.628,57.738 26.012,58.214 26.012,58.956 C26.012,59.684 26.628,60.16 27.454,60.16 Z M35.49,59.866 C36.75,59.866 37.45,58.816 37.45,57.584 C37.45,56.422 36.75,55.372 35.49,55.372 C34.244,55.372 33.544,56.422 33.544,57.584 C33.544,58.816 34.244,59.866 35.49,59.866 Z M35.49,61.168 C33.306,61.168 32.032,59.502 32.032,57.304 C32.032,54.014 33.166,52.572 35.434,52.292 C36.876,52.082 37.282,51.914 37.282,51.662 L38.724,51.662 C38.724,52.978 36.96,53.328 35.84,53.454 C34.216,53.636 33.516,54.434 33.334,55.26 C33.88,54.518 34.79,54.07 35.77,54.07 C37.688,54.07 38.962,55.722 38.962,57.598 C38.962,59.502 37.688,61.168 35.49,61.168 Z M43.568,61.168 C41.426,61.168 40.096,59.558 40.096,57.612 C40.096,55.68 41.426,54.07 43.568,54.07 C45.738,54.07 47.054,55.68 47.054,57.612 C47.054,59.558 45.738,61.168 43.568,61.168 Z M43.568,59.866 C44.828,59.866 45.528,58.816 45.528,57.612 C45.528,56.422 44.828,55.372 43.568,55.372 C42.322,55.372 41.622,56.422 41.622,57.612 C41.622,58.816 42.322,59.866 43.568,59.866 Z M51.24,61 L49.77,61 L49.77,55.526 L47.838,55.526 L47.838,54.238 L53.186,54.238 L53.186,55.526 L51.24,55.526 L51.24,61 Z M57.442,61.168 C55.3,61.168 53.97,59.558 53.97,57.612 C53.97,55.68 55.3,54.07 57.442,54.07 C59.612,54.07 60.928,55.68 60.928,57.612 C60.928,59.558 59.612,61.168 57.442,61.168 Z M57.442,59.866 C58.702,59.866 59.402,58.816 59.402,57.612 C59.402,56.422 58.702,55.372 57.442,55.372 C56.196,55.372 55.496,56.422 55.496,57.612 C55.496,58.816 56.196,59.866 57.442,59.866 Z M68.74,61 L66.892,61 L64.82,58.214 L63.882,59.18 L63.882,61 L62.412,61 L62.412,54.238 L63.882,54.238 L63.882,57.5 L66.864,54.238 L68.684,54.238 L65.87,57.304 L68.74,61 Z M76.426,61.168 C74.284,61.168 72.954,59.558 72.954,57.612 C72.954,55.68 74.284,54.07 76.426,54.07 C78.596,54.07 79.912,55.68 79.912,57.612 C79.912,59.558 78.596,61.168 76.426,61.168 Z M76.426,59.866 C77.686,59.866 78.386,58.816 78.386,57.612 C78.386,56.422 77.686,55.372 76.426,55.372 C75.18,55.372 74.48,56.422 74.48,57.612 C74.48,58.816 75.18,59.866 76.426,59.866 Z M87.724,61 L85.876,61 L83.804,58.214 L82.866,59.18 L82.866,61 L81.396,61 L81.396,54.238 L82.866,54.238 L82.866,57.5 L85.848,54.238 L87.668,54.238 L84.854,57.304 L87.724,61 Z M91.812,61.168 C89.67,61.168 88.34,59.558 88.34,57.612 C88.34,55.68 89.67,54.07 91.812,54.07 C93.982,54.07 95.298,55.68 95.298,57.612 C95.298,59.558 93.982,61.168 91.812,61.168 Z M91.812,59.866 C93.072,59.866 93.772,58.816 93.772,57.612 C93.772,56.422 93.072,55.372 91.812,55.372 C90.566,55.372 89.866,56.422 89.866,57.612 C89.866,58.816 90.566,59.866 91.812,59.866 Z M96.082,61.168 L96.082,59.964 C96.656,59.964 96.978,59.306 97.202,57.528 L97.608,54.238 L102.83,54.238 L102.83,61 L101.36,61 L101.36,55.526 L98.91,55.526 L98.672,57.696 C98.406,60.146 97.566,61.168 96.082,61.168 Z M107.786,61.168 C105.644,61.168 104.314,59.558 104.314,57.612 C104.314,55.68 105.644,54.07 107.786,54.07 C109.956,54.07 111.272,55.68 111.272,57.612 C111.272,59.558 109.956,61.168 107.786,61.168 Z M107.786,59.866 C109.046,59.866 109.746,58.816 109.746,57.612 C109.746,56.422 109.046,55.372 107.786,55.372 C106.54,55.372 105.84,56.422 105.84,57.612 C105.84,58.816 106.54,59.866 107.786,59.866 Z M122.864,61 L116.102,61 L116.102,59.712 C119.728,56.968 121.142,55.75 121.142,54.406 C121.142,53.426 120.302,52.978 119.448,52.978 C118.356,52.978 117.516,53.426 116.928,54.098 L115.976,53.02 C116.802,52.026 118.118,51.522 119.42,51.522 C121.226,51.522 122.808,52.544 122.808,54.406 C122.808,56.128 121.226,57.668 118.72,59.558 L122.864,59.558 L122.864,61 Z M127.218,61 L125.426,61 L128.954,53.104 L124.11,53.104 L124.11,51.662 L130.844,51.662 L130.844,52.796 L127.218,61 Z M135.492,61.168 C132.874,61.168 131.754,58.69 131.754,56.338 C131.754,53.986 132.874,51.522 135.492,51.522 C138.11,51.522 139.23,53.986 139.23,56.338 C139.23,58.69 138.11,61.168 135.492,61.168 Z M135.492,59.712 C137.018,59.712 137.564,58.116 137.564,56.338 C137.564,54.56 137.018,52.978 135.492,52.978 C133.966,52.978 133.42,54.56 133.42,56.338 C133.42,58.116 133.966,59.712 135.492,59.712 Z M147.714,61.168 C145.096,61.168 143.976,58.69 143.976,56.338 C143.976,53.986 145.096,51.522 147.714,51.522 C150.332,51.522 151.452,53.986 151.452,56.338 C151.452,58.69 150.332,61.168 147.714,61.168 Z M147.714,59.712 C149.24,59.712 149.786,58.116 149.786,56.338 C149.786,54.56 149.24,52.978 147.714,52.978 C146.188,52.978 145.642,54.56 145.642,56.338 C145.642,58.116 146.188,59.712 147.714,59.712 Z M156.338,61.168 C153.72,61.168 152.6,58.69 152.6,56.338 C152.6,53.986 153.72,51.522 156.338,51.522 C158.956,51.522 160.076,53.986 160.076,56.338 C160.076,58.69 158.956,61.168 156.338,61.168 Z M156.338,59.712 C157.864,59.712 158.41,58.116 158.41,56.338 C158.41,54.56 157.864,52.978 156.338,52.978 C154.812,52.978 154.266,54.56 154.266,56.338 C154.266,58.116 154.812,59.712 156.338,59.712 Z M164.962,61.168 C162.344,61.168 161.224,58.69 161.224,56.338 C161.224,53.986 162.344,51.522 164.962,51.522 C167.58,51.522 168.7,53.986 168.7,56.338 C168.7,58.69 167.58,61.168 164.962,61.168 Z M164.962,59.712 C166.488,59.712 167.034,58.116 167.034,56.338 C167.034,54.56 166.488,52.978 164.962,52.978 C163.436,52.978 162.89,54.56 162.89,56.338 C162.89,58.116 163.436,59.712 164.962,59.712 Z M173.398423,55.6219512 L174.408585,55.6219512 L174.408585,51.0833333 L177.012244,51.0833333 C177.495986,51.0833333 177.937039,51.1378721 178.335415,51.2469512 C178.733791,51.3560304 179.075251,51.5220179 179.359805,51.7449187 C179.644359,51.9678195 179.867257,52.2499983 180.028504,52.5914634 C180.189751,52.9329285 180.270374,53.3407835 180.270374,53.8150407 C180.270374,54.2892978 180.185009,54.7018953 180.014276,55.0528455 C179.843544,55.4037958 179.611161,55.6954595 179.317122,55.9278455 C179.023083,56.1602315 178.67688,56.3333328 178.278504,56.4471545 C177.880128,56.5609762 177.448561,56.6178862 176.983789,56.6178862 L175.546797,56.6178862 L175.546797,58.054878 L177.837447,58.054878 L177.837447,58.9939024 L175.546797,58.9939024 L175.546797,61 L174.408585,61 L174.408585,58.9939024 L173.398423,58.9939024 L173.398423,58.054878 L174.408585,58.054878 L174.408585,56.6178862 L173.398423,56.6178862 L173.398423,55.6219512 Z M177.012244,55.6219512 C177.666719,55.6219512 178.18128,55.4725625 178.555943,55.1737805 C178.930606,54.8749985 179.117935,54.4220898 179.117935,53.8150407 C179.117935,53.2079915 178.930606,52.766939 178.555943,52.4918699 C178.18128,52.2168008 177.666719,52.0792683 177.012244,52.0792683 L175.546797,52.0792683 L175.546797,55.6219512 L177.012244,55.6219512 Z M185.472569,61.28 L184.380569,61.28 L187.698569,51.382 L188.790569,51.382 L185.472569,61.28 Z M200.914569,61 L199.444569,61 L199.444569,56.296 L197.428569,61 L196.840569,61 L194.810569,56.296 L194.810569,61 L193.340569,61 L193.340569,54.238 L195.258569,54.238 L197.134569,58.606 L198.982569,54.238 L200.914569,54.238 L200.914569,61 Z M205.940569,61.168 C203.910569,61.168 202.398569,59.754 202.398569,57.612 C202.398569,55.652 203.826569,54.07 205.828569,54.07 C207.858569,54.07 209.160569,55.624 209.160569,57.752 L209.160569,58.102 L203.938569,58.102 C204.050569,59.124 204.820569,59.964 206.094569,59.964 C206.752569,59.964 207.536569,59.698 208.012569,59.222 L208.684569,60.188 C208.012569,60.832 207.018569,61.168 205.940569,61.168 Z M207.732569,57.066 C207.704569,56.268 207.158569,55.274 205.828569,55.274 C204.568569,55.274 203.994569,56.24 203.924569,57.066 L207.732569,57.066 Z M213.696569,61.168 C211.638569,61.168 210.196569,59.67 210.196569,57.612 C210.196569,55.568 211.638569,54.07 213.696569,54.07 C215.012569,54.07 215.810569,54.63 216.286569,55.274 L215.320569,56.17 C214.942569,55.638 214.424569,55.372 213.766569,55.372 C212.534569,55.372 211.722569,56.296 211.722569,57.612 C211.722569,58.928 212.534569,59.866 213.766569,59.866 C214.424569,59.866 214.942569,59.586 215.320569,59.068 L216.286569,59.964 C215.810569,60.608 215.012569,61.168 213.696569,61.168 Z" id="Работают-2-помощника" fill="#FFFFFF"></path>
                </g>
            </g>
        </g>
    </g>
</svg>